<svg width="338" height="340" viewBox="0 0 338 340" fill="none" xmlns="http://www.w3.org/2000/svg">
<path d="M338 169.36C337.999 175.145 337.705 180.926 337.12 186.681C336.846 189.518 336.475 192.354 336.049 195.149C327.147 242.059 300.222 283.592 261.07 310.81C258.817 312.352 256.522 313.853 254.2 315.284C251.878 316.716 249.474 318.3 247.07 319.691C244.665 321.082 242.206 322.444 239.747 323.642C190.984 349.734 127.78 342.85 82.755 315.45C80.378 314.073 78.0421 312.613 75.7476 311.154C73.453 309.694 71.2001 308.166 68.9743 306.596C66.7484 305.026 64.8517 303.636 62.9007 302.066C25.2398 272.394 2.44548 223.761 0.123444 175.9C0.0410048 173.738 0 171.549 0 169.36C0 124.443 17.8053 81.3655 49.499 49.6043C81.1926 17.8432 124.178 0 169 0C191.193 0 213.169 4.38059 233.673 12.8917C254.177 21.4028 272.808 33.8778 288.501 49.6043C304.194 65.3308 316.643 84.0012 325.136 104.549C333.629 125.097 338 147.119 338 169.36Z" fill="#6F95F6"/>
<path opacity="0.9" d="M10.0574 111.708C10.0574 111.708 37.0976 147.329 70.0732 141.822C103.049 136.314 96.4401 142.978 105.247 142.4C114.055 141.821 105.247 161.402 105.247 161.402C105.247 161.402 27.1498 169.222 41.7415 200.96C45.3826 208.891 48.9003 216.216 52.349 222.798C53.036 224.11 53.723 225.391 54.4099 226.639C55.6465 228.567 56.8735 230.476 58.0918 232.367C59.3146 234.239 60.5515 236.098 61.8018 237.874C68.6717 246.425 76.9156 254.687 87.9075 260.195C89.4559 261.226 90.5334 262.83 90.903 264.656C91.5119 266.738 91.6481 268.93 91.3016 271.072C93.4037 278.094 89.2815 297.371 100.273 293.241C112.639 287.733 118.135 273.963 125.459 262.535C126.475 260.754 127.497 258.877 128.523 256.904C134.649 244.942 139.68 232.449 143.554 219.576C161.416 161.746 121.57 170.007 124.318 156.238C127.066 142.469 125.692 145.223 131.188 141.092C150.424 130.077 162.79 108.046 157.294 90.1465C151.798 72.2467 157.294 24.0549 153.172 11.6627C149.05 -0.72946 146.041 1.51474 146.041 1.51474C113.354 0.688595 29.5405 40.6186 10.0574 111.708Z" fill="#F2F2F2"/>
<path d="M278.781 40.6053C278.781 40.6053 262.431 48.1918 250.065 50.9456C237.699 53.6994 203.349 67.4685 232.203 92.2529C261.057 117.037 243.195 126.676 243.195 126.676C243.195 126.676 179.923 101.726 196.479 140.445C204.723 159.721 204.421 148.21 230.829 165.229C248.141 176.382 248.76 218.763 256.729 229.132C257.434 230.179 258.477 230.952 259.683 231.321C263.805 231.321 265.179 228.567 267.171 226.033C268.442 223.874 269.562 221.628 270.524 219.314C276.02 206.674 280.979 188.113 287.849 183.817C298.841 176.933 301.589 132.872 276.858 124.61C252.126 116.349 272.736 105.333 272.736 105.333C272.736 105.333 328.094 128.452 332.985 128.259C331.817 99.8257 292.26 42.9048 278.781 40.6053Z" fill="#F2F2F2"/>
</svg>
