<svg width="110" height="126" viewBox="0 0 110 126" fill="none" xmlns="http://www.w3.org/2000/svg">
<g clip-path="url(#clip0_332_275)">
<path d="M22.1501 94.4338C21.9557 95.806 21.4329 97.1103 20.6254 98.2362C19.8179 99.3621 18.7497 100.276 17.5114 100.902C5.06896 103.677 1.33069 88.5947 6.60452 82.3256C12.8001 78.7158 22.6316 81.2979 22.8003 90.5073C22.8085 91.844 22.5884 93.1719 22.1501 94.4338Z" fill="#6F95F6"/>
<path d="M98.1011 39.544C93.4965 45.1227 83.7678 51.4302 76.5478 43.4909C71.12 36.4253 74.5504 24.8377 82.5381 22.1015C92.318 20.2389 99.4864 23.7332 99.8579 35.0745C99.5825 36.6687 98.9851 38.1894 98.1011 39.544Z" fill="#6F95F6"/>
<path d="M69.7652 112.008C64.0562 119.17 53.3033 113.928 56.7849 106.786C59.4475 105.874 60.2152 95.1981 70.0236 106.609C70.3528 107.48 70.4998 108.408 70.4553 109.337C70.4109 110.266 70.1761 111.175 69.7652 112.008Z" fill="#6F95F6"/>
<path d="M68.4329 73.7896C68.1478 74.3788 67.7473 74.9046 67.255 75.3363C66.7626 75.7681 66.1884 76.0972 65.5661 76.3038C58.2178 76.5451 60.8291 71.1881 59.4722 69.4217C59.7571 68.8345 60.1552 68.3092 60.644 67.8763C61.1329 67.4434 61.7028 67.1114 62.321 66.8987C62.9398 66.6876 63.5945 66.6001 64.2479 66.6418C64.9012 66.6834 65.5403 66.8535 66.1286 67.1415C67.3169 67.7207 68.2274 68.7465 68.6595 69.9933C69.0917 71.24 69.0101 72.6056 68.4329 73.7896Z" fill="#6F95F6"/>
</g>
<defs>
<clipPath id="clip0_332_275">
<rect width="70" height="106" fill="white" transform="translate(46.4456) rotate(25.9869)"/>
</clipPath>
</defs>
</svg>
