<svg width="252" height="346" viewBox="0 0 252 346" fill="none" xmlns="http://www.w3.org/2000/svg">
<path d="M167.183 46.3266V47.4962C168.117 58.4493 162.53 69.6758 154.179 77.6471L152.661 78.9918C152.174 79.3815 151.707 79.752 151.201 80.1223C145.731 82.7339 140.144 86.4759 134.323 86.4174C133.7 86.4174 133.051 86.4174 132.376 86.4174C131.701 86.4174 131.02 86.4174 130.332 86.4174C129.65 86.4174 128.989 86.2998 128.385 86.2024C121.494 84.6042 115.887 82.7339 110.709 77.6471C110.222 77.1988 109.736 76.7116 109.249 76.2244C101.697 68.1199 97.5625 57.4091 97.7055 46.3266C97.5704 39.808 98.9565 33.3476 101.755 27.4602C104.553 21.5729 108.686 16.4212 113.824 12.4148C114.349 12.025 114.894 11.635 115.459 11.2842C123.343 6.15843 130.819 2.43575 140.416 7.23021C141.058 7.38612 141.681 7.5811 142.363 7.79548C144.326 8.47643 146.222 9.33825 148.027 10.3687C148.611 10.7195 149.215 11.0895 149.78 11.4793C156.982 13.6232 160.72 21.1071 163.407 27.9285C163.718 28.6301 164.009 29.3319 164.282 30.0335C166.238 35.2409 167.221 40.7634 167.183 46.3266Z" fill="#F5E2CA"/>
<path d="M98.1719 60.3205C101.774 60.3205 104.693 56.1408 104.693 50.985C104.693 45.8291 101.774 41.6494 98.1719 41.6494C94.5703 41.6494 91.6505 45.8291 91.6505 50.985C91.6505 56.1408 94.5703 60.3205 98.1719 60.3205Z" fill="#F5E2CA"/>
<path d="M165.333 60.3205C168.935 60.3205 171.854 56.1408 171.854 50.985C171.854 45.8291 168.935 41.6494 165.333 41.6494C161.731 41.6494 158.812 45.8291 158.812 50.985C158.812 56.1408 161.731 60.3205 165.333 60.3205Z" fill="#F5E2CA"/>
<path d="M117.347 98.1694C117.347 98.1694 68.6795 92.3225 56.9993 109.863C51.18 116.783 45.9078 124.146 41.2308 131.886L40.5693 132.959L39.518 134.908C39.1676 135.57 38.8175 136.233 38.4477 136.857C25.8525 162.427 10.2786 183.866 3.05636 211.483C2.86169 212.223 2.68596 212.964 2.51076 213.724C-0.482514 225.471 -0.781426 237.744 1.63531 249.624C1.79105 250.13 1.94675 250.637 2.08302 251.124C3.11476 254.418 4.22469 257.459 5.31484 260.207C5.50951 260.674 5.68479 261.122 5.87946 261.57C6.3856 261.824 6.38476 263.773 6.96877 264.105C7.14397 264.514 7.33917 264.923 7.51438 265.312C9.194 269.156 11.1457 272.876 13.3545 276.442L17.7735 273.518L18.9218 272.738C21.8807 271.569 25.7738 267.671 29.2778 265.898L30.4461 265.137L34.8651 262.214C32.0619 249.623 29.6676 220.896 29.6676 220.896C29.6676 220.896 57.408 182.658 68.6015 162.427L72.4949 246.233L181.51 244.284L187.35 158.529C190.192 164.766 192.982 170.742 195.72 176.459C195.915 176.83 196.09 177.219 196.285 177.59C196.558 178.252 196.831 178.935 197.123 179.539C201.016 187.705 204.909 193.552 207.926 200.977L208.998 202.926C212.891 209.845 216.881 216.569 220.444 222.767V224.268C220.794 241.341 220.833 243.758 220.444 263.695L237.964 285.134C238.801 281.236 239.736 277.493 240.728 273.673L241.079 272.407C241.858 261.746 247.697 253.95 248.32 245.413C248.515 244.634 248.691 243.854 248.866 243.094C251.221 233.174 252.584 224.229 251.591 217.095C251.124 214.874 250.637 212.711 250.17 210.586C250.17 210.177 249.995 209.747 249.897 209.319C248.106 201.25 246.491 192.012 244.057 183.301C243.862 182.638 243.668 181.956 243.454 181.352C238.022 166.306 234.129 150.714 225.933 134.167C225.583 133.544 225.214 132.939 224.844 132.334C218.673 122.161 211.665 115.807 202.983 111.734C185.462 104.581 172.146 101.482 159.123 100.45L157.059 100.293C152.368 100.04 146.528 100.04 143.063 99.9233L141.369 99.8062L117.347 98.1694Z" fill="#6F95F6"/>
<path d="M130.857 115.71C128.581 115.795 126.327 115.234 124.355 114.092C123.721 113.776 123.114 113.404 122.544 112.982C120.783 111.694 119.35 110.007 118.362 108.06C117.374 106.113 116.86 103.959 116.86 101.775L117.62 95.4212C117.62 95.0119 117.619 94.5837 117.756 94.1355C119.294 88.2886 119.293 80.4921 120.15 74.0215L120.403 71.9165L120.754 68.877H140.707C140.707 69.8514 140.707 71.3132 140.824 72.7749C140.824 73.2621 140.824 73.7298 140.98 74.1976C144.601 82.5392 142.654 92.2837 144.465 100.684C144.465 101.385 144.601 101.794 144.601 101.794C144.601 102.545 144.543 103.294 144.426 104.035C143.663 106.739 142.243 109.211 140.293 111.231C138.343 113.251 135.924 114.757 133.251 115.613C132.457 115.704 131.656 115.736 130.857 115.71Z" fill="#F5E2CA"/>
<path d="M73.2544 99.8061L74.0909 107.193C74.0909 107.953 74.2663 108.752 74.3637 109.59C76.6595 123.434 78.2388 137.388 79.0945 151.396L79.2504 152.682L80.3597 162.427L69.8667 188.056L72.5729 219.005L183.535 228.75L186.611 188.738L186.708 187.334L186.824 185.99L187.428 178.077L179.641 162.485L182.873 138.279C182.873 137.714 183.009 137.169 183.087 136.603C183.535 135.2 183.535 131.301 183.982 129.859L184.196 128.183L187.428 104.016L171.854 102.067L171.68 103.763C171.678 105.733 171.442 107.696 170.978 109.61C170.842 110.292 170.687 110.993 170.511 111.695C169.908 117.639 169.908 125.435 168.292 131.185L168.117 133.134C167.883 136.486 167.786 139.858 167.63 142.742C167.63 143.483 167.475 144.184 167.416 144.827L166.988 148.92H155.424H153.01C144.6 148.726 136.814 148.726 129.65 148.92H121.708C113.376 148.823 103.643 148.823 96.4009 148.92H90.0932L89.3926 139.429L89.2947 138.104C88.4125 131.357 87.945 124.561 87.8936 117.756C87.8936 117.093 87.893 116.45 87.7567 115.807C87.6205 113.858 87.4457 111.909 87.2121 109.96L87.0952 108.518L86.1998 96.3174L73.2544 99.8061Z" fill="#F2F2F2"/>
<path d="M167.961 200.938C163.192 197.254 163.192 191.193 158.54 187.295C157.63 186.408 156.646 185.6 155.6 184.879C147.54 179.208 137.982 184.449 128.813 186.457C127.684 186.652 126.594 186.808 125.504 186.925C124.065 187.06 122.615 186.935 121.222 186.555C111.138 180.883 103.234 183.378 92.8385 184.976C91.9186 185.104 90.9815 185.033 90.0915 184.768C89.2014 184.502 88.3785 184.048 87.679 183.436C85.8292 181.9 83.5938 180.903 81.2163 180.552C76.369 179.11 73.9357 177.258 69.0884 178.428L66.675 179.343C65.8769 179.675 65.0973 180.026 64.3186 180.396C57.0769 182.735 58.0897 190.647 57.0774 191.193C49.8357 192.402 43.3139 194.467 38.7197 203.744C38.2136 204.784 37.7469 205.837 37.3187 206.902C28.1302 221.383 30.5435 228.613 32.315 240.619C32.5292 241.944 32.783 243.269 33.0555 244.517C35.8714 257.442 43.0176 269.014 53.3076 277.313C63.5977 285.612 76.4121 290.139 89.6257 290.142C101.764 290.158 113.597 286.338 123.44 279.228C128.161 287.177 134.919 293.718 143.013 298.173C151.108 302.628 160.246 304.834 169.479 304.564C180.014 304.279 190.207 300.762 198.68 294.488C199.711 293.728 200.627 292.929 201.678 292.11C202.729 291.292 203.235 290.824 203.975 290.161C204.715 289.499 205.455 288.817 206.156 288.096C206.857 287.375 208.102 286.147 208.92 285.134C209.737 284.12 210.633 283.087 211.411 282.015C218.711 271.998 223.539 259.914 220.171 247.577C219.996 246.661 219.821 245.764 219.607 244.868C219.393 243.971 219.14 243.055 218.848 242.139C218.556 241.223 218.419 240.19 218.147 239.177C217.874 238.164 217.602 237.228 217.271 236.254C216.843 234.967 216.376 233.7 215.85 232.473C213.806 229.471 211.742 226.294 209.503 223.176C208.764 222.143 208.025 221.11 207.246 220.097C202.819 213.758 196.7 208.793 189.589 205.771C184.878 203.277 172.809 204.485 167.961 200.938Z" fill="#443826"/>
<path d="M222.255 345.688C202.599 344.48 182.886 344.48 163.23 345.688H117.347C88.4774 345.688 60.737 346.896 31.6922 343.953L31.5173 339.822C30.4856 317.214 29.3953 294.996 28.4024 271.862C28.4024 271.063 28.4019 270.263 28.3045 269.444C27.8763 265.702 27.8766 259.856 27.643 256.484L27.546 254.399L27.0593 243.894C27.0593 242.568 26.9614 241.848 26.9614 241.848C30.035 241.915 33.1097 241.797 36.1693 241.497L39.3041 241.4C41.6596 241.244 44.0735 241.126 46.5263 241.009L50.2248 240.873C73.994 240.639 99.3207 239.431 123.382 238.32L126.282 238.203L224.746 234.597L224.551 243.172C224.551 244.244 224.551 245.414 224.551 246.642C224.804 258.745 224.805 271.979 224.805 284.238C224.805 285.466 224.805 286.693 224.805 287.921C224.837 291.678 224.57 295.432 224.007 299.147C224.007 300.57 223.909 301.973 223.851 303.395C223.52 311.854 223.091 320.234 222.721 328.323V330.662C222.391 334.813 222.391 339.647 222.43 343.817C222.274 345.104 222.255 345.688 222.255 345.688Z" fill="#5EB88A"/>
<path d="M69.4583 296.847V290.162C69.4583 281.567 74.7922 276.13 83.0852 276.13C91.3781 276.13 96.0505 280.495 96.5761 289.304H86.8427C86.356 286.323 85.6358 285.407 83.0662 285.407C80.4965 285.407 79.1728 287.064 79.1728 290.182V297.276C79.1728 300.395 80.4965 302.032 83.0662 302.032C85.9473 302.032 86.5312 300.881 86.8427 297.666H96.5761C96.2841 302.655 94.629 306.203 91.7284 308.366C91.403 308.605 91.0651 308.826 90.7161 309.028C89.6741 309.511 88.5846 309.883 87.4653 310.139L86.375 310.354C82.9758 310.9 79.4947 310.578 76.2527 309.418C75.892 309.243 75.541 309.047 75.2014 308.833C73.2889 307.505 71.754 305.701 70.7472 303.6C69.7405 301.499 69.2961 299.172 69.4583 296.847Z" fill="#F2F2F2"/>
<path d="M116.782 304.546H110.066L108.996 310.256H99.0672L106.056 276.383H120.793L127.781 310.256H117.853L116.782 304.546ZM115.186 295.716L113.454 286.089L111.663 295.716H115.186Z" fill="#F2F2F2"/>
<path d="M141.272 283.321V288.175H151.336V296.964H141.272V307.801H131.538V273.967H132.473L133.719 274.064H134.984C138.765 274.383 142.561 274.474 146.353 274.337H147.599C148.825 274.337 149.993 274.181 151.044 274.045L152.154 273.947H153.088V283.321H141.408H141.272Z" fill="#F2F2F2"/>
<path d="M166.111 286.635V291.585H176.177V300.413H166.111V305.052H177.792V313.881H171.951C167.051 314.369 162.115 314.369 157.215 313.881H156.281V277.318H163.094C167.336 276.928 171.603 276.928 175.845 277.318H177.792V286.635H166.111Z" fill="#F2F2F2"/>
<path d="M106.562 8.02994C106.562 8.02994 99.1062 11.7723 98.1718 19.5486C95.3685 22.9788 82.3064 13.7012 82.3064 24.8493C82.3064 35.9974 91.9036 33.1132 94.4343 38.2779C95.6802 40.8116 94.4341 41.4352 99.1062 41.6496C104.693 41.6496 108.431 37.9076 108.431 30.4431C108.431 22.9785 116.822 30.7349 119.158 22.179C121.494 13.623 155.074 50.985 167.183 46.3269C170.628 45.0016 171.894 39.2723 170.628 32.334C170.511 31.6323 170.356 30.9301 170.181 30.209C169.436 25.2578 167.526 20.5547 164.609 16.4882C161.691 12.4216 157.849 9.10833 153.4 6.82136L152.174 6.08098C151.337 5.61323 150.46 5.16462 149.545 4.75534L148.397 4.2681C143.855 1.58609 138.698 0.12334 133.425 0.0209114C128.153 -0.0815176 122.944 1.18022 118.301 3.68379L117.055 4.05398C113.473 5.14247 109.967 6.47084 106.562 8.02994Z" fill="#443826"/>
<path d="M21.9588 252.137C18.0654 257.984 14.1721 261.882 13.2766 270.262C13.1793 270.73 13.0817 271.198 13.0038 271.685C12.0367 276.605 12.8436 281.708 15.2813 286.088C21.9585 296.963 38.097 293.358 38.097 293.358C41.4259 293.065 49.2126 287.219 41.4258 281.372C47.2659 283.321 53.106 279.423 49.2126 273.693C56.9994 271.627 55.0527 263.831 51.1593 261.882C55.0527 261.882 55.0527 254.086 49.2126 252.137C43.7813 246.7 29.9796 244.634 23.3609 250.618C22.8347 251.066 22.3638 251.576 21.9588 252.137Z" fill="#F5E2CA"/>
<path d="M230.256 250.579C230.256 250.579 218.965 242.217 206.895 252.8C201.055 257.244 204.949 261.687 210.789 261.687C210.789 261.687 204.949 261.688 204.949 266.131C204.949 270.575 210.789 270.595 210.789 270.595C210.789 270.595 204.949 272.816 206.895 277.708C208.842 281.704 212.365 281.255 213.397 280.456C213.397 280.456 209.932 283.438 211.353 287.024C212.755 292.871 227.336 294.703 231.716 291.546C236.835 288.837 241.352 281.392 242.131 273.206C242.209 272.455 242.248 271.7 242.248 270.945C241.996 267.112 240.909 263.381 239.062 260.013C237.216 256.646 234.655 253.725 231.56 251.455C231.132 251.085 230.703 250.832 230.256 250.579Z" fill="#F5E2CA"/>
</svg>
