<svg width="119" height="105" viewBox="0 0 119 105" fill="none" xmlns="http://www.w3.org/2000/svg">
<g clip-path="url(#clip0_332_251)">
<path d="M2.75 63.7899C2.44 64.5599 2.16991 65.35 1.90991 66.16C0.710232 70.2654 0.0679017 74.5133 0 78.7899C0 79.6199 0.0799121 80.4501 0.159912 81.2801C1.33991 91.4101 6.05985 103.07 17.0999 104.13C20.5676 104.478 24.0585 103.752 27.0999 102.05C28.1021 101.515 29.0617 100.903 29.97 100.22C34.0952 96.9845 37.4664 92.8897 39.8499 88.2201C40.2199 87.5201 40.5799 86.8202 40.9199 86.0902C41.9786 83.8419 42.8709 81.5188 43.5898 79.14C44.0498 77.65 44.44 76.1402 44.77 74.5502C45.1 72.9602 45.37 71.43 45.55 69.89C45.73 68.35 45.8599 66.8299 45.9099 65.3299C45.9599 63.8299 45.9099 62.33 45.9099 60.93C45.3999 51.05 41.91 39.24 31.54 36.16C16.81 31.8 7.00997 46.6 4.46997 59.39C4.02997 60.62 3.58991 61.8301 3.15991 62.9901L2.75 63.7899Z" fill="#443826"/>
<path d="M17.1399 90.4902C20.1999 84.1002 20.32 77.29 22.23 71.04C22.51 69.74 22.8099 68.4301 23.1199 67.1201C24.9899 59.2401 27.18 51.2399 25.54 43.1699C25.2 43.3299 24.6798 43.9999 24.3298 44.1699C24.3298 52.0799 22.8698 59.49 21.3298 67.04C21.0598 68.3 20.79 69.5601 20.53 70.8301C19.35 76.9301 17.5299 82.8299 16.4199 89.4399C16.3814 89.674 16.4349 89.9142 16.5691 90.1099C16.7032 90.3055 16.9076 90.4418 17.1399 90.4902Z" fill="#F2F2F2"/>
<path d="M75.51 15.89C74.7487 16.3598 74.0202 16.8811 73.3299 17.4501C72.6301 18.0159 71.9624 18.6202 71.3299 19.2602C61.0999 28.2002 54.6 48.0801 67.97 57.6801C76.91 63.0001 87.6 60.2899 95.2 54.4599C96.458 53.8455 97.6769 53.1543 98.8499 52.39C99.9916 51.6358 101.09 50.8176 102.14 49.9399C102.83 49.3599 103.49 48.75 104.14 48.12C109.529 42.4294 113.773 35.7545 116.64 28.4599C117.05 27.2487 117.384 26.0132 117.64 24.7602C118.754 19.6217 118.024 14.255 115.58 9.60001C115.191 8.74979 114.726 7.93631 114.19 7.16983C113.634 6.3696 113.005 5.62304 112.31 4.93985C111.292 3.91933 110.153 3.02646 108.92 2.28019C107.796 1.59163 106.59 1.04723 105.33 0.660069C92.6499 -2.82993 84.3301 8.30999 76.2801 15.33L75.51 15.89Z" fill="#443826"/>
<path d="M73.8298 44.3101C80.5498 40.4901 84.8898 32.83 90.0698 27.77C90.8298 26.9 91.5998 26.0299 92.3598 25.1499C93.1198 24.2699 93.8899 23.4003 94.6399 22.5103C97.7049 19.0003 100.434 15.21 102.79 11.1899C103.172 10.2545 103.506 9.29999 103.79 8.33008C103.41 8.33008 102.63 8.66014 102.26 8.64014C101.79 9.51014 101.31 10.3602 100.81 11.1802C98.4835 14.9484 95.844 18.5144 92.9199 21.8403C92.1999 22.6803 91.48 23.5103 90.75 24.3403L88.5698 26.8301C83.5698 31.8301 78.6299 38.2001 73.6799 43.0801C73.6069 43.1698 73.5528 43.2736 73.5207 43.3848C73.4887 43.4959 73.4794 43.6122 73.4934 43.7271C73.5074 43.8419 73.5444 43.9525 73.6023 44.0527C73.6601 44.1529 73.7374 44.2405 73.8298 44.3101Z" fill="#F2F2F2"/>
</g>
<defs>
<clipPath id="clip0_332_251">
<rect width="118.13" height="104.23" fill="white"/>
</clipPath>
</defs>
</svg>
