<svg width="468" height="356" viewBox="0 0 468 356" fill="none" xmlns="http://www.w3.org/2000/svg">
<g clip-path="url(#clip0_321_569)">
<path d="M443.4 170.92C443.4 170.92 448.29 120.18 459 131.71C469.71 143.24 461.81 198.96 461.81 198.96L455.81 191.82C455.81 191.82 461.38 147.7 456.42 144.6C451.46 141.5 449.42 176.75 449.42 176.75L443.4 170.92Z" fill="#5EB88A"/>
<path d="M7.98999 243.88C8.69576 245.028 9.49148 246.118 10.3699 247.14C11.3955 248.365 12.4836 249.537 13.6299 250.65C28.4799 259.74 43.48 269.74 60.55 272.9L63.0801 273.39C72.8042 275.119 82.654 276.045 92.53 276.16C126.59 275.51 144.61 270.96 157.07 263.35C158.07 262.76 158.95 262.16 159.84 261.53C165.48 254.74 182.48 245.74 176.48 238.74C171.08 233.34 163.48 232.98 155.83 233.6C154.55 233.7 153.26 233.83 151.98 233.97C118.48 234.74 83.48 236.74 49.53 240.1C48.2 240.23 46.87 240.38 45.53 240.53L41.5901 240.83C35.0301 241.34 28.44 241.88 21.75 242.51C20.32 242.64 18.98 242.77 17.75 242.9C11.59 243.5 7.98999 243.88 7.98999 243.88Z" fill="#6F95F6"/>
<path d="M186.48 225.99C186.482 226.974 186.409 227.957 186.26 228.93C186.119 229.904 185.908 230.866 185.63 231.81C181.48 244.74 166.48 251.74 154.73 258.2C153.243 258.8 151.707 259.38 150.12 259.94C134.31 265.55 114.5 268.88 92.9799 268.88C61.5499 268.88 33.74 261.77 16.79 250.88C16.18 250.49 15.59 250.09 15.01 249.73C9.47998 247.73 5.47999 242.73 2.26999 236.48C2.00999 235.99 1.77002 235.48 1.55002 235.02C-4.51998 219.76 8.48 206.76 19.28 198.88C20.5467 198.087 21.8533 197.347 23.1999 196.66C27.999 194.227 33.0225 192.264 38.1999 190.8C39.4999 190.42 40.8199 190.07 42.1999 189.73C51.5599 186.95 61.1999 185.63 70.7199 184.73C72.0533 184.597 73.4134 184.477 74.8 184.37C92.57 181.78 111.57 179.78 128.26 186.29C129.47 186.51 130.66 186.75 131.84 187C133.02 187.25 134.45 187.56 135.73 187.86C149.57 190.78 162.57 195.78 173.19 205.33C174.31 206.33 175.38 207.38 176.42 208.47C180.55 212.732 183.898 217.688 186.31 223.11C186.449 224.063 186.506 225.027 186.48 225.99Z" fill="#443826"/>
<path d="M157.11 158.38C157.095 160.024 156.647 161.635 155.81 163.05C154.819 164.708 153.547 166.18 152.05 167.4C151.183 168.12 150.275 168.787 149.33 169.4C126.48 181.74 100.48 179.74 75.3899 180.27L71.3201 179.75C57.8701 177.94 44.9301 174.89 33.5601 167.75C32.7236 167.075 31.938 166.34 31.21 165.55C29.2978 163.641 28.1766 161.08 28.0701 158.38C28.0701 153.58 32.1301 149.12 39.0701 145.38C40.2301 144.76 41.47 144.17 42.78 143.6C57.0806 138.537 72.0465 135.599 87.2 134.88C88.72 134.82 90.25 134.77 91.77 134.76C113.46 135.7 139.46 137.7 155.67 153.66C156.58 155.068 157.079 156.703 157.11 158.38Z" fill="#6F95F6"/>
<path d="M28.07 158.38C27.6561 162.155 27.5256 165.955 27.6799 169.75C27.7299 171.12 27.8099 172.58 27.9299 174.11C28.9299 187.37 32.1798 201.2 39.8698 211.4C40.7345 212.536 41.6557 213.627 42.6298 214.67C43.7698 215.62 44.9498 216.54 46.1398 217.42C47.3298 218.3 48.56 219.13 49.8 219.93C76.48 237.74 114.48 236.74 139.94 215.79C140.7 215.01 141.43 214.22 142.12 213.4C158.23 194.61 157.74 167.61 157.27 160.28C157.19 159.06 157.12 158.38 157.12 158.38C152.48 159.74 147.48 157.74 142.23 158.04L137.91 157.88C135.04 157.77 132.17 157.68 129.32 157.61C127.89 157.61 126.46 157.55 125.04 157.53C123.62 157.51 122.19 157.53 120.76 157.53C119.33 157.53 117.92 157.53 116.5 157.53C110.82 157.6 105.16 157.85 99.5 158.4H96.05C77.48 156.76 57.4799 158.76 38.9499 158.4H28.07V158.38Z" fill="#6F95F6"/>
<path d="M156.48 169.68C160.48 166.74 167.48 167.74 166.48 173.74C164.48 184.74 157.48 192.74 148.23 197.4C147.01 198.18 145.97 198.89 145.1 199.56C135.54 206.93 146.01 208.24 146.01 208.24C146.01 208.24 146.87 207.9 148.3 207.24C150.6 205.87 152.88 204.53 155.11 203.15C156.23 202.46 157.33 201.76 158.41 201.04C170.48 192.74 180.48 175.74 176.22 161.74C175.479 160.718 174.501 159.891 173.37 159.33C171.002 158.266 168.38 157.898 165.81 158.27C164.462 158.417 163.126 158.654 161.81 158.98C156.5 159.73 148.5 162.73 151.81 169.68C152.62 170.23 154.07 170.34 156.48 169.68Z" fill="#6F95F6"/>
<path d="M144.1 162.61C127.48 181.74 95.4801 176.74 72.7601 177.06C71.3601 176.92 69.9702 176.77 68.5802 176.59C58.8602 175.32 49.4801 172.74 42.4801 165.74C38.4801 162.41 41.1501 158.63 45.2401 155.88C46.2824 155.191 47.3718 154.576 48.5001 154.04C61.7131 149.783 75.464 147.426 89.3402 147.04C90.8802 147.04 92.4301 146.98 93.9801 147.04C110.48 146.82 124.48 151.82 139.49 156.27C140.662 157.107 141.766 158.037 142.79 159.05C143.6 160.064 144.06 161.313 144.1 162.61Z" fill="#443826"/>
<path d="M186.32 63.7897C186.02 64.5597 185.74 65.36 185.49 66.17C184.291 70.2725 183.645 74.5163 183.57 78.7897C183.57 79.6297 183.65 80.4599 183.74 81.2799C184.91 91.4099 189.63 103.08 200.68 104.13C204.147 104.486 207.639 103.763 210.68 102.06C211.681 101.517 212.644 100.906 213.56 100.23C217.681 96.9932 221.049 92.8986 223.43 88.2301C223.8 87.5401 224.16 86.8297 224.5 86.0997C225.559 83.8506 226.455 81.5281 227.18 79.15C227.63 77.66 228.02 76.1499 228.36 74.5699C228.7 72.9899 228.95 71.44 229.14 69.9C229.33 68.36 229.45 66.8399 229.5 65.3399C229.55 63.8399 229.5 62.34 229.5 60.94C228.98 51.06 225.5 39.25 215.13 36.17C200.39 31.81 190.59 46.61 188.05 59.4C187.62 60.63 187.17 61.8496 186.74 62.9996L186.32 63.7897Z" fill="#443826"/>
<path d="M200.71 90.4998C203.77 84.0998 203.9 77.2898 205.81 71.0398C206.08 69.7398 206.39 68.4299 206.7 67.1199C208.57 59.2499 210.76 51.2402 209.12 43.1702C208.77 43.3302 208.25 44.0102 207.91 44.1702C207.91 52.0802 206.45 59.4998 204.91 67.0398C204.64 68.2998 204.38 69.5598 204.11 70.8298C202.93 76.9298 201.11 82.8302 200.01 89.4402C199.968 89.673 200.017 89.9127 200.148 90.1101C200.278 90.3075 200.479 90.4469 200.71 90.4998Z" fill="#F2F2F2"/>
<path d="M259.08 15.8898C258.32 16.362 257.592 16.8831 256.9 17.4498C256.21 18.0198 255.55 18.6199 254.9 19.2599C244.67 28.1999 238.18 48.0798 251.55 57.6798C260.48 62.9998 271.17 60.3001 278.78 54.4601C280.036 53.8478 281.252 53.1561 282.42 52.3898C283.566 51.6412 284.664 50.8233 285.71 49.9401C286.4 49.3601 287.07 48.7498 287.71 48.1198C293.1 42.4333 297.344 35.7618 300.21 28.4699C300.619 27.2548 300.953 26.0159 301.21 24.7599C302.323 19.6214 301.594 14.255 299.15 9.59974C298.757 8.7493 298.289 7.93632 297.75 7.17006C297.195 6.36946 296.565 5.62286 295.87 4.94008C294.85 3.92569 293.716 3.0329 292.49 2.27992C291.361 1.59338 290.152 1.04912 288.89 0.659802C276.21 -2.8202 267.94 8.30972 259.89 15.3297L259.08 15.8898Z" fill="#443826"/>
<path d="M257.41 44.3098C264.13 40.4898 268.46 32.83 273.64 27.78L275.94 25.1599C276.7 24.2799 277.46 23.4 278.21 22.51C281.284 19.007 284.013 15.2163 286.36 11.1902C286.747 10.2598 287.08 9.30815 287.36 8.34009C286.98 8.34009 286.21 8.65989 285.83 8.63989C285.37 9.50989 284.83 10.3602 284.39 11.1902C282.054 14.9515 279.412 18.5135 276.49 21.8401L274.33 24.3499L272.14 26.8401C267.14 31.8401 262.2 38.1998 257.25 43.0798C257.178 43.1702 257.124 43.2744 257.093 43.386C257.062 43.4975 257.053 43.6144 257.068 43.7292C257.083 43.8441 257.121 43.9546 257.18 44.0544C257.239 44.1543 257.317 44.241 257.41 44.3098Z" fill="#F2F2F2"/>
<path d="M466.87 178.6C466.186 177.255 465.276 176.037 464.18 175C455.18 166.11 429.18 157.38 396.11 152.26L393.11 151.8C390.683 151.133 388.213 150.54 385.7 150.02C384.453 149.76 383.193 149.52 381.92 149.3C370.51 145.74 358.51 147.74 346.42 147.61L343.12 147.5C304.87 146.31 276.27 150.71 275.28 161C274.88 165.12 278.95 169.68 286.39 174.15C287.45 174.79 288.58 175.42 289.8 176.05C319.48 188.74 352.48 196.74 385.48 197.74C411.48 198.74 449.35 202.32 467.48 179.74C467.48 179.74 467.48 179.79 466.87 178.6Z" fill="#5EB88A"/>
<path d="M434.97 159.11C434.97 156.04 433.73 152.11 433.52 148.9C433.506 148.628 433.445 148.361 433.34 148.11C433.04 147.41 432.7 146.72 432.34 146.04C431.421 144.395 430.353 142.839 429.15 141.39C428.58 140.691 427.973 140.023 427.33 139.39C427.245 139.308 427.154 139.231 427.06 139.16C422.39 135.65 417.42 130.77 410.49 132.75C403.56 134.73 397.83 140.31 391.49 135.75C379.69 127.25 374.1 125.82 365.1 128.81C364.761 128.922 364.401 128.958 364.047 128.914C363.692 128.87 363.352 128.748 363.051 128.556C362.75 128.365 362.494 128.109 362.304 127.807C362.113 127.505 361.993 127.164 361.95 126.81C361.4 122.56 359.72 114.92 350.41 112.95C341.7 110.95 338.8 113.65 335.95 115.79C335.099 116.256 334.201 116.628 333.27 116.9C323.62 121.21 316.27 128.55 314.44 139.45C314.36 139.76 314.28 140.08 314.21 140.45C314.089 140.995 313.78 141.481 313.338 141.822C312.896 142.164 312.348 142.34 311.79 142.32C300.73 141.94 289.79 147.47 289.79 160.45C289.714 161.294 289.687 162.142 289.71 162.99C289.798 165.246 290.278 167.469 291.13 169.56C291.528 170.55 292.014 171.504 292.58 172.41C292.631 172.494 292.688 172.574 292.75 172.65C295.815 176.939 300.294 180.009 305.4 181.32C305.961 181.466 306.453 181.806 306.788 182.28C307.123 182.754 307.279 183.332 307.23 183.91C306.53 193.29 313.23 202.91 322.23 205.26C323.54 205.716 324.876 206.097 326.23 206.4C327.649 206.707 329.085 206.931 330.53 207.07C339.12 207.9 347.04 205.65 352.35 201.5C353.223 200.825 354.04 200.079 354.79 199.27C355.026 199.006 355.316 198.797 355.642 198.657C355.967 198.518 356.319 198.452 356.673 198.464C357.027 198.475 357.374 198.564 357.689 198.724C358.005 198.884 358.282 199.111 358.5 199.39L358.9 199.89C359.71 200.871 360.592 201.791 361.54 202.64C364.441 205.236 367.916 207.107 371.68 208.1C372.919 208.433 374.183 208.664 375.46 208.79C375.586 208.8 375.714 208.8 375.84 208.79C379.62 208.7 385.47 206.79 388.42 207.79C402.42 213.79 419.42 209.79 430.42 198.79C433.42 194.79 446.42 193.79 448.56 184.61C448.896 183.464 449.124 182.289 449.24 181.1C449.315 180.145 449.315 179.185 449.24 178.23C449.191 177.302 449.071 176.379 448.88 175.47C448.95 170.02 443.17 164.3 437.63 161.78C437.421 161.682 437.198 161.614 436.97 161.58C436.395 161.479 435.875 161.173 435.507 160.719C435.14 160.265 434.949 159.694 434.97 159.11Z" fill="#443826"/>
<path d="M294.6 174.79C294.66 172.53 294.73 170.27 294.85 168.06C294.85 167.16 294.9 166.24 294.92 165.31C295.23 148.58 294.27 128.03 288.25 121.54C277.54 110 275.25 161 275.25 161L275.48 161.74C275.43 168.07 274.63 307.4 274.48 324.1C274.48 325.17 274.48 325.74 274.48 325.74C298.23 345.33 328.68 354.74 359.54 355.8C361.17 355.86 362.79 355.9 364.42 355.91C389.48 354.74 415.48 351.74 438.93 340.15C438.93 340.15 439.01 339.74 439.14 338.98C439.98 332.58 440.29 326.27 441.05 320.15C441.2 318.93 441.37 317.71 441.56 316.5C447.48 286.74 451.48 255.74 458.56 226.23C458.77 225.15 458.97 224.07 459.16 223.01C463.48 208.74 465.48 193.74 467.48 179.74C415.3 209.74 348.18 201.37 294.6 174.79ZM278.8 164.39C279.35 156.74 281.49 131.79 285.69 134.39C288.99 136.46 288.78 156.86 288.27 170.24C288.27 170.62 288.27 170.99 288.22 171.36C287.28 170.75 286.34 170.14 285.44 169.5C283.09 167.9 280.88 166.17 278.8 164.39Z" fill="#5EB88A"/>
<path d="M286.16 227.19C288.45 226.19 289.74 227.52 291.38 228.03L293.78 228.98C302.44 233.22 312.72 235.53 323.06 239.12C324.06 239.42 325.06 239.7 326.06 239.99C335.905 242.843 345.927 245.048 356.06 246.59C357.33 246.78 358.61 246.95 359.88 247.12C380.49 249.74 401.49 249.74 421.82 245.18L425.74 244.42C427.05 244.16 428.34 243.91 429.64 243.67C430.64 243.38 431.57 243.08 432.52 242.76C435.387 241.82 438.213 240.76 441 239.58L443.32 238.52C443.732 238.281 444.192 238.139 444.667 238.104C445.142 238.07 445.618 238.144 446.06 238.32L446.65 239.48C446.504 239.942 446.253 240.362 445.917 240.709C445.58 241.056 445.167 241.321 444.71 241.48L442.33 242.6C440.76 243.4 439.1 243.96 437.47 244.6C436.58 244.94 435.68 245.26 434.78 245.6C433.88 245.94 432.97 246.22 432.06 246.51L428.12 247.38L424.12 248.26C404.078 252.763 383.412 253.798 363.02 251.32L358.62 250.67C348.32 249.15 338.15 247.27 328.19 244.81C327.243 244.583 326.293 244.343 325.34 244.09C314.92 239.71 301.91 238.46 292.34 232.62L289.93 231.62C288.38 230.81 286.49 230.78 285.64 228.39L286.18 227.2L286.16 227.19Z" fill="#F2F2F2"/>
</g>
<defs>
<clipPath id="clip0_321_569">
<rect width="467.48" height="355.91" fill="white"/>
</clipPath>
</defs>
</svg>
