<svg width="462" height="208" viewBox="0 0 462 208" fill="none" xmlns="http://www.w3.org/2000/svg">
<g clip-path="url(#clip0_321_595)">
<path d="M0 90.4805V134.66L153.305 190.29V124.348L0 90.4805Z" fill="#F2F2F2"/>
<path d="M153.305 124.348L330.726 52.3362V124.348L153.305 190.29V124.348Z" fill="#F2F2F2"/>
<path d="M0 90.4806L182.588 22.7625L330.726 52.3363L153.305 124.348L0 90.4806Z" fill="#F2F2F2"/>
<path d="M363.454 105.793L462 102.344V116.433H363.454V105.793Z" fill="#443826"/>
<path d="M447.582 200.637C432.355 210.983 391.014 210.983 379.077 197.188L374.271 112.329H452.388L447.582 200.637Z" fill="#443826"/>
<path d="M392.1 2.96572C391.204 8.43214 404.881 31.5222 426.774 22.4345C426.878 2.86232 406.793 -4.72521 392.1 2.96572Z" fill="#FFD200"/>
<path d="M173.114 89.4113L215.144 99.6199V135.126L268.422 115.088V77.9956L224.308 68.1492L173.114 89.4113Z" fill="#5EB88A"/>
<path d="M406.517 36.8164C391.014 38.5408 385.847 57.5095 397.904 69.5805C422.02 64.4072 406.517 36.8164 406.517 36.8164Z" fill="#FFD200"/>
<path d="M385.847 21.2966C385.847 21.2966 361.731 21.2966 363.454 45.4386C392.737 47.163 385.847 21.2966 385.847 21.2966Z" fill="#FFD200"/>
</g>
<defs>
<clipPath id="clip0_321_595">
<rect width="462" height="208" fill="white"/>
</clipPath>
</defs>
</svg>
