<svg width="195" height="228" viewBox="0 0 195 228" fill="none" xmlns="http://www.w3.org/2000/svg">
<g clip-path="url(#clip0_435_218)">
<path d="M132.34 219.94L128.14 227.18L119.04 224.28L114.54 222.86C98.1701 217.59 81.1699 212.59 65.1099 207.14L61.3499 205.94L56.0001 204.24L60.2 193L62.67 193.93L65.5401 195C83.1701 204.59 104.17 207.59 123.23 216.59L126.99 217.99L132.34 219.94Z" fill="#6F95F6"/>
</g>
<path d="M151 194.695L149.332 196.838L144.571 202.993L141.525 199.308L140.236 197.752C132.507 189.183 125.37 180.014 118.078 170.96L116.248 168.703C96.454 144.96 76.4855 122.11 57.1613 95.6898C52.0081 88.5491 44.9225 82.1225 39.1252 74.9818C26.8865 59.2723 13.3596 46.4189 1.96467 30.895L0.888842 29.5955L0 28.5244L6.2675 22.3977C6.80907 22.0176 7.33155 21.6053 7.83272 21.1623C10.7829 19.2843 14.6478 15 15.292 15C20.5997 20.7125 25.6305 26.618 30.4744 32.609C31.1637 33.4659 31.8529 34.3225 32.5357 35.1937L36.4005 40.528L38.333 43.1987L40.2654 45.8622L42.1978 48.5257L44.1302 51.1891C44.783 52.0746 45.4271 52.9624 46.0627 53.8526C53.8504 65.699 63.5126 76.4099 71.5579 88.3991L73.5289 91.0483C86.0038 107.857 98.5152 124.633 111.063 141.376L113.041 144.025C115.688 146.389 116.976 149.245 118.98 151.958C119.624 152.844 120.268 153.722 120.957 154.6L130.226 166.997L132.082 169.475C136.301 175.665 140.81 180.664 145.048 186.826L146.89 189.304L150.581 194.26L151 194.695Z" fill="#5EB88A"/>
<g clip-path="url(#clip1_435_218)">
<path d="M180.874 159.558L173.658 162.377L170.131 155.818L168.927 153.581C168.016 151.797 167.082 150.016 166.149 148.23C165.675 147.336 165.208 146.442 164.734 145.555C162.681 141.746 160.626 137.937 158.568 134.128C158.048 133.178 157.532 132.223 157.022 131.264C152.901 122.538 148.529 113.632 143.079 105.47L141.526 102.599L138.554 97.0924C138.06 96.1769 137.566 95.2549 137.064 94.3387C133.325 85.4125 129.629 77.2226 123.665 69.4772C123.147 68.5572 122.643 67.6386 122.154 66.7214C116.658 56.5864 111.151 46.4415 105.633 36.2869L104.225 33.6129C102.353 30.0477 100.492 26.468 98.6422 22.8744L97.179 20.156L89.5759 6.05901L102.297 1.09426L103.552 3.57119L105.023 6.52599C109.207 15.4803 113.515 24.4176 117.945 33.3379L119.264 36.0107C123.142 43.9383 127.017 51.8809 130.888 59.8383C131.318 60.7217 131.749 61.6049 132.187 62.4891C136.176 70.6341 142.2 77.7311 143.93 86.3931C144.359 87.2895 144.797 88.1736 145.234 89.0642C146.985 92.6008 148.746 96.1406 150.516 99.6833C150.999 100.65 151.488 101.617 152.009 102.562C157.84 109.261 160.8 117.383 163.746 125.739C164.235 126.713 164.732 127.674 165.229 128.636C167.228 132.496 169.241 136.351 171.27 140.201L172.618 142.883C173.516 144.679 174.404 146.477 175.281 148.276L176.394 150.524L180.874 159.558Z" fill="#FFD200"/>
</g>
<defs>
<clipPath id="clip0_435_218">
<rect width="76.33" height="34.18" fill="white" transform="translate(56 193)"/>
</clipPath>
<clipPath id="clip1_435_218">
<rect width="105" height="154" fill="white" transform="translate(90.1808) rotate(5.28346)"/>
</clipPath>
</defs>
</svg>
