<svg width="164" height="184" viewBox="0 0 164 184" fill="none" xmlns="http://www.w3.org/2000/svg">
<path d="M115 163.607C110.84 157.367 108.5 148.774 107 143.107L117 139.607C116.667 148.441 123.404 158.326 124.5 158.107C134.5 156.107 136.561 162.547 135.5 163.607C133.5 165.607 125.5 170.607 122 171.607C118.5 172.607 116 165.107 115 163.607Z" fill="#443826" stroke="#443826"/>
<path d="M93 168.607C90 161.107 88.1667 155.441 87 150.607C90.3333 148.774 97.1 145.407 97.5 146.607C98 148.107 107 169.107 106.5 175.607C106.379 177.184 103.5 179.941 102 181.107C99.8333 183.107 92.2 184.607 91.5 181.107C90 173.607 94.5974 172.601 93 168.607Z" fill="#443826" stroke="#443826"/>
<path d="M49.9999 44.6072C41.5999 34.2072 40.1666 13.6072 40.4999 4.60716C40.5299 0.607156 51.4875 -0.0760731 53.5 2.60716C55 4.60712 53.5 25.3571 55 32.1072C56 36.6072 58 40.7738 59 43.1072C59.6666 48.2738 58.3999 55.0071 49.9999 44.6072Z" fill="#443826" stroke="#443826"/>
<path d="M146.5 64.1071C143.926 65.21 139 69.4404 137 72.1071C134.167 69.4404 129.5 63.3071 133.5 60.1072C138.5 56.1072 144.439 53.9604 145.5 53.6069C150 52.107 155.154 51.673 158.5 53.107C162 54.6071 162.333 57.2738 162.5 59.1071C162.667 60.9405 160.5 62.607 158 62.1069C155.36 61.5788 150 62.6072 146.5 64.1071Z" fill="#443826" stroke="#443826"/>
<path d="M6.69628 127.379C11.1961 121.379 19.3634 115.879 24.1967 112.879C26.1967 110.879 32.2644 120.528 30.1967 121.379C21.6963 124.879 15.1968 130.38 12.6967 133.379C10.1967 136.379 9.86338 141.379 9.19671 145.379C8.19629 149.879 3.62841 151.243 2.19669 148.379C-1.30378 141.379 3.69625 131.379 6.69628 127.379Z" fill="#443826" stroke="#443826"/>
<path d="M15.5 52.1072C25.5 38.9072 48.6664 41.9409 57.4997 45.6075C64.4997 28.1075 85.9997 8.10718 110 17.6075C134 27.1079 141.5 88.1079 138.5 107.608C135.5 127.107 134.5 138.607 89.4997 154.108C44.4997 169.608 10.9997 109.608 7.99971 92.6075C4.99971 75.6075 3 68.6072 15.5 52.1072Z" fill="#EB5050"/>
<path d="M64.5 82.105C64.5 79.6049 65.6667 78.9384 66.5 78.605C68.202 77.9245 70 79.672 70 82.1051C70 84.1049 69.5 85.605 67.5 85.605C66.382 85.605 64.5 84.6545 64.5 82.105Z" fill="#443826"/>
<path d="M79.6396 77.0369C79.7283 75.0879 80.5 73.6066 82 73.1069C83.5 72.6072 85.0957 73.8938 85.5 75.107C86.5 78.1073 85 80.6073 82.5 80.6073C81.9846 80.6073 79.5 80.1073 79.6396 77.0369Z" fill="#443826"/>
<path d="M73.5 98.6054C73 97.1054 71.5 97.272 71 97.6054C69.5 99.1054 71.3481 103.15 72 105.105C73 108.105 75.5 112.105 78 112.605C80 113.005 81.5 112.605 83 111.605C84.8605 110.365 85.5 108.605 86 107.105C86.3536 106.045 86.5 99.1053 86.5 94.1053C86.5 89.1053 85 89.6053 84.5 89.6053C83 89.6053 83 93.4387 83 95.6053V104.105C83 105.772 82.4 109.205 80 109.605C77 110.105 75.7236 106.276 75.5 105.605C75 104.105 74 100.105 73.5 98.6054Z" fill="#443826"/>
<path d="M64.5 82.105C64.5 79.6049 65.6667 78.9384 66.5 78.605C68.202 77.9245 70 79.672 70 82.1051C70 84.1049 69.5 85.605 67.5 85.605C66.382 85.605 64.5 84.6545 64.5 82.105Z" stroke="#443826"/>
<path d="M79.6396 77.0369C79.7283 75.0879 80.5 73.6066 82 73.1069C83.5 72.6072 85.0957 73.8938 85.5 75.107C86.5 78.1073 85 80.6073 82.5 80.6073C81.9846 80.6073 79.5 80.1073 79.6396 77.0369Z" stroke="#443826"/>
<path d="M73.5 98.6054C73 97.1054 71.5 97.272 71 97.6054C69.5 99.1054 71.3481 103.15 72 105.105C73 108.105 75.5 112.105 78 112.605C80 113.005 81.5 112.605 83 111.605C84.8605 110.365 85.5 108.605 86 107.105C86.3536 106.045 86.5 99.1053 86.5 94.1053C86.5 89.1053 85 89.6053 84.5 89.6053C83 89.6053 83 93.4387 83 95.6053V104.105C83 105.772 82.4 109.205 80 109.605C77 110.105 75.7236 106.276 75.5 105.605C75 104.105 74 100.105 73.5 98.6054Z" stroke="#443826"/>
</svg>
