<svg width="230" height="247" viewBox="0 0 230 247" fill="none" xmlns="http://www.w3.org/2000/svg">
<path d="M163.082 86.1667C161.618 84.0585 159.992 82.039 158.216 80.1208C156.44 78.1753 154.539 76.3183 152.522 74.5594C124.49 45.9997 61.5374 27.4466 30.482 64.0809C13.2046 88.596 21.3752 118.24 39.7042 139.504C41.5946 142.999 43.7462 146.383 46.1465 149.633C48.4735 152.799 51.0174 155.841 53.7642 158.742C55.5601 160.667 57.4721 162.545 59.4724 164.327C77.3348 179.4 98.3857 191.329 121.467 199.459C125.31 200.627 129.236 201.579 133.22 202.308C149.52 205.544 166.617 203.695 181.519 197.084C184.236 196.034 186.838 194.773 189.294 193.315C191.862 191.796 194.27 190.083 196.492 188.197C199.759 185.398 202.639 182.277 205.075 178.898C207.285 175.811 209.055 172.502 210.348 169.045C221.837 133.985 186.823 110.945 164.799 88.3374L163.082 86.1667Z" fill="#443826"/>
<path d="M72.7584 80.669C84.6616 99.345 108.833 111.562 124.713 126.05L132.967 132.468C135.709 134.591 138.481 136.702 141.281 138.801C152.305 147.404 164.25 155.071 176.955 161.698C179.914 162.811 182.939 163.788 186.016 164.625C186.053 163.575 185.019 161.435 185.085 160.374C182.356 159.067 179.673 157.713 177.047 156.335C165.172 149.766 153.944 142.353 143.48 134.172L135.638 128.198L127.881 122.189C112.137 108.285 92.0652 94.4174 76.8034 80.5629C76.5365 80.3287 76.2177 80.145 75.8654 80.0227C75.513 79.9005 75.1356 79.8424 74.7562 79.8524C74.3768 79.8623 74.0039 79.9396 73.6603 80.0801C73.3167 80.2207 73.0091 80.4212 72.7584 80.669Z" fill="#F2F2F2"/>
</svg>
