<svg width="257" height="257" viewBox="0 0 257 257" fill="none" xmlns="http://www.w3.org/2000/svg">
<path d="M90.6473 71.9237C87.9537 73.0045 85.2997 74.2084 82.6676 75.5057C69.5096 82.2091 57.4328 90.4181 46.7601 99.9142C44.7793 101.843 42.8891 103.834 41.0891 105.888C19.2631 131.259 2.83782 167.667 28.7227 193.622C45.1211 210.684 72.1249 214.569 95.2229 212.067C100.377 211.606 105.497 210.882 110.556 209.9C127.276 206.569 143.336 201.066 158.2 193.578C162.999 191.2 167.775 188.58 172.498 185.758C177.221 182.936 181.699 179.971 185.962 176.895C190.224 173.819 194.255 170.641 198.05 167.371C201.845 164.101 205.416 160.743 208.735 157.338C231.68 133.962 251.548 99.7692 232.49 70.7649C205.206 29.4911 143.644 41.9752 105.764 65.4171C101.599 67.2769 97.4852 69.0765 93.5416 70.7625C92.5765 71.0996 91.6119 71.5117 90.6473 71.9237Z" fill="#443826"/>
<path d="M62.2301 162.915C85.8099 155.003 102.823 139.903 123.077 129.884C126.99 127.53 130.962 125.209 134.993 122.922C159.111 109.142 184.379 95.7486 199.951 74.024C198.664 73.661 195.67 74.0601 194.382 73.6971C174.928 91.5283 153.035 105.177 130.432 118.825L119.085 125.674C101.088 136.927 81.8922 146.436 62.8768 158.932C62.1909 159.39 61.738 160.065 61.617 160.81C61.496 161.556 61.7163 162.312 62.2301 162.915Z" fill="#F2F2F2"/>
</svg>
