<svg width="197" height="257" viewBox="0 0 197 257" fill="none" xmlns="http://www.w3.org/2000/svg">
<g clip-path="url(#clip0_340_237)">
<path d="M88.756 210.627L90.3853 235.143C90.3853 235.143 80.9126 240.696 85.8561 246.142C90.7996 251.588 103.697 241.393 103.089 237.357C102.482 233.322 103.453 208.414 103.453 208.414L88.756 210.627Z" fill="#FFD200"/>
<path d="M118.029 206.219C118.029 206.219 129.905 237.447 132.225 239.161C134.849 242.893 143.625 242.025 147.746 232.697C149.155 228.358 142.803 227.251 141.09 229.572L131.286 191.843L119.19 193.664L118.029 206.219Z" fill="#FFD200"/>
<path d="M143.558 119.837C144.974 117.401 146.55 115.061 148.276 112.833L149.628 111L151.478 108.493L163.669 91.9653C163.669 91.9653 171.733 90.7511 172.231 80.359C174.232 61.1976 160.192 58.0497 158.615 72.0916L142.838 93.286L137.571 110.339L138.433 111.819C138.959 112.709 139.654 113.905 140.366 115.077C141.079 116.249 141.899 117.446 142.508 118.344L143.558 119.837Z" fill="#FFD200"/>
<path d="M140.504 67.1011C140.862 65.4997 141.059 63.8662 141.09 62.2255L141.468 58.4342C141.548 57.5246 141.486 56.6078 141.285 55.7171C141.076 54.8658 140.731 54.0538 140.264 53.3122C136.534 48.6738 137.942 44.3349 136.705 39.4038C136.366 38.3947 135.855 37.4523 135.193 36.6188C133.798 34.9281 131.792 33.8576 129.612 33.6416L129.349 33.6811C129.404 33.3633 129.506 33.0799 129.541 32.7651C128.878 25.2095 127.663 17.1388 121.438 14.5475C121.516 13.7618 121.438 12.9681 121.208 12.2128C120.977 11.4576 120.599 10.7554 120.095 10.1477C119.609 9.5408 119.004 9.03965 118.318 8.67458C117.632 8.30952 116.88 8.08851 116.106 8.02489C109.408 5.44287 108.303 11.7992 105.218 14.451L100.385 13.9822C90.1586 14.5314 93.9968 26.3339 87.979 30.4589C87.1584 30.8638 86.4106 31.4019 85.7654 32.0511C84.4283 33.3964 83.5952 35.1612 83.4052 37.0493L82.67 44.6299C82.6298 45.0966 82.6313 45.5658 82.6747 46.0322C81.4158 46.6434 80.3357 47.5685 79.5375 48.7186C78.7394 49.8687 78.2502 51.2048 78.1174 52.5989L77.3625 60.1825C77.3349 60.6564 77.3374 61.1315 77.3703 61.605C76.138 62.2174 75.0844 63.1365 74.309 64.2739C71.5448 68.9202 72.4561 74.9732 73.8398 81.6981C72.4324 82.5837 71.2691 83.8088 70.4581 85.2611C68.5584 89.9752 67.6431 95.0285 67.7669 100.111C67.6704 101.075 67.7057 102.049 67.8724 103.004C68.0168 103.925 68.2834 104.821 68.6654 105.67C68.918 106.235 69.221 106.777 69.5694 107.288C75.9084 111.596 65.5237 111.096 65.9852 115.257C65.6633 115.878 65.3956 116.526 65.1844 117.193C64.9748 117.884 64.8398 118.596 64.7824 119.317L63.7791 129.497C63.6311 130.981 63.7875 132.481 64.2391 133.903C64.6908 135.325 65.4281 136.64 66.4056 137.768C65.3638 138.132 64.379 138.641 63.4794 139.281C61.4561 141.05 59.8762 143.27 58.8689 145.762C57.8617 148.255 57.4546 150.949 57.6805 153.629C57.6934 154.947 57.7902 156.274 57.9303 157.615C59.0029 163.644 63.9464 169.089 60.1689 175.085C59.8751 175.872 59.5407 176.666 59.2126 177.499C58.8845 178.333 58.5333 179.149 58.2113 180.023C58.0584 180.721 57.9448 181.427 57.8703 182.137C57.4953 186.63 58.7836 191.079 63.1634 193.329C63.8228 193.67 64.5133 193.946 65.2255 194.154C72.2256 196.69 65.6805 207.993 76.948 209.02L77.8477 209.112L82.6811 209.581C83.549 209.655 84.4232 209.586 85.2688 209.377C85.7797 210.885 86.7142 212.214 87.9603 213.205C89.2065 214.196 90.7116 214.807 92.2952 214.964L98.0293 215.524C99.8439 215.702 101.666 215.267 103.204 214.287C104.742 213.307 105.907 211.84 106.514 210.12C107.035 210.27 107.568 210.376 108.108 210.437L113.842 210.997C116.022 211.207 118.196 210.543 119.888 209.151C121.58 207.759 122.651 205.753 122.867 203.572L123.558 196.514L126.131 196.766C128.312 196.976 130.486 196.312 132.178 194.92C133.869 193.528 134.941 191.522 135.157 189.341L135.514 185.552C135.568 185.09 135.62 184.608 135.657 184.169C137.548 178.519 142.989 173.573 141.83 166.422C141.882 165.921 141.882 165.417 141.83 164.916C141.797 164.426 141.724 163.94 141.611 163.463C143.018 162.915 144.244 161.987 145.155 160.783C146.066 159.578 146.625 158.144 146.769 156.641L147.504 149.06C147.63 147.895 147.487 146.717 147.088 145.615C144.237 140.37 151.389 133.102 148.527 126.827C148.527 125.461 148.432 124.096 148.242 122.743C148.029 120.637 147.105 118.666 145.622 117.156C144.139 115.646 142.186 114.687 140.085 114.438C140.819 114.001 141.502 113.483 142.121 112.894C144.013 111.07 145.195 108.632 145.456 106.015L146.459 95.8359C146.64 93.9109 146.316 91.9716 145.519 90.2099C144.722 88.4481 143.48 86.9245 141.916 85.7897C142.631 84.702 143.08 83.4611 143.226 82.1673L143.961 74.5871C144.125 73.1363 143.904 71.6677 143.32 70.3295C142.666 69.0347 141.698 67.9246 140.504 67.1011Z" fill="#FFD200"/>
<path d="M35.7935 150.777C40.6202 147.644 40.8617 139.439 36.3322 132.452C31.8027 125.465 24.2175 122.341 19.3908 125.475C14.564 128.608 14.3231 136.812 18.8526 143.799C23.3821 150.786 30.9667 153.91 35.7935 150.777Z" fill="#FFD200"/>
<path d="M81.3562 114.098C76.7978 117.508 71.0539 120.436 68.9382 123.912L67.6853 124.905L38.2324 148.385L26.7907 134.013L73.8568 99.0703L76.8358 105.163C77.07 105.623 77.2871 106.106 77.5212 106.566C79.083 108.637 80.2471 110.981 80.9538 113.478L81.3562 114.098Z" fill="#FFD200"/>
<path d="M104.315 77.5607C104.392 75.3082 103.36 73.4445 102.009 73.3979C100.659 73.3513 99.5019 75.1395 99.4249 77.3919C99.3478 79.6444 100.38 81.5081 101.73 81.5547C103.081 81.6013 104.238 79.8131 104.315 77.5607Z" fill="#443826"/>
<path d="M121.754 77.724C121.745 78.7281 121.465 79.7112 120.945 80.5697C120.784 80.9045 120.534 81.1886 120.223 81.3917C119.912 81.5949 119.552 81.7094 119.181 81.7225C117.811 81.6605 116.831 79.8066 116.863 77.5527C116.882 76.5404 117.166 75.551 117.688 74.6838C117.852 74.3523 118.103 74.0717 118.414 73.8722C118.726 73.6726 119.086 73.5619 119.455 73.5512C119.82 73.5999 120.167 73.7399 120.463 73.9587C120.759 74.1775 120.995 74.468 121.149 74.8026C121.595 75.7094 121.803 76.7147 121.754 77.724Z" fill="#443826"/>
<path d="M111.775 105.247C111.095 105.351 110.406 105.371 109.722 105.308C100.517 104.424 100.607 91.5966 100.629 91.0568L102.694 91.0764C102.712 91.1975 102.629 102.559 109.949 103.252C110.695 103.352 111.454 103.292 112.175 103.077C112.896 102.861 113.563 102.495 114.132 102.003C117.61 99.0858 118.166 92.2341 118.177 92.1705L120.26 92.3108C120.308 92.6336 119.636 100.081 115.499 103.551C114.448 104.466 113.154 105.056 111.775 105.247Z" fill="#443826"/>
</g>
<defs>
<clipPath id="clip0_340_237">
<rect width="163" height="235" fill="white" transform="translate(0 24.2675) rotate(-8.56203)"/>
</clipPath>
</defs>
</svg>
