<svg width="59" height="44" viewBox="0 0 69 54" fill="none" xmlns="http://www.w3.org/2000/svg">
<path d="M0.0078125 22.8073L16.3209 13.7362L69.0003 15.9705L57.3591 23.1581L54.1826 23.137H52.5261C46.2223 23.1651 39.5682 23.1652 33.2643 23.0178H31.7409L0.0078125 22.8073Z" fill="#F2F2F2"/>
<path d="M50.5315 8.64636C49.3898 5.96991 46.9383 4.21609 44.2662 3.54961C43.7575 3.3962 43.2314 3.3078 42.7006 3.28652C42.1926 3.44939 41.6671 3.55186 41.1352 3.59174C39.3841 3.56719 39.139 -0.179216 32.5794 0.00669702C24.5245 0.00669702 26.2756 3.16377 22.2621 4.09684C21.7484 3.86841 21.2572 3.5924 20.7947 3.27248C20.4445 3.1462 20.0942 3.06902 19.6039 2.9217C17.9299 2.44464 17.0894 1.82726 15.4189 2.22014C15.1387 2.31485 14.8621 2.42004 14.5854 2.52878C14.3087 2.63752 14.039 2.75328 13.7694 2.87956C11.2653 3.65829 11.6155 6.28563 11.2653 6.46803C8.76824 6.87143 6.5164 7.55542 4.92993 10.6423C4.75482 10.9931 4.57967 11.3438 4.45009 11.6946C1.27013 16.5073 2.10367 18.9137 2.72005 22.9021C2.79359 23.3476 2.87764 23.786 2.9757 24.2209C3.52922 26.6682 4.56639 28.9798 6.02606 31.0192C6.38544 31.5247 6.77001 32.0116 7.17828 32.4783C7.59621 32.8501 8.0165 33.2163 8.4391 33.5764C8.86169 33.9365 9.29009 34.2873 9.72436 34.6287C12.7011 37.153 16.3564 38.7396 20.2308 39.1889C20.8647 39.266 21.5021 39.3115 22.143 39.3326C26.6257 39.6448 30.8284 38.2417 34.6807 35.7862C35.7314 37.5401 37.1323 38.5925 38.6627 39.936C39.1297 40.3102 39.6082 40.6609 40.0985 40.9883C45.5514 44.5873 53.032 45.3415 58.6775 41.7916C59.1842 41.5016 59.6756 41.1871 60.1519 40.848C64.7993 37.5402 65.1495 30.8753 66.3963 25.8241C66.4348 25.1962 66.4523 24.5683 66.4453 23.9404C66.4378 22.6977 66.3206 21.4581 66.095 20.2361C65.7448 19.7345 65.3946 19.2189 65.0444 18.6998C64.6942 18.1806 64.309 17.6474 63.9272 17.1423C63.6716 16.7915 63.2268 16.5355 63.1392 16.1181C62.8276 14.8518 62.817 13.175 60.3865 13.2837C59.5845 13.3188 59.3359 12.8838 59.3359 12.5541C57.4797 9.12698 55.3785 9.12705 51.4841 9.20422C51.1406 9.06678 50.8196 8.87868 50.5315 8.64636Z" fill="#443826"/>
<path d="M57.4108 20.7027L28.8473 21.7551L28.0032 21.7866C21.0199 22.1093 13.6654 22.4601 6.76268 22.5303C6.41247 22.5303 6.04472 22.5549 5.6875 22.5724C4.98707 22.6005 4.28664 22.6355 3.5862 22.6776L2.6757 22.7127C1.78643 22.7968 0.893025 22.8296 0 22.8109C0 22.8109 2.73612e-05 23.0215 0.0280446 23.4038C0.059564 24.1054 0.119094 25.3996 0.196141 27.0623C0.217154 27.4763 0.238143 27.9183 0.259156 28.3743C0.280169 28.8304 0.304667 29.1987 0.329182 29.6091L0.392283 30.8332C0.682961 37.8488 1.01213 44.4787 1.32383 51.2768L1.37632 52.4764C9.80601 53.3288 17.861 52.9779 26.2416 52.9779H34.4927C40.625 53.3287 46.9289 51.9256 53.3379 52.8095C53.9087 52.8306 54.476 52.8553 55.0434 52.8834C55.6107 52.9114 56.1746 52.9428 56.7349 52.9779L65.76 43.8227C65.76 43.8227 65.823 43.2543 65.9246 42.2791C66.1908 36.842 66.8912 30.8789 67.7422 25.2524L67.9839 23.3231C68.2361 21.3904 68.5057 19.4645 68.8139 17.5176C68.9259 16.5425 68.9925 15.9742 68.9925 15.9742L57.4108 20.7027Z" fill="#6F95F6"/>
<path d="M53.9145 29.4896C43.0823 29.8229 32.5758 30.5244 21.8732 30.4823L19.9471 30.5175C18.0209 30.5525 16.0994 30.5747 14.1825 30.5841L12.9148 30.6192L3.88622 30.8682L3.84766 29.4651L21.1693 28.9811L22.6788 28.9425C33.2763 28.7672 43.4326 28.4162 53.8865 28.0795L53.9145 29.4896Z" fill="#443826"/>
<path d="M54.1103 39.294H50.7132H49.0392C40.3013 39.294 31.8962 39.294 22.9902 39.3536H21.1655C17.5233 39.3747 13.8659 39.4039 10.1933 39.4413C9.66448 39.4413 9.14265 39.4413 8.61032 39.4413C7.03085 39.4413 5.45838 39.3922 3.87891 39.287V37.8839C5.71754 37.7506 7.50712 37.719 9.28621 37.7295C9.88508 37.7295 10.4805 37.7296 11.0794 37.7506C14.1146 37.7787 17.1194 37.8009 20.0939 37.8172H21.887C32.5966 37.8734 43.103 37.8734 54.1278 37.8594L54.1103 39.294Z" fill="#443826"/>
<path d="M53.9386 49.0456C46.5841 48.4142 38.8794 49.1159 31.3848 48.4775L30.0399 48.4424L18.2236 48.1407L16.8228 48.1056C12.9704 48.4143 8.7678 47.7127 4.82788 47.8004L3.84375 47.7759L3.87881 46.3728C7.53856 46.0606 11.0127 46.5763 14.6164 46.7236C15.2153 46.7516 15.8211 46.7691 16.427 46.7691C20.3284 46.9024 24.2193 46.8393 28.0927 46.8709H29.7527C37.8252 47.3304 45.8801 46.9796 54.0156 47.604L53.9386 49.0456Z" fill="#443826"/>
</svg>
