<svg width="45" height="64" viewBox="0 0 50 69" fill="none" xmlns="http://www.w3.org/2000/svg">
<path d="M33.5859 9.13975V9.37527C33.773 11.581 32.6542 13.8417 30.9819 15.4469L30.678 15.7177C30.5805 15.7962 30.487 15.8708 30.3856 15.9453C29.2902 16.4712 28.1715 17.2248 27.006 17.213C26.8813 17.213 26.7513 17.213 26.6162 17.213C26.4811 17.213 26.3445 17.213 26.2068 17.213C26.0703 17.213 25.9378 17.1893 25.817 17.1697C24.437 16.8479 23.3144 16.4712 22.2775 15.4469C22.18 15.3566 22.0826 15.2585 21.9851 15.1604C20.473 13.5284 19.645 11.3715 19.6737 9.13975C19.6466 7.82707 19.9242 6.52612 20.4845 5.34055C21.0449 4.15498 21.8724 3.11758 22.9012 2.31078C23.0065 2.23228 23.1155 2.15376 23.2286 2.08311C24.8073 1.05091 26.3043 0.301263 28.226 1.26674C28.3547 1.29814 28.4794 1.3374 28.6159 1.38058C29.009 1.5177 29.3886 1.69125 29.7501 1.89876C29.867 1.96941 29.988 2.04391 30.101 2.1224C31.5433 2.55412 32.2918 4.06119 32.8297 5.43484C32.8921 5.57613 32.9504 5.71745 33.005 5.85874C33.3966 6.90737 33.5936 8.01947 33.5859 9.13975Z" fill="#F5E2CA"/>
<path d="M19.2608 12.2951C19.9398 12.2951 20.4903 11.3776 20.4903 10.2459C20.4903 9.11417 19.9398 8.19672 19.2608 8.19672C18.5817 8.19672 18.0312 9.11417 18.0312 10.2459C18.0312 11.3776 18.5817 12.2951 19.2608 12.2951Z" fill="#F5E2CA"/>
<path d="M32.7878 12.2951C33.6932 12.2951 34.4271 11.3776 34.4271 10.2459C34.4271 9.11417 33.6932 8.19672 32.7878 8.19672C31.8824 8.19672 31.1484 9.11417 31.1484 10.2459C31.1484 11.3776 31.8824 12.2951 32.7878 12.2951Z" fill="#F5E2CA"/>
<path d="M23.2884 19.8558C23.2884 19.8558 13.6283 18.708 11.3099 22.1513C10.1548 23.5097 9.10831 24.9551 8.17997 26.4744L8.04865 26.685L7.83998 27.0676C7.77042 27.1976 7.70094 27.3277 7.62753 27.4501C5.12749 32.4697 2.03618 36.6781 0.602619 42.0994C0.563978 42.2448 0.529096 42.3901 0.49432 42.5393C-0.0998219 44.8454 -0.159154 47.2546 0.320551 49.5866C0.351463 49.686 0.382368 49.7855 0.409417 49.8812C0.614211 50.5277 0.834522 51.1246 1.05091 51.6641C1.08955 51.7559 1.12434 51.8438 1.16298 51.9318C1.26345 51.9815 1.26328 52.3642 1.3792 52.4292C1.41398 52.5096 1.45272 52.5898 1.4875 52.6663C1.82089 53.4209 2.20828 54.1511 2.64672 54.851L3.52386 54.2772L3.75178 54.124C4.33912 53.8944 5.11186 53.1293 5.80739 52.7812L6.03927 52.6319L6.91641 52.058C6.35999 49.5865 5.88474 43.9473 5.88474 43.9473C5.88474 43.9473 11.391 36.441 13.6128 32.4697L14.3857 48.9209L36.0243 48.5384L37.1835 31.7046C37.7477 32.9288 38.3015 34.102 38.845 35.2242C38.8836 35.2969 38.9184 35.3735 38.9571 35.4462C39.0112 35.5762 39.0653 35.7101 39.1233 35.8288C39.8961 37.4318 40.6688 38.5795 41.2678 40.0372L41.4804 40.4198C42.2532 41.778 43.0453 43.098 43.7524 44.3146V44.6092C43.822 47.9607 43.8297 48.4351 43.7524 52.3489L47.2301 56.5574C47.3962 55.7922 47.5817 55.0575 47.7787 54.3076L47.8484 54.059C48.0029 51.9662 49.162 50.4358 49.2857 48.7601C49.3243 48.6071 49.3592 48.4541 49.394 48.3049C49.8615 46.3575 50.132 44.6015 49.9349 43.2012C49.8422 42.7651 49.7456 42.3404 49.6528 41.9234C49.6528 41.8431 49.618 41.7588 49.5987 41.6746C49.2432 40.0907 48.9225 38.2774 48.4395 36.5672C48.4008 36.4371 48.3622 36.3032 48.3197 36.1846C47.2416 33.2311 46.4688 30.1704 44.842 26.9222C44.7725 26.7998 44.6992 26.681 44.6258 26.5624C43.4009 24.5653 42.0098 23.3182 40.2865 22.5185C36.8088 21.1145 34.1657 20.5061 31.5807 20.3034L31.1711 20.2727C30.2398 20.223 29.0806 20.223 28.3928 20.2001L28.0566 20.1771L23.2884 19.8558Z" fill="#6F95F6"/>
<path d="M25.8442 22.9492C25.3734 22.9655 24.9073 22.8575 24.4994 22.6378C24.3682 22.5768 24.2428 22.5053 24.1249 22.424C23.7606 22.176 23.4642 21.8514 23.2599 21.4766C23.0556 21.1018 22.9492 20.6873 22.9492 20.2669L23.1063 19.0438C23.1063 18.965 23.1062 18.8826 23.1344 18.7964C23.4525 17.6709 23.4525 16.1702 23.6297 14.9247L23.682 14.5195L23.7545 13.9344H27.8816C27.8816 14.122 27.8817 14.4034 27.9058 14.6847C27.9058 14.7785 27.9058 14.8686 27.9381 14.9586C28.687 16.5642 28.2843 18.4399 28.6588 20.0568C28.6588 20.1919 28.6869 20.2706 28.6869 20.2706C28.687 20.415 28.675 20.5593 28.6507 20.702C28.4929 21.2223 28.1992 21.6981 27.7959 22.087C27.3926 22.4758 26.8922 22.7657 26.3395 22.9305C26.1751 22.948 26.0096 22.9542 25.8442 22.9492Z" fill="#F5E2CA"/>
<path d="M14.595 20.3631L14.7583 21.8261C14.7583 21.9766 14.7925 22.1349 14.8115 22.3009C15.2597 25.0428 15.568 27.8066 15.7351 30.5809L15.7655 30.8357L15.9821 32.7658L13.9336 37.8418L14.4619 43.9716L36.1243 45.9016L36.7248 37.9769L36.7438 37.6989L36.7666 37.4326L36.8844 35.8653L35.3642 32.7773L35.9952 27.983C35.9952 27.8711 36.0217 27.7631 36.0369 27.6511C36.1243 27.3732 36.1243 26.601 36.2117 26.3153L36.2535 25.9834L36.8844 21.1969L33.8441 20.8109L33.8099 21.1468C33.8097 21.537 33.7636 21.9257 33.673 22.3048C33.6464 22.4399 33.6161 22.5788 33.5819 22.7178C33.4641 23.8951 33.464 25.4392 33.1486 26.5779L33.1144 26.9639C33.0688 27.6279 33.0498 28.2957 33.0194 28.867C33.0194 29.0137 32.9891 29.1526 32.9777 29.28L32.894 30.0906H30.6365H30.1652C28.5234 30.052 27.0032 30.052 25.6047 30.0906H24.0543C22.4277 30.0713 20.5275 30.0713 19.1137 30.0906H17.8823L17.7455 28.2107L17.7264 27.9484C17.5542 26.612 17.4629 25.266 17.4529 23.9182C17.4529 23.787 17.4528 23.6596 17.4262 23.5322C17.3996 23.1462 17.3654 22.7602 17.3198 22.3742L17.297 22.0886L17.1222 19.6721L14.595 20.3631Z" fill="#F2F2F2"/>
<path d="M33.49 39.8407C32.5261 39.101 32.5261 37.8837 31.5858 37.1009C31.4019 36.9228 31.2031 36.7605 30.9916 36.6157C29.3628 35.4767 27.4312 36.5294 25.5781 36.9326C25.3499 36.9717 25.1295 37.0031 24.9092 37.0266C24.6185 37.0537 24.3254 37.0285 24.0437 36.9523C22.0057 35.8133 20.4084 36.3143 18.3074 36.6352C18.1215 36.661 17.9321 36.6467 17.7523 36.5933C17.5724 36.54 17.4061 36.4488 17.2647 36.326C16.8908 36.0175 16.4391 35.8172 15.9586 35.7467C14.9789 35.4571 14.4871 35.0853 13.5075 35.3202L13.0197 35.504C12.8584 35.5705 12.7009 35.641 12.5435 35.7154C11.0799 36.1851 11.2846 37.7741 11.08 37.8837C9.61645 38.1264 8.29838 38.5413 7.36987 40.4043C7.26758 40.6131 7.17327 40.8245 7.08671 41.0384C5.2297 43.9465 5.71744 45.3985 6.07546 47.8095C6.11874 48.0757 6.17003 48.3418 6.22511 48.5923C6.79422 51.188 8.23848 53.512 10.3181 55.1786C12.3978 56.8453 14.9876 57.7544 17.6581 57.755C20.1112 57.7582 22.5028 56.9911 24.4921 55.5631C25.4462 57.1595 26.8119 58.4732 28.448 59.3678C30.084 60.2624 31.9307 60.7055 33.7968 60.6513C35.9258 60.594 37.9858 59.8877 39.6983 58.6278C39.9068 58.4752 40.0917 58.3146 40.3042 58.1502C40.5166 57.9858 40.619 57.8919 40.7685 57.7588C40.918 57.6257 41.0676 57.4889 41.2092 57.3441C41.3508 57.1993 41.6026 56.9527 41.7678 56.7492C41.9331 56.5456 42.114 56.3382 42.2714 56.1229C43.7467 54.1111 44.7224 51.6845 44.0418 49.2069C44.0064 49.023 43.971 48.8429 43.9277 48.6628C43.8844 48.4828 43.8334 48.2989 43.7744 48.1149C43.7154 47.931 43.6877 47.7235 43.6326 47.52C43.5775 47.3165 43.5226 47.1286 43.4557 46.9329C43.3691 46.6746 43.2747 46.4202 43.1685 46.1736C42.7554 45.5709 42.3382 44.9329 41.8858 44.3066C41.7363 44.0992 41.5869 43.8917 41.4295 43.6882C40.5349 42.4152 39.2982 41.4183 37.861 40.8114C36.9089 40.3104 34.4696 40.5531 33.49 39.8407Z" fill="#443826"/>
<path d="M43.7658 68.8036C39.9383 68.5635 36.1 68.5635 32.2725 68.8036H23.3381C17.7167 68.8036 12.3151 69.0438 6.65947 68.4588L6.62541 67.6376C6.42451 63.1437 6.2122 58.7272 6.01888 54.1286C6.01888 53.9698 6.01876 53.8109 5.99981 53.6481C5.91642 52.9043 5.91648 51.7421 5.87099 51.0719L5.85211 50.6575L5.75735 48.5693C5.75735 48.3058 5.73828 48.1626 5.73828 48.1626C6.33676 48.1759 6.93548 48.1525 7.53123 48.0928L8.14165 48.0735C8.60032 48.0425 9.07034 48.0192 9.54795 47.9959L10.2681 47.9689C14.8965 47.9224 19.8281 47.6821 24.5133 47.4613L25.078 47.4381L44.2509 46.7213L44.213 48.4259C44.213 48.639 44.213 48.8715 44.213 49.1156C44.2622 51.5214 44.2624 54.1519 44.2624 56.5887C44.2624 56.8328 44.2624 57.0767 44.2624 57.3208C44.2686 58.0676 44.2166 58.8139 44.1069 59.5524C44.1069 59.8352 44.0879 60.114 44.0765 60.3968C44.0121 62.0781 43.9287 63.744 43.8567 65.3518V65.8167C43.7922 66.6419 43.7923 67.6027 43.7998 68.4317C43.7695 68.6874 43.7658 68.8036 43.7658 68.8036Z" fill="#5EB88A"/>
<path d="M13.9395 58.8578V57.5865C13.9395 55.952 14.9057 54.9181 16.4079 54.9181C17.9101 54.9181 18.7564 55.7482 18.8516 57.4234H17.0885C17.0003 56.8564 16.8699 56.6822 16.4044 56.6822C15.939 56.6822 15.6992 56.9973 15.6992 57.5903V58.9394C15.6992 59.5324 15.939 59.8437 16.4044 59.8437C16.9263 59.8437 17.0321 59.625 17.0885 59.0134H18.8516C18.7987 59.9622 18.4989 60.6369 17.9735 61.0483C17.9146 61.0937 17.8534 61.1357 17.7901 61.1742C17.6014 61.266 17.404 61.3368 17.2013 61.3854L17.0038 61.4263C16.3881 61.5301 15.7575 61.4689 15.1702 61.2484C15.1049 61.215 15.0413 61.1778 14.9798 61.1371C14.6334 60.8845 14.3553 60.5416 14.173 60.142C13.9906 59.7424 13.9101 59.2999 13.9395 58.8578Z" fill="#F2F2F2"/>
<path d="M23.2118 60.3701H21.8697L21.6558 61.4755H19.6719L21.0685 54.9181H24.0131L25.4096 61.4755H23.4257L23.2118 60.3701ZM22.8929 58.6608L22.5466 56.797L22.1888 58.6608H22.8929Z" fill="#F2F2F2"/>
<path d="M28.0816 56.7339V57.674H29.9957V59.3765H28.0816V61.4755H26.2305V54.922H26.4082L26.6452 54.9408H26.8858C27.6048 55.0026 28.3268 55.0203 29.0479 54.9937H29.2849C29.5181 54.9937 29.7402 54.9635 29.9402 54.9371L30.1511 54.9181H30.3288V56.7339H28.1075H28.0816Z" fill="#F2F2F2"/>
<path d="M33.0214 56.8226V57.8037H34.9391V59.5535H33.0214V60.4727H35.2468V62.2227H34.1341C33.2005 62.3193 32.2601 62.3193 31.3265 62.2227H31.1484V54.9761H32.4466C33.2547 54.8988 34.0678 54.8988 34.8759 54.9761H35.2468V56.8226H33.0214Z" fill="#F2F2F2"/>
<path d="M21.0962 1.68754C21.0962 1.68754 19.651 2.47549 19.4698 4.11283C18.9265 4.83506 16.3945 2.88164 16.3945 5.22889C16.3945 7.57615 18.2548 6.96887 18.7454 8.05632C18.9869 8.58979 18.7453 8.7211 19.6509 8.76624C20.7339 8.76624 21.4584 7.97835 21.4584 6.40667C21.4584 4.83499 23.0849 6.46813 23.5377 4.66665C23.9905 2.86517 30.4996 10.7318 32.8467 9.75106C33.5146 9.47202 33.7599 8.26569 33.5146 6.80481C33.4919 6.65708 33.4618 6.50921 33.4278 6.35738C33.2835 5.3149 32.9133 4.32465 32.3477 3.46843C31.7822 2.61222 31.0374 1.91459 30.1751 1.43307L29.9374 1.27718C29.7751 1.17869 29.6053 1.08424 29.4279 0.998061L29.2054 0.895471C28.3249 0.330767 27.3252 0.0227825 26.3033 0.00121588C25.2813 -0.0203508 24.2716 0.24531 23.3717 0.772443L23.1301 0.850388C22.4357 1.07957 21.7561 1.35926 21.0962 1.68754Z" fill="#443826"/>
<path d="M4.28805 50.1688C3.5275 51.2919 2.76697 52.0405 2.59204 53.6503C2.57303 53.7402 2.55396 53.83 2.53875 53.9236C2.34984 54.8686 2.50746 55.8489 2.98364 56.6902C4.28799 58.7792 7.44055 58.0866 7.44055 58.0866C8.09082 58.0304 9.6119 56.9074 8.0908 55.7843C9.23163 56.1586 10.3725 55.4099 9.6119 54.3093C11.133 53.9125 10.7527 52.415 9.99218 52.0406C10.7527 52.0406 10.7527 50.5431 9.6119 50.1688C8.55094 49.1243 5.85487 48.7276 4.56193 49.8769C4.45916 49.9631 4.36716 50.061 4.28805 50.1688Z" fill="#F5E2CA"/>
<path d="M45.7904 49.8C45.7904 49.8 43.3703 48.1479 40.7833 50.2388C39.5315 51.1168 40.366 51.9948 41.6178 51.9948C41.6178 51.9948 40.366 51.9949 40.366 52.8729C40.366 53.7508 41.6178 53.7547 41.6178 53.7547C41.6178 53.7547 40.366 54.1936 40.7833 55.1602C41.2005 55.9496 41.9557 55.8609 42.1769 55.703C42.1769 55.703 41.4342 56.2922 41.7388 57.0008C42.0393 58.156 45.1645 58.5181 46.1033 57.8942C47.2007 57.359 48.1688 55.888 48.3357 54.2706C48.3525 54.1222 48.3609 53.9731 48.3608 53.8239C48.3069 53.0666 48.0738 52.3293 47.6781 51.6641C47.2823 50.9988 46.7334 50.4216 46.0699 49.9731C45.9781 49.9 45.8864 49.85 45.7904 49.8Z" fill="#F5E2CA"/>
</svg>
