<svg width="139" height="150" viewBox="0 0 139 150" fill="none" xmlns="http://www.w3.org/2000/svg">
<g clip-path="url(#clip0_595_949)">
<path d="M10.2504 76.3055C9.41481 76.2191 8.63186 75.8567 8.02522 75.2756C7.29102 74.5791 6.86336 73.6194 6.83661 72.6077C6.80986 71.596 7.18612 70.6152 7.88249 69.8809C12.4853 65.0356 19.2069 62.3409 27.319 62.0906C32.2032 61.9389 37.0778 62.6174 41.7349 64.0972C42.6875 64.4381 43.466 65.1433 43.8989 66.0578C44.3318 66.9722 44.3837 68.0211 44.0435 68.974C43.7027 69.9266 42.9975 70.7049 42.083 71.1378C41.1685 71.5708 40.1198 71.623 39.1669 71.2828C35.6853 70.0361 21.099 67.0454 13.4256 75.1399C13.0215 75.5651 12.5249 75.8916 11.9743 76.0937C11.4236 76.2958 10.8337 76.3683 10.2504 76.3055Z" fill="#FFD200"/>
<path d="M96.5513 28.7071C89.5201 27.8761 82.4385 27.9417 75.3717 30.4524C73.1068 31.299 70.4389 28.2965 67.512 27.3072C65.0353 26.2343 62.4612 25.4016 59.8253 24.8202C49.2989 22.5109 38.0359 24.4218 30.8296 32.5148C17.8167 47.4488 20.6252 67.0528 22.1867 84.8482C22.3185 87.3377 22.4614 89.7836 22.6828 92.2123C23.6345 101.909 26.1042 111.286 31.3364 119.589C36.3512 127.831 48.8204 128.172 59.2003 125.905C61.2057 125.469 63.1856 124.924 65.1311 124.271C67.0374 125.409 69.0118 126.429 71.0431 127.324C79.8851 131.278 91.8881 135.823 98.743 127.846C105.538 120.196 110.007 111.555 113.002 102.4C113.757 100.108 114.414 97.7851 115.022 95.4319C119.413 74.2972 128.293 44.5119 105.34 31.2986C102.58 29.9372 99.6077 29.0606 96.5513 28.7071Z" fill="#FFD200"/>
<path d="M77.8825 19.8321C76.612 16.4411 75.3423 13.0438 73.0823 10.2959C72.8166 9.96702 72.5115 9.64666 72.2552 9.35073C71.4297 8.47711 70.4936 7.71515 69.4706 7.08433C67.1477 5.66006 64.4308 5.01487 61.7156 5.24256C60.9622 5.30004 60.2143 5.41505 59.4785 5.58668C58.4236 5.65869 57.3974 5.96227 56.4733 6.47595C56.1776 6.63694 55.895 6.82075 55.628 7.02572C54.5461 7.70841 53.7091 8.71719 53.2377 9.90644C52.7663 11.0957 52.6849 12.4039 53.0053 13.6424C53.8229 16.1793 55.2073 18.5015 57.538 19.5617C57.9151 19.6689 58.3029 19.7338 58.6944 19.7552C61.2905 19.8841 63.2538 17.9052 64.1996 15.4471C64.3808 15.1198 64.6291 14.8345 64.9284 14.6099C65.0768 14.5144 65.2442 14.4528 65.4192 14.4294C65.5941 14.406 65.772 14.4214 65.9404 14.4746C66.2949 14.5604 66.6323 14.7067 66.9373 14.9068C67.2598 15.1117 67.5539 15.358 67.8123 15.6396C71.1044 19.6294 71.5797 25.3857 72.0204 30.6843C72.0536 31.1548 72.0909 31.6449 72.12 32.1534C72.1626 35.2411 71.5249 38.7107 72.9091 41.0328C73.8128 42.76 78.4433 42.7088 79.1814 40.8811C80.2423 38.544 79.8394 34.6952 79.4496 31.5641C79.4497 31.1419 79.456 30.7204 79.4575 30.2856C79.4793 27.3134 79.5007 24.2261 78.3282 21.3572C78.1918 20.8949 78.0368 20.3667 77.8825 19.8321Z" fill="#5EB88A"/>
<path d="M86.0845 54.9463C86.0583 55.3507 85.9444 55.7446 85.7506 56.1006C85.5843 56.3893 85.3593 56.6399 85.0902 56.8364C84.6793 57.1616 84.1681 57.3335 83.6442 57.3222C83.2101 57.2737 82.7956 57.1142 82.441 56.8591C82.0863 56.604 81.8034 56.2618 81.6193 55.8656C81.4352 55.4694 81.3563 55.0326 81.3901 54.5971C81.4238 54.1615 81.5691 53.7419 81.812 53.3788C82.4863 52.3311 83.9073 52.2008 85.0255 52.9338C85.4233 53.1967 85.7578 53.5447 86.0047 53.9527C86.0848 54.2774 86.1117 54.6129 86.0845 54.9463Z" fill="#443826"/>
<path d="M98.0949 56.2939C98.0125 56.9257 97.7026 57.5057 97.2235 57.9257C96.7444 58.3457 96.1289 58.5768 95.4918 58.5758C95.0583 58.5262 94.6448 58.366 94.291 58.1106C93.9373 57.8551 93.6552 57.513 93.4718 57.117C93.2885 56.7211 93.21 56.2847 93.244 55.8497C93.278 55.4147 93.4231 54.9957 93.6658 54.633C94.5632 53.2316 96.7836 53.4678 98.0249 55.2694C98.1082 55.6041 98.1318 55.951 98.0949 56.2939Z" fill="#443826"/>
<path d="M86.2074 77.8467C85.674 77.7912 85.1548 77.6407 84.6745 77.4023C81.0141 75.0108 80.7407 70.4848 81.026 67.0801C81.0439 66.2504 81.0947 65.6545 81.1093 65.4578C81.1266 65.263 81.182 65.0736 81.2726 64.9003C81.3631 64.727 81.4868 64.5733 81.6368 64.4479C81.7867 64.3224 81.9599 64.2278 82.1465 64.1693C82.333 64.1108 82.5293 64.0896 82.724 64.107C83.1177 64.1438 83.4808 64.335 83.7338 64.6389C83.9868 64.9427 84.1091 65.3344 84.074 65.7283C84.0296 66.1457 84.0115 66.6171 84.0019 67.1279C83.9924 67.6386 83.9983 68.1829 84.0227 68.7356C84.4346 70.8776 84.1978 73.1041 85.5398 74.379C85.697 74.5556 85.8929 74.6936 86.1119 74.7823C86.331 74.8711 86.5674 74.9083 86.8032 74.8908C87.2196 74.8711 87.6245 74.747 87.9803 74.5299C88.3784 74.2924 88.7346 73.9909 89.0347 73.6377C90.2473 71.7336 91.2247 69.6897 91.9463 67.5507C92.0977 67.0294 92.2276 66.5315 92.3323 66.0884C92.437 65.6454 92.5171 65.251 92.5704 64.9305C92.6397 64.5411 92.8605 64.1951 93.1844 63.9682C93.5082 63.7412 93.9088 63.652 94.2984 63.7198C94.4905 63.7524 94.6742 63.8228 94.8388 63.9271C95.0035 64.0313 95.1457 64.1672 95.2573 64.327C95.3707 64.487 95.4513 64.6678 95.4946 64.859C95.538 65.0502 95.5432 65.2482 95.5098 65.4414C94.3076 69.7081 93.8346 74.1546 90.1935 76.6331C89.7318 77.0024 89.2194 77.3034 88.672 77.5268C88.1087 77.75 87.5114 77.8746 86.9059 77.8954C86.6723 77.8947 86.4389 77.8785 86.2074 77.8467Z" fill="#443826"/>
<path d="M54.9341 133.357C52.3708 133.04 50.1331 133.992 49.6405 135.737C49.0726 137.768 51.0946 140.107 54.1255 140.96C57.1563 141.814 60.0979 140.86 60.6658 138.829L65.1295 122.902L58.3898 121.015L54.9341 133.357Z" fill="#FFD200"/>
<path d="M82.853 137.593L81.9677 124.808L74.989 125.288L76.132 141.785C76.2725 143.891 78.944 145.417 82.1012 145.202C85.2584 144.988 87.6984 143.098 87.5509 140.997C87.43 139.187 85.4214 137.803 82.853 137.593Z" fill="#FFD200"/>
<path d="M126.835 86.786C126.224 86.7215 125.638 86.5105 125.127 86.1709C124.615 85.8314 124.192 85.3734 123.895 84.8358C122.43 82.1916 116.695 73.9312 104.466 78.7905C104 78.9762 103.501 79.0682 103 79.0611C102.498 79.054 102.003 78.948 101.542 78.7493C101.081 78.5506 100.664 78.2629 100.315 77.9029C99.9653 77.5428 99.6901 77.1174 99.5053 76.651C99.1323 75.7104 99.148 74.6602 99.5491 73.7312C99.9502 72.8023 100.704 72.0708 101.644 71.6972C115.984 66.0005 126.192 73.227 130.567 81.1701C131.055 82.0553 131.173 83.0982 130.893 84.0699C130.614 85.0416 129.96 85.8626 129.075 86.3526C128.392 86.7257 127.609 86.8771 126.835 86.786Z" fill="#FFD200"/>
</g>
<defs>
<clipPath id="clip0_595_949">
<rect width="124.672" height="137.369" fill="white" transform="translate(14.5282) rotate(6.071)"/>
</clipPath>
</defs>
</svg>
