<svg width="365" height="245" viewBox="0 0 365 245" fill="none" xmlns="http://www.w3.org/2000/svg">
<g clip-path="url(#clip0_313_510)">
<path d="M0 135.12L59.2808 102.156L250.715 110.275L208.411 136.394L196.868 136.318H190.849C167.941 136.42 143.76 136.42 120.852 135.885H115.316L0 135.12Z" fill="#F2F2F2"/>
<path d="M183.594 83.6592C179.446 73.9331 170.537 67.5598 160.827 65.1378C158.978 64.5804 157.066 64.2591 155.138 64.1818C153.291 64.7737 151.382 65.146 149.449 65.291C143.085 65.2017 142.195 51.5875 118.358 52.2631C89.0864 52.2631 95.4498 63.7357 80.865 67.1265C78.9983 66.2964 77.2132 65.2934 75.5327 64.1308C74.26 63.6719 72.9871 63.3914 71.2054 62.8561C65.1221 61.1224 62.0677 58.8789 55.9971 60.3066C54.979 60.6508 53.9738 61.0331 52.9683 61.4282C51.9629 61.8234 50.9829 62.244 50.0029 62.7029C40.9034 65.5328 42.1759 75.0804 40.9032 75.7432C31.8291 77.2092 23.6461 79.6947 17.8809 90.9122C17.2446 92.1869 16.6081 93.4616 16.1372 94.7364C4.58144 112.225 7.61045 120.97 9.85034 135.464C10.1176 137.083 10.423 138.676 10.7794 140.256C12.7908 149.15 16.5598 157.55 21.8642 164.961C23.1702 166.798 24.5677 168.567 26.0513 170.263C27.57 171.614 29.0974 172.945 30.633 174.253C32.1687 175.562 33.7255 176.837 35.3036 178.078C46.1208 187.251 59.4041 193.016 73.4835 194.649C75.787 194.929 78.1032 195.095 80.4322 195.171C96.7223 196.306 111.994 191.207 125.994 182.284C129.812 188.658 134.902 192.482 140.464 197.364C142.161 198.724 143.9 199.998 145.682 201.188C165.497 214.267 192.681 217.007 213.197 204.107C215.038 203.053 216.824 201.911 218.554 200.678C235.443 188.658 236.715 164.438 241.246 146.082C241.386 143.8 241.45 141.519 241.424 139.237C241.397 134.721 240.971 130.216 240.152 125.776C238.879 123.953 237.606 122.079 236.334 120.193C235.061 118.306 233.661 116.369 232.274 114.533C231.345 113.258 229.729 112.328 229.41 110.811C228.278 106.209 228.239 100.116 219.407 100.511C216.493 100.639 215.589 99.0579 215.589 97.8596C208.844 85.4057 201.208 85.4059 187.056 85.6864C185.808 85.1869 184.641 84.5034 183.594 83.6592Z" fill="#443826"/>
<path d="M208.602 127.471L104.804 131.295L101.737 131.41C76.3597 132.583 49.6339 133.857 24.5497 134.112C23.277 134.112 21.9407 134.202 20.6425 134.266C18.0972 134.368 15.5519 134.495 13.0066 134.648L9.69781 134.775C6.46628 135.081 3.21969 135.2 -0.0255127 135.132C-0.0255127 135.132 -0.0254133 135.897 0.0763998 137.287C0.19094 139.836 0.407268 144.539 0.687254 150.582C0.763614 152.086 0.839886 153.692 0.916246 155.349C0.992606 157.006 1.08163 158.345 1.17072 159.836L1.40002 164.285C2.45633 189.779 3.65252 213.872 4.78519 238.575L4.97597 242.935C35.609 246.032 64.8803 244.757 95.3351 244.757H125.319C147.604 246.032 170.512 240.933 193.801 244.146C195.876 244.222 197.937 244.312 199.999 244.414C202.061 244.516 204.11 244.63 206.146 244.757L238.943 211.488C238.943 211.488 239.172 209.422 239.541 205.879C240.508 186.12 243.053 164.451 246.146 144.005L247.024 136.994C247.94 129.97 248.92 122.971 250.04 115.897C250.447 112.353 250.689 110.288 250.689 110.288L208.602 127.471Z" fill="#F2F2F2"/>
<path d="M251.504 21.7977C250.728 22.5115 249.977 23.2761 249.239 24.0664C245.615 28.1333 242.546 32.6645 240.113 37.5405C239.693 38.5093 239.299 39.5034 238.943 40.4976C234.73 52.7986 233.763 68.8089 245.879 76.0876C249.651 78.3793 254.037 79.4522 258.44 79.1598C259.889 79.0942 261.331 78.9193 262.754 78.637C269.272 77.1665 275.391 74.2913 280.686 70.2113C281.501 69.6122 282.302 69.0004 283.091 68.3503C285.54 66.3434 287.841 64.1621 289.977 61.8236C291.249 60.3577 292.598 58.8154 293.795 57.1965C294.991 55.5776 296.187 53.9204 297.256 52.2632C298.325 50.6061 299.293 48.9107 300.171 47.1644C301.049 45.418 301.838 43.7736 302.538 42.0655C307.361 30.4146 309.779 14.8889 299.61 5.67268C285.077 -7.43138 265.694 4.21926 255.78 17.5273C254.596 18.7128 253.426 19.8727 252.293 20.9562L251.504 21.7977Z" fill="#443826"/>
<path d="M253.387 60.4211C260.412 54.7359 264.281 46.9731 269.932 40.8417C270.963 39.4905 272.032 38.1519 273.101 36.8134C279.566 28.7827 286.464 20.7777 289.009 10.5928C288.526 10.5928 287.558 11.077 287.075 11.077C282.71 20.1657 276.995 27.9033 271.039 35.7173L268.036 39.6305C263.34 46.0041 258.007 51.8295 253.12 58.7512C252.935 59.0083 252.859 59.3289 252.909 59.6419C252.959 59.9548 253.131 60.2348 253.387 60.4211Z" fill="#F2F2F2"/>
<path d="M315.506 70.377C314.378 70.5012 313.26 70.7017 312.159 70.9763C311.047 71.2456 309.95 71.5772 308.875 71.9704C292.216 76.6358 273.865 95.9352 283.957 114.317C291.3 125.343 305.07 128.109 317.046 125.559C318.826 125.548 320.603 125.421 322.366 125.177C324.081 124.944 325.781 124.608 327.456 124.17C328.564 123.89 329.671 123.558 330.752 123.176C340.061 119.597 348.591 114.252 355.875 107.433C357.01 106.261 358.069 105.018 359.044 103.711C363.14 98.4103 365.244 91.8359 364.987 85.1382C365.006 83.9471 364.916 82.7567 364.72 81.5817C364.517 80.3542 364.206 79.147 363.791 77.9742C363.17 76.2445 362.35 74.5934 361.347 73.054C360.428 71.6529 359.343 70.3688 358.115 69.2298C345.388 58.2673 329.862 66.5399 316.703 70.1728L315.506 70.377Z" fill="#443826"/>
<path d="M298.007 102.156C307.819 101.442 316.995 95.0169 325.726 92.0468L329.798 90.2879C331.147 89.7015 332.496 89.1022 333.845 88.4903C339.298 86.147 344.514 83.2875 349.423 79.9501C350.386 79.0896 351.303 78.1789 352.172 77.222C351.739 77.0053 350.67 76.9672 350.237 76.7378C349.232 77.4771 348.214 78.1906 347.196 78.8789C342.45 81.9256 337.462 84.5733 332.28 86.7948L328.462 88.4903L324.644 90.1478C316.181 93.1816 307.005 97.7961 298.643 100.664C298.5 100.716 298.37 100.796 298.259 100.901C298.149 101.005 298.061 101.131 298.002 101.271C297.942 101.411 297.911 101.561 297.912 101.714C297.913 101.866 297.945 102.016 298.007 102.156Z" fill="#F2F2F2"/>
<path d="M195.901 159.403C156.538 160.614 118.358 163.163 79.465 163.01L72.4654 163.138C65.4657 163.265 58.4831 163.346 51.5174 163.38L46.9105 163.508L14.1012 164.413L13.9611 159.314L76.907 157.555L82.3922 157.415C120.903 156.777 157.81 155.502 195.799 154.278L195.901 159.403Z" fill="#443826"/>
<path d="M196.601 195.031H184.256H178.173C146.42 195.031 115.876 195.031 83.5123 195.248H76.8815C63.6458 195.324 50.3552 195.431 37.0092 195.567C35.0874 195.567 33.1911 195.567 31.2567 195.567C25.517 195.567 19.8027 195.388 14.063 195.006V189.907C20.7445 189.423 27.2477 189.308 33.7128 189.346C35.8891 189.346 38.0528 189.346 40.229 189.423C51.2588 189.525 62.1782 189.605 72.9874 189.665H79.5033C118.421 189.869 156.601 189.869 196.665 189.818L196.601 195.031Z" fill="#443826"/>
<path d="M195.99 230.468C169.264 228.173 141.266 230.723 114.031 228.403L109.144 228.276L66.204 227.18L61.1134 227.052C47.1141 228.174 31.8421 225.624 17.5246 225.943L13.9484 225.854L14.0758 220.755C27.3751 219.62 39.9998 221.494 53.0955 222.03C55.2718 222.132 57.4734 222.195 59.6751 222.195C73.8526 222.68 87.9919 222.45 102.068 222.565H108.1C137.435 224.235 166.706 222.96 196.27 225.229L195.99 230.468Z" fill="#443826"/>
</g>
<defs>
<clipPath id="clip0_313_510">
<rect width="365" height="245" fill="white"/>
</clipPath>
</defs>
</svg>
