<svg width="192" height="193" viewBox="0 0 192 193" fill="none" xmlns="http://www.w3.org/2000/svg">
<path d="M192 96.1366C191.999 99.4204 191.832 102.702 191.5 105.969C191.344 107.579 191.134 109.189 190.892 110.776C185.835 137.404 170.54 160.98 148.3 176.43C147.02 177.305 145.717 178.157 144.398 178.97C143.079 179.783 141.713 180.682 140.347 181.472C138.981 182.261 137.585 183.034 136.188 183.714C108.488 198.526 72.5854 194.618 47.0088 179.064C45.6585 178.283 44.3316 177.454 43.0282 176.626C41.7248 175.797 40.445 174.929 39.1806 174.038C37.9162 173.147 36.8389 172.358 35.7306 171.467C14.3374 154.623 1.38915 127.017 0.070122 99.8492C0.0232927 98.622 0 97.3793 0 96.1366C0 70.6396 10.1143 46.1869 28.1178 28.1578C46.1213 10.1287 70.5392 0 96 0C108.607 0 121.09 2.48663 132.737 7.31794C144.385 12.1493 154.968 19.2307 163.882 28.1578C172.797 37.0849 179.868 47.6831 184.692 59.3469C189.517 71.0107 192 83.5117 192 96.1366Z" fill="#6F95F6"/>
<path d="M5.71301 63.4107C5.71301 63.4107 21.0731 83.6308 39.8049 80.5044C58.5366 77.378 54.7825 81.1608 59.7854 80.8326C64.7883 80.5043 59.7854 91.6189 59.7854 91.6189C59.7854 91.6189 15.4223 96.0583 23.7111 114.074C25.7794 118.576 27.7776 122.734 29.7366 126.47C30.1269 127.215 30.5171 127.942 30.9074 128.651C31.6098 129.745 32.3068 130.829 32.9988 131.902C33.6935 132.965 34.3961 134.02 35.1063 135.028C39.0087 139.882 43.6917 144.572 49.9356 147.699C50.8151 148.284 51.4272 149.194 51.6372 150.231C51.983 151.413 52.0604 152.657 51.8635 153.873C53.0577 157.859 50.7161 168.802 56.96 166.457C63.9844 163.33 67.1064 155.514 71.2664 149.027C71.8439 148.016 72.4241 146.951 73.0068 145.83C76.4871 139.04 79.3449 131.948 81.5453 124.641C91.6917 91.8143 69.0575 96.5038 70.6185 88.6879C72.1795 80.8719 71.399 82.4351 74.5209 80.0903C85.4478 73.8375 92.4722 61.3319 89.3502 51.1712C86.2283 41.0104 89.3502 13.6544 87.0087 6.62006C84.6673 -0.414319 82.9581 0.859595 82.9581 0.859595C64.3903 0.390636 16.7803 23.0568 5.71301 63.4107Z" fill="#5EB88A"/>
<path d="M158.361 23.0493C158.361 23.0493 149.073 27.3557 142.049 28.9189C135.024 30.4821 115.512 38.2981 131.902 52.3669C148.293 66.4356 138.146 71.9068 138.146 71.9068C138.146 71.9068 102.205 57.7443 111.61 79.7228C116.293 90.6652 116.121 84.131 131.122 93.7916C140.956 100.123 141.307 124.18 145.834 130.066C146.235 130.66 146.827 131.099 147.512 131.308C149.854 131.308 150.634 129.745 151.766 128.307C152.488 127.081 153.124 125.806 153.67 124.493C156.792 117.318 159.61 106.782 163.512 104.343C169.756 100.435 171.317 75.424 157.268 70.7344C143.219 66.0448 154.927 59.7921 154.927 59.7921C154.927 59.7921 186.373 72.915 189.151 72.8056C188.488 56.6656 166.017 24.3546 158.361 23.0493Z" fill="#5EB88A"/>
</svg>
