<svg width="191" height="139" viewBox="0 0 191 139" fill="none" xmlns="http://www.w3.org/2000/svg">
<g clip-path="url(#clip0_303_342)">
<path d="M63.8945 98.1415V85.1935H122.17L118.908 0.0244141H0L3.26183 85.1935H54.6954V98.1661C44.763 98.7189 37.3106 100.979 37.3106 103.694C37.3106 106.814 47.1575 109.357 59.3012 109.357C71.4448 109.357 81.2917 106.814 81.2917 103.694C81.2795 100.955 73.8269 98.7066 63.8945 98.1415Z" fill="#6F95F6"/>
<path d="M113.997 78.4863H12.779L8.68628 7.55518H109.904L113.997 78.4863Z" fill="#F2F2F2"/>
<path d="M45.0071 37.8363C45.0071 41.0917 43.187 42.8239 39.7785 42.8239H33.4624V24.3232H39.9252C43.7003 24.3232 45.7647 26.2887 45.7647 29.8021C45.8357 30.6908 45.6723 31.5828 45.2904 32.3874C44.9086 33.192 44.322 33.8807 43.5903 34.3842C44.0738 34.812 44.4529 35.3459 44.6987 35.9444C44.9444 36.5429 45.0497 37.1902 45.0071 37.8363ZM41.9528 30.1461C41.9983 29.8528 41.9748 29.553 41.8836 29.2707C41.7925 28.9884 41.636 28.7317 41.4279 28.5212C41.2197 28.3107 40.9654 28.1523 40.6852 28.059C40.405 27.9657 40.1068 27.94 39.8149 27.984H37.2862V32.3697H39.8149C40.1122 32.4135 40.4156 32.3856 40.7001 32.2881C40.9846 32.1907 41.2422 32.0264 41.4511 31.8092C41.6601 31.5919 41.8143 31.3279 41.9015 31.0387C41.9888 30.7495 42.0064 30.4435 41.9528 30.1461ZM41.1833 37.5906C41.1833 36.3622 40.6456 35.8094 39.485 35.8094H37.2862V39.3473H39.485C40.6456 39.3473 41.1833 38.7823 41.1833 37.5906Z" fill="#443826"/>
<path d="M52.8384 27.984V32.0626H58.7392V35.5392H52.8384V39.3473H59.5941V42.8239H49.0146V24.3232H59.5941V28.0086L52.8384 27.984Z" fill="#443826"/>
<path d="M71.1638 39.1019H66.6069L65.7396 42.7873H61.8544L66.0939 25.5889H71.6894L75.9039 42.7873H72.0801L71.1638 39.1019ZM70.3573 35.6253L68.9036 29.3972L67.4254 35.6253H70.3573Z" fill="#443826"/>
<path d="M91.5049 25.6748V41.4726H87.461L82.5742 32.5174V41.4726H78.763V25.6748H82.9166L87.6931 34.5442V25.6748H91.5049Z" fill="#443826"/>
<path d="M46.3022 45.7969L41.2811 57.0129V62.9461H37.4574V57.0129L32.4113 45.7969H36.4797L39.3752 52.9712L42.2463 45.7969H46.3022Z" fill="#5EB88A"/>
<path d="M54.8785 60.6244H50.3216L49.4423 64.3097H45.5571L49.8086 47.1113H55.3915L59.6066 64.3097H55.7459L54.8785 60.6244ZM54.072 57.1477L52.6063 50.9197L51.1281 57.1477H54.072Z" fill="#5EB88A"/>
<path d="M71.1638 64.3097L66.277 58.3516V64.3097H62.4652V47.1113H68.4759C72.2876 47.1113 74.3278 49.0523 74.3278 52.664C74.3278 55.5509 72.9352 57.4302 70.4552 58.0322L75.3419 64.2605L71.1638 64.3097ZM68.3661 50.7967H66.277V54.9856H68.3661C69.7955 54.9856 70.5166 54.31 70.5166 52.8973C70.5166 51.4846 69.82 50.7967 68.415 50.7967H68.3661Z" fill="#5EB88A"/>
<path d="M91.224 54.2857V57.1724C91.224 61.816 88.7807 64.2975 84.2971 64.2975H78.262V47.0991H84.2971C88.8296 47.1114 91.224 49.6299 91.224 54.2857ZM87.4122 54.2857C87.4122 52.0254 86.3129 50.8091 84.2971 50.8091H82.0738V60.8209H84.2971C86.3129 60.8209 87.4122 59.5926 87.4122 57.3323V54.2857Z" fill="#5EB88A"/>
<path d="M166.651 52.5286C166.315 52.5252 165.98 52.5541 165.65 52.6147C165.333 52.673 165.022 52.7593 164.721 52.8726C158.82 53.2535 160.042 48.3396 157.745 43.2906C157.509 42.9205 157.248 42.5677 156.963 42.2343C155.779 40.8806 154.203 39.9352 152.455 39.5318C152.053 39.4363 151.645 39.3704 151.234 39.335C145.418 38.5119 141.753 42.1974 138.125 44.9246C137.722 45.1825 137.318 45.4283 136.903 45.6618C136.488 45.8952 136.072 46.1286 135.681 46.3375C134.689 46.5738 133.726 46.9197 132.81 47.3692C131.94 47.7943 131.12 48.3178 130.367 48.9293C129.932 49.2834 129.523 49.6693 129.145 50.084C125.04 50.514 120.325 49.3593 115.792 50.207C115.024 50.3527 114.268 50.558 113.532 50.8212C107.655 53.2781 102.769 59.4204 106.202 65.5627C106.473 66.2068 106.805 66.8238 107.191 67.4054C109.94 71.5207 115.462 74.3338 121.852 74.3338C123.755 74.3339 125.65 74.0737 127.484 73.56C127.924 73.4371 128.351 73.2896 128.779 73.1422C132.779 70.6829 137.242 69.0813 141.887 68.4374C142.291 68.3637 142.694 68.2897 143.109 68.1915C145.698 67.5628 148.045 66.1779 149.853 64.2113C151.503 65.2531 153.415 65.7987 155.363 65.7837C160.152 65.7837 164.098 62.6757 164.623 58.6586C165.337 58.9838 166.112 59.1515 166.896 59.1502C169.339 59.1502 171.281 57.6638 171.281 55.8211C171.281 53.9784 169.07 52.5286 166.651 52.5286Z" fill="#443826"/>
<path d="M114.009 66.3858C113.679 66.5604 113.317 66.667 112.946 66.6986C112.575 66.7303 112.201 66.6866 111.846 66.5702L110.869 66.656C102.622 66.7666 103.844 71.6805 106.287 75.3659C107.509 80.2797 101.767 88.2034 99.8372 101.557C99.6173 103.043 99.4335 104.554 99.2747 106.065C98.957 108.522 98.9575 109.75 100.045 114.112C100.288 115.25 100.594 116.373 100.961 117.477C103.171 122.977 106.823 127.77 111.529 131.347C112.479 132.085 113.465 132.773 114.485 133.411C122.426 138.324 131.992 138.631 141.253 138.877L145.186 139C157.599 138.017 169.816 139.246 181.996 133.681C183.244 133.033 184.434 132.277 185.551 131.42C194.653 124.295 190.438 114.812 186.687 112.76C183.254 110.991 181.629 108.915 181.886 107.699C182.448 105.119 183.254 101.164 181.58 97.2448C181.58 97.2448 181.373 94.9106 181.226 93.7436C182.033 82.6875 180.811 77.7736 174.702 69.1744C173.481 67.946 175.924 65.4892 175.704 63.4745C175.337 62.3103 174.541 61.3307 173.481 60.7351C173.64 60.7351 172.907 51.3987 163.096 56.3863C158.82 59.3469 153.934 56.8899 150.134 54.5067C144.16 51.9761 140.495 61.8036 134.887 58.3885L133.666 58.0322C132.354 57.6073 130.969 57.4611 129.598 57.6024C129.121 57.7086 128.657 57.8692 128.217 58.0814C126.445 59.1502 125.969 60.3419 124.821 61.2755C124.576 61.4781 124.314 61.6588 124.039 61.816C120.985 64.2729 116.098 60.5876 114.693 65.3172C114.448 65.6734 114.229 66.005 114.009 66.3858Z" fill="#FFD200"/>
</g>
<defs>
<clipPath id="clip0_303_342">
<rect width="191" height="139" fill="white"/>
</clipPath>
</defs>
</svg>
