<svg width="258" height="242" viewBox="0 0 258 242" fill="none" xmlns="http://www.w3.org/2000/svg">
<g clip-path="url(#clip0_296_264)">
<path d="M141.78 36.0498C130.25 26.3898 123.25 10.3899 107.15 5.38989C104.064 4.70539 100.911 4.36996 97.7499 4.38989C91.2499 4.38989 85.2499 7.38989 79.2499 7.38989C71.2499 5.38989 63.2498 0.39 54.1398 0C51.4024 0.0952003 48.691 0.562725 46.08 1.38989C40.7904 3.12728 35.9124 5.92934 31.7469 9.62354C27.5815 13.3177 24.2167 17.8258 21.8597 22.8699C20.185 25.2481 18.351 27.51 16.37 29.6399C12.5 33.8899 8.24988 37.8899 4.24988 43.3899C1.24988 47.3899 -0.750124 51.3899 0.249876 56.3899C0.244221 58.9005 0.580649 61.4001 1.24988 63.8198C2.87887 69.7301 6.40266 74.9424 11.2801 78.6565C16.1576 82.3706 22.1192 84.3813 28.2499 84.3799C32.2396 84.3842 36.1839 83.5332 39.8168 81.884C43.4497 80.2349 46.6868 77.826 49.3099 74.8198C51.4368 75.1891 53.5912 75.3765 55.7499 75.3799C58.3303 75.3822 60.9039 75.1174 63.4298 74.5898C67.4908 79.8216 72.6945 84.0552 78.6429 86.967C84.5914 89.8789 91.127 91.3918 97.7499 91.3899C108.189 91.4034 118.281 87.6462 126.17 80.8098C130.747 84.4303 136.414 86.3969 142.25 86.3899C147.942 86.391 153.477 84.524 158.006 81.0754C162.535 77.6269 165.807 72.7874 167.32 67.2998C167.941 65.0491 168.253 62.7247 168.25 60.3899C168.25 49.3899 159.25 39.39 148.64 37.21C146.393 36.6173 144.097 36.2289 141.78 36.0498Z" fill="#443826"/>
<path d="M155.75 203.39L11.75 201.39L0.75 66.3899H166.75L155.75 203.39Z" fill="#F2F2F2"/>
<path d="M30.1899 115.39V140.94H22.7998V126.52H18.7998V119.83C22.5298 119.83 23.8002 118.83 24.4502 115.39H30.1899Z" fill="#6F95F6"/>
<path d="M51.9097 124.51C51.9097 130.05 48.2098 133.51 42.1898 133.51C36.3798 133.51 32.6097 130.38 32.6497 125.28H40.0399C40.0957 125.837 40.3656 126.351 40.7928 126.713C41.22 127.075 41.7712 127.256 42.3299 127.22C43.7099 127.22 44.5096 126.28 44.5096 124.7C44.5433 124.401 44.5093 124.098 44.4095 123.813C44.3097 123.529 44.1469 123.271 43.9334 123.059C43.72 122.846 43.4612 122.685 43.1766 122.586C42.892 122.488 42.589 122.455 42.2899 122.49C41.8599 122.464 41.4329 122.577 41.0726 122.813C40.7122 123.049 40.4377 123.395 40.2899 123.8H32.8597V107.96H50.7398V114.62H40.2498V117.07C41.3221 116.57 42.4975 116.33 43.68 116.37C48.68 116.39 51.9097 119.56 51.9097 124.51Z" fill="#6F95F6"/>
<path d="M53.4199 128.39V124.02C53.4199 117.57 57.42 113.43 63.71 113.43C70 113.43 73.96 117.57 73.96 124.02V128.39C73.96 134.85 69.96 138.98 63.71 138.98C57.46 138.98 53.4199 134.8 53.4199 128.39ZM66.5601 128.63V124.06C66.5601 121.7 65.56 120.46 63.71 120.46C61.86 120.46 60.8101 121.7 60.8101 124.06V128.63C60.8101 131.02 61.81 132.33 63.71 132.33C65.61 132.33 66.5601 130.97 66.5601 128.58V128.63Z" fill="#6F95F6"/>
<path d="M84.8501 136.98C84.8501 138.76 84.48 139.98 81.79 145.98H76.8799L78.6599 140.7C77.8563 140.399 77.1707 139.848 76.7043 139.128C76.238 138.407 76.0156 137.556 76.0701 136.7C76.0565 136.125 76.1625 135.553 76.3816 135.021C76.6007 134.489 76.9279 134.009 77.3425 133.61C77.7572 133.211 78.2502 132.903 78.7903 132.705C79.3304 132.507 79.9059 132.424 80.48 132.46C81.0716 132.442 81.6604 132.548 82.2087 132.771C82.7571 132.994 83.2529 133.328 83.6643 133.754C84.0757 134.179 84.3935 134.686 84.5977 135.242C84.8019 135.797 84.888 136.389 84.8501 136.98Z" fill="#6F95F6"/>
<path d="M87 124.71V120.39C87 113.93 91 109.8 97.29 109.8C103.58 109.8 107.54 113.93 107.54 120.39V124.76C107.54 131.21 103.54 135.35 97.29 135.35C91.04 135.35 87 131.16 87 124.71ZM100.14 124.94V120.39C100.14 118.04 99.14 116.8 97.29 116.8C95.44 116.8 94.3999 118.04 94.3999 120.39V124.96C94.3999 127.35 95.4 128.66 97.29 128.66C99.18 128.66 100.14 127.33 100.14 124.94Z" fill="#6F95F6"/>
<path d="M109.35 130.39V126.02C109.35 119.57 113.35 115.43 119.64 115.43C125.93 115.43 129.89 119.57 129.89 126.02V130.39C129.89 136.84 125.89 140.98 119.64 140.98C113.39 140.98 109.35 136.81 109.35 130.39ZM122.5 130.63V126.05C122.5 123.7 121.5 122.46 119.64 122.46C117.78 122.46 116.75 123.7 116.75 126.05V130.63C116.75 133.01 117.75 134.32 119.64 134.32C121.53 134.32 122.5 132.98 122.5 130.6V130.63Z" fill="#6F95F6"/>
<path d="M129.89 118.39V114.02C129.89 107.57 133.89 103.43 140.18 103.43C146.47 103.43 150.43 107.57 150.43 114.02V118.39C150.43 124.84 146.43 128.98 140.18 128.98C133.93 128.98 129.89 124.8 129.89 118.39ZM143.03 118.63V114.05C143.03 111.7 142.03 110.46 140.18 110.46C138.33 110.46 137.28 111.7 137.28 114.05V118.63C137.28 121.01 138.28 122.32 140.18 122.32C142.08 122.32 143.03 120.97 143.03 118.59V118.63Z" fill="#6F95F6"/>
<path d="M120.15 160.27V166.06C120.11 166.371 120.141 166.688 120.242 166.986C120.342 167.283 120.509 167.554 120.73 167.778C120.951 168.001 121.219 168.172 121.516 168.276C121.812 168.38 122.128 168.416 122.44 168.38H123.98V174.83H121.6C115.38 174.83 112.96 172.07 112.96 166.22V160.27H110.67V153.45H112.96V149.28H120.15V153.45H123.98V160.27H120.15Z" fill="#6F95F6"/>
<path d="M212.55 115.69C212.25 121.39 211.25 127.39 207.08 131.97C205.021 134.094 202.208 135.323 199.25 135.39C191.52 135.39 185.25 126.44 185.25 115.39C185.16 110.371 186.589 105.442 189.35 101.25C191.88 97.63 195.35 95.3999 199.17 95.4599C202.044 96.4545 204.549 98.2995 206.35 100.75C208.095 103.126 209.698 105.604 211.15 108.17C211.929 110.608 212.399 113.135 212.55 115.69Z" fill="#443826"/>
<path d="M240.69 160.56C236.742 163.659 231.949 165.492 226.94 165.82C222.53 165.98 218.63 164.54 216.3 161.45C208.25 144.39 230.25 133.39 244.25 135.39C250.25 136.39 252.25 143.39 249.5 148.76C248.755 150.995 247.654 153.095 246.24 154.98C244.668 157.097 242.799 158.977 240.69 160.56Z" fill="#443826"/>
<path d="M204.01 228.89C204.214 227.719 204.214 226.521 204.01 225.35C203.947 225.012 203.864 224.678 203.76 224.35C201.29 220.41 202.29 216.41 200.27 213.12C200.1 212.76 199.92 212.43 199.73 212.12C199.143 211.044 198.288 210.138 197.247 209.492C196.206 208.845 195.015 208.479 193.79 208.43C193.084 208.436 192.384 208.561 191.72 208.8C189.912 207.264 187.622 206.411 185.25 206.39C179.17 206.39 174.25 211.99 174.25 218.89C174.25 219.08 174.25 219.27 174.25 219.47C172.733 219.677 171.326 220.38 170.25 221.47C170.041 221.679 169.847 221.903 169.67 222.14C168.2 227.41 163.2 225.41 160.53 226.38C160.13 226.5 159.74 226.63 159.37 226.78C155.65 228.21 153.2 230.65 153.2 233.41C153.2 237.83 159.47 241.41 167.2 241.41C172.02 241.41 176.27 240.02 178.79 237.9C180.79 238.915 183.007 239.426 185.25 239.39C185.892 239.39 186.533 239.35 187.17 239.27C187.477 239.233 187.781 239.177 188.08 239.1C191.25 235.39 195.25 239.39 198.22 239.36C198.56 239.36 198.9 239.36 199.22 239.36C199.888 239.36 200.556 239.32 201.22 239.24L201.86 239.15C204.2 239.36 205.2 238.36 206.27 237.6C206.564 237.426 206.848 237.236 207.12 237.03C208.099 236.338 208.806 235.327 209.12 234.17C209.181 233.904 209.211 233.632 209.21 233.36C209.21 230.36 206.21 230.36 204.88 229.36C204.62 229.23 204.32 229.07 204.01 228.89Z" fill="#443826"/>
<path d="M238.18 190.11C238.219 189.872 238.242 189.631 238.25 189.39C238.251 188.733 238.123 188.082 237.872 187.475C237.622 186.867 237.254 186.315 236.79 185.85C234.25 182.39 231.25 187.39 227.25 182.39C226.287 181.418 224.978 180.868 223.61 180.86C217.25 182.39 212.25 187.39 214.25 193.39C211.25 193.39 206.25 193.39 207.25 197.39C207.25 202.39 215.25 202.39 220.72 200.17C221.377 200.313 222.047 200.387 222.72 200.39C223.739 200.393 224.752 200.231 225.72 199.91C227.563 200.901 229.627 201.41 231.72 201.39C236.97 201.39 241.22 198.48 241.22 194.89C241.16 193.901 240.85 192.943 240.318 192.107C239.786 191.27 239.051 190.583 238.18 190.11Z" fill="#443826"/>
<path d="M253.82 201.7C252.25 197.39 244.25 197.39 245.25 203.39C243.04 203.39 241.25 204.29 241.25 205.39C241.25 206.49 243.04 207.39 245.25 207.39C246.119 207.401 246.982 207.241 247.79 206.92C251.25 206.39 253.25 209.39 256.25 207.39C258.25 205.39 257.25 204.39 256.08 202.88C255.481 202.244 254.685 201.828 253.82 201.7Z" fill="#443826"/>
<path d="M201.05 128.33C200.918 128.341 200.787 128.3 200.684 128.216C200.581 128.132 200.515 128.012 200.5 127.88L200.31 126.03V125.51C199.31 117.39 198.31 110.39 198.17 102.64C198.253 102.538 198.37 102.47 198.5 102.45C198.632 102.439 198.764 102.479 198.866 102.563C198.969 102.647 199.035 102.768 199.05 102.9L199.11 103.54C199.11 103.64 199.11 103.75 199.11 103.88C199.26 111.39 201.26 118.39 201.32 125.94L201.37 126.4L201.5 127.78C201.507 127.845 201.501 127.912 201.482 127.975C201.463 128.039 201.431 128.097 201.39 128.149C201.348 128.2 201.296 128.242 201.238 128.273C201.18 128.304 201.116 128.323 201.05 128.33Z" fill="#F2F2F2"/>
<path d="M242.48 144.87C242.25 146.39 239.25 146.39 238.48 147.17L238.16 147.36L236.42 148.36L236.07 148.57C231.24 150.39 227.24 154.39 222.24 156.57C222.179 156.607 222.111 156.631 222.04 156.639C221.97 156.648 221.898 156.641 221.83 156.62C221.76 156.605 221.694 156.575 221.637 156.531C221.58 156.488 221.533 156.433 221.5 156.37L221.34 156.1C224.24 152.41 230.24 151.41 233.91 148.22L234.28 148L236.82 146.54L237.16 146.34C239.24 145.41 240.24 144.41 242.16 143.63C242.23 143.645 242.296 143.675 242.353 143.718C242.41 143.761 242.457 143.817 242.49 143.88L242.65 144.15C242.72 144.275 242.738 144.422 242.7 144.56C242.668 144.687 242.59 144.798 242.48 144.87Z" fill="#F2F2F2"/>
</g>
<defs>
<clipPath id="clip0_296_264">
<rect width="257.4" height="241.39" fill="white"/>
</clipPath>
</defs>
</svg>
