<svg width="167" height="201" viewBox="0 0 167 201" fill="none" xmlns="http://www.w3.org/2000/svg">
<g clip-path="url(#clip0_297_282)">
<path d="M156.788 31.2936H10.2122V24.072H133.888C141.169 24.072 149.579 22.8684 156.788 24.072V31.2936Z" fill="#6F95F6"/>
<path d="M147.777 30.0898H68.2899C60.3893 31.2875 52.3538 31.2875 44.4532 30.0898H19.223V13.2395H42.0504C50.5825 14.4433 59.2409 14.4433 67.7731 13.2395H147.789L147.777 30.0898Z" fill="#6F95F6"/>
<path d="M88.3058 0H78.6942V15.6467H88.3058V0Z" fill="#6F95F6"/>
<path d="M136.363 201H116.612C107.662 199.816 98.599 199.775 89.6395 200.88L87.4047 200.771C82.1304 200.495 76.4114 200.158 71.089 200.988H30.6367L29.3511 185.787L29.1349 183.139C28.5822 179.299 28.1258 175.46 27.7293 171.621L27.441 168.744C25.831 149.234 27.0323 131.18 23.1036 111.597C23.0195 110.67 22.9475 109.732 22.8754 108.805C21.674 92.9896 20.5325 77.1745 18.8505 61.3592C18.7664 60.4084 18.6824 59.5057 18.6103 58.6271L17.4088 44.521H149.567L148.594 56.1117L148.378 58.6271C144.773 86.6467 144.774 114.329 141.313 142.132C141.313 142.831 141.205 143.541 141.145 144.239L136.363 201Z" fill="#F2F2F2"/>
<path d="M166.916 55.4256C163.996 55.3654 161.594 55.3654 158.71 55.4256H0C0 55.4256 0.000105591 54.4146 0.108235 52.7537C0.61881 46.0996 0.61881 39.4159 0.108235 32.7618C0.0361488 31.1611 0.0360784 30.1501 0.0360784 30.1501H167.036C167.036 30.1501 167.036 30.8121 167.036 31.9435C166.471 38.8878 166.446 45.8655 166.964 52.8136C166.94 54.3903 166.916 55.4256 166.916 55.4256Z" fill="#6F95F6"/>
<path d="M54.0287 180.383L46.82 180.635L46.4595 170.333L46.3997 168.696C46.0032 163.219 45.7149 157.659 45.4986 152.05C45.4986 151.111 45.4985 150.184 45.4024 149.258C46.2554 128.797 43.8525 107.132 43.5522 86.9476C43.5522 86.0208 43.492 85.1662 43.4559 84.4079L43.2879 79.5935L49.3672 79.377H50.4965C51.0612 102.342 51.0612 126.413 52.6592 149.185L52.8032 151.893C53.0194 156.431 53.2598 160.944 53.5001 165.434V167.324L54.0287 180.383Z" fill="#443826"/>
<path d="M85.9028 180.539H79.8957C77.4928 160.078 78.6942 138.413 78.3939 118.409C78.3939 117.482 78.3938 116.556 78.3337 115.629C78.1175 103.593 77.9854 91.5572 78.6942 79.437H85.9028V180.539Z" fill="#443826"/>
<path d="M117.14 180.659L109.932 179.973L110.016 179.07L110.256 176.519C110.34 175.712 110.424 174.906 110.484 174.112C114.701 148.054 113.5 121.575 118.053 94.5783C118.137 93.6636 118.222 92.7727 118.306 91.9302L119.507 79.3286L126.716 80.0147L126.271 84.6969C126.271 85.2866 126.151 85.9003 126.079 86.6225C123.147 115.509 120.745 144.395 117.549 172.956C117.549 173.763 117.549 174.569 117.645 175.363C117.741 176.158 117.525 176.651 117.477 177.205L117.14 180.659Z" fill="#443826"/>
</g>
<defs>
<clipPath id="clip0_297_282">
<rect width="167" height="201" fill="white"/>
</clipPath>
</defs>
</svg>
