<svg width="319" height="252" viewBox="0 0 319 252" fill="none" xmlns="http://www.w3.org/2000/svg">
<g clip-path="url(#clip0_315_529)">
<path d="M204.57 181.15C205.95 172.2 199.95 164.2 192.29 160.7C191.296 160.319 190.273 160.018 189.23 159.8C187.809 159.507 186.361 159.357 184.91 159.35C181.91 159.2 178.91 160.2 176.91 159.2C167.91 152.2 161.91 142.2 150.91 138.2C131.91 131.2 106.91 140.2 98.91 159.2C97.4967 158.413 96.0633 157.69 94.61 157.03C71.95 145.15 49.9501 162.15 37.9501 183.15C33.9501 189.15 19.9501 187.15 12.9501 194.1C11.6177 195.052 10.339 196.077 9.11999 197.17C0.709991 204.79 -3.61995 215.36 3.93005 226.85C4.60019 228.003 5.3486 229.109 6.17004 230.16C7.95359 232.428 9.99393 234.482 12.2501 236.28C13.4435 237.24 14.7102 238.163 16.0502 239.05C45.9502 254.15 79.9501 255.15 111.95 243.15C113.848 242.723 115.83 242.876 117.64 243.59C118.791 243.97 119.919 244.414 121.02 244.92C138.95 248.15 158.95 246.15 175.95 238.15C177.8 237.691 179.716 237.563 181.61 237.77C182.69 237.82 183.81 237.91 184.93 237.98C198.93 236.15 212.93 232.15 225.93 224.15C232.93 218.15 235.93 209.15 231.93 200.15C231.281 198.852 230.507 197.619 229.62 196.47C222.93 190.15 216.93 185.15 207.62 182.04C206.67 181.7 205.63 181.38 204.57 181.15Z" fill="#443826"/>
<path d="M296.45 202.15C295.37 202.15 294.31 202.2 293.27 202.29C292.114 202.329 290.98 202.623 289.95 203.15C285.95 193.15 274.95 192.15 265.95 193.15C262.211 193.594 258.661 195.034 255.67 197.322C252.679 199.609 250.358 202.658 248.95 206.15C246.95 213.15 249.95 219.15 254.95 224.15C257.174 226.352 259.993 227.856 263.06 228.48C264.585 228.812 266.139 228.993 267.7 229.02C279.371 227.3 291.208 227.007 302.95 228.15C309.95 228.15 318.95 223.15 318.95 215.15C317.95 207.15 308.95 204.15 302.43 202.63C300.453 202.309 298.453 202.149 296.45 202.15Z" fill="#443826"/>
<path d="M116.95 137.15C115.221 137.158 113.494 137.278 111.78 137.51C102.684 138.759 94.3477 143.259 88.3125 150.178C82.2774 157.098 78.9516 165.968 78.95 175.15H94.0201C114.95 173.15 134.95 174.15 155.95 176.15C156.95 156.15 140.95 139.149 122.2 137.449C120.458 137.244 118.704 137.144 116.95 137.15Z" fill="#EB5050"/>
<path d="M133.16 179.84C131.976 184.668 129.375 189.033 125.692 192.372C122.009 195.711 117.411 197.874 112.49 198.58C111.49 198.83 110.49 199.06 109.41 199.25C106.112 199.859 102.764 200.16 99.41 200.15C80.91 200.15 65.91 191.2 65.91 180.15C65.91 170.49 77.39 162.42 92.66 160.56C93.75 160.42 94.86 160.32 95.99 160.25C108.91 160.15 127.91 159.15 132.71 175.5C133.049 176.921 133.201 178.38 133.16 179.84Z" fill="#443826"/>
<path d="M165.03 185.22C164.9 188.252 163.954 191.192 162.29 193.73C161.427 195.004 160.402 196.16 159.24 197.17C155.394 200.44 150.498 202.215 145.45 202.17C140.402 202.215 135.506 200.44 131.66 197.17C130.513 196.157 129.504 194.997 128.66 193.72C122.95 186.15 126.95 173.15 136.95 170.15C147.95 167.15 160.95 170.15 164.48 180.85C164.883 182.271 165.069 183.744 165.03 185.22Z" fill="#443826"/>
<path d="M113.23 151.06L106.66 131.9L106.21 130.58C104.95 123.15 100.95 117.15 99.6298 111.44L99.2299 110.31C98.0899 106.23 100.02 102.94 101.91 99.6497C102.28 98.9897 102.66 98.3297 103 97.6497C105.95 92.1297 103.95 87.1298 102.94 81.5198C102.69 80.8798 102.46 80.2296 102.23 79.5896C100.38 74.4296 98.8798 69.2296 94.5998 65.5896C94.1598 65.1396 93.7099 64.7196 93.2499 64.3196C93.1599 62.1596 93.0998 59.8296 92.8798 57.5296C92.7998 56.7596 92.7098 55.9895 92.5898 55.2395C92.9498 46.1095 83.9499 44.1099 81.7299 35.8499C81.6099 35.0899 81.4798 34.3296 81.3298 33.5696C78.5098 19.9396 67.3299 6.66952 53.1699 11.7395C51.9588 12.1028 50.7943 12.6062 49.6999 13.2395C48.0231 14.1814 46.5585 15.459 45.3972 16.992C44.2358 18.5249 43.4027 20.2805 42.9499 22.1497C42.219 26.8569 42.533 31.6673 43.8698 36.2395C44.3091 37.7322 44.8436 39.1955 45.4699 40.6199C46.1108 42.0596 46.8387 43.4588 47.6498 44.8098C49.5365 47.9291 51.8002 50.8041 54.3898 53.3699C54.8298 53.8099 55.2799 54.2397 55.7299 54.6697C54.9499 63.1497 58.9499 69.1497 64.1599 73.6697C64.5699 74.1897 64.9798 74.6697 65.3998 75.1897C70.9498 89.1497 71.9499 108.15 92.9499 109.15C93.4499 109.15 94.45 110.15 95.3 111.65C95.5982 112.183 95.8556 112.738 96.07 113.31C98.7991 119.852 101.137 126.55 103.07 133.37L103.6 134.699L110.41 152.1L113.23 151.06Z" fill="#5EB88A"/>
<path d="M136.51 0.35022C131.95 -0.84978 127.95 1.15002 123.95 4.15002C117.95 9.15002 115.95 16.15 117.13 24.34C117.18 24.92 117.23 25.4899 117.31 26.0499C117.611 28.2198 118.213 30.337 119.1 32.34C118.76 32.75 118.44 33.17 118.1 33.61C113.92 39.15 111.92 46.1498 114.1 53.4698C114.26 54.1598 114.43 54.8298 114.63 55.4698C115.199 57.3567 116.031 59.1545 117.1 60.8102C116.615 61.2345 116.155 61.6848 115.72 62.1598C110.64 65.8898 108.8 71.8802 109.06 78.0602C109.06 78.7502 109.14 79.4302 109.22 80.1202C108.94 87.1202 112.94 95.1198 119.55 97.4098C120.16 97.684 120.788 97.915 121.43 98.1002L120.97 102.16C120.9 102.79 120.82 103.49 120.74 104.24C118.94 111.13 119.94 118.13 118.33 125.51L118.14 127.23L115.23 152.93L118.23 153.33L122.23 127.61L122.5 125.89C122.87 118.697 123.99 111.562 125.84 104.6C125.96 103.85 126.07 103.15 126.17 102.51L126.8 98.4498C127.33 98.3789 127.854 98.2721 128.37 98.13C136.93 96.13 142.93 87.13 143.37 78.59C143.37 77.95 143.37 77.31 143.37 76.67C143.256 74.7732 142.841 72.9067 142.14 71.1403C141.98 70.4503 141.8 69.7903 141.6 69.1403C134.97 62.1403 146.97 56.1401 145.98 47.2101C145.98 46.5401 145.87 45.8601 145.8 45.2101C145.39 41.2101 144.8 37.2101 146.63 33.2101C146.92 32.7501 147.19 32.2601 147.44 31.7701C147.69 31.2801 147.94 30.7699 148.16 30.2399C148.38 29.7099 148.6 29.1903 148.81 28.6403C150.348 25.6008 151.133 22.2364 151.1 18.8302C151.088 18.1881 151.041 17.5468 150.96 16.9098C149.96 10.1798 145.96 4.18008 140.17 1.46008C139.587 1.20629 138.99 0.989295 138.38 0.810181C137.768 0.614738 137.143 0.461091 136.51 0.35022Z" fill="#5EB88A"/>
</g>
<defs>
<clipPath id="clip0_315_529">
<rect width="318.95" height="251.36" fill="white"/>
</clipPath>
</defs>
</svg>
