<svg width="165" height="140" viewBox="0 0 165 140" fill="none" xmlns="http://www.w3.org/2000/svg">
<g clip-path="url(#clip0_301_317)">
<path d="M117 18.9402C113.05 15.8802 113.05 10.8802 109.19 7.6502C108.427 6.92432 107.612 6.25584 106.75 5.6502C100.07 0.960201 92.1501 5.30026 84.5301 6.96026C83.6001 7.12026 82.6901 7.25014 81.7901 7.34014C80.5984 7.45902 79.3949 7.35728 78.2401 7.04009C69.8701 2.34009 63.32 4.41028 54.71 5.73028C53.9457 5.83877 53.1671 5.78145 52.4268 5.56231C51.6866 5.34317 51.0021 4.96734 50.42 4.46026C48.55 2.84026 47.4201 2.71012 45.0701 2.07012C41.0701 0.880122 39.0701 -0.659887 35.0201 0.310113C34.3501 0.550113 33.6801 0.810132 33.0201 1.08013C32.3601 1.35013 31.7101 1.64024 31.0201 1.94024C25.0201 3.88024 25.8501 10.4302 25.0201 10.8802C19.0201 11.8802 13.6101 13.5901 9.81013 21.2701C9.38013 22.1301 8.99997 23.0002 8.64997 23.8902C1.01997 35.8902 3.02007 41.8901 4.50007 51.8201C4.68007 52.9201 4.88018 54.0101 5.11018 55.0901C7.44036 65.7943 13.3619 75.3793 21.8914 82.2535C30.421 89.1277 41.0452 92.8775 52.0001 92.8802C62.0473 92.8975 71.8446 89.7483 80.0001 83.8802C83.9164 90.4642 89.5206 95.8825 96.233 99.5745C102.945 103.267 110.522 105.098 118.18 104.88C126.9 104.639 135.337 101.728 142.35 96.5401C143.21 95.9134 144.04 95.2468 144.84 94.5401C145.49 94.0201 146.13 93.5402 146.75 92.9302C147.37 92.3202 147.97 91.8103 148.56 91.2203C149.36 90.4303 150.12 89.6101 150.85 88.7701C151.58 87.9301 152.26 87.0702 152.91 86.1902C158.97 77.8802 162.97 67.8802 160.17 57.6602C160.04 56.9102 159.88 56.1602 159.7 55.4102C159.52 54.6602 159.32 53.9102 159.09 53.1702C158.86 52.4302 158.72 51.5103 158.5 50.7002C158.28 49.8902 158.04 49.0801 157.78 48.2901C157.42 47.2201 157.03 46.1702 156.59 45.1502C154.9 42.6702 153.18 40.0303 151.34 37.4502C150.72 36.5902 150.1 35.7402 149.45 34.9002C145.777 29.6537 140.705 25.5442 134.81 23.0401C131 20.8801 121 21.8802 117 18.9402Z" fill="#443826"/>
<path d="M162 138.88C145.702 137.88 129.358 137.88 113.06 138.88H74.9299C50.9999 138.88 27.9999 139.88 3.92993 137.45L3.78003 134.03C2.89003 114.65 1.95012 95.7102 1.12012 75.7502L0.939941 72.26C0.869941 71.09 0.80999 69.9202 0.73999 68.7402C0.66999 67.5602 0.620059 66.1802 0.560059 65.0002L0.0800781 54.5701C0.0800781 53.4801 0 52.8801 0 52.8801C2.54993 52.9334 5.10071 52.8399 7.63989 52.6001L10.24 52.5002C12.24 52.3802 14.24 52.2802 16.24 52.2002C17.24 52.1502 18.2401 52.1201 19.3101 52.0801C39.0201 51.8801 60.02 50.8802 79.96 49.9602L82.3701 49.8701L164.02 46.8701L163.87 53.9802C163.87 54.8602 163.87 55.8201 163.81 56.8501C164.02 66.8501 164.02 77.8502 164.02 87.9902C164.02 88.9902 164.02 89.99 164.02 91.04C164.035 94.1519 163.818 97.2605 163.37 100.34C163.32 101.51 163.28 102.68 163.23 103.84C162.95 110.84 162.6 117.84 162.3 124.5C162.3 125.16 162.3 125.8 162.3 126.43C162.03 129.87 162.03 133.87 162.06 137.32C162 138.34 162 138.88 162 138.88Z" fill="#5EB88A"/>
<path d="M35.3 98.3699V92.8799C35.3 85.7599 39.7299 81.25 46.6699 81.25C53.6099 81.25 57.4101 84.8699 57.8501 92.1799H49.73C49.33 89.7099 48.7301 88.97 46.6001 88.97C44.4701 88.97 43.4199 90.3299 43.4199 92.9199V98.7898C43.4199 101.37 44.5301 102.74 46.6001 102.74C49.0001 102.74 49.48 101.74 49.73 99.1199H57.8501C57.6001 103.25 56.2201 106.19 53.8501 107.97C53.5854 108.174 53.3081 108.361 53.02 108.53C52.1545 108.93 51.2497 109.238 50.3201 109.45L49.4199 109.62C46.0199 109.93 44.02 109.93 41.02 108.85C40.72 108.7 40.4299 108.54 40.1599 108.37C37.0799 106.4 35.3 102.88 35.3 98.3699Z" fill="#F2F2F2"/>
<path d="M74.55 104.75H69L68.1201 109.47H59.8899L65.6799 81.4199H77.8999L83.6899 109.47H75.46L74.55 104.75ZM73.22 97.4399L71.78 89.4399L70.3 97.4399H73.22Z" fill="#F2F2F2"/>
<path d="M94.8501 87.1299V91.1299H103.2V98.47H94.8501V107.47H86.73V79.4199H87.5L88.5 79.5C88.85 79.5 89.19 79.5498 89.55 79.5598C92.682 79.8365 95.8283 79.9133 98.97 79.7898H99.97C100.97 79.7298 101.97 79.6498 102.83 79.5398L103.75 79.46H104.52V87.1699H94.77L94.8501 87.1299Z" fill="#F2F2F2"/>
<path d="M115.45 89.8801V93.9802H123.79V101.28H115.45V105.12H125.2V112.43H120.32C116.257 112.84 112.163 112.84 108.1 112.43H107.33V82.1602H112.98C116.496 81.8398 120.034 81.8398 123.55 82.1602H125.2V89.8801H115.45Z" fill="#F2F2F2"/>
</g>
<defs>
<clipPath id="clip0_301_317">
<rect width="164.03" height="139.08" fill="white"/>
</clipPath>
</defs>
</svg>
