<svg width="388" height="242" viewBox="0 0 388 242" fill="none" xmlns="http://www.w3.org/2000/svg">
<g clip-path="url(#clip0_309_455)">
<path d="M246.82 67.6701C246.82 67.6701 238.49 32.2498 252.49 22.1798C253.963 21.1324 255.628 20.3852 257.39 19.9801C265.82 19.6701 274.82 24.6701 279.82 17.6701C285.82 8.67007 290.82 -1.32995 302.88 0.15005C304.38 0.26005 305.82 0.410226 307.2 0.580226C308.58 0.750226 309.79 0.920265 311.01 1.12027C312.23 1.32027 313.41 1.53015 314.55 1.75015C321.69 2.75015 328.25 5.69021 334.79 8.06021C336.42 8.65021 338.05 9.19985 339.65 9.69985C353.82 13.6999 367.82 9.69985 381.82 14.6999C392.82 19.6999 385.82 34.6999 377.82 37.6999C363.82 42.6999 349.82 38.6999 335.82 34.2199C334.22 33.8799 332.61 33.6098 331.01 33.4298C323.01 32.5498 315.21 33.8902 308.64 41.0802C307.44 41.7102 306.24 42.2802 305.02 42.8102C297.834 46.0181 290.06 47.6967 282.19 47.7399C280.97 47.9712 279.764 48.2752 278.58 48.6501C262.32 53.8001 254.28 70.4601 254.28 70.4601L246.82 67.6701Z" fill="#443826"/>
<path d="M149.25 204.67H264.87V113.83L212.42 148V100.93L163.18 150.17V107.9L147.33 123.75L144.75 126.32C133.82 138.67 120.82 148.67 110.55 160.53L107.96 163.11L92.11 178.96V204.67H149.25Z" fill="#6F95F6"/>
<path d="M151.82 171.67H127.82V156.67H151.82V171.67Z" fill="#F2F2F2"/>
<path d="M0.000183105 241.67H178.82C178.57 238.67 178.38 235.67 178.18 232.67C178.08 231.17 177.98 229.67 177.86 228.16C177.86 214.68 173.86 201.68 169.34 189.21C168.63 187.21 167.87 185.28 167.06 183.41C159.76 166.58 148.15 155.41 129.82 166.68C128.82 164.92 127.9 163.11 126.98 161.27C126.06 159.43 125.17 157.56 124.33 155.66C117.82 141.66 114.82 126.66 104.91 114.66C104.04 113.45 103.17 112.32 102.27 111.3C99.5902 108.24 96.7001 106.19 93.4601 105.53C92.1433 105.263 90.7906 105.223 89.4601 105.41C41.8201 124.67 18.82 174.67 4.82001 220.41C4.36667 222.15 3.93664 223.907 3.52997 225.68C3.1233 227.453 2.74007 229.24 2.38007 231.04C1.94007 232.84 1.51981 234.627 1.11981 236.4C0.719812 238.173 0.34685 239.93 0.000183105 241.67Z" fill="#443826"/>
<path d="M259.81 148.67H244.81V67.6699L259.81 65.6699V148.67Z" fill="#6F95F6"/>
<path d="M202.81 171.67H178.81V156.67L202.81 154.67V171.67Z" fill="#F2F2F2"/>
<path d="M255.81 171.67H229.81V156.67H253.81L255.81 171.67Z" fill="#F2F2F2"/>
<path d="M164.02 225.67C169.82 225.67 176.82 225.67 183.15 225.74L187.76 225.54C196.98 225.08 206.22 224.48 215.82 225.68C215.89 218.922 214.877 212.197 212.82 205.76C212.51 204.66 212.18 203.55 211.82 202.46C208.21 191.55 201.82 182.02 190.82 187.57C188.487 188.77 186.067 189.793 183.58 190.63C181.792 191.228 179.955 191.67 178.09 191.95C166.82 189.67 160.82 197.67 156.82 206.67C154.82 211.67 154.82 220.67 160.38 223.92C161.495 224.689 162.723 225.28 164.02 225.67Z" fill="#443826"/>
</g>
<defs>
<clipPath id="clip0_309_455">
<rect width="387.49" height="241.67" fill="white"/>
</clipPath>
</defs>
</svg>
