<svg width="156" height="113" viewBox="0 0 156 113" fill="none" xmlns="http://www.w3.org/2000/svg">
<g clip-path="url(#clip0_306_410)">
<path d="M41.7156 25.1006C41.7156 25.1006 40.0235 25.9761 37.3669 27.4077L32.7512 29.9417L0.451415 47.7397V51.4993C0.451415 51.901 0.451415 52.3026 0.451415 52.7146C0.451415 63.5604 -0.574294 74.8903 0.451415 86.2202H1.30283C4.1543 86.2202 19.2733 86.663 19.5502 86.663H39.8696C41.8028 86.2348 43.7966 86.1581 45.7569 86.4364C45.7569 86.2819 45.7569 86.0554 45.7569 85.767L42.3312 34.6692C42.2081 32.7431 42.0952 31.0334 42.0131 29.6121C41.808 26.7899 41.7156 25.1006 41.7156 25.1006Z" fill="#5EB88A"/>
<path d="M4.55414 50.1705V62.5304H8.25681C11.734 62.5304 14.8112 62.5304 18.3396 62.5304H19.0883H24.1658L25.9403 39.2319L4.55414 50.1705Z" fill="#F2F2F2"/>
<path d="M4.55414 74.1284V82.3168C4.55414 82.3168 9.68268 82.1005 9.68268 79.0106C9.68268 75.9206 4.55414 74.1284 4.55414 74.1284Z" fill="#FFD200"/>
<path d="M0.451324 47.7298L16.4216 25.0906L44.5568 5.88135L32.7509 29.9419L0.451324 47.7298Z" fill="#5EB88A"/>
<path d="M153.6 0L153.22 0.432515L153.528 0H49.7364L30.1969 19.271L32.3304 91.3702H99.5554C104.048 92.4002 108.151 91.3702 112.766 91.3702H138.922L156 62.5305L153.6 0Z" fill="#5EB88A"/>
<path d="M67.1222 98.0652C67.1222 102.026 65.5551 105.825 62.766 108.626C59.9768 111.426 56.194 113 52.2494 113C49.8715 113.007 47.5273 112.434 45.4181 111.331C45.0693 111.156 44.7411 110.961 44.3924 110.765C38.4022 107.85 35.3253 99.6102 37.3767 93.4303C38.4024 91.3703 39.4283 87.2504 43.4593 86.0144C43.7739 85.7878 44.0915 85.5714 44.4129 85.3654C46.7672 83.903 49.4811 83.1291 52.2494 83.1304C56.194 83.1304 59.9768 84.704 62.766 87.5048C65.5551 90.3056 67.1222 94.1042 67.1222 98.0652Z" fill="#443826"/>
<path d="M132.768 98.0654C132.769 100.061 132.371 102.036 131.598 103.874C131.448 104.238 131.284 104.582 131.106 104.904C129.69 107.83 126.614 109.89 123.68 111.795C123.326 111.957 122.963 112.098 122.593 112.217C121.078 112.724 119.491 112.981 117.895 112.98C117.515 112.98 117.136 112.98 116.767 112.98C104.048 111.95 98.9193 97.5297 106.099 88.2598C109.176 85.1699 114.305 82.08 119.239 83.213L119.885 83.2849C120.545 83.361 121.2 83.4816 121.844 83.6455C123.09 83.9902 124.286 84.4957 125.403 85.1493C127.647 86.4684 129.508 88.3552 130.8 90.6213C132.093 92.8875 132.771 95.454 132.768 98.0654Z" fill="#443826"/>
</g>
<defs>
<clipPath id="clip0_306_410">
<rect width="156" height="113" fill="white"/>
</clipPath>
</defs>
</svg>
