<svg width="227" height="102" viewBox="0 0 227 102" fill="none" xmlns="http://www.w3.org/2000/svg">
<g clip-path="url(#clip0_307_427)">
<path d="M0 44.3701V66.0352L75.3253 93.3152V60.9783L0 44.3701Z" fill="#6F95F6"/>
<path d="M75.3253 60.9786L162.5 25.665V60.9786L75.3253 93.3155V60.9786Z" fill="#6F95F6"/>
<path d="M0 44.37L89.7133 11.1621L162.5 25.6647L75.3253 60.9782L0 44.37Z" fill="#6F95F6"/>
<path d="M178.58 51.8792L227 50.188V57.0968H178.58V51.8792Z" fill="#443826"/>
<path d="M219.916 98.3892C212.434 103.463 192.122 103.463 186.257 96.6979L183.895 55.0845H222.277L219.916 98.3892Z" fill="#443826"/>
<path d="M192.655 1.45469C192.215 4.13534 198.935 15.4582 209.692 11.0017C209.743 1.40378 199.874 -2.31682 192.655 1.45469Z" fill="#FFD200"/>
<path d="M85.0583 43.8461L105.709 48.8522V66.2637L131.887 56.4375V38.248L110.212 33.4194L85.0583 43.8461Z" fill="#F2F2F2"/>
<path d="M199.739 18.0542C192.122 18.8998 189.583 28.2018 195.507 34.1212C207.356 31.5843 199.739 18.0542 199.739 18.0542Z" fill="#FFD200"/>
<path d="M189.583 10.4434C189.583 10.4434 177.734 10.4434 178.58 22.2822C192.968 23.1278 189.583 10.4434 189.583 10.4434Z" fill="#FFD200"/>
</g>
<defs>
<clipPath id="clip0_307_427">
<rect width="227" height="102" fill="white"/>
</clipPath>
</defs>
</svg>
