<svg width="260" height="142" viewBox="0 0 260 142" fill="none" xmlns="http://www.w3.org/2000/svg">
<g clip-path="url(#clip0_298_310)">
<path d="M27.6809 39.0679C26.2816 40.3551 24.9346 41.7205 23.6222 43.1468C17.1115 50.4301 11.6043 58.553 7.24811 67.2991C6.47751 69.0386 5.7765 70.804 5.14495 72.5956C-2.40753 94.6431 -4.14568 123.344 17.5818 136.39C31.4874 145.087 48.8695 142.478 62.4101 136.173C65.4535 134.833 68.4164 133.317 71.2836 131.633C80.7383 126.005 89.2957 118.989 96.67 110.82C99.06 108.211 101.38 105.437 103.623 102.532C105.865 99.6268 107.925 96.6696 109.828 93.6777C111.731 90.6859 113.47 87.668 115.043 84.6327C116.616 81.5973 118.032 78.5446 119.284 75.5093C127.975 54.6359 132.32 26.8047 114.069 10.2799C87.9963 -13.2027 53.2324 7.67066 35.4332 31.5359C33.3126 33.658 31.2094 35.7281 29.1844 37.6849C28.6716 38.1111 28.1763 38.5895 27.6809 39.0679Z" fill="#443826"/>
<path d="M31.053 108.307C43.6549 98.1222 50.6076 84.2067 60.6979 73.2047C62.5519 70.7869 64.4497 68.3806 66.3907 65.986C77.9845 51.592 90.3691 37.2415 94.9318 18.9773C94.0627 18.9773 92.3245 19.847 91.4554 19.847C83.6335 36.1544 73.3694 50.0178 62.6707 64.0204L57.3 71.0478C48.8697 82.4673 39.3096 92.904 30.5403 105.393C30.2256 105.849 30.1028 106.41 30.1987 106.955C30.2947 107.501 30.6017 107.986 31.053 108.307Z" fill="#F2F2F2"/>
<path d="M112.027 121.709V114.056C112.027 102.749 119.032 95.5132 130.035 95.5132C141.037 95.5132 147.973 102.758 147.973 114.056V121.709C147.973 133.016 140.977 140.26 130.035 140.26C119.093 140.26 112.027 133.016 112.027 121.709ZM135.032 122.127V114.117C135.032 109.994 133.294 107.82 130.035 107.82C126.776 107.82 124.968 109.994 124.968 114.117V122.127C124.968 126.302 126.706 128.598 130.035 128.598C133.363 128.598 135.032 126.302 135.032 122.127Z" fill="#F2F2F2"/>
<path d="M149.946 129.476C149.946 125.127 153.127 122.057 157.655 122.057C162.183 122.057 165.303 125.119 165.303 129.476C165.303 133.833 162.183 136.834 157.655 136.834C153.127 136.834 149.946 133.781 149.946 129.476Z" fill="#F2F2F2"/>
<path d="M182.076 119.866H201.544V131.529H169.075V120.457C169.075 111.864 172.655 107.802 181.425 105.854L185.77 104.915C188.186 104.385 189.125 103.497 189.125 101.68C189.125 99.7316 187.943 98.7313 186.066 98.7313C183.71 98.7313 182.772 100.149 182.65 103.15H169.709C169.709 92.6693 175.654 86.7812 185.831 86.7812C195.834 86.7812 202.066 92.5475 202.066 101.793C202.066 110.038 197.364 113.743 187.708 116.1L185.648 116.63C183.484 117.196 182.363 118.022 182.076 119.866Z" fill="#F2F2F2"/>
<path d="M206.289 112.386V111.968C206.289 105.202 210.47 100.784 217.11 100.784C223.75 100.784 228 105.202 228 111.968V112.386C228 119.213 223.759 123.57 217.11 123.57C210.461 123.57 206.289 119.213 206.289 112.386ZM219.117 112.681V111.968C219.117 110.09 218.527 109.359 217.11 109.359C215.693 109.359 215.111 110.594 215.111 111.968V112.681C215.111 114.56 215.641 115.499 217.11 115.499C218.579 115.499 219.117 114.499 219.117 112.681ZM239.35 100.784H250.414L226.948 142H215.884L239.35 100.784ZM238.29 130.807V130.398C238.29 123.571 242.531 119.213 249.18 119.213C255.828 119.213 260 123.562 260 130.398V130.807C260 137.582 255.767 142 249.18 142C242.592 142 238.333 137.582 238.333 130.807H238.29ZM251.179 130.807V130.102C251.179 128.223 250.648 127.275 249.18 127.275C247.711 127.275 247.12 128.632 247.12 130.102V130.807C247.12 132.694 247.763 133.459 249.18 133.459C250.596 133.459 251.179 132.633 251.179 130.807Z" fill="#6F95F6"/>
</g>
<defs>
<clipPath id="clip0_298_310">
<rect width="260" height="142" fill="white"/>
</clipPath>
</defs>
</svg>
