<svg width="175" height="172" viewBox="0 0 175 172" fill="none" xmlns="http://www.w3.org/2000/svg">
<g clip-path="url(#clip0_308_451)">
<path d="M101.74 0.200122C87.4432 -0.587386 73.1078 0.699121 59.1799 4.01995C57.4999 4.39995 55.8399 4.84004 54.1799 5.37004C50.8252 6.42899 47.5963 7.85048 44.55 9.60979C42.95 10.3698 41.37 11.18 39.82 12.06C33.5432 15.6507 27.8314 20.1494 22.8698 25.4101C21.7231 26.6168 20.61 27.8668 19.53 29.1601C-7.82003 66.5201 -8.82025 130.52 31.8098 157.81C33.3398 158.93 34.9198 160.01 36.5598 161.03C38.0298 161.68 39.5097 162.32 41.0197 162.95C54.5697 168.63 69.77 173.24 84.09 170.74C85.71 170.52 87.3 170.27 88.86 170.02C93.0904 169.204 97.3753 168.702 101.68 168.52C125.34 168.52 146.35 155.39 159.59 135.07C160.59 133.51 161.59 131.9 162.5 130.26C166.397 123.63 169.34 116.482 171.24 109.03C171.707 107.176 172.117 105.31 172.47 103.43C172.85 101.66 173.15 99.88 173.39 98.1C177.18 71.52 165.18 43.5197 148.52 22.2997C147.34 20.8597 146.14 19.46 144.92 18.1C143.7 16.74 142.447 15.4067 141.16 14.1C139.74 12.99 138.28 11.9702 136.8 11.0102C130.326 6.82079 123.168 3.79823 115.65 2.08C114.14 1.74 112.65 1.45014 111.08 1.22014C109.51 0.990142 107.99 0.780044 106.44 0.620044C104.89 0.460044 103.32 0.310122 101.74 0.200122Z" fill="#FFD200"/>
<path d="M104.3 15.0298C106.1 14.0998 107.94 14.7001 109.62 15.8101C111.186 16.957 112.651 18.2348 114 19.6299C125.09 33.6299 131.89 50.5502 134.7 68.1402C135.02 70.1402 135.28 72.0598 135.5 74.0298C140.18 103.52 132.18 133.52 112.11 155.45C111.23 156.45 110.33 157.34 109.41 158.26C108.815 158.983 108.066 159.565 107.219 159.965C106.372 160.364 105.447 160.571 104.51 160.57L103.85 159.83C103.92 158.93 104.167 158.051 104.577 157.247C104.988 156.442 105.553 155.726 106.24 155.14C125.18 134.52 132.18 106.52 130.31 79.1402C130.243 77.2668 130.133 75.4068 129.98 73.5601C128.29 53.2501 121.64 33.7702 107.53 19.3902C106.077 18.6238 104.873 17.4576 104.06 16.0298L104.3 15.0298Z" fill="#443826"/>
<path d="M72.59 119.74C72.59 119.74 72.4199 122.47 72.2799 125.21L71.9899 130.67H56.4L56.9899 119.38C50.2999 117.38 46.5697 112.74 45.5797 105.18C45.3769 103.558 45.2903 101.924 45.3199 100.29C47.9817 100.52 50.6582 100.52 53.3199 100.29H58.84C63.17 102.52 61.17 108.52 67.17 106.52C70.17 105.52 72.17 104.52 72.17 102.52C71.17 96.52 63.1698 99.5202 58.9298 96.9502C57.6979 96.8866 56.4894 96.5875 55.3697 96.0698C49.9497 93.5798 47.17 86.35 47.17 80.52C47.7781 76.7051 49.155 73.0533 51.2179 69.7871C53.2808 66.5209 55.9865 63.7084 59.17 61.52C59.1768 59.7929 59.3777 58.0722 59.7696 56.3901L60.0797 50.52H75.67L75.09 61.6001C77.6279 62.182 79.9729 63.4077 81.8995 65.1592C83.8262 66.9107 85.2696 69.1289 86.09 71.6001C86.5373 72.9519 86.8454 74.3459 87.0099 75.7603C87.1499 77.5003 87.15 79.5 87.15 79.5C82.15 81.5 76.1497 80.5 71.0997 80.5C71.272 79.1234 71.0172 77.727 70.3697 76.5C70.0222 76.067 69.5695 75.7303 69.0548 75.522C68.5401 75.3137 67.9807 75.2408 67.4298 75.3101C66.6716 75.3579 65.9391 75.6027 65.3043 76.02C64.6695 76.4374 64.1541 77.0128 63.8097 77.6899C63.4518 78.2708 63.2914 78.9518 63.3527 79.6313C63.4139 80.3109 63.6939 80.9525 64.15 81.46C70.15 83.46 78.15 83.46 83.15 87.46C93.15 96.46 88.1497 112.46 76.8297 118.25C75.4695 118.887 74.0494 119.386 72.59 119.74Z" fill="#443826"/>
</g>
<defs>
<clipPath id="clip0_308_451">
<rect width="174.09" height="171.44" fill="white"/>
</clipPath>
</defs>
</svg>
