<svg width="159" height="155" viewBox="0 0 159 155" fill="none" xmlns="http://www.w3.org/2000/svg">
<g clip-path="url(#clip0_307_437)">
<path d="M37.06 97.3398V24.2798H40.55L41.83 97.3398H37.06Z" fill="#5EB88A"/>
<path d="M11.6 95.2598L68.81 93.2598V101.43H11.6V95.2598Z" fill="#443826"/>
<path d="M60.4401 150.26C51.6001 156.26 27.6001 156.26 20.6701 148.26L17.88 99.0498H63.2299L60.4401 150.26Z" fill="#443826"/>
<path d="M80.36 40.1699C80.23 39.1099 78.8501 37.22 76.6901 35.51C75.5321 34.584 74.2662 33.8016 72.9201 33.1799C70.4944 31.9723 67.7651 31.5112 65.0773 31.8547C62.3895 32.1983 59.8639 33.3312 57.82 35.1101C58.5951 38.1707 60.5076 40.8205 63.1681 42.5205C65.8286 44.2204 69.037 44.8425 72.14 44.26C73.6544 44.0215 75.1241 43.5564 76.4999 42.8801C77.9159 42.1767 79.2174 41.2628 80.36 40.1699Z" fill="#5EB88A"/>
<path d="M-9.91821e-05 57.34C1.3299 60.27 15.3599 67.03 22.9999 55.6C16.7899 46.12 4.5999 48.91 -9.91821e-05 57.34Z" fill="#5EB88A"/>
<path d="M40.6 40.2598L40.2 38.3498L63.6 28.2598V29.2598L40.6 40.2598Z" fill="#5EB88A"/>
<path d="M37.6 49.2598L14.6 43.2598V44.2598L37.6 51.2598V49.2598Z" fill="#5EB88A"/>
<path d="M39.44 59.4798V61.9998L66.18 55.8198L66.6 54.2598L39.44 59.4798Z" fill="#5EB88A"/>
<path d="M49.9 64.7899C49.9 64.7899 49.54 77.4399 68.6 76.2499C67.41 60.7599 49.9 64.7899 49.9 64.7899Z" fill="#5EB88A"/>
<path d="M25.6 80.2598C30.0183 80.2598 33.6 76.678 33.6 72.2598C33.6 67.8415 30.0183 64.2598 25.6 64.2598C21.1817 64.2598 17.6 67.8415 17.6 72.2598C17.6 76.678 21.1817 80.2598 25.6 80.2598Z" fill="#EB5050"/>
<path d="M134.6 39.7599C134.616 37.249 134.13 34.7602 133.17 32.4398C132.733 31.4037 132.179 30.4208 131.52 29.5099C127.6 23.2599 116.6 25.2599 115.6 32.2599C107.6 29.2599 98.6 36.2599 97.6 44.2599C97.6 51.2599 105.6 58.2599 113.6 55.2599C113.6 56.2599 114.6 57.26 114.6 58.35C114.995 59.3762 115.509 60.3527 116.13 61.2599C116.721 62.1816 117.535 62.9395 118.496 63.4638C119.457 63.9881 120.535 64.2619 121.63 64.2599C126.63 64.2599 130.63 59.2599 130.55 54.2599C130.9 53.0499 131.3 51.93 131.71 50.82C132.54 48.6 133.45 46.3999 134.28 43.5099C134.507 42.2732 134.615 41.0173 134.6 39.7599Z" fill="#443826"/>
<path d="M158.04 51.1299C158.6 55.2599 155.6 57.2598 153.6 58.2598C148.6 60.2598 144.6 55.2598 143.6 51.2598C142.6 46.2598 146.6 43.2598 150.6 43.2598C151.604 43.264 152.594 43.5041 153.488 43.9609C154.383 44.4178 155.157 45.0784 155.75 45.8896C157.133 47.2945 157.948 49.1607 158.04 51.1299Z" fill="#443826"/>
<path d="M143.88 4.53013C143.6 1.26013 141.6 -0.739888 139.6 0.260112C134.6 2.26011 125.6 5.26011 128.6 12.2601C130.6 19.2601 140.6 17.26 140.72 9.14C141.639 8.76363 142.428 8.12685 142.989 7.30772C143.551 6.48859 143.861 5.52303 143.88 4.53013Z" fill="#443826"/>
</g>
<defs>
<clipPath id="clip0_307_437">
<rect width="158.1" height="154.54" fill="white"/>
</clipPath>
</defs>
</svg>
