<svg width="248" height="180" viewBox="0 0 248 180" fill="none" xmlns="http://www.w3.org/2000/svg">
<g clip-path="url(#clip0_298_298)">
<path d="M110.169 180H104.143H98.0849C75.7316 180 54.0941 179.167 31.3247 179.958C27.3467 179.958 24.9664 179.958 24.9664 179.958L23.302 165.797C22.9525 162.881 22.5614 159.582 22.137 155.992C19.7569 141.831 18.5418 128.028 17.1437 114.158C16.8608 111.384 16.5778 108.61 16.3115 105.827C13.3821 80.8367 10.8856 55.8459 7.2571 31.0884L6.72437 26.665H129.06C128.852 32.4962 128.386 38.2775 127.753 44.017C127.437 46.8826 127.088 49.7481 126.705 52.597C124.067 74.1474 120.738 95.806 118.208 117.573C117.95 119.639 117.708 121.688 117.467 123.712C117.226 125.737 116.984 127.744 116.743 129.727C114.846 144.946 112.349 159.941 110.685 174.935C110.36 178.176 110.169 180 110.169 180Z" fill="#F2F2F2"/>
<path d="M133.429 29.989H0V20.8257H133.154L133.429 29.989Z" fill="#443826"/>
<path d="M125.049 24.1577H11.651L17.4765 1.66605H41.436C65.745 1.66605 90.7114 0 114.671 0H119.032C119.032 0 119.864 4.83158 120.871 8.78011C121.387 10.7627 121.953 12.9452 122.485 15.0111C123.018 17.077 123.584 19.0596 124.042 20.6424C124.624 22.7583 125.049 24.1577 125.049 24.1577Z" fill="#443826"/>
<path d="M119.664 144.113C108.188 144.113 96.537 144.113 84.7778 144.113H32.0736C26.6309 144.113 18.3087 144.946 17.4765 143.28C14.5638 134.95 12.6911 125.787 11.3097 116.449C10.9712 114.116 10.6553 111.775 10.3612 109.426C9.15452 99.1302 8.32214 88.3007 7.48993 78.3044C16.6443 78.3044 19.9732 79.9705 28.9195 79.9705H38.906C67.4094 79.9705 99.8658 78.3044 128.161 78.3044C126.497 91.6328 125.664 104.961 123.559 117.348C123.068 120.889 122.594 124.337 122.153 127.503C121.711 130.668 121.32 133.584 120.913 136.05C120.164 140.981 119.664 144.113 119.664 144.113Z" fill="#6F95F6"/>
<path d="M176.005 119.831C176.005 129.31 169.813 134.867 159.294 134.867C148.542 134.867 142.525 129.66 142.525 118.839H155.374C155.316 121.996 156.781 123.637 159.411 123.637C161.808 123.637 163.147 122.288 163.147 119.947C163.147 117.606 161.808 116.499 159.411 116.499H155.849V105.269H158.712C161.05 105.269 162.274 104.27 162.274 102.045C162.274 100.005 161.167 98.7717 159.236 98.7717C156.956 98.7717 155.965 100.063 155.907 103.162H143.049C143.049 92.5157 148.95 86.9011 159.003 86.9011C168.881 86.9011 175.131 92.3989 175.131 101.112C175.272 104.446 174.168 107.712 172.035 110.276C174.665 112.4 176.005 115.566 176.005 119.831Z" fill="#F2F2F2"/>
<path d="M191.959 119.772H211.299V131.36H179.043V120.355C179.043 111.817 182.613 107.785 191.318 105.852L195.637 104.919C198.034 104.386 198.966 103.512 198.966 101.696C198.966 99.8797 197.792 98.7717 195.928 98.7717C193.59 98.7717 192.649 100.18 192.533 103.162H179.675C179.675 92.749 185.584 86.9011 195.687 86.9011C205.624 86.9011 211.824 92.6323 211.824 101.812C211.824 110.001 207.146 113.691 197.559 116.032L195.512 116.557C193.365 117.081 192.242 117.906 191.959 119.772Z" fill="#F2F2F2"/>
<path d="M248 120.181C248 129.427 241.808 134.867 231.289 134.867C220.77 134.867 214.645 129.427 214.645 120.181C214.645 116.015 215.985 112.875 218.731 110.592C216.58 108.032 215.438 104.773 215.519 101.429C215.519 92.5991 221.652 86.9263 231.331 86.9263C241.009 86.9263 247.143 92.5991 247.143 101.429C247.18 104.776 246.02 108.026 243.872 110.592C246.602 112.875 248 116.032 248 120.181ZM235.142 120.122C235.142 117.84 233.744 116.557 231.289 116.557C228.834 116.557 227.486 117.84 227.486 120.122C227.486 122.405 228.834 123.638 231.289 123.638C233.744 123.638 235.142 122.405 235.142 120.122ZM228.252 102.046C228.252 104.211 229.358 105.328 231.289 105.328C233.22 105.328 234.385 104.211 234.385 102.046C234.385 99.8797 233.278 98.7719 231.289 98.7719C229.3 98.7719 228.252 99.8881 228.252 102.046Z" fill="#F2F2F2"/>
<path d="M174.282 156.084V153.585C174.282 148.862 177.278 145.913 182.122 145.913C187.265 145.913 189.67 148.578 189.953 153.76H183.919C183.803 152.285 183.378 151.661 182.163 151.661C180.948 151.661 180.358 152.402 180.358 154.01V155.967C180.358 157.583 180.923 158.316 182.163 158.316C183.403 158.316 183.828 157.642 183.919 156.226H189.97C189.687 161.224 187.198 163.723 182.139 163.723C177.262 163.756 174.282 160.774 174.282 156.084Z" fill="#443826"/>
<path d="M206.389 146.479V164.889H200.339V162.873C199.522 163.078 198.684 163.184 197.842 163.19C193.964 163.19 191.676 160.807 191.676 156.476V146.479H197.726V156.192C197.726 157.267 198.15 157.75 199.057 157.75C199.965 157.75 200.364 157.3 200.364 156.192V146.479H206.389Z" fill="#443826"/>
<path d="M224.415 154.776V155.517C224.415 160.241 221.677 163.19 217.233 163.19C216.411 163.195 215.592 163.08 214.803 162.848V169.104H208.744V144.78H214.803V147.445C215.591 147.21 216.41 147.095 217.233 147.104C221.677 147.104 224.415 150.045 224.415 154.776ZM218.365 155.201C218.365 153.585 217.799 152.852 216.584 152.852C215.369 152.852 214.803 153.585 214.803 155.201V155.401C214.803 157.017 215.369 157.75 216.584 157.75C217.799 157.75 218.365 157.017 218.365 155.401V155.201Z" fill="#443826"/>
<path d="M226.005 158.066H232.03C232.03 159.341 232.396 159.732 233.445 159.732C234.235 159.732 234.66 159.391 234.66 158.683C234.66 157.975 234.46 157.775 232.596 157.517C228.102 156.892 226.121 154.943 226.121 151.236C226.121 147.27 228.859 144.746 233.162 144.746C237.464 144.746 240.26 147.179 240.26 151.411H234.235C234.235 150.328 233.927 149.936 233.187 149.936C232.446 149.936 232.03 150.278 232.03 150.986C232.03 151.694 232.371 151.885 233.894 152.085C238.563 152.735 240.552 154.584 240.552 158.233C240.552 162.306 237.805 164.897 233.42 164.897C228.634 164.889 226.005 162.565 226.005 158.066Z" fill="#443826"/>
</g>
<defs>
<clipPath id="clip0_298_298">
<rect width="248" height="180" fill="white"/>
</clipPath>
</defs>
</svg>
