<svg width="247" height="205" viewBox="0 0 247 205" fill="none" xmlns="http://www.w3.org/2000/svg">
<g clip-path="url(#clip0_311_477)">
<path d="M246.42 156.74C246.425 155.085 246.158 153.439 245.63 151.87C245.153 150.425 244.432 149.073 243.5 147.87C240.42 143.24 233.42 141.24 229.42 146.24C227.42 149.24 224.42 153.24 227.42 157.24C224.42 156.24 220.42 155.24 220.42 153.24C220.192 151.835 219.807 150.459 219.27 149.14C218.783 147.947 218.162 146.814 217.42 145.76C216.247 144.72 215.04 143.72 213.8 142.76C212.56 141.8 211.276 140.91 209.95 140.09C201.51 138.33 190.63 145.69 182.42 144.22C172.61 142.46 180.42 135.22 156.1 127.59C143.42 124.24 133.42 128.24 127.42 134.24C126.806 132.994 126.026 131.837 125.1 130.8C124.263 129.856 123.297 129.035 122.23 128.36C105.42 122.24 83.42 128.24 74.42 143.24C71.42 140.24 69.42 137.24 65.42 135.24C64.2999 134.48 63.1397 133.78 61.9497 133.13C57.1696 130.473 51.8656 128.896 46.4102 128.51C44.5999 128.317 42.7805 128.22 40.96 128.22C39.1228 128.22 37.287 128.317 35.46 128.51C33.67 128.7 31.9102 128.99 30.1602 129.34C14.4002 130.04 1.00987 142.34 0.0898717 157.22C-0.0248493 159.121 0.0693175 161.029 0.370145 162.91C6.42015 179.24 22.4199 192.24 40.9199 192.24C42.0999 192.24 43.2697 192.2 44.4297 192.12C46.1358 192.005 47.8351 191.801 49.52 191.51C51.1614 191.233 52.7872 190.869 54.3902 190.42C63.3902 205.24 84.3899 208.24 98.8399 198.2C100.054 197.285 101.179 196.257 102.2 195.13C103.42 194.24 103.42 192.24 104.42 191.24C109.277 194.182 114.429 196.609 119.79 198.48C121.12 198.95 122.46 199.38 123.79 199.76C125.68 200.3 127.56 200.76 129.43 201.07C131.3 201.38 133.18 201.65 135.05 201.82C136.59 201.96 138.11 202.04 139.62 202.06C141.13 202.08 142.62 202.06 144.14 201.96C162.41 196.24 180.41 194.24 199.03 197.16C200.62 197.23 202.22 197.3 203.82 197.35C207.01 197.44 210.21 197.44 213.41 197.24C218.593 197.288 223.709 196.077 228.32 193.71C229.458 193.138 230.546 192.469 231.57 191.71C235.63 188.71 238.51 184.13 239.41 177.23C239.408 175.823 239.247 174.421 238.93 173.05C238.617 171.699 238.161 170.385 237.57 169.13C238.814 168.951 240.003 168.497 241.05 167.8C244.25 165.72 246.42 161.55 246.42 156.74Z" fill="#443826"/>
<path d="M120.42 165.24H129.41L127.42 17.2402H122.42L120.42 165.24Z" fill="#5EB88A"/>
<path d="M188.42 77.5301C188.2 75.8101 185.98 72.7698 182.49 69.9998C180.619 68.5048 178.575 67.2425 176.4 66.24C169.54 63.09 160.61 62.3301 152 69.3601C155.43 81.0901 165.51 85.6202 175.14 84.1302C177.573 83.7465 179.934 82.9946 182.14 81.9002C184.444 80.7715 186.561 79.2977 188.42 77.5301Z" fill="#5EB88A"/>
<path d="M84.1903 0C80.9003 4.21 81.7703 30.0603 104.5 32.5303C113.66 16.0503 100.18 0.32 84.1903 0Z" fill="#5EB88A"/>
<path d="M146.76 12.5303C142.87 16.1903 139.84 41.89 161.94 47.75C173.47 32.83 162.52 15.2403 146.76 12.5303Z" fill="#5EB88A"/>
<path d="M60.4199 62.9003C64.7599 66.0103 90.5599 64.0799 92.1099 41.2699C75.2499 32.7999 60.0899 46.9003 60.4199 62.9003Z" fill="#5EB88A"/>
<path d="M127.31 77.1701L174.94 48.7701L173.5 47.3301L124.44 74.3001L127.31 77.1701Z" fill="#5EB88A"/>
<path d="M126.04 42.5902L79.34 30.4102V32.4402L126.04 46.6502V42.5902Z" fill="#5EB88A"/>
</g>
<defs>
<clipPath id="clip0_311_477">
<rect width="246.42" height="204.07" fill="white"/>
</clipPath>
</defs>
</svg>
