<svg width="89" height="225" viewBox="0 0 89 225" fill="none" xmlns="http://www.w3.org/2000/svg">
<g clip-path="url(#clip0_340_247)">
<path d="M64.6726 27.6185C67.4636 27.5961 70.2542 27.7148 73.0331 27.9741C74.2783 28.0749 75.5051 28.3351 76.6833 28.7485C84.1882 31.4659 85.0815 40.4056 84.5072 49.7642C84.5072 50.8181 84.5838 51.8593 84.6094 52.9133C84.6859 56.0455 84.6859 59.1907 84.6094 62.3483C84.6094 63.7451 84.533 65.1417 84.4691 66.5385C83.882 92.4048 76.2239 116.531 68.1957 139.261C67.8383 140.264 67.4808 141.267 67.0851 142.258C66.6894 143.248 66.281 144.239 65.8087 145.204C65.2982 146.373 64.7618 147.528 64.2258 148.696C63.6897 149.865 62.9494 151.325 62.3368 152.633C52.8184 173.03 40.2388 191.869 25.029 208.505C24.4036 209.242 23.7527 209.965 23.1401 210.676C20.5874 213.546 18.0347 216.403 15.482 218.968C14.5053 220.107 13.4245 221.152 12.2531 222.092C11.6397 222.576 10.9815 223.001 10.2874 223.362C5.97336 227.057 -2.96095 224.517 0.868107 218.168C5.97351 209.28 11.0789 201.661 14.908 193.242C15.5717 191.972 16.1844 190.702 16.8481 189.432C25.0295 172.645 30.8112 154.893 36.5293 136.366C36.8994 135.007 37.2439 133.636 37.6012 132.277C43.8809 107.643 48.2203 81.8146 48.5904 56.5833C48.5904 55.0849 48.5904 53.5864 48.5904 52.088C48.2135 48.1165 48.1239 44.1234 48.3225 40.1391C48.3082 39.2834 48.4069 38.4296 48.616 37.5995C49.7137 33.2186 53.7214 30.7548 57.5505 29.3961C58.7061 28.9797 59.8869 28.6364 61.086 28.3678C62.2634 28.0389 63.4617 27.7885 64.6726 27.6185Z" fill="#EB5050"/>
<path d="M75.5728 21.3712C72.4074 21.2696 71.1311 21.2695 68.5784 21.2695C69.8547 17.4601 69.8546 14.9204 70.314 10.4888C70.3906 9.4221 70.4162 8.35544 70.4162 7.30148C69.8547 4.76184 71.1311 2.22219 69.8547 0.952367C67.302 -0.317456 62.1966 -0.317456 62.1966 0.952367C58.3676 4.76184 63.473 9.84112 62.1966 15.5426C62.1966 16.5077 62.1966 17.4601 62.1966 18.7299C60.9203 18.7299 59.6437 17.4602 58.112 15.6952C57.0077 15.1714 55.8588 14.7465 54.6787 14.4253C53.6817 14.1348 52.6534 13.9641 51.6156 13.9172C50.7094 13.6506 48.1568 13.6506 48.1568 14.9204C48.1 16.1451 48.3955 17.3605 49.0081 18.4242C49.6207 19.488 50.525 20.356 51.6156 20.9267C52.621 21.6102 53.6795 22.2131 54.7809 22.7297C55.1256 22.8948 55.4702 23.0346 55.8149 23.1743C54.254 23.3168 52.711 23.6102 51.2074 24.0504C45.6042 26.3488 40.4986 27.6187 39.2223 32.6979C39.2223 33.9678 41.7748 36.5073 44.4679 35.7962C45.4108 35.9281 46.362 35.9919 47.3142 35.9869C49.5941 35.9501 51.8613 35.6388 54.0661 35.06L55.3425 34.7044C55.0082 35.6156 54.7228 36.5438 54.4874 37.4852C52.0368 41.5867 53.3133 47.9358 57.1423 46.666C63.5241 46.666 64.8004 39.047 67.9402 34.2598C68.2677 33.3788 68.5446 32.4802 68.7697 31.5679C69.7829 31.877 70.8144 32.1228 71.8584 32.3042C78.789 31.4281 86.4473 33.9678 89 27.6187C89.0358 26.8767 88.8401 26.1419 88.4403 25.5146C88.0406 24.8873 87.4561 24.3982 86.7664 24.1139C85.49 23.4663 83.8943 23.1234 82.6307 22.4377C81.5706 22.11 80.4873 21.864 79.3893 21.7014C78.1252 21.5144 76.8504 21.4041 75.5728 21.3712Z" fill="#5EB88A"/>
<path d="M56.3976 67.1251C57.2263 66.9563 57.6692 65.7055 57.3864 64.3314C57.1036 62.9573 56.2024 61.9803 55.3737 62.149C54.545 62.3178 54.1028 63.5685 54.3855 64.9426C54.6683 66.3167 55.5689 67.2939 56.3976 67.1251Z" fill="#443826"/>
<path d="M67.6084 62.2214C67.747 62.8353 67.7205 63.4747 67.5317 64.0753C67.479 64.3002 67.3652 64.5068 67.2033 64.6723C67.0414 64.8379 66.8371 64.9563 66.6125 65.0149C65.7829 65.18 64.8896 64.215 64.6088 62.8309C64.4701 62.2212 64.4966 61.5859 64.6855 60.9897C64.7424 60.7672 64.8553 60.563 65.0139 60.3963C65.1725 60.2296 65.3715 60.106 65.5916 60.0373C65.8223 60.0058 66.0572 60.0376 66.271 60.1294C66.4847 60.2211 66.6686 60.3693 66.8038 60.5578C67.218 61.0298 67.4964 61.6048 67.6084 62.2214Z" fill="#443826"/>
<path d="M62.1966 82.1194C61.7728 82.1716 61.3441 82.1716 60.9203 82.1194C55.1639 81.5733 55.2022 73.5988 55.2022 73.2306H56.4786C56.4786 73.3068 56.4784 80.367 61.0349 80.8495C61.5022 80.9091 61.9769 80.8699 62.4278 80.7342C62.8788 80.5985 63.2961 80.3696 63.6518 80.0624C65.8216 78.2339 66.2045 73.9799 66.2045 73.9418L67.4809 74.0307C67.4809 74.2339 67.0976 78.8561 64.5194 81.0275C63.8656 81.6044 63.0598 81.9832 62.1966 82.1194Z" fill="#443826"/>
</g>
<defs>
<clipPath id="clip0_340_247">
<rect width="89" height="225" fill="white"/>
</clipPath>
</defs>
</svg>
