<svg width="602" height="185" viewBox="0 0 602 185" fill="none" xmlns="http://www.w3.org/2000/svg">
<path d="M0 17.5003H153C186.454 18.714 211.28 4.36306 251.5 2.5C312 -0.302475 346.382 5.36964 385 2.50029C482.008 -1.73213 513 2.5 598.5 2.5C603.5 46.9995 602 87.4995 598.5 146C509.336 161.344 466.04 164.097 317.5 184.5C198.476 181.003 134.05 176.847 30.5 158.5C13.0896 100.276 0.487409 66.0205 0 17.5003Z" fill="#443826"/>
<path d="M113.471 73.36H102.083V103H110.663V95.2H113.471C120.452 95.2 124.235 91.417 124.235 84.514C124.235 77.299 120.452 73.36 113.471 73.36ZM112.886 87.478H110.663V81.511H112.886C114.875 81.511 115.655 82.33 115.655 84.514C115.655 86.62 114.875 87.478 112.886 87.478ZM139.868 79.99C137.996 79.99 136.397 80.458 135.071 81.394V77.65H126.725V103H135.071V93.796C135.071 89.467 137.45 88.141 140.96 88.141H142.052V80.146C141.311 80.029 140.804 79.99 139.868 79.99ZM154.916 103C161.429 103 165.68 99.139 165.68 92.431V90.559C165.68 83.851 161.429 79.99 154.916 79.99C148.403 79.99 144.113 83.851 144.113 90.559V92.431C144.113 99.139 148.403 103 154.916 103ZM154.916 95.512C153.278 95.512 152.459 94.537 152.459 92.275V91.144C152.459 88.882 153.278 87.907 154.916 87.907C156.554 87.907 157.373 88.882 157.373 91.144V92.275C157.373 94.537 156.554 95.512 154.916 95.512ZM178.643 103.78C185.624 103.78 189.056 100.309 189.446 93.406H181.1C180.944 95.356 180.398 96.292 178.682 96.292C176.966 96.292 176.186 95.278 176.186 93.055V90.364C176.186 88.141 176.966 87.127 178.682 87.127C180.359 87.127 180.944 87.985 181.1 90.013H189.446C189.056 82.876 185.741 79.21 178.643 79.21C171.974 79.21 167.84 83.266 167.84 89.779V93.211C167.84 99.724 171.974 103.78 178.643 103.78ZM213.058 93.289V87.712C213.058 81.355 209.08 77.65 202.294 77.65C195.625 77.65 191.491 81.706 191.491 88.219V94.771C191.491 101.284 195.625 105.34 202.294 105.34C208.924 105.34 212.707 102.025 213.058 94.966H204.751C204.556 96.916 204.01 97.852 202.333 97.852C200.617 97.852 199.837 96.838 199.837 94.615V93.289H213.058ZM202.333 84.553C203.971 84.553 204.751 85.372 204.751 87.244V87.322H199.837C199.954 85.411 200.734 84.553 202.333 84.553ZM225.554 105.34C231.599 105.34 235.382 101.791 235.382 96.175C235.382 91.144 232.613 88.609 226.178 87.712C224.072 87.439 223.604 87.127 223.604 86.191C223.604 85.216 224.15 84.748 225.203 84.748C226.217 84.748 226.646 85.294 226.646 86.776H234.953C234.953 81.004 231.17 77.65 225.164 77.65C219.236 77.65 215.453 81.121 215.453 86.581C215.453 91.69 218.183 94.381 224.384 95.239C226.958 95.59 227.231 95.746 227.231 96.838C227.231 97.813 226.646 98.281 225.554 98.281C224.111 98.281 223.604 97.696 223.604 95.941H215.297C215.297 102.142 218.924 105.34 225.554 105.34ZM247.91 105.34C253.877 105.34 257.738 101.869 257.738 96.565C257.738 91.534 254.93 88.96 248.534 88.102C246.116 87.751 245.96 87.751 245.96 87.01C245.96 86.23 246.545 85.84 247.559 85.84C248.495 85.84 248.963 86.425 249.002 87.595H257.309C257.153 82.096 253.448 78.82 247.52 78.82C241.67 78.82 237.809 82.213 237.809 87.4C237.809 92.353 240.617 94.81 246.74 95.629C249.08 95.941 249.587 96.097 249.587 97.228C249.587 97.891 248.885 98.359 247.91 98.359C246.545 98.359 245.999 97.774 245.96 96.331H237.653C237.77 102.181 241.358 105.34 247.91 105.34ZM280.485 103C286.998 103 291.249 99.139 291.249 92.431V90.559C291.249 83.851 286.998 79.99 280.485 79.99C273.972 79.99 269.682 83.851 269.682 90.559V92.431C269.682 99.139 273.972 103 280.485 103ZM280.485 95.512C278.847 95.512 278.028 94.537 278.028 92.275V91.144C278.028 88.882 278.847 87.907 280.485 87.907C282.123 87.907 282.942 88.882 282.942 91.144V92.275C282.942 94.537 282.123 95.512 280.485 95.512ZM306.864 80.887H308.385V72.97H306.513C299.844 72.97 296.412 76.168 296.412 82.486V84.085H293.76V91.573H296.412V105.34H304.758V91.573H308.385V84.085H304.758V82.837C304.758 81.628 305.577 80.887 306.864 80.887ZM340.338 90.715C342.483 89.233 343.77 86.386 343.77 82.993C343.77 76.792 340.026 73.36 333.201 73.36H321.306V105.34H332.928C339.246 105.34 342.561 102.22 342.561 96.331C342.561 93.874 341.742 91.885 340.338 90.715ZM332.967 86.113H329.886V81.511H332.967C334.488 81.511 335.19 82.252 335.19 83.812C335.19 85.372 334.488 86.113 332.967 86.113ZM332.226 97.618H329.886V93.874H332.226C333.474 93.874 333.981 94.42 333.981 95.746C333.981 97.072 333.474 97.618 332.226 97.618ZM365.318 81.511V73.36H346.442V105.34H365.318V97.618H355.022V93.562H363.836V85.84H355.022V81.511H365.318ZM383.205 105.34H391.902L385.779 75.7H372.87L366.747 105.34H375.444L376.38 100.348H382.269L383.205 105.34ZM377.784 92.626L379.344 84.202L380.865 92.626H377.784ZM408.752 75.7V86.893L403.331 75.7H394.088V103H402.668V91.651L408.362 103H417.332V75.7H408.752ZM434.083 73.36L430.534 83.578L426.946 73.36H417.82L426.244 93.055V103H434.824V93.055L443.209 73.36H434.083ZM456.101 105.34H464.798L458.675 75.7H445.766L439.643 105.34H448.34L449.276 100.348H455.165L456.101 105.34ZM450.68 92.626L452.24 84.202L453.761 92.626H450.68ZM490.891 105.34L483.949 94.615C487.108 93.016 488.824 89.974 488.824 85.684C488.824 79.171 485.119 75.7 478.099 75.7H466.984V105.34H475.564V95.824L481.765 105.34H490.891ZM480.244 86.191C480.244 87.79 479.464 88.531 477.865 88.531H475.564V83.851H477.865C479.542 83.851 480.244 84.592 480.244 86.191ZM504.419 75.7H493.226V105.34H504.419C512.453 105.34 516.665 101.011 516.665 92.86V88.18C516.665 80.029 512.453 75.7 504.419 75.7ZM508.085 93.211C508.085 96.019 506.759 97.618 504.419 97.618H501.806V83.851H504.419C506.759 83.851 508.085 85.411 508.085 88.219V93.211Z" fill="#F2F2F2"/>
</svg>
