<svg width="300" height="388" viewBox="0 0 300 388" fill="none" xmlns="http://www.w3.org/2000/svg">
<g clip-path="url(#clip0_339_224)">
<path d="M111.418 287.481C111.418 287.481 94.1901 276.215 84.6425 293.985C75.0949 311.754 80.4003 330.539 97.0218 337.816C113.643 345.093 132.335 328.387 134.558 321.521C137.892 311.222 147.389 287.746 111.418 287.481Z" fill="#FFB6CC"/>
<path d="M133.396 319.248L141.984 322.029C141.984 322.029 147.909 316.038 150.522 319.103C154.261 323.499 144.94 339.749 140.368 332.884L128.344 328.992L133.396 319.248Z" fill="#FFB6CC"/>
<path d="M82.4197 300.851L73.3262 305.493C73.3262 305.493 65.8489 299.28 63.0707 307.862C58.9875 318.659 66.6076 320.386 69.4366 317.509C73.9941 316.294 78.3876 314.532 82.5212 312.262L82.4197 300.851Z" fill="#FFB6CC"/>
<path d="M86.6647 328.775L77.6219 339.122C71.9131 339.171 67.922 339.775 68.5285 343.764C69.1349 347.753 79.4412 351.09 82.2702 348.213L96.4153 333.827L86.6647 328.775Z" fill="#FFB6CC"/>
<path d="M106.722 337.164C106.722 337.164 102.277 350.896 102.327 356.601C106.277 358.355 110.599 359.102 114.907 358.777C114.907 358.777 121.171 357.012 113.694 350.799C115.225 345.563 116.323 340.21 116.977 334.794L106.722 337.164Z" fill="#FFB6CC"/>
<path d="M130.265 202.289C130.156 200.538 130.197 198.782 130.39 197.038C130.555 195.65 130.778 194.433 130.97 192.845C131.681 191.56 132.507 190.342 133.438 189.206C136.21 185.685 139.61 182.215 140.152 177.024C140.338 175.793 140.411 174.547 140.37 173.302C140.283 170.871 139.775 168.474 138.868 166.216C139.649 165.445 140.424 164.634 141.159 163.771C151.218 149.638 150.51 134.238 155.554 118.423C155.982 116.571 156.412 114.718 156.858 112.871C161.146 94.3473 165.018 75.2904 159.577 56.6891C158.886 55.1125 158.124 53.5573 157.292 52.0237C151.659 41.287 143.759 31.1629 138.084 19.6163C137.009 18.3543 135.845 17.1723 134.598 16.0796C133.378 14.983 132.142 13.938 130.877 12.9787C129.613 12.0194 128.186 10.8559 126.829 9.77187C125.472 8.68781 124.077 7.83801 122.682 6.93117C121.286 6.02433 119.891 5.17465 118.502 4.36476C117.018 5.66693 115.586 7.04262 114.177 8.46398C112.768 9.88533 111.349 11.3412 110.089 12.8298C97.6279 27.874 85.8066 46.8047 86.1768 68.5246C86.0294 70.5629 85.9788 72.5946 85.9855 74.626C85.9805 84.9207 88.2708 95.0877 92.6901 104.389L93.5688 107.537C103.076 123.074 90.7569 141.843 96.5255 159.431C97.1832 161.468 98.0801 163.42 99.1977 165.246C104.62 171.477 103.202 179.666 106.26 187.805C106.958 189.547 107.83 191.214 108.863 192.781C109.148 194.774 109.271 196.786 109.231 198.799C109.015 209.899 104.621 229.336 119.474 230.352C128.618 231.415 127.355 217.731 129.616 208.754C129.898 206.531 130.124 204.367 130.265 202.289Z" fill="#5EB88A"/>
<path d="M129.167 89.0213C127.226 87.1604 126.421 87.1271 127.093 89.5636C145.122 116.355 119.368 165.138 121.71 216.056C121.779 217.311 121.818 218.537 121.869 219.787C121.364 234.946 120.543 249.15 119.914 263.169C119.603 265.477 117.958 269.212 117.521 271.441C114.187 281.74 111.7 286.491 108.865 294.43L113.177 296.584C114.866 290.019 119.207 280.653 120.401 274.269C120.804 272.143 123.95 264.362 124.29 262.253C124.291 246.305 124.466 239.553 124.245 222.414C124.337 219.903 124.281 217.552 124.18 215.225C120.863 207.533 123.676 193.803 124.228 185.239C125.848 181.231 126.393 173.215 126.908 172.092C136.747 118.366 140.081 108.067 129.167 89.0213Z" fill="#8DCCAA"/>
<path d="M273.934 109.334C273.153 108.457 272.273 107.676 271.31 107.005C270.827 106.678 270.339 106.368 269.822 106.087C257.086 98.5321 242.891 107.212 230.837 111.502L229.085 112.282C221.574 115.729 214.884 120.391 210.692 129.236L209.234 130.869C201.226 140.016 195.963 149.823 194.019 158.524C193.542 158.768 193.048 159.007 192.559 159.285C192.071 159.563 191.593 159.806 191.116 160.107C178.782 158.523 177.216 175.083 170.48 182.821C170.274 183.456 169.971 184.041 169.742 184.63C169.178 186.206 168.766 187.832 168.512 189.486C165.698 189.821 163.035 190.938 160.825 192.709C158.614 194.481 156.946 196.837 156.007 199.509C155.158 202.163 155.121 205.011 155.902 207.686C154.502 208.074 153.177 208.697 151.985 209.528C151.544 209.815 151.119 210.127 150.714 210.463C145.019 215.864 141.079 222.174 141.383 231.319C141.348 232.033 141.351 232.749 141.391 233.464C141.529 236.178 142.288 238.825 143.611 241.2C143.914 241.709 144.251 242.198 144.618 242.663C155.074 255.151 166.289 232.231 168.601 221.981C168.92 221.578 169.291 221.22 169.705 220.916C173.925 217.787 183.368 217.752 187.781 211.975C188.186 211.407 188.493 210.776 188.689 210.107C189.368 208.003 189.533 205.767 189.168 203.587C191.187 202.971 193.152 202.193 195.045 201.26L196.528 200.489C202 198.297 208.265 196.532 210.249 189.759L211.306 188.603C211.979 187.816 212.601 187.126 213.244 186.253L214.141 185.064C237.847 181.359 266.239 164 274.453 138.099C274.686 137.378 275.045 136.736 275.301 136.06C279.551 125.337 279.452 115.444 273.934 109.334Z" fill="#5EB88A"/>
<path d="M247.198 152.356C248.849 151.886 248.954 152.792 248.34 153.75C220.622 164.69 180.949 196.147 150.934 232.59C150.211 233.475 149.466 234.371 148.76 235.262C140.675 246.697 133.35 257.6 125.988 268.265C124.931 270.122 123.915 271.975 122.938 273.82C119.153 280.903 115.951 288.283 113.365 295.887L109.971 291.659C112.425 285.993 115.016 280.51 117.744 275.211C118.641 273.434 119.567 271.686 120.488 269.955C129.364 258.188 135.527 245.011 145.212 232.444C146.549 230.544 147.904 228.821 149.271 227.178C155.903 223.104 159.237 212.805 166.341 208.505C167.79 207.078 169.272 205.661 170.756 204.245C193.402 183.107 219.188 165.604 247.198 152.356Z" fill="#8DCCAA"/>
<path d="M100.178 307.547C101.127 307.855 102.269 306.951 102.729 305.529C103.19 304.107 102.794 302.705 101.845 302.398C100.896 302.091 99.7543 302.995 99.294 304.417C98.8336 305.839 99.2295 307.24 100.178 307.547Z" fill="#443826"/>
<path d="M113.92 311.996C114.869 312.303 116.011 311.399 116.471 309.977C116.931 308.555 116.536 307.153 115.587 306.846C114.638 306.539 113.496 307.443 113.036 308.865C112.575 310.287 112.971 311.689 113.92 311.996Z" fill="#443826"/>
<path d="M102.513 324.309C101.704 324.085 100.955 323.682 100.323 323.129C99.6905 322.576 99.1904 321.888 98.86 321.116C97.3382 317.551 99.665 312.767 99.7372 312.544L101.142 313.245C101.142 313.245 99.0511 317.594 100.276 320.551C100.526 321.109 100.898 321.603 101.365 321.997C101.832 322.391 102.382 322.675 102.974 322.828C103.572 323.054 104.212 323.147 104.849 323.101C105.487 323.055 106.107 322.871 106.666 322.562C109.552 320.974 110.744 316.297 110.744 316.297L112.277 316.66C112.205 316.883 110.954 321.921 107.443 323.913C106.697 324.325 105.87 324.573 105.021 324.641C104.171 324.71 103.316 324.596 102.513 324.309Z" fill="#443826"/>
</g>
<defs>
<clipPath id="clip0_339_224">
<rect width="204" height="341" fill="white" transform="translate(105.019) rotate(17.9371)"/>
</clipPath>
</defs>
</svg>
