<svg width="133" height="130" viewBox="0 0 133 130" fill="none" xmlns="http://www.w3.org/2000/svg">
<path d="M96.744 128.284C95.3129 127.568 87.744 114.617 84.244 107.784L94.244 101.784L102.244 113.784C105.077 112.95 110.344 112.784 108.744 118.784C106.744 126.284 99.744 129.784 96.744 128.284Z" fill="#F94949" stroke="#F94949"/>
<path d="M29.7441 113.784C32.2441 109.784 37.7441 103.117 40.7441 99.7837L49.7442 104.284C47.2441 109.784 36.2441 122.784 33.7441 122.784C25.7042 122.784 22.744 117.784 24.2441 115.284C25.7441 113.284 28.6198 115.583 29.7441 113.784Z" fill="#F94949" stroke="#F94949"/>
<path d="M126.744 51.7837C125.944 52.1837 118.744 60.7837 113.744 64.2837L111.744 54.2836C117.744 46.2837 122.244 44.7837 122.744 42.7837C123.108 41.3286 118.584 35.5572 122.744 32.7837C127.244 29.7837 131.244 37.7837 131.744 42.7837C132.244 47.7837 127.744 51.2837 126.744 51.7837Z" fill="#F94949" stroke="#F94949"/>
<path d="M13.744 44.7837C14.544 45.9837 20.4107 49.617 23.244 51.2837L19.744 62.7837C16.744 59.4504 9.59255 53.5665 8.74402 53.2837C7.24402 52.7837 7.24402 53.2837 6.24402 53.2837C4.74402 53.2837 3.24403 53.2837 1.74403 50.7837C0.244028 48.2837 0.744028 36.7837 5.74403 36.7837C10.744 36.7837 12.744 43.2837 13.744 44.7837Z" fill="#F94949" stroke="#F94949"/>
<path d="M32.2065 35.0117C45.4065 19.8117 64.2066 21.0117 73.7065 24.5117C95.7065 29.5117 102.207 41.0117 107.707 46.0117C114.207 51.9208 118.207 71.0117 106.207 90.5117C94.2065 110.012 75.7065 111.012 66.2065 110.512C56.7065 110.012 37.2065 102.512 26.7065 88.5117C16.2065 74.5117 15.7065 54.0117 32.2065 35.0117Z" fill="#F94949" stroke="#F94949"/>
<path d="M58.244 79.7836C58.494 78.7836 59.244 77.2837 60.244 77.7836C61.962 78.6425 60.144 84.2836 59.744 88.2836C59.344 92.2836 60.744 93.617 61.744 93.7837C63.4227 94.2633 66.9575 92.5361 69.244 89.7837C71.7249 86.7973 72.244 83.2837 73.744 83.2837C76.057 83.2837 74.1799 89.3188 70.244 93.2837C67.1543 96.3962 63.3827 97.2234 60.744 96.7836C54.744 95.7836 57.744 81.7836 58.244 79.7836Z" fill="#443826" stroke="#443826"/>
<path d="M75.2441 66.7836C76.2439 64.2835 78.2441 63.7837 79.7441 64.2836C81.2441 64.7834 81.4585 66.7834 79.7441 69.7836C78.0297 72.7837 75.5585 71.598 75.2441 71.2836C74.2442 70.2836 74.5731 68.4613 75.2441 66.7836Z" fill="#443826" stroke="#443826"/>
<path d="M64.2441 27.2836C61.2441 24.4503 55.6441 18.4836 57.2441 17.2836C58.8144 16.1059 67.5764 18.3636 71.9977 19.7083L74.244 4.28369C73.244 3.78369 72.8365 3.50628 73.244 2.28363C74.244 -0.716367 79.744 2.28363 81.744 3.78363C83.344 4.98363 79.744 15.9503 77.744 21.2836C82.244 18.2836 91.844 12.4836 94.244 13.2836C96.644 14.0836 88.244 22.2836 83.744 26.2836C87.0774 30.7836 93.144 40.3836 90.744 42.7836C88.344 45.1837 78.0774 40.7836 73.244 38.2836C69.9107 42.7836 62.544 51.6837 59.744 51.2836C56.944 50.8836 63.9107 38.4503 67.744 32.2836C60.5774 33.117 46.0441 34.2836 45.2441 32.2836C44.4441 30.2836 57.5774 28.117 64.2441 27.2836Z" fill="#5EB88A"/>
<path d="M72.2441 19.7836C72.1636 19.7588 72.0814 19.7337 71.9977 19.7083M71.9977 19.7083C67.5764 18.3636 58.8144 16.1059 57.2441 17.2836C55.6441 18.4836 61.2441 24.4503 64.2441 27.2836C57.5774 28.117 44.4441 30.2836 45.2441 32.2836C46.0441 34.2836 60.5774 33.117 67.744 32.2836C63.9107 38.4503 56.944 50.8836 59.744 51.2836C62.544 51.6836 69.9107 42.7836 73.244 38.2836C78.0774 40.7836 88.344 45.1836 90.744 42.7836C93.144 40.3836 87.0774 30.7836 83.744 26.2836C88.244 22.2836 96.644 14.0836 94.244 13.2836C91.844 12.4836 82.244 18.2836 77.744 21.2836C79.744 15.9503 83.344 4.98363 81.744 3.78363C79.744 2.28363 74.244 -0.716367 73.244 2.28363C72.8365 3.50628 73.244 3.78369 74.244 4.28369L71.9977 19.7083Z" stroke="#5EB88A"/>
<path d="M60.744 70.2837C60.0774 69.9503 59.144 68.4836 60.744 65.2836C62.344 62.0836 64.4107 62.2836 65.244 62.7836C66.6395 63.6209 66.844 65.8836 65.244 68.2837C63.644 70.6837 61.744 70.7837 60.744 70.2837Z" fill="#443826" stroke="#443826"/>
</svg>
