<svg width="334" height="336" viewBox="0 0 334 336" fill="none" xmlns="http://www.w3.org/2000/svg">
<g clip-path="url(#clip0_595_922)">
<path d="M168.419 291.458L174.074 262.629C174.417 260.887 174.055 259.08 173.066 257.606C172.077 256.131 170.543 255.109 168.801 254.766C167.06 254.425 165.254 254.788 163.78 255.777C162.306 256.765 161.284 258.297 160.938 260.038L154.097 294.927C153.808 295.432 153.584 295.972 153.429 296.533C152.134 301.295 156.103 306.524 162.297 308.209C168.49 309.894 174.562 307.395 175.857 302.634C177.027 298.264 173.763 293.504 168.419 291.458Z" fill="#5EB88A"/>
<path d="M50.4155 105.914C46.0965 105.239 44.054 99.1254 47.8085 95.3017C48.0326 95.0569 48.2714 94.8254 48.5174 94.5681C51.8608 91.4384 56.3724 90.6553 61.5755 89.7824L62.1261 89.7006C68.4284 88.7376 74.8741 86.498 85.5848 88.6054C85.8522 88.6781 87.0014 88.7777 87.2813 88.8724C90.5607 89.3435 93.639 90.7365 96.1573 92.8893C96.4593 93.0733 96.7675 93.2684 97.0648 93.4697C100.658 95.966 103.567 99.3245 105.525 103.237C105.939 104.014 106.196 104.866 106.281 105.742C106.366 106.619 106.278 107.503 106.02 108.346C105.763 109.188 105.342 109.971 104.781 110.65C104.22 111.329 103.531 111.891 102.753 112.303C101.184 113.139 99.3476 113.318 97.647 112.799C95.9464 112.281 94.5211 111.109 93.6847 109.54C92.9356 108.074 91.9251 106.757 90.7027 105.654C90.4258 105.412 90.1504 105.197 89.8641 104.99C77.103 96.9332 64.564 105.566 51.2395 106.018C50.9627 106.002 50.6874 105.968 50.4155 105.914Z" fill="#5EB88A"/>
<path d="M296.33 181.279C288.256 172.033 286.365 158.549 272.38 154.004C271.3 153.548 270.18 153.197 269.034 152.955C266.535 152.431 263.942 152.569 261.513 153.355C259.816 153.886 257.978 153.723 256.401 152.902C254.823 152.081 253.636 150.668 253.098 148.973C252.567 147.276 252.73 145.438 253.552 143.861C254.373 142.284 255.786 141.096 257.481 140.558C261.021 139.406 264.748 138.939 268.463 139.182L269.043 139.229C270.486 139.51 271.895 139.847 273.279 140.242C274.663 140.637 276.005 141.086 277.322 141.592C291.375 146.943 302.83 159.323 304.487 173.669C305.508 176.726 303.238 181.667 298.655 181.485C297.874 181.556 297.086 181.487 296.33 181.279Z" fill="#5EB88A"/>
<path d="M269.274 187.834C257.454 222.601 236.752 263.734 197.076 270.535C194.245 271.315 191.379 271.974 188.478 272.513C153.759 279.003 115.174 268.684 90.3696 242.538C88.4245 240.746 86.5736 238.854 84.8241 236.871C67.5671 217.243 61.7855 189.009 64.5947 161.583C64.8331 158.651 65.219 155.732 65.7507 152.838C73.7277 109.513 113.964 72.6553 159.199 68.5437C162.187 68.2757 165.177 68.138 168.168 68.1302C175.028 68.1081 181.873 68.7779 188.598 70.1299C190.876 70.5888 193.154 71.1281 195.431 71.7475C218.176 78.8606 239.824 91.2338 253.732 110.571C255.431 112.886 257.021 115.248 258.503 117.658C265.924 129.913 270.413 143.718 271.619 157.994C271.835 160.604 271.943 163.227 271.942 165.864C271.493 170.92 271.372 177.224 270.436 182.129C270.1 183.977 269.713 185.879 269.274 187.834Z" fill="#5EB88A"/>
<path d="M183.087 76.19L178.868 74.6719C179.199 73.7615 185.396 56.8362 195.24 50.4815C196.345 48.6437 197.794 47.0372 199.51 45.7509C201.278 44.3955 203.17 43.2104 205.16 42.2113C207.88 41.7837 217.127 35.0351 213.918 43.4262C212.352 45.7793 206.942 45.234 204.278 48.215C209.688 48.7603 214.16 52.7558 212.752 57.9312C211.11 63.9692 206.093 65.3837 200.829 64.5726C198.87 63.7522 197.195 62.3721 196.016 60.6049C195.225 59.5247 194.645 58.3044 194.308 57.0088C188.953 62.491 184.738 71.6182 183.087 76.19ZM198.742 53.5829C198.476 54.9173 198.634 56.3014 199.193 57.5416C199.753 58.7818 200.686 59.8161 201.863 60.4998C205.313 61.4383 207.742 59.3198 207.818 55.6349C207.758 55.1683 207.604 54.7186 207.366 54.3129C207.128 53.9071 206.811 53.5537 206.433 53.2735C206.055 52.9934 205.624 52.7923 205.167 52.6825C204.709 52.5728 204.234 52.5566 203.77 52.6348C202.031 52.4181 200.268 52.7591 198.735 53.6088L198.742 53.5829Z" fill="#5EB88A"/>
<path d="M153.947 97.899C153.35 99.2095 152.881 100.935 150.921 101.328C145.511 100.783 148.954 91.5292 153.033 93.5649C153.895 93.7995 154.289 95.7594 154.143 96.2942C154.154 96.8358 154.088 97.3759 153.947 97.899Z" fill="#443826"/>
<path d="M164.558 101.054C163.467 102.888 161.666 106.104 159.547 103.674C158.291 101.48 158.601 96.9326 162.521 96.146C162.958 96.2769 163.363 96.4959 163.712 96.7893C164.061 97.0828 164.347 97.4444 164.551 97.8522C164.755 98.26 164.873 98.7052 164.899 99.1605C164.925 99.6158 164.857 100.072 164.7 100.5C164.659 100.683 164.616 100.875 164.558 101.054Z" fill="#443826"/>
<path d="M115.058 189.409C111.839 183.772 112.571 175.254 117.913 169.24C119.751 166.976 121.859 164.945 124.19 163.193C128.127 159.994 132.789 156.204 136.301 149.322C137.582 146.802 138.553 144.135 139.192 141.382C142.231 130.211 135.17 121.158 131.479 111.427C128.415 102.257 131.672 95.4256 136.979 89.5043C138.34 88.0031 139.778 86.5727 141.286 85.2191C146.826 80.3153 154.484 76.3768 158.075 68.655C149.786 69.5219 141.64 71.4403 133.835 74.3639C117.564 88.2345 113.775 111.975 125.324 131.162C128.003 135.856 126.192 142.515 122.347 147.148C120.46 149.362 118.332 151.359 116.003 153.102C114.693 154.172 113.293 155.301 111.888 156.614C110.383 157.975 108.989 159.455 107.72 161.039C93.561 178.013 107.256 197.588 107.797 215.967C107.932 227.12 97.6007 233.018 89.5878 238.806C89.0511 239.28 88.5245 239.786 88.0043 240.302C88.7261 241.054 89.5279 241.819 90.3258 242.564C92.5634 244.922 94.9228 247.163 97.3939 249.276C98.751 247.931 100.233 246.704 101.839 245.399C119.901 232.775 123.725 209.998 115.058 189.409Z" fill="#443826"/>
<path d="M173.632 237.144C174.184 234.547 174.505 231.907 174.592 229.253C174.866 225.509 174.605 221.745 173.816 218.074C170.525 206.877 160.926 195.539 168.361 185.676C176.549 176.009 190.226 169.39 194.203 156.576C195.018 154.456 195.661 152.273 196.127 150.05C198.16 141.107 196.991 131.735 192.824 123.565C192.042 121.346 191.473 119.057 191.126 116.729C189.801 107.707 192.077 99.0993 196.25 91.0815C197.664 88.3779 199.242 85.763 200.974 83.251C202.762 80.5988 204.814 78.1338 207.098 75.8936C203.261 74.3313 199.352 72.9344 195.415 71.7061C194.992 71.5911 194.552 71.4714 194.147 71.3611C183.499 83.9339 178.053 100.097 178.919 116.549C179.025 119.213 179.274 121.869 179.664 124.506C181.026 130.805 183.061 137.695 183.408 144.321C183.552 146.506 183.434 148.701 183.057 150.858C182.84 153.149 182.084 155.356 180.851 157.299C169.653 169.316 150.555 178.388 153.845 198.31C155.661 209.106 162.312 219.632 160.805 231.237C160.535 233.437 160.066 235.607 159.403 237.721C156.109 248.33 148.386 258.06 141.466 267.118C140.513 268.196 139.695 269.386 139.029 270.661C143.438 271.81 147.913 272.693 152.429 273.305C152.803 272.57 153.266 271.884 153.808 271.263C162.841 261.862 170.914 249.995 173.632 237.144Z" fill="#443826"/>
<path d="M219.917 261.833C217.014 253.4 213.632 245.088 213.959 236.904C214.051 234.444 214.515 232.012 215.338 229.692C224.162 213.564 239.452 201.048 243.733 182.379C246.549 172.028 238.557 163.536 236.968 153.812C236.278 151.244 235.773 148.63 235.455 145.99C233.979 133.091 238.183 121.247 254.624 113.222C254.868 113.14 255.1 113.037 255.341 112.935C254.789 112.137 254.237 111.338 253.661 110.561C251.732 107.872 249.649 105.297 247.42 102.851C244.817 106.701 240.19 108.999 236.566 112.34C234.748 113.98 233.07 115.77 231.553 117.693C222.674 128.979 220.545 143.416 224.151 156.996C224.764 159.263 225.496 161.497 226.343 163.688C243.51 186.301 216.225 205.041 205.895 223.603C204.837 225.721 204.025 227.952 203.474 230.254C199.515 243.415 205.107 255.145 208.785 267.337C212.661 265.857 216.388 264.014 219.917 261.833Z" fill="#443826"/>
<path d="M131.146 244.94C130.357 244.551 129.498 244.321 128.62 244.263C127.741 244.206 126.86 244.322 126.026 244.606C125.193 244.889 124.423 245.334 123.762 245.916C123.101 246.497 122.561 247.203 122.172 247.993L108.823 275.173C102.747 273.669 96.8838 276.15 95.6075 280.843C94.3311 285.535 98.2817 290.834 104.475 292.519C110.669 294.203 116.74 291.705 118.035 286.943C118.052 286.883 118.066 286.831 118.082 286.771L134.214 253.927C134.604 253.136 134.834 252.275 134.891 251.395C134.948 250.515 134.831 249.632 134.546 248.797C134.261 247.962 133.814 247.192 133.23 246.53C132.647 245.868 131.939 245.328 131.146 244.94Z" fill="#5EB88A"/>
<path d="M164.984 121.152C164.896 121.509 164.779 121.859 164.635 122.197C160.976 129.076 151.881 128.455 145.616 123.999C145.358 123.79 145.096 123.561 144.873 123.325C141.355 119.978 139.158 114.498 143.61 111.383C148.061 108.267 154.216 108.524 158.933 111.076C159.233 111.232 159.52 111.403 159.805 111.582C163.291 113.957 164.547 116.151 165.171 120.295C165.085 120.577 165.061 120.868 164.984 121.152Z" fill="#443826"/>
</g>
<defs>
<clipPath id="clip0_595_922">
<rect width="270" height="273" fill="white" transform="translate(72.5596 0.900146) rotate(15.2164)"/>
</clipPath>
</defs>
</svg>
