<svg width="948" height="864" viewBox="0 0 948 864" fill="none" xmlns="http://www.w3.org/2000/svg">
<path d="M859.182 650.688C863.387 623.493 845.106 599.184 821.768 588.55C818.739 587.391 815.621 586.477 812.445 585.815C808.114 584.926 803.705 584.468 799.283 584.449C790.142 583.993 781.002 587.03 774.908 583.992C747.488 562.722 729.207 532.337 695.693 520.183C637.804 498.913 561.635 526.26 537.261 583.992C532.955 581.601 528.588 579.404 524.16 577.398C455.12 541.301 388.091 592.956 351.53 656.765C339.343 674.996 296.689 668.92 275.361 690.037C271.302 692.93 267.406 696.043 263.692 699.365C238.069 722.519 224.876 754.636 247.879 789.549C249.921 793.053 252.201 796.412 254.704 799.605C260.138 806.496 266.355 812.737 273.229 818.201C276.864 821.118 280.724 823.924 284.806 826.618C375.905 872.5 479.494 875.539 576.991 839.076C582.773 837.778 588.813 838.244 594.327 840.413C597.833 841.566 601.271 842.916 604.625 844.455C659.254 854.269 720.189 848.192 771.984 823.884C777.619 822.49 783.456 822.1 789.228 822.729C792.519 822.881 795.931 823.155 799.344 823.367C841.998 817.807 884.653 805.653 924.261 781.344C945.588 763.113 954.729 735.767 942.541 708.42C940.564 704.474 938.206 700.729 935.503 697.238C915.12 678.034 896.84 662.842 868.474 653.393C865.58 652.36 862.412 651.387 859.182 650.688Z" fill="#443826"/>
<path d="M117.886 735.636C115.241 735.636 112.644 735.758 110.097 735.977C107.264 736.073 104.488 736.787 101.964 738.069C92.1663 713.743 65.2217 711.31 43.1761 713.743C34.018 714.823 25.3205 718.328 17.9945 723.891C10.6686 729.455 4.98352 736.872 1.53452 745.367C-3.36449 762.395 3.98403 776.99 16.2316 789.153C21.6801 794.509 28.5844 798.17 36.0973 799.686C39.8332 800.494 43.6399 800.934 47.4628 801C76.0512 796.816 105.046 796.105 133.808 798.883C150.954 798.883 173 786.72 173 767.26C170.55 747.799 148.505 740.501 132.534 736.804C127.691 736.024 122.792 735.634 117.886 735.636Z" fill="#443826"/>
<path d="M579 650V0H599.486L607 650H579Z" fill="#5EB88A"/>
<path d="M796 288.307C795.227 281.978 787.024 270.694 774.182 260.485C767.298 254.956 759.772 250.284 751.77 246.572C737.349 239.362 721.123 236.609 705.145 238.66C689.166 240.711 674.151 247.476 662 258.097C666.608 276.37 677.978 292.192 693.795 302.342C709.611 312.491 728.685 316.206 747.132 312.728C756.135 311.303 764.873 308.526 773.052 304.489C781.47 300.289 789.207 294.832 796 288.307Z" fill="#5EB88A"/>
<path d="M358 411.056C365.922 428.599 449.492 469.074 495 400.638C458.01 343.877 385.4 360.582 358 411.056Z" fill="#5EB88A"/>
<path d="M415 148.056C422.922 165.599 506.492 206.074 552 137.638C515.01 80.8766 442.4 97.5815 415 148.056Z" fill="#5EB88A"/>
<path d="M582 363L399 327V333L582 375V363Z" fill="#5EB88A"/>
<path d="M601 421.698V437L777.232 399.473L780 390L601 421.698Z" fill="#5EB88A"/>
<path d="M601 117.5L514 65V73.75L601 135V117.5Z" fill="#5EB88A"/>
<path d="M593 213.093V231L727.881 187.085L730 176L593 213.093Z" fill="#5EB88A"/>
<path d="M691.003 459.79C691.003 459.79 688.846 534.567 803 527.533C795.873 435.968 691.003 459.79 691.003 459.79Z" fill="#5EB88A"/>
<path d="M510.5 541C536.734 541 558 519.51 558 493C558 466.49 536.734 445 510.5 445C484.266 445 463 466.49 463 493C463 519.51 484.266 541 510.5 541Z" fill="#EB5050"/>
<path d="M479.5 298C505.734 298 527 276.51 527 250C527 223.49 505.734 202 479.5 202C453.266 202 432 223.49 432 250C432 276.51 453.266 298 479.5 298Z" fill="#EB5050"/>
<path d="M749.5 414C775.734 414 797 392.51 797 366C797 339.49 775.734 318 749.5 318C723.266 318 702 339.49 702 366C702 392.51 723.266 414 749.5 414Z" fill="#EB5050"/>
<path d="M701.5 148C727.734 148 749 126.51 749 100C749 73.4903 727.734 52 701.5 52C675.266 52 654 73.4903 654 100C654 126.51 675.266 148 701.5 148Z" fill="#EB5050"/>
<path d="M609.251 670.962C606.359 682.757 600.007 693.417 591.011 701.575C582.015 709.732 570.786 715.013 558.767 716.739C556.324 717.35 553.882 717.911 551.244 718.375C543.188 719.863 535.012 720.598 526.82 720.574C481.636 720.574 445 698.711 445 671.719C445 648.123 473.039 628.41 510.334 623.867C512.996 623.525 515.707 623.281 518.467 623.11C550.023 622.865 596.428 620.423 608.152 660.361C608.98 663.831 609.35 667.395 609.251 670.962Z" fill="#443826"/>
<path d="M687.092 684.104C686.775 691.51 684.463 698.693 680.4 704.892C678.292 708.004 675.788 710.829 672.951 713.295C663.557 721.283 651.6 725.619 639.27 725.508C626.94 725.619 614.984 721.283 605.59 713.295C602.788 710.82 600.324 707.986 598.262 704.867C584.316 686.376 594.086 654.621 618.51 647.293C645.376 639.965 677.127 647.293 685.749 673.43C686.734 676.9 687.187 680.498 687.092 684.104Z" fill="#443826"/>
<path d="M331.742 604.283C330.311 603.568 322.742 590.617 319.242 583.783L329.242 577.783L337.242 589.783C340.076 588.95 345.342 588.783 343.742 594.783C341.742 602.283 334.742 605.783 331.742 604.283Z" fill="#F94949" stroke="#F94949"/>
<path d="M264.743 589.783C267.243 585.783 272.743 579.117 275.743 575.783L284.743 580.283C282.243 585.783 271.243 598.783 268.743 598.783C260.703 598.783 257.743 593.783 259.243 591.283C260.743 589.283 263.618 591.582 264.743 589.783Z" fill="#F94949" stroke="#F94949"/>
<path d="M361.742 527.784C360.942 528.184 353.742 536.784 348.742 540.284L346.742 530.284C352.742 522.284 357.242 520.784 357.742 518.784C358.106 517.329 353.582 511.557 357.742 508.784C362.242 505.784 366.242 513.784 366.742 518.784C367.242 523.784 362.742 527.284 361.742 527.784Z" fill="#F94949" stroke="#F94949"/>
<path d="M248.744 520.783C249.544 521.983 255.411 525.617 258.244 527.283L254.744 538.783C251.744 535.45 244.593 529.566 243.744 529.283C242.244 528.783 242.244 529.283 241.244 529.283C239.744 529.283 238.244 529.283 236.744 526.783C235.244 524.283 235.744 512.783 240.744 512.783C245.744 512.783 247.744 519.283 248.744 520.783Z" fill="#F94949" stroke="#F94949"/>
<path d="M267.205 511.011C280.405 495.811 299.205 497.011 308.705 500.511C330.705 505.511 337.205 517.011 342.705 522.011C349.205 527.92 353.205 547.011 341.205 566.511C329.205 586.011 310.705 587.011 301.205 586.511C291.705 586.011 272.205 578.511 261.705 564.511C251.205 550.511 250.705 530.011 267.205 511.011Z" fill="#F94949" stroke="#F94949"/>
<path d="M293.246 555.784C293.496 554.784 294.246 553.284 295.246 553.784C296.964 554.643 295.146 560.284 294.746 564.284C294.346 568.284 295.746 569.617 296.746 569.784C298.424 570.264 301.959 568.536 304.246 565.784C306.727 562.798 307.246 559.284 308.746 559.284C311.059 559.284 309.182 565.319 305.246 569.284C302.156 572.396 298.384 573.224 295.746 572.784C289.746 571.784 292.746 557.784 293.246 555.784Z" fill="#443826" stroke="#443826"/>
<path d="M310.246 542.784C311.246 540.283 313.246 539.784 314.746 540.284C316.246 540.783 316.46 542.783 314.746 545.784C313.031 548.784 310.56 547.598 310.246 547.284C309.246 546.284 309.575 544.461 310.246 542.784Z" fill="#443826" stroke="#443826"/>
<path d="M299.246 503.284C296.246 500.45 290.646 494.484 292.246 493.284C293.816 492.106 302.578 494.364 307 495.708L309.246 480.284C308.246 479.784 307.838 479.506 308.246 478.284C309.246 475.284 314.746 478.284 316.746 479.784C318.346 480.984 314.746 491.95 312.746 497.284C317.246 494.284 326.846 488.484 329.246 489.284C331.646 490.084 323.246 498.284 318.746 502.284C322.079 506.784 328.146 516.384 325.746 518.784C323.346 521.184 313.079 516.784 308.246 514.284C304.913 518.784 297.546 527.684 294.746 527.284C291.946 526.884 298.913 514.45 302.746 508.284C295.579 509.117 281.046 510.284 280.246 508.284C279.446 506.284 292.579 504.117 299.246 503.284Z" fill="#5EB88A"/>
<path d="M307.246 495.784C307.165 495.759 307.083 495.734 307 495.708M307 495.708C302.578 494.364 293.816 492.106 292.246 493.284C290.646 494.484 296.246 500.45 299.246 503.284C292.579 504.117 279.446 506.284 280.246 508.284C281.046 510.284 295.579 509.117 302.746 508.284C298.913 514.45 291.946 526.884 294.746 527.284C297.546 527.684 304.913 518.784 308.246 514.284C313.079 516.784 323.346 521.184 325.746 518.784C328.146 516.384 322.079 506.784 318.746 502.284C323.246 498.284 331.646 490.084 329.246 489.284C326.846 488.484 317.246 494.284 312.746 497.284C314.746 491.95 318.346 480.984 316.746 479.784C314.746 478.284 309.246 475.284 308.246 478.284C307.838 479.506 308.246 479.784 309.246 480.284L307 495.708Z" stroke="#5EB88A"/>
<path d="M295.743 546.283C295.076 545.95 294.143 544.483 295.743 541.283C297.343 538.083 299.409 538.283 300.243 538.783C301.638 539.621 301.843 541.883 300.243 544.283C298.643 546.684 296.743 546.783 295.743 546.283Z" fill="#443826" stroke="#443826"/>
</svg>
