<svg width="948" height="500" viewBox="0 0 948 500" fill="none" xmlns="http://www.w3.org/2000/svg">
<path d="M859.182 286.688C863.387 259.493 845.106 235.184 821.768 224.55C818.739 223.391 815.621 222.477 812.445 221.815C808.114 220.926 803.705 220.468 799.283 220.449C790.142 219.993 781.002 223.03 774.908 219.992C747.488 198.722 729.207 168.337 695.693 156.183C637.804 134.913 561.635 162.26 537.261 219.992C532.955 217.601 528.588 215.404 524.16 213.398C455.12 177.301 388.091 228.956 351.53 292.765C339.343 310.996 296.689 304.92 275.361 326.037C271.302 328.93 267.406 332.043 263.692 335.365C238.069 358.519 224.876 390.636 247.879 425.549C249.921 429.053 252.201 432.412 254.704 435.605C260.138 442.496 266.355 448.737 273.229 454.201C276.864 457.118 280.724 459.924 284.806 462.618C375.905 508.5 479.494 511.539 576.991 475.076C582.773 473.778 588.813 474.244 594.327 476.413C597.833 477.566 601.271 478.916 604.625 480.455C659.254 490.269 720.189 484.192 771.984 459.884C777.619 458.49 783.456 458.1 789.228 458.729C792.519 458.881 795.931 459.155 799.344 459.367C841.998 453.807 884.653 441.653 924.261 417.344C945.588 399.113 954.729 371.767 942.541 344.42C940.564 340.474 938.206 336.729 935.503 333.238C915.12 314.034 896.84 298.842 868.474 289.393C865.58 288.36 862.412 287.387 859.182 286.688Z" fill="#443826"/>
<path d="M588 328V15H613.608L623 328H588Z" fill="#5EB88A"/>
<path d="M407 55.3912C416.194 76.4904 513.184 125.17 566 42.8613C523.07 -25.4051 438.8 -5.31412 407 55.3912Z" fill="#5EB88A"/>
<path d="M650.003 18.2621C650.003 18.2621 647.558 105.677 777 97.4542C768.918 -9.58675 650.003 18.2621 650.003 18.2621Z" fill="#5EB88A"/>
<path d="M117.886 371.636C115.241 371.636 112.644 371.758 110.097 371.977C107.264 372.073 104.488 372.787 101.964 374.069C92.1663 349.743 65.2217 347.31 43.1761 349.743C34.018 350.823 25.3205 354.328 17.9945 359.891C10.6686 365.455 4.98352 372.872 1.53452 381.367C-3.36449 398.395 3.98403 412.99 16.2316 425.153C21.6801 430.509 28.5844 434.17 36.0973 435.686C39.8332 436.494 43.6399 436.934 47.4628 437C76.0512 432.816 105.046 432.105 133.808 434.883C150.954 434.883 173 422.72 173 403.26C170.55 383.799 148.505 376.501 132.534 372.804C127.691 372.024 122.792 371.634 117.886 371.636Z" fill="#443826"/>
<path d="M609.251 306.962C606.359 318.757 600.007 329.417 591.011 337.575C582.015 345.732 570.786 351.013 558.767 352.739C556.324 353.35 553.882 353.911 551.244 354.375C543.188 355.863 535.012 356.598 526.82 356.574C481.636 356.574 445 334.711 445 307.719C445 284.123 473.039 264.41 510.334 259.867C512.996 259.525 515.707 259.281 518.467 259.11C550.023 258.865 596.428 256.423 608.152 296.361C608.98 299.831 609.35 303.395 609.251 306.962Z" fill="#443826"/>
<path d="M687.092 320.104C686.775 327.51 684.463 334.693 680.4 340.892C678.292 344.004 675.788 346.829 672.951 349.295C663.557 357.283 651.6 361.619 639.27 361.508C626.94 361.619 614.984 357.283 605.59 349.295C602.788 346.82 600.324 343.986 598.262 340.867C584.316 322.376 594.086 290.621 618.51 283.293C645.376 275.965 677.127 283.293 685.749 309.43C686.734 312.9 687.187 316.498 687.092 320.104Z" fill="#443826"/>
</svg>
