<svg width="691" height="937" viewBox="0 0 691 937" fill="none" xmlns="http://www.w3.org/2000/svg">
<g clip-path="url(#clip0_687_401)">
<path d="M248.881 365.363C254.254 364.985 259.643 364.88 265.026 365.049C267.436 365.095 269.83 365.451 272.149 366.11C286.93 370.469 289.728 387.662 289.749 405.841C289.876 407.881 290.149 409.887 290.325 411.923C290.849 417.976 291.228 424.062 291.461 430.182C291.629 432.885 291.65 435.597 291.696 438.307C293.68 488.434 281.837 536.041 269.113 580.99C268.546 582.974 267.978 584.958 267.335 586.922C266.692 588.886 266.025 590.853 265.232 592.777C264.389 595.099 263.496 597.4 262.604 599.725C261.712 602.05 260.462 604.964 259.44 607.569C243.565 648.182 221.606 686.148 194.317 720.164C193.201 721.664 192.035 723.143 190.941 724.593C186.37 730.452 181.798 736.287 177.19 741.556C175.446 743.877 173.491 746.03 171.348 747.988C170.225 748.999 169.008 749.901 167.715 750.681C159.852 758.349 142.339 754.506 148.949 741.76C157.711 723.947 166.626 708.591 172.986 691.84C174.111 689.303 175.138 686.772 176.264 684.235C189.999 650.769 198.996 615.721 207.777 579.183C208.326 576.509 208.824 573.814 209.349 571.142C218.476 522.717 223.723 472.215 221.397 423.343C221.216 420.443 221.036 417.544 220.855 414.644C219.651 407.004 218.997 399.287 218.9 391.553C218.769 389.898 218.856 388.234 219.159 386.603C220.746 377.993 228.168 372.745 235.378 369.657C237.554 368.712 239.787 367.906 242.064 367.243C244.292 366.465 246.569 365.837 248.881 365.363Z" fill="#EB5050"/>
<path d="M269.122 351.967C263.013 352.15 260.555 352.302 255.639 352.608C257.638 345.083 257.332 340.169 257.683 331.538C257.702 329.464 257.623 327.397 257.496 325.357C256.109 320.51 258.261 315.442 255.65 313.138C250.581 310.987 240.748 311.599 240.901 314.056C233.985 321.887 244.43 331.104 242.658 342.291C242.774 344.158 242.889 346.001 243.042 348.459C240.584 348.612 237.972 346.308 234.81 343.076C232.62 342.194 230.356 341.51 228.045 341.03C226.089 340.587 224.088 340.38 222.084 340.414C220.307 340.006 215.39 340.312 215.543 342.77C215.582 345.146 216.297 347.463 217.605 349.448C218.913 351.433 220.759 353.005 222.928 353.978C224.947 355.18 227.058 356.22 229.242 357.088C229.925 357.366 230.606 357.595 231.287 357.824C228.298 358.287 225.361 359.04 222.518 360.072C212.004 365.192 202.324 368.261 200.477 378.243C200.63 380.701 205.852 385.309 210.953 383.61C212.785 383.752 214.625 383.762 216.458 383.638C220.845 383.294 225.174 382.42 229.35 381.035L231.765 380.194C231.231 381.997 230.794 383.828 230.454 385.678C226.228 393.909 229.451 406.042 236.673 403.126C248.963 402.361 250.504 387.464 255.974 377.823C256.499 376.079 256.924 374.307 257.248 372.515C259.236 372.991 261.253 373.343 263.285 373.569C276.527 371.043 291.583 375.04 295.734 362.447C295.714 361.007 295.249 359.608 294.403 358.442C293.558 357.276 292.373 356.4 291.01 355.933C288.474 354.832 285.36 354.36 282.843 353.185C280.762 352.678 278.646 352.331 276.512 352.148C274.055 351.938 271.586 351.877 269.122 351.967Z" fill="#5EB88A"/>
<path d="M236.095 423.982C236.154 424.452 236.1 424.929 235.936 425.374C235.813 425.742 235.606 426.076 235.33 426.349C234.929 426.801 234.375 427.09 233.775 427.161C233.265 427.199 232.755 427.104 232.293 426.883C231.831 426.663 231.435 426.325 231.144 425.904C230.853 425.483 230.678 424.993 230.635 424.483C230.592 423.974 230.685 423.461 230.902 422.998C231.058 422.681 231.276 422.399 231.543 422.168C231.81 421.937 232.12 421.762 232.457 421.654C232.793 421.545 233.148 421.506 233.5 421.537C233.852 421.568 234.194 421.67 234.506 421.836C235.006 422.072 235.455 422.405 235.826 422.815C235.978 423.187 236.068 423.581 236.095 423.982Z" fill="#443826"/>
<path d="M250.16 423.181C250.186 423.921 249.943 424.645 249.474 425.219C249.006 425.793 248.345 426.177 247.615 426.3C247.105 426.338 246.593 426.243 246.131 426.022C245.67 425.802 245.273 425.464 244.982 425.043C244.692 424.622 244.517 424.132 244.475 423.622C244.432 423.112 244.523 422.6 244.74 422.137C245.516 420.337 248.097 420.177 249.888 421.989C250.041 422.37 250.133 422.772 250.16 423.181Z" fill="#443826"/>
<path d="M240.714 450.213C240.094 450.261 239.469 450.192 238.875 450.008C234.183 447.981 233.007 442.972 232.654 438.874C232.594 437.916 232.551 437.228 232.536 436.983C232.518 436.757 232.547 436.53 232.617 436.314C232.688 436.099 232.799 435.9 232.947 435.728C233.094 435.556 233.275 435.415 233.477 435.313C233.679 435.211 233.899 435.149 234.124 435.132C234.352 435.111 234.581 435.136 234.799 435.205C235.017 435.273 235.219 435.385 235.394 435.532C235.568 435.68 235.711 435.861 235.815 436.064C235.919 436.268 235.982 436.49 235.999 436.718C235.999 437.26 236.033 437.801 236.1 438.339C236.137 438.929 236.299 439.56 236.437 440.193C237.328 442.605 237.48 445.062 239.29 446.38C239.507 446.547 239.761 446.663 240.029 446.718C240.297 446.774 240.574 446.769 240.84 446.703C241.318 446.61 241.764 446.395 242.134 446.08C242.542 445.721 242.891 445.299 243.167 444.831C244.184 442.416 244.905 439.886 245.314 437.297C245.399 436.675 245.436 436.081 245.477 435.56C245.519 435.04 245.415 434.553 245.539 434.175C245.542 433.714 245.727 433.273 246.053 432.948C246.38 432.623 246.821 432.439 247.282 432.438C247.737 432.456 248.169 432.64 248.499 432.954C248.816 433.284 248.994 433.724 248.994 434.181C248.451 439.322 248.773 444.507 245.071 448.067C244.62 448.589 244.09 449.038 243.501 449.399C242.899 449.763 242.239 450.021 241.55 450.161L240.714 450.213Z" fill="#443826"/>
</g>
<g clip-path="url(#clip1_687_401)">
<path d="M525.352 535.356C524.623 535.115 523.853 535.02 523.087 535.076C522.321 535.133 521.573 535.34 520.888 535.686C520.202 536.031 519.591 536.509 519.089 537.091C518.588 537.673 518.206 538.348 517.966 539.078C516.6 543.009 514.49 546.641 511.751 549.775C511.497 548.336 511.337 547.429 511.261 546.997C507.295 524.518 497.436 489.412 442.989 517.493C442.989 517.493 403.748 513.763 403.428 552.401C403.299 560.042 404.402 567.654 406.693 574.945C400.813 574.201 395.308 571.652 390.938 567.649C390.379 567.121 389.722 566.709 389.004 566.436C388.287 566.163 387.522 566.034 386.754 566.056C385.986 566.079 385.231 566.252 384.53 566.567C383.829 566.882 383.197 567.331 382.67 567.89C382.143 568.449 381.731 569.106 381.458 569.824C381.185 570.542 381.056 571.306 381.078 572.074C381.101 572.842 381.274 573.598 381.589 574.298C381.904 574.999 382.353 575.631 382.912 576.158C390.496 583.308 401.993 587.497 411.389 586.67C411.876 587.667 412.396 588.674 412.963 589.702C418.882 599.534 430.787 610.151 444.987 615.11L438.904 639.926C433.147 640.941 429.592 646.021 432.978 648.391C436.364 650.761 446.692 650.423 447.824 646.499L457.046 615.831C459.21 615.909 461.378 615.869 463.538 615.71C469.407 615.276 475.116 613.59 480.28 610.767C481.884 619.017 485.763 636.288 489.275 642.821C490.632 647.315 504.537 641.939 505.229 637.365C506.16 634.233 502.266 628.984 495.578 633.132C493.948 623.893 491.45 611.839 489.401 606.027C498.967 601.371 510.057 580.124 512.22 566.476C512.262 566.127 512.276 565.783 512.301 565.422C517.118 561.605 525.492 553.806 529.075 542.741C529.316 542.012 529.411 541.243 529.354 540.476C529.297 539.71 529.09 538.963 528.744 538.277C528.398 537.591 527.921 536.98 527.339 536.479C526.757 535.977 526.082 535.596 525.352 535.356Z" fill="#FFB6CC"/>
<path d="M398.206 356.539C396.431 353.685 394.908 350.682 393.654 347.563C392.665 345.066 391.966 342.786 390.824 339.93C390.872 337.126 391.174 334.331 391.725 331.58C393.202 323.128 395.896 314.18 392.159 304.942C391.38 302.663 390.385 300.463 389.189 298.372C386.89 294.338 383.924 290.722 380.417 287.678C381.042 285.668 381.6 283.611 382.064 281.451C386.415 248.497 371.393 223.072 365.721 191.768C364.807 188.268 363.88 184.757 362.942 181.232C353.581 146.009 343.01 110.316 317.151 83.6861C314.568 81.6637 311.897 79.7309 309.162 77.854C290.018 64.7304 267.548 54.7017 247.619 40.2329C244.67 39.0634 241.64 38.1102 238.553 37.3807C235.526 36.6238 232.485 35.9584 229.474 35.3767C226.463 34.7951 222.991 34.2057 219.779 33.7485C216.567 33.2913 213.373 32.9346 210.223 32.6594C207.073 32.3842 203.922 32.1834 200.831 32.0758C199.512 35.6177 198.297 39.2453 197.193 42.9125C196.089 46.5796 195.116 50.3127 194.239 54.0882C186.622 90.7347 183.61 133.38 203.777 169.798C205.356 173.363 207.059 176.877 208.91 180.304C218.14 197.723 231.133 212.868 246.945 224.64C248.476 226.166 249.947 227.687 251.381 229.17C281.389 246.936 277.411 289.737 302.943 314.346C305.89 317.191 309.148 319.692 312.658 321.803C327.412 327.465 332.38 342.585 344.863 353.619C347.494 355.946 350.343 358.012 353.371 359.79C355.653 362.896 357.669 366.189 359.397 369.634C368.996 388.463 378.997 425.295 405.024 413.684C421.45 407.284 407.027 385.255 402.808 368.073C401.398 364.033 399.841 360.168 398.206 356.539Z" fill="#5EB88A"/>
<path d="M294.714 165.848C289.761 164.436 288.366 165.113 291.773 168.607C346.302 197.761 346.503 303.441 396.178 387.51C397.38 389.554 398.578 391.608 399.773 393.672C412.524 419.766 423.876 444.577 435.401 468.854C436.925 473.036 437.41 480.83 438.769 484.998C442.372 505.419 442.431 515.677 444.774 531.647L453.993 531.504C450.964 518.876 449.914 499.132 446.185 487.251C444.954 483.298 443.305 467.311 441.983 463.433C427.693 436.439 421.893 424.76 406.167 396.016C404.067 391.683 401.843 387.742 399.58 383.912C387.089 373.844 379.519 348.098 372.806 333.093C371.949 324.875 365.682 310.8 365.492 308.46C333.866 208.696 330.264 188.275 294.714 165.848Z" fill="#8DCCAA"/>
<path d="M557.752 70.2897C555.648 69.5265 553.464 69.0012 551.243 68.7229C550.135 68.5792 549.02 68.4935 547.903 68.4662C519.475 67.1456 503.259 94.5806 486.843 112.643L484.549 115.615C474.894 128.181 467.804 142.075 468.648 160.816L467.672 164.876C462.34 187.556 462.213 208.873 466.749 225.331C466.14 226.166 465.564 227.024 464.965 227.916C464.366 228.808 463.795 229.695 463.258 230.606C440.994 238.986 453.195 268.441 448.778 287.562C448.875 288.866 448.998 290.075 449.157 291.309C449.614 294.47 450.372 297.581 451.42 300.599C442.392 307.297 437.352 317.921 439.271 328.801C440.221 334.051 442.708 338.901 446.418 342.735C444.404 344.655 442.723 346.897 441.446 349.37C440.991 350.237 440.557 351.144 440.158 352.075C435.363 366.277 434.364 380.55 443.088 395.765C443.701 397.051 444.341 398.244 445.015 399.372C447.685 403.846 451.345 407.647 455.716 410.483C456.692 411.065 457.702 411.59 458.739 412.057C487.626 423.802 486.025 374.952 480.721 355.484C480.898 354.517 481.207 353.579 481.639 352.695C485.976 343.635 501.92 335.183 504.101 321.384C504.265 320.053 504.213 318.704 503.945 317.39C503.212 313.227 501.501 309.297 498.954 305.924C501.806 303.057 504.427 299.97 506.793 296.691C507.414 295.839 507.978 294.998 508.629 294.067C515.895 285.454 524.883 276.85 522.231 263.754C522.476 262.791 522.722 261.828 522.953 260.867C523.415 258.945 523.76 257.029 524.138 255.137C524.298 254.189 524.445 253.258 524.59 252.312C561.357 224.783 593.792 169.928 584.428 118.708C584.318 117.243 584.197 115.885 584.057 114.5C581.626 92.3135 572.579 75.6869 557.752 70.2897Z" fill="#5EB88A"/>
<path d="M551.276 167.057C553.652 164.798 554.502 166.25 554.484 168.42C517.44 211.787 478.567 300.633 460.514 389.232C460.064 391.389 459.644 393.556 459.225 395.722C455.816 422.322 453.214 447.355 450.334 471.992C450.21 476.08 450.154 480.14 450.164 484.145C450.129 499.521 451.349 514.874 453.812 530.052L444.278 525.977C443.354 514.179 442.792 502.58 442.59 491.18C442.524 487.383 442.511 483.606 442.55 479.85C446.978 451.957 445.584 424.127 450.702 394.258C451.258 389.842 452.017 385.731 452.834 381.699C460.393 368.865 456.79 348.443 464.935 334.808C466.119 331.008 467.328 327.263 468.583 323.525C488.616 263.898 518.357 211.937 551.276 167.057Z" fill="#8DCCAA"/>
<path d="M453.7 551.619C453.823 552.15 453.824 552.703 453.703 553.236C453.598 553.667 453.401 554.072 453.125 554.421C452.713 554.981 452.115 555.376 451.437 555.535C450.859 555.646 450.262 555.604 449.706 555.411C449.149 555.219 448.653 554.884 448.266 554.44C447.88 553.996 447.616 553.458 447.503 552.88C447.39 552.303 447.431 551.705 447.622 551.148C447.759 550.767 447.972 550.418 448.248 550.121C448.523 549.824 448.856 549.586 449.226 549.421C449.596 549.256 449.995 549.168 450.4 549.161C450.805 549.154 451.208 549.228 451.583 549.38C452.195 549.569 452.758 549.891 453.233 550.321C453.46 550.725 453.618 551.163 453.7 551.619Z" fill="#443826"/>
<path d="M469.668 548.86C469.796 549.703 469.613 550.564 469.152 551.282C468.692 551.999 467.985 552.525 467.165 552.759C466.587 552.871 465.99 552.828 465.434 552.636C464.877 552.444 464.381 552.109 463.994 551.665C463.608 551.22 463.345 550.683 463.231 550.105C463.118 549.527 463.159 548.93 463.349 548.373C463.98 546.228 466.93 545.708 469.144 547.573C469.389 547.969 469.567 548.405 469.668 548.86Z" fill="#443826"/>
<path d="M462.359 581.03C461.652 581.156 460.927 581.153 460.221 581.022C454.607 579.311 452.587 573.584 451.689 569.083C451.398 568.021 451.244 567.232 451.198 566.973C451.147 566.716 451.147 566.451 451.199 566.194C451.25 565.937 451.352 565.692 451.499 565.475C451.645 565.257 451.833 565.071 452.052 564.926C452.271 564.782 452.516 564.682 452.774 564.632C453.293 564.533 453.831 564.643 454.269 564.938C454.707 565.233 455.011 565.689 455.114 566.208C455.213 566.769 455.325 567.402 455.543 568.046C455.76 568.691 455.941 569.46 456.158 570.104C457.509 572.715 458.037 575.709 460.205 576.81C460.473 576.983 460.779 577.092 461.097 577.126C461.414 577.16 461.736 577.119 462.036 577.006C462.544 576.824 463 576.52 463.363 576.119C463.782 575.658 464.13 575.136 464.396 574.572C465.244 571.656 465.74 568.649 465.872 565.616C465.877 564.888 465.849 564.136 465.827 563.591C465.805 563.045 465.758 562.445 465.711 562.009C465.682 561.748 465.704 561.485 465.777 561.234C465.851 560.983 465.972 560.748 466.136 560.544C466.3 560.34 466.503 560.17 466.733 560.045C466.962 559.919 467.215 559.84 467.475 559.813C467.736 559.782 468 559.804 468.252 559.876C468.505 559.949 468.74 560.071 468.945 560.236C469.358 560.574 469.624 561.059 469.688 561.589C469.725 567.518 470.769 573.433 466.999 577.971C466.541 578.635 465.992 579.232 465.367 579.743C464.727 580.237 464.005 580.615 463.234 580.861C462.947 580.936 462.654 580.993 462.359 581.03Z" fill="#443826"/>
<path d="M537.329 602.741C537.18 594.058 540.276 584.223 542.359 577.763L554.292 580.609C548.441 589.007 548.821 602.853 550.026 603.325C561.02 607.632 558.999 615.195 557.302 615.565C554.103 616.262 543.181 616.129 539.145 614.914C535.109 613.699 537.365 604.828 537.329 602.741Z" fill="#443826" stroke="#443826"/>
<path d="M512.767 593.85C514.536 584.666 516.295 577.998 518.182 572.559C522.576 572.858 531.275 573.811 530.914 575.231C530.463 577.005 526.094 603.095 521.541 609.115C520.437 610.575 515.907 611.46 513.716 611.659C510.354 612.252 501.979 608.938 503.486 605.09C506.716 596.845 511.825 598.74 512.767 593.85Z" fill="#443826" stroke="#443826"/>
<path d="M548.443 446.139C546.765 430.751 558.255 409.784 564.21 401.224C566.741 397.346 577.844 403.535 578.127 407.408C578.337 410.295 563.895 429.573 561.134 437.088C559.293 442.098 558.635 447.409 558.15 450.307C555.567 455.758 550.121 461.526 548.443 446.139Z" fill="#443826" stroke="#443826"/>
<path d="M630.263 525.505C627.066 524.969 619.62 526.009 616.003 527.356C614.911 522.985 614.201 514.091 620.1 513.475C627.473 512.706 634.603 514.33 635.858 514.649C641.18 516.003 646.473 518.804 648.836 522.294C651.308 525.945 649.964 528.752 648.98 530.642C647.995 532.533 644.842 532.801 642.719 530.75C640.477 528.584 634.612 526.233 630.263 525.505Z" fill="#443826" stroke="#443826"/>
<path d="M454.473 499.693C462.61 496.662 474.008 496.413 480.594 496.514C483.794 495.816 483.67 509.013 481.122 508.549C470.651 506.641 460.878 507.934 456.566 509.293C452.253 510.651 448.801 515.314 445.649 518.795C441.859 522.553 436.556 521.024 436.952 517.338C437.921 508.328 449.048 501.713 454.473 499.693Z" fill="#443826" stroke="#443826"/>
<path d="M510.139 431.864C528.14 425.259 548.813 442.707 555.125 451.805C572.892 439.134 606.351 433.098 623.791 457.367C641.231 481.637 610.378 545.76 595.257 562.882C580.136 580.003 571.968 590.582 518.428 577.533C464.889 564.485 469.784 485.07 477.496 466.631C485.208 448.191 487.639 440.12 510.139 431.864Z" fill="#EB5050"/>
<path d="M539.112 491.743C540.676 489.307 542.23 489.388 543.25 489.584C545.334 489.986 545.993 492.813 544.471 495.184C543.22 497.132 541.794 498.281 539.846 497.03C538.757 496.33 537.518 494.227 539.112 491.743Z" fill="#443826"/>
<path d="M557.033 496.276C558.339 494.433 560.017 493.472 561.791 493.924C563.565 494.375 564.315 496.627 563.95 498.062C563.048 501.611 560.022 503.108 557.587 501.544C557.084 501.222 554.976 499.18 557.033 496.276Z" fill="#443826"/>
<path d="M537.559 513.449C538.01 511.675 536.444 510.899 535.749 510.911C533.349 511.434 532.62 516.53 532.031 518.844C531.129 522.392 531.062 527.853 533.185 529.904C534.884 531.545 536.595 532.094 538.682 532.058C541.271 532.013 542.995 530.699 544.42 529.55C545.428 528.738 549.912 522.069 553.04 517.197C556.168 512.326 554.393 511.875 553.906 511.562C552.445 510.624 550.047 514.358 548.691 516.469L543.374 524.751C542.331 526.375 539.599 529.344 537.011 528.233C533.775 526.843 534.927 522.314 535.129 521.52C535.58 519.746 537.108 515.224 537.559 513.449Z" fill="#443826"/>
<path d="M539.112 491.743C540.676 489.307 542.23 489.388 543.25 489.584C545.334 489.986 545.993 492.813 544.471 495.184C543.22 497.132 541.794 498.281 539.846 497.03C538.757 496.33 537.518 494.227 539.112 491.743Z" stroke="#443826"/>
<path d="M557.033 496.276C558.339 494.433 560.017 493.472 561.791 493.924C563.565 494.375 564.315 496.627 563.95 498.062C563.048 501.611 560.022 503.108 557.587 501.544C557.084 501.222 554.976 499.18 557.033 496.276Z" stroke="#443826"/>
<path d="M537.559 513.449C538.01 511.675 536.444 510.899 535.749 510.911C533.349 511.434 532.62 516.53 532.031 518.844C531.129 522.392 531.062 527.853 533.185 529.904C534.884 531.545 536.595 532.094 538.682 532.058C541.271 532.013 542.995 530.699 544.42 529.55C545.428 528.738 549.912 522.069 553.04 517.197C556.168 512.326 554.393 511.875 553.906 511.562C552.445 510.624 550.047 514.358 548.691 516.469L543.374 524.751C542.331 526.375 539.599 529.344 537.011 528.233C533.775 526.843 534.927 522.314 535.129 521.52C535.58 519.746 537.108 515.224 537.559 513.449Z" stroke="#443826"/>
<g clip-path="url(#clip2_687_401)">
<path d="M384.511 544.558L390.167 515.729C390.51 513.987 390.147 512.18 389.159 510.706C388.17 509.231 386.636 508.209 384.894 507.865C383.152 507.525 381.347 507.888 379.872 508.877C378.398 509.865 377.377 511.397 377.031 513.138L370.19 548.027C369.901 548.532 369.677 549.072 369.522 549.633C368.227 554.394 372.196 559.624 378.389 561.309C384.583 562.994 390.654 560.495 391.95 555.733C393.12 551.364 389.856 546.604 384.511 544.558Z" fill="#5EB88A"/>
<path d="M266.508 359.014C262.189 358.339 260.147 352.225 263.901 348.402C264.125 348.157 264.364 347.925 264.61 347.668C267.953 344.538 272.465 343.755 277.668 342.882L278.219 342.8C284.521 341.837 290.967 339.598 301.677 341.705C301.945 341.778 303.094 341.878 303.374 341.972C306.653 342.443 309.732 343.836 312.25 345.989C312.552 346.173 312.86 346.368 313.157 346.57C316.751 349.066 319.66 352.424 321.618 356.337C322.032 357.114 322.289 357.966 322.374 358.842C322.459 359.719 322.37 360.603 322.113 361.445C321.855 362.288 321.434 363.07 320.874 363.75C320.313 364.429 319.624 364.991 318.846 365.403C317.277 366.239 315.44 366.418 313.74 365.899C312.039 365.381 310.614 364.209 309.777 362.64C309.028 361.174 308.018 359.857 306.795 358.753C306.518 358.511 306.243 358.297 305.957 358.09C293.196 350.033 280.657 358.666 267.332 359.117C267.055 359.102 266.78 359.067 266.508 359.014Z" fill="#5EB88A"/>
<path d="M512.422 434.379C504.348 425.133 502.457 411.649 488.472 407.104C487.393 406.648 486.272 406.297 485.126 406.055C482.627 405.531 480.034 405.669 477.605 406.455C475.908 406.986 474.07 406.823 472.493 406.002C470.915 405.18 469.728 403.768 469.19 402.073C468.659 400.376 468.823 398.538 469.644 396.961C470.465 395.383 471.878 394.196 473.573 393.658C477.113 392.506 480.84 392.039 484.555 392.282L485.135 392.329C486.578 392.61 487.987 392.947 489.371 393.342C490.755 393.737 492.097 394.185 493.414 394.692C507.467 400.043 518.922 412.423 520.579 426.769C521.6 429.826 519.33 434.767 514.747 434.585C513.966 434.656 513.179 434.586 512.422 434.379Z" fill="#5EB88A"/>
<path d="M485.367 440.934C473.548 475.701 452.845 516.834 413.169 523.635C410.338 524.415 407.472 525.074 404.571 525.613C369.852 532.103 331.267 521.784 306.463 495.638C304.518 493.846 302.667 491.954 300.917 489.97C283.66 470.343 277.879 442.109 280.688 414.683C280.926 411.75 281.312 408.832 281.844 405.938C289.821 362.613 330.057 325.755 375.292 321.644C378.28 321.376 381.27 321.238 384.261 321.23C391.121 321.208 397.966 321.878 404.691 323.23C406.969 323.689 409.247 324.228 411.524 324.847C434.269 331.961 455.917 344.334 469.826 363.671C471.524 365.986 473.114 368.348 474.596 370.758C482.018 383.013 486.506 396.818 487.712 411.094C487.928 413.704 488.036 416.327 488.036 418.964C487.587 424.02 487.465 430.324 486.529 435.229C486.194 437.077 485.806 438.979 485.367 440.934Z" fill="#5EB88A"/>
<path d="M399.179 329.29L394.96 327.772C395.291 326.861 401.489 309.936 411.333 303.581C412.437 301.744 413.887 300.137 415.602 298.851C417.37 297.495 419.262 296.31 421.253 295.311C423.972 294.884 433.22 288.135 430.011 296.526C428.444 298.879 423.034 298.334 420.37 301.315C425.781 301.86 430.252 305.856 428.845 311.031C427.202 317.069 422.185 318.484 416.922 317.672C414.962 316.852 413.288 315.472 412.109 313.705C411.318 312.625 410.738 311.404 410.4 310.109C405.046 315.591 400.831 324.718 399.179 329.29ZM414.834 306.683C414.568 308.017 414.726 309.401 415.286 310.641C415.845 311.882 416.779 312.916 417.955 313.6C421.406 314.538 423.835 312.42 423.911 308.735C423.851 308.268 423.697 307.818 423.459 307.413C423.221 307.007 422.903 306.654 422.525 306.373C422.148 306.093 421.716 305.892 421.259 305.782C420.802 305.673 420.327 305.656 419.863 305.735C418.123 305.518 416.36 305.859 414.827 306.709L414.834 306.683Z" fill="#5EB88A"/>
<path d="M370.039 350.999C369.442 352.309 368.973 354.035 367.013 354.428C361.603 353.883 365.046 344.629 369.125 346.665C369.987 346.899 370.381 348.859 370.235 349.394C370.246 349.936 370.18 350.476 370.039 350.999Z" fill="#443826"/>
<path d="M380.652 354.154C379.56 355.988 377.759 359.203 375.64 356.774C374.384 354.58 374.695 350.032 378.614 349.246C379.051 349.377 379.456 349.596 379.806 349.889C380.155 350.183 380.44 350.544 380.644 350.952C380.848 351.36 380.967 351.805 380.992 352.26C381.018 352.716 380.95 353.171 380.793 353.6C380.752 353.783 380.71 353.975 380.652 354.154Z" fill="#443826"/>
<path d="M331.15 442.509C327.931 436.872 328.663 428.354 334.005 422.34C335.843 420.076 337.951 418.045 340.282 416.293C344.219 413.093 348.881 409.304 352.393 402.422C353.674 399.902 354.645 397.235 355.284 394.482C358.323 383.311 351.262 374.258 347.571 364.527C344.507 355.356 347.764 348.525 353.071 342.604C354.432 341.103 355.87 339.673 357.378 338.319C362.918 333.415 370.576 329.477 374.167 321.755C365.878 322.622 357.732 324.54 349.927 327.464C333.656 341.334 329.867 365.075 341.416 384.262C344.095 388.955 342.284 395.615 338.439 400.247C336.552 402.462 334.424 404.459 332.095 406.201C330.785 407.272 329.384 408.401 327.98 409.714C326.475 411.075 325.081 412.555 323.812 414.139C309.653 431.113 323.348 450.688 323.889 469.067C324.024 480.22 313.693 486.118 305.68 491.905C305.143 492.38 304.617 492.885 304.096 493.402C304.818 494.154 305.62 494.918 306.418 495.663C308.655 498.022 311.015 500.263 313.486 502.375C314.843 501.031 316.325 499.803 317.931 498.499C335.993 485.875 339.817 463.098 331.15 442.509Z" fill="#443826"/>
<path d="M389.725 490.244C390.277 487.647 390.598 485.006 390.685 482.353C390.959 478.609 390.698 474.844 389.91 471.174C386.618 459.977 377.019 448.639 384.454 438.776C392.642 429.109 406.32 422.49 410.296 409.676C411.111 407.556 411.754 405.373 412.22 403.15C414.253 394.207 413.084 384.834 408.918 376.665C408.135 374.445 407.567 372.157 407.22 369.829C405.894 360.807 408.17 352.199 412.343 344.181C413.757 341.478 415.335 338.863 417.067 336.351C418.856 333.699 420.907 331.234 423.191 328.993C419.354 327.431 415.445 326.034 411.508 324.806C411.085 324.691 410.645 324.571 410.24 324.461C399.592 337.034 394.146 353.196 395.012 369.649C395.118 372.313 395.367 374.969 395.757 377.606C397.119 383.905 399.154 390.795 399.502 397.421C399.645 399.606 399.527 401.801 399.15 403.958C398.933 406.249 398.177 408.455 396.945 410.398C385.746 422.415 366.648 431.487 369.938 451.41C371.754 462.206 378.405 472.732 376.898 484.337C376.628 486.536 376.159 488.706 375.496 490.82C372.202 501.43 364.479 511.159 357.559 520.218C356.607 521.296 355.788 522.486 355.122 523.761C359.532 524.909 364.006 525.792 368.522 526.405C368.896 525.67 369.359 524.984 369.902 524.363C378.934 514.962 387.008 503.095 389.725 490.244Z" fill="#443826"/>
<path d="M436.01 514.932C433.107 506.5 429.726 498.188 430.052 490.004C430.144 487.544 430.609 485.112 431.431 482.792C440.255 466.664 455.545 454.148 459.827 435.479C462.642 425.128 454.65 416.636 453.061 406.912C452.371 404.344 451.866 401.73 451.548 399.089C450.072 386.191 454.276 374.347 470.717 366.322C470.961 366.24 471.193 366.136 471.434 366.035C470.882 365.237 470.33 364.438 469.754 363.661C467.826 360.971 465.742 358.397 463.513 355.951C460.91 359.8 456.283 362.099 452.66 365.44C450.841 367.08 449.163 368.87 447.646 370.792C438.767 382.079 436.638 396.516 440.244 410.096C440.858 412.363 441.589 414.597 442.436 416.788C459.603 439.401 432.318 458.141 421.988 476.703C420.93 478.821 420.118 481.052 419.567 483.354C415.608 496.515 421.2 508.245 424.878 520.436C428.754 518.957 432.482 517.114 436.01 514.932Z" fill="#443826"/>
<path d="M347.238 498.04C346.449 497.651 345.591 497.42 344.712 497.363C343.834 497.306 342.952 497.422 342.119 497.705C341.285 497.989 340.516 498.434 339.854 499.015C339.193 499.597 338.653 500.303 338.265 501.093L324.915 528.273C318.839 526.769 312.976 529.25 311.7 533.943C310.423 538.635 314.374 543.934 320.568 545.619C326.761 547.303 332.833 544.804 334.128 540.043C334.144 539.983 334.158 539.931 334.175 539.871L350.307 507.027C350.697 506.236 350.927 505.375 350.983 504.495C351.04 503.615 350.923 502.732 350.638 501.897C350.353 501.062 349.906 500.292 349.323 499.63C348.739 498.968 348.031 498.428 347.238 498.04Z" fill="#5EB88A"/>
<path d="M381.078 374.252C380.99 374.609 380.873 374.958 380.729 375.297C377.07 382.176 367.974 381.554 361.71 377.099C361.452 376.89 361.19 376.661 360.967 376.425C357.449 373.078 355.252 367.598 359.703 364.482C364.155 361.367 370.31 361.624 375.026 364.176C375.327 364.332 375.614 364.502 375.899 364.682C379.385 367.057 380.641 369.251 381.265 373.395C381.178 373.677 381.155 373.967 381.078 374.252Z" fill="#443826"/>
</g>
</g>
<g clip-path="url(#clip3_687_401)">
<path d="M44.1335 605.746C42.6542 606.162 41.0786 606.074 39.6555 605.494C37.9376 604.804 36.5638 603.46 35.8367 601.758C35.1096 600.055 35.0887 598.134 35.7782 596.416C40.3414 585.075 49.9566 575.964 63.5834 570.073C71.7872 566.525 80.5341 564.395 89.4509 563.773C91.3006 563.711 93.0995 564.386 94.4519 565.65C95.8042 566.913 96.5991 568.662 96.6625 570.511C96.7247 572.361 96.0498 574.16 94.7863 575.512C93.5228 576.864 91.7745 577.66 89.9248 577.723C83.1642 577.949 56.3439 582.69 48.7479 601.625C48.3472 602.62 47.7226 603.51 46.9223 604.225C46.122 604.94 45.1676 605.46 44.1335 605.746Z" fill="#FFD200"/>
<path d="M158.829 466.658C146.312 469.982 134.314 474.865 123.987 483.895C120.706 486.861 114.146 483.553 108.502 483.842C103.567 483.686 98.6288 484.004 93.7547 484.791C74.2976 487.956 56.4312 498.794 49.6286 517.412C37.5603 551.575 55.5438 583.022 70.1884 612.232C72.0898 616.377 73.9806 620.44 75.9935 624.422C84.1445 640.27 94.6624 654.554 109.154 665.149C123.235 675.786 144.669 667.965 160.794 657.116C163.911 655.025 166.911 652.764 169.779 650.343C173.788 650.993 177.832 651.397 181.89 651.552C199.59 652.318 223.065 651.961 229.348 633.777C235.749 616.189 237.528 598.485 236.454 580.898C236.194 576.49 235.745 572.098 235.195 567.686C228.423 528.786 223.457 472.151 175.521 465.145C169.911 464.688 164.265 465.2 158.829 466.658Z" fill="#FFD200"/>
<path d="M121.101 464.143C116.656 459.232 112.208 454.31 106.513 451.16C105.84 450.78 105.105 450.44 104.47 450.11C102.478 449.18 100.372 448.515 98.2075 448.132C93.2976 447.275 88.2427 448.008 83.7785 450.224C82.536 450.83 81.3417 451.529 80.206 452.317C78.4606 453.15 76.92 454.357 75.6944 455.854C75.3001 456.327 74.9434 456.829 74.6274 457.358C73.2474 459.248 72.5036 461.527 72.5032 463.867C72.5028 466.207 73.2457 468.487 74.6249 470.377C77.7245 474.141 81.6433 477.157 86.3213 477.39C87.0348 477.318 87.738 477.167 88.418 476.94C92.9199 475.41 94.9254 470.722 94.8779 465.904C94.9654 465.226 95.1955 464.573 95.5531 463.99C95.7412 463.727 95.9844 463.51 96.2662 463.352C96.548 463.195 96.8609 463.101 97.1829 463.078C97.8437 462.985 98.516 463.006 99.1695 463.141C99.8561 463.272 100.522 463.493 101.151 463.798C109.438 468.365 114.124 477.834 118.443 486.548C118.817 487.326 119.21 488.134 119.602 488.979C121.755 494.201 123.008 500.531 126.927 503.548C129.627 505.876 137.467 502.669 137.491 499.064C137.721 494.375 134.442 488.101 131.67 483.039C131.386 482.321 131.113 481.6 130.822 480.859C128.857 475.79 126.813 470.525 122.886 466.437C122.343 465.742 121.724 464.948 121.101 464.143Z" fill="#5EB88A"/>
<path d="M158.707 518.332C158.935 519.038 159.006 519.784 158.916 520.52C158.828 521.123 158.614 521.701 158.289 522.216C157.809 523.046 157.056 523.683 156.157 524.017C155.386 524.227 154.574 524.235 153.799 524.04C153.024 523.845 152.312 523.454 151.732 522.904C151.152 522.354 150.724 521.665 150.488 520.901C150.252 520.138 150.216 519.326 150.385 518.545C150.826 516.309 153.154 515.13 155.55 515.623C156.403 515.803 157.207 516.169 157.901 516.696C158.256 517.195 158.528 517.747 158.707 518.332Z" fill="#443826"/>
<path d="M180.04 512.533C180.326 513.662 180.189 514.858 179.658 515.895C179.126 516.932 178.235 517.739 177.151 518.167C176.38 518.375 175.569 518.381 174.795 518.185C174.021 517.989 173.311 517.597 172.733 517.047C172.154 516.497 171.727 515.808 171.491 515.045C171.256 514.283 171.221 513.472 171.389 512.692C171.971 509.704 175.906 508.61 179.231 510.837C179.598 511.35 179.872 511.924 180.04 512.533Z" fill="#443826"/>
<path d="M174.344 557.194C173.4 557.459 172.415 557.553 171.438 557.471C163.602 555.87 160.088 548.357 158.279 542.375C157.75 540.952 157.435 539.904 157.328 539.56C157.226 539.217 157.192 538.858 157.23 538.502C157.267 538.146 157.374 537.801 157.544 537.487C157.715 537.173 157.945 536.895 158.223 536.67C158.501 536.445 158.821 536.277 159.164 536.175C159.858 535.972 160.604 536.053 161.239 536.399C161.874 536.745 162.346 537.329 162.551 538.023C162.757 538.762 163.044 539.576 163.372 540.451C163.7 541.326 164.077 542.248 164.49 543.171C166.634 546.537 167.731 550.482 170.873 551.746C171.259 551.941 171.685 552.044 172.117 552.047C172.55 552.05 172.977 551.954 173.366 551.766C174.061 551.452 174.665 550.968 175.124 550.359C175.641 549.687 176.044 548.934 176.316 548.131C177.096 544.076 177.381 539.942 177.167 535.818C177.073 534.83 176.959 533.895 176.838 533.071C176.718 532.247 176.588 531.523 176.463 530.942C176.319 530.233 176.461 529.496 176.859 528.892C177.257 528.287 177.878 527.866 178.586 527.719C178.935 527.645 179.294 527.641 179.645 527.707C179.995 527.773 180.328 527.909 180.626 528.105C180.926 528.301 181.185 528.554 181.388 528.85C181.59 529.146 181.733 529.479 181.806 529.83C182.636 537.896 184.827 545.777 180.305 552.444C179.769 553.384 179.1 554.241 178.32 554.989C177.512 555.748 176.58 556.363 175.565 556.806C175.167 556.962 174.759 557.092 174.344 557.194Z" fill="#443826"/>
<path d="M158.559 672.665C153.986 673.852 150.822 676.978 151.16 680.278C151.563 684.115 156.577 686.73 162.306 686.139C168.035 685.548 172.395 681.944 171.992 678.107L168.853 648.015L156.12 649.346L158.559 672.665Z" fill="#FFD200"/>
<path d="M208.892 661.059L198.773 639.913L187.228 645.43L200.286 672.715C201.945 676.203 207.515 676.996 212.74 674.505C217.965 672.013 220.841 667.156 219.175 663.682C217.749 660.685 213.401 659.684 208.892 661.059Z" fill="#FFD200"/>
<path d="M249.457 545.025C248.375 545.326 247.236 545.362 246.137 545.13C245.038 544.897 244.011 544.403 243.144 543.688C238.871 540.179 223.552 529.995 206.029 546.498C205.361 547.128 204.576 547.62 203.718 547.946C202.86 548.272 201.946 548.425 201.029 548.398C200.112 548.37 199.209 548.162 198.372 547.785C197.535 547.408 196.78 546.87 196.152 546.202C194.884 544.853 194.203 543.057 194.259 541.207C194.315 539.357 195.104 537.605 196.452 536.336C217 516.987 239.228 522.4 252.02 532.96C253.447 534.136 254.349 535.831 254.529 537.671C254.708 539.512 254.149 541.349 252.975 542.778C252.063 543.873 250.834 544.658 249.457 545.025Z" fill="#FFD200"/>
</g>
<path d="M403.247 645.197C400.921 644.454 386.469 626.693 379.588 617.207L393.265 605.813L408.144 622.038C412.222 620.117 420.127 618.631 419.12 628.056C417.861 639.837 408.124 646.757 403.247 645.197Z" fill="#F94949" stroke="#F94949"/>
<path d="M298.792 639.031C301.625 632.412 308.358 621.067 312.102 615.336L326.732 620.014C324.25 628.896 310.706 651.082 306.935 651.668C294.808 653.553 289.171 646.705 290.848 642.582C292.641 639.214 297.518 642.008 298.792 639.031Z" fill="#F94949" stroke="#F94949"/>
<path d="M430.566 522.779C429.453 523.57 420.609 538.229 413.887 544.68L408.527 530.065C415.702 516.593 422.138 513.275 422.423 510.142C422.631 507.862 414.454 500.217 420.079 495.058C426.163 489.479 434.072 500.608 435.998 508.032C437.924 515.456 431.957 521.79 430.566 522.779Z" fill="#F94949" stroke="#F94949"/>
<path d="M258.484 538.707C259.972 540.329 269.672 544.435 274.336 546.284L271.753 564.45C266.447 560.126 254.281 552.927 252.935 552.7C250.555 552.297 250.672 553.051 249.164 553.286C246.901 553.637 244.639 553.989 241.79 550.57C238.942 547.15 237.001 529.687 244.542 528.515C252.084 527.344 256.624 536.679 258.484 538.707Z" fill="#F94949" stroke="#F94949"/>
<path d="M284.043 519.64C300.39 493.62 329.028 491.023 344.177 494.075C378.532 496.46 391.031 512.283 400.499 518.535C411.688 525.924 422.196 553.782 408.667 586.007C395.138 618.232 367.468 624.076 353.022 625.549C338.576 627.021 307.406 620.28 288.287 601.624C269.168 582.969 263.609 552.165 284.043 519.64Z" fill="#F94949" stroke="#F94949"/>
<path d="M333.808 581.068C333.951 579.501 334.73 577.063 336.356 577.582C339.148 578.475 337.729 587.41 338.063 593.537C338.397 599.664 340.821 601.347 342.369 601.364C345.013 601.694 349.94 598.26 352.743 593.573C355.786 588.487 355.745 583.065 358.007 582.714C361.496 582.172 360.079 591.715 355.072 598.617C351.141 604.036 345.647 606.168 341.563 606.123C332.279 606.021 333.523 584.202 333.808 581.068Z" fill="#443826" stroke="#443826"/>
<path d="M356.403 557.474C357.325 553.469 360.225 552.246 362.605 552.649C364.984 553.051 365.776 556.018 363.894 560.945C362.011 565.872 358.006 564.662 357.458 564.262C355.715 562.988 355.784 560.162 356.403 557.474Z" fill="#443826" stroke="#443826"/>
<path d="M330.553 500.475C325.364 496.904 315.519 489.217 317.651 487.032C319.743 484.888 333.489 486.239 340.473 487.231L340.245 463.44C338.62 462.92 337.94 462.597 338.268 460.657C339.073 455.898 348.072 459.134 351.44 460.927C354.135 462.362 351.276 479.747 349.509 488.261C355.593 482.681 368.714 471.682 372.521 472.327C376.329 472.971 365.581 487.308 359.731 494.396C365.813 500.402 377.214 513.46 374.157 517.642C371.099 521.825 354.582 517.595 346.706 514.957C342.733 522.526 333.708 537.676 329.391 537.729C325.074 537.782 332.668 517.396 337.004 507.196C326.39 510.133 304.742 515.299 303.067 512.47C301.392 509.641 320.693 503.294 330.553 500.475Z" fill="#5EB88A"/>
<path d="M340.862 487.287C340.735 487.269 340.605 487.25 340.473 487.231M340.473 487.231C333.489 486.239 319.743 484.888 317.651 487.032C315.519 489.217 325.364 496.904 330.553 500.475C320.693 503.294 301.392 509.641 303.067 512.47C304.742 515.299 326.39 510.133 337.004 507.196C332.668 517.396 325.074 537.782 329.391 537.729C333.708 537.676 342.733 522.526 346.706 514.957C354.582 517.595 371.099 521.825 374.157 517.642C377.214 513.46 365.813 500.402 359.731 494.396C365.581 487.308 376.329 472.971 372.521 472.327C368.714 471.682 355.593 482.681 349.509 488.261C351.276 479.747 354.135 462.362 351.44 460.927C348.072 459.134 339.073 455.898 338.268 460.657C337.94 462.597 338.62 462.92 340.245 463.44L340.473 487.231Z" stroke="#5EB88A"/>
<path d="M335.353 566.153C334.269 565.807 332.518 563.813 334.181 558.611C335.844 553.41 339.008 553.227 340.382 553.786C342.683 554.722 343.522 558.087 341.672 562.082C339.821 566.077 336.978 566.673 335.353 566.153Z" fill="#443826" stroke="#443826"/>
<g clip-path="url(#clip4_687_401)">
<path d="M689.764 603.638C680.34 603.638 667.548 605.769 667.548 603.638C661.855 586.594 655.225 564.82 641.963 554.083C638.668 551.371 634.818 549.415 630.684 548.352C614.246 546.115 597.19 554.636 591.582 568.762C589.001 574.141 587.137 579.836 586.039 585.7C584.866 591.608 584.267 597.615 584.248 603.638H558.961C558.959 596.191 559.746 588.764 561.306 581.481C565.208 546.115 601.454 516.287 638.189 525.789C643.09 527.447 647.778 529.678 652.154 532.437C669.674 543.711 682.145 561.326 686.95 581.587C688.811 588.79 689.756 596.199 689.764 603.638Z" fill="#443826"/>
<path d="M146.105 612.693H120.818C120.826 605.108 119.749 597.561 117.62 590.28C113.206 571.681 96.1501 550.376 74.8294 556.767C51.3765 565.289 40.7165 588.725 40.5673 612.693H15.2801C15.2493 605.279 16.0796 597.886 17.7537 590.663C25.7916 558.897 55.6407 529.07 91.886 533.332C113.207 535.462 128.131 550.376 137.15 570.594C140.066 576.984 142.283 583.67 143.76 590.536C145.32 597.819 146.107 605.245 146.105 612.693Z" fill="#443826"/>
<path d="M13 599.378C13 607.9 13.306 616.33 13.9172 624.667C14.834 631.463 15.7717 638.238 16.7738 645.013C17.7759 651.788 18.906 658.542 20.1 665.424C26.2979 716.762 45.6161 765.642 76.195 807.359C79.9901 812.472 83.9768 817.443 88.1557 822.272C112.126 842.478 137.631 860.791 164.441 877.048C169.757 880.314 175.123 883.532 180.539 886.699C230.472 916.824 285.906 931.738 343.941 936.511C352.209 937.061 360.501 937.153 368.78 936.787C393.544 935.854 418.135 932.246 442.123 926.028C449.23 924.053 456.337 921.853 463.444 919.424C511.759 902.609 555.639 875.083 591.795 838.911C597.381 833.329 602.774 827.577 608.041 821.654C652.622 776.21 678.207 714.425 687.375 649.466C688.548 641.264 689.508 632.997 690.062 624.667C690.616 616.337 691 607.878 691 599.378H653.433C546.019 597.247 439.416 601.508 333.814 599.378H282.366C258.188 599.378 232.604 597.247 209.151 595.117C177.17 594.051 145.721 596.715 114.551 598.845C108.304 599.271 102.078 599.676 95.874 600.017C70.5663 603.639 47.1127 601.508 21.5491 599.378H13Z" fill="#443826"/>
<path d="M281.811 682.468C273.113 681.551 264.584 681.551 256.056 676.502C245.395 669.791 228.339 656.369 243.263 646.313C241.131 663.08 260.32 676.502 281.641 678.271C302.961 678.271 320.018 666.532 324.282 648.081H330.678C326.414 661.504 315.754 673.242 299.806 679.804C293.985 681.63 287.912 682.529 281.811 682.468Z" fill="#F2F2F2"/>
<path d="M137.002 682.468C113.208 681.019 87.6229 666.105 91.8871 646.249C104.68 662.803 115.34 682.659 145.189 677.695C164.378 674.393 172.906 661.141 177.17 647.868H183.566C181.434 661.099 172.906 672.689 154.889 679.826C149.1 681.627 143.066 682.518 137.002 682.468Z" fill="#F2F2F2"/>
<path d="M206.08 782.602C181.433 782.431 155.848 761.126 157.98 737.861H164.376C162.244 757.249 179.301 770.82 198.49 774.676C230.471 782.431 234.735 753.371 249.659 737.861C247.527 753.371 241.131 770.82 223.393 778.852C217.951 781.308 212.051 782.586 206.08 782.602Z" fill="#F2F2F2"/>
<path d="M358.397 778.617C345.604 778.617 334.943 776.615 326.031 767.305C321.912 763.587 318.572 759.09 316.203 754.074C313.831 748.998 312.601 743.463 312.6 737.861H318.996C318.996 742.678 320.059 747.435 322.109 751.795C324.16 756.132 327.06 760.014 330.637 763.214C341.088 770.972 354.136 774.392 367.053 772.759C384.109 768.881 399.034 753.371 396.902 737.861H403.298C407.562 755.31 392.637 768.881 376.263 774.953C370.552 777.157 364.514 778.396 358.397 778.617Z" fill="#F2F2F2"/>
<path d="M514.038 779.513C507.96 779.537 501.931 778.431 496.257 776.253C488.243 773.218 481.251 767.982 476.088 761.147C473.608 757.832 471.659 754.152 470.31 750.239C468.919 746.259 468.199 742.076 468.178 737.861H474.574C474.614 742.66 475.664 747.397 477.654 751.765C479.645 756.133 482.533 760.033 486.13 763.214C489.805 766.519 494.053 769.125 498.666 770.905C528.941 782.431 545.999 759.187 556.659 737.861C558.791 753.371 548.13 770.82 531.5 776.21C525.944 778.417 520.017 779.539 514.038 779.513Z" fill="#F2F2F2"/>
<path d="M271.344 865.692C247.528 864.541 230.472 850.778 228.34 831.71H234.736C232.604 847.263 251.793 861.09 270.981 861.09C296.566 861.09 302.963 840.36 317.887 828.258C316.901 832.935 315.473 837.508 313.623 841.915C311.414 846.961 307.859 851.302 303.347 854.464C299.011 857.982 294.088 860.708 288.805 862.517C283.19 864.493 277.296 865.564 271.344 865.692Z" fill="#F2F2F2"/>
<path d="M443.317 861.58C418.094 861.09 398.906 843.811 396.773 823.081H403.17C407.434 843.811 426.622 857.638 452.207 855.912C469.264 854.187 484.189 840.36 482.056 826.533C492.717 826.533 488.453 836.908 486.321 842.085C479.924 850.735 473.528 857.638 461.226 859.897C455.395 861.468 449.339 862.037 443.317 861.58Z" fill="#F2F2F2"/>
<path d="M569.471 681.892C543.886 683.149 526.829 664.699 524.697 646.249H531.093C535.358 664.699 552.414 681.487 577.999 676.438C595.056 673.093 612.112 661.354 609.98 646.249H616.376C618.509 661.354 603.584 673.093 587.167 679.016C581.454 680.892 575.484 681.863 569.471 681.892Z" fill="#F2F2F2"/>
<path d="M426.623 682.468C407.435 681.488 373.321 666.382 386.114 647.932C388.246 657.988 394.642 666.375 405.303 673.093C420.227 679.805 433.02 678.122 447.944 673.093C460.737 668.065 462.869 657.988 467.133 647.932H473.529C471.397 661.354 460.736 674.776 444.447 679.74C438.686 681.579 432.671 682.5 426.623 682.468Z" fill="#F2F2F2"/>
</g>
<defs>
<clipPath id="clip0_687_401">
<rect width="171.74" height="436.259" fill="white" transform="translate(121 319.668) rotate(-3.56147)"/>
</clipPath>
<clipPath id="clip1_687_401">
<rect width="390.517" height="653.926" fill="white" transform="translate(174 36.8546) rotate(-10.0063)"/>
</clipPath>
<clipPath id="clip2_687_401">
<rect width="270" height="273" fill="white" transform="translate(288.652 254) rotate(15.2164)"/>
</clipPath>
<clipPath id="clip3_687_401">
<rect width="228.049" height="251.273" fill="white" transform="translate(0 473.1) rotate(-15.5407)"/>
</clipPath>
<clipPath id="clip4_687_401">
<rect width="678" height="413" fill="white" transform="translate(13 524)"/>
</clipPath>
</defs>
</svg>
