<svg width="948" height="351" viewBox="0 0 948 351" fill="none" xmlns="http://www.w3.org/2000/svg">
<path d="M859.182 137.688C863.387 110.493 845.106 86.1844 821.768 75.5495C818.739 74.391 815.621 73.4768 812.445 72.8151C808.114 71.9255 803.705 71.4684 799.283 71.4487C790.142 70.9929 781.002 74.0303 774.908 70.9917C747.488 49.7221 729.207 19.3368 695.693 7.18275C637.804 -14.0869 561.635 13.2598 537.261 70.9917C532.955 68.6014 528.588 66.4038 524.16 64.3984C455.12 28.3007 388.091 79.956 351.53 143.765C339.343 161.996 296.689 155.92 275.361 177.037C271.302 179.93 267.406 183.043 263.692 186.365C238.069 209.519 224.876 241.636 247.879 276.549C249.921 280.053 252.201 283.412 254.704 286.605C260.138 293.496 266.355 299.737 273.229 305.201C276.864 308.118 280.724 310.924 284.806 313.618C375.905 359.5 479.494 362.539 576.991 326.076C582.773 324.778 588.813 325.244 594.327 327.413C597.833 328.566 601.271 329.916 604.625 331.455C659.254 341.269 720.189 335.192 771.984 310.884C777.619 309.49 783.456 309.1 789.228 309.729C792.519 309.881 795.931 310.155 799.344 310.367C841.998 304.807 884.653 292.653 924.261 268.344C945.588 250.113 954.729 222.767 942.541 195.42C940.564 191.474 938.206 187.729 935.503 184.238C915.12 165.034 896.84 149.842 868.474 140.393C865.58 139.36 862.412 138.387 859.182 137.688Z" fill="#443826"/>
<path d="M117.886 222.636C115.241 222.636 112.644 222.758 110.097 222.977C107.264 223.073 104.488 223.787 101.964 225.069C92.1663 200.743 65.2217 198.31 43.1761 200.743C34.018 201.823 25.3205 205.328 17.9945 210.891C10.6686 216.455 4.98352 223.872 1.53452 232.367C-3.36449 249.395 3.98403 263.99 16.2316 276.153C21.6801 281.509 28.5844 285.17 36.0973 286.686C39.8332 287.494 43.6399 287.934 47.4628 288C76.0512 283.816 105.046 283.105 133.808 285.883C150.954 285.883 173 273.72 173 254.26C170.55 234.799 148.505 227.501 132.534 223.804C127.691 223.024 122.792 222.634 117.886 222.636Z" fill="#443826"/>
</svg>
