<svg width="678" height="937" viewBox="0 0 678 937" fill="none" xmlns="http://www.w3.org/2000/svg">
<g clip-path="url(#clip0_687_397)">
<path d="M235.882 365.363C241.255 364.985 246.644 364.88 252.027 365.049C254.437 365.095 256.831 365.451 259.15 366.11C273.931 370.469 276.729 387.662 276.75 405.841C276.876 407.881 277.15 409.887 277.326 411.923C277.85 417.976 278.229 424.062 278.462 430.182C278.63 432.885 278.651 435.597 278.697 438.307C280.681 488.434 268.838 536.041 256.114 580.99C255.547 582.974 254.979 584.958 254.336 586.922C253.693 588.886 253.026 590.853 252.233 592.777C251.39 595.099 250.496 597.4 249.605 599.725C248.713 602.05 247.463 604.964 246.441 607.569C230.566 648.182 208.607 686.148 181.318 720.164C180.202 721.664 179.036 723.143 177.942 724.593C173.371 730.452 168.799 736.287 164.191 741.556C162.447 743.877 160.492 746.03 158.349 747.988C157.226 748.999 156.009 749.901 154.716 750.681C146.852 758.349 129.34 754.506 135.95 741.76C144.712 723.947 153.627 708.591 159.987 691.84C161.112 689.303 162.139 686.772 163.265 684.235C177 650.769 185.997 615.721 194.778 579.183C195.327 576.509 195.825 573.814 196.35 571.142C205.477 522.717 210.724 472.215 208.398 423.343C208.217 420.443 208.037 417.544 207.856 414.644C206.652 407.004 205.998 399.287 205.901 391.553C205.77 389.898 205.857 388.234 206.16 386.603C207.747 377.993 215.169 372.745 222.379 369.657C224.555 368.712 226.788 367.906 229.065 367.243C231.293 366.465 233.57 365.837 235.882 365.363Z" fill="#EB5050"/>
<path d="M256.123 351.967C250.014 352.15 247.556 352.302 242.64 352.608C244.639 345.083 244.333 340.169 244.684 331.538C244.703 329.464 244.624 327.397 244.497 325.357C243.11 320.51 245.262 315.442 242.651 313.138C237.582 310.987 227.749 311.599 227.902 314.056C220.986 321.887 231.431 331.104 229.659 342.291C229.775 344.158 229.89 346.001 230.043 348.459C227.585 348.612 224.973 346.308 221.811 343.076C219.621 342.194 217.357 341.51 215.046 341.03C213.09 340.587 211.089 340.38 209.085 340.414C207.308 340.006 202.391 340.312 202.544 342.77C202.583 345.146 203.298 347.463 204.606 349.448C205.914 351.433 207.76 353.005 209.929 353.978C211.948 355.18 214.059 356.22 216.243 357.088C216.926 357.366 217.607 357.595 218.288 357.824C215.299 358.287 212.362 359.04 209.519 360.072C199.005 365.192 189.325 368.261 187.478 378.243C187.631 380.701 192.853 385.309 197.954 383.61C199.786 383.752 201.626 383.762 203.459 383.638C207.846 383.294 212.175 382.42 216.351 381.035L218.766 380.194C218.232 381.997 217.795 383.828 217.455 385.678C213.229 393.909 216.452 406.042 223.674 403.126C235.964 402.361 237.505 387.464 242.975 377.823C243.5 376.079 243.925 374.307 244.249 372.515C246.237 372.991 248.253 373.343 250.286 373.569C263.528 371.043 278.584 375.04 282.735 362.447C282.715 361.007 282.25 359.608 281.404 358.442C280.558 357.276 279.374 356.4 278.011 355.933C275.475 354.832 272.361 354.36 269.844 353.185C267.763 352.678 265.647 352.331 263.513 352.148C261.056 351.938 258.587 351.877 256.123 351.967Z" fill="#5EB88A"/>
<path d="M223.095 423.982C223.154 424.452 223.1 424.929 222.936 425.374C222.813 425.742 222.606 426.076 222.33 426.349C221.929 426.801 221.375 427.09 220.775 427.161C220.265 427.199 219.755 427.104 219.293 426.883C218.831 426.663 218.435 426.325 218.144 425.904C217.853 425.483 217.678 424.993 217.635 424.483C217.592 423.974 217.685 423.461 217.902 422.998C218.058 422.681 218.276 422.399 218.543 422.168C218.81 421.937 219.12 421.762 219.457 421.654C219.793 421.545 220.148 421.506 220.5 421.537C220.852 421.568 221.194 421.67 221.506 421.836C222.006 422.072 222.455 422.405 222.826 422.815C222.978 423.187 223.068 423.581 223.095 423.982Z" fill="#443826"/>
<path d="M237.161 423.181C237.187 423.921 236.944 424.645 236.475 425.219C236.007 425.793 235.346 426.177 234.616 426.3C234.106 426.338 233.594 426.243 233.132 426.022C232.671 425.802 232.274 425.464 231.983 425.043C231.693 424.622 231.518 424.132 231.476 423.622C231.433 423.112 231.524 422.6 231.741 422.137C232.517 420.337 235.098 420.177 236.889 421.989C237.042 422.37 237.134 422.772 237.161 423.181Z" fill="#443826"/>
<path d="M227.715 450.213C227.095 450.261 226.47 450.192 225.876 450.008C221.184 447.981 220.008 442.972 219.654 438.874C219.595 437.916 219.552 437.228 219.537 436.983C219.519 436.757 219.548 436.53 219.618 436.314C219.688 436.099 219.8 435.9 219.948 435.728C220.095 435.556 220.276 435.415 220.478 435.313C220.679 435.211 220.9 435.149 221.125 435.132C221.353 435.111 221.582 435.136 221.8 435.205C222.018 435.273 222.22 435.385 222.395 435.532C222.569 435.68 222.712 435.861 222.816 436.064C222.92 436.268 222.983 436.49 223 436.718C223 437.26 223.034 437.801 223.101 438.339C223.138 438.929 223.3 439.56 223.438 440.193C224.329 442.605 224.481 445.062 226.291 446.38C226.508 446.547 226.762 446.663 227.03 446.718C227.298 446.774 227.575 446.769 227.841 446.703C228.319 446.61 228.765 446.395 229.135 446.08C229.543 445.721 229.892 445.299 230.168 444.831C231.185 442.416 231.906 439.886 232.315 437.297C232.4 436.675 232.437 436.081 232.478 435.56C232.52 435.04 232.416 434.553 232.54 434.175C232.543 433.714 232.728 433.273 233.054 432.948C233.381 432.623 233.822 432.439 234.283 432.438C234.738 432.456 235.17 432.64 235.5 432.954C235.817 433.284 235.995 433.724 235.995 434.181C235.451 439.322 235.774 444.507 232.072 448.067C231.621 448.589 231.091 449.038 230.502 449.399C229.9 449.763 229.24 450.021 228.551 450.161L227.715 450.213Z" fill="#443826"/>
</g>
<g clip-path="url(#clip1_687_397)">
<path d="M512.351 535.356C511.622 535.115 510.852 535.02 510.086 535.076C509.32 535.133 508.573 535.34 507.887 535.686C507.201 536.031 506.59 536.509 506.088 537.091C505.587 537.673 505.205 538.348 504.965 539.078C503.599 543.009 501.489 546.641 498.75 549.775C498.496 548.336 498.336 547.429 498.26 546.997C494.294 524.518 484.435 489.412 429.988 517.493C429.988 517.493 390.747 513.763 390.427 552.401C390.298 560.042 391.401 567.654 393.692 574.945C387.812 574.201 382.307 571.652 377.937 567.649C377.378 567.121 376.721 566.709 376.003 566.436C375.286 566.163 374.521 566.034 373.753 566.056C372.986 566.079 372.23 566.252 371.529 566.567C370.828 566.882 370.196 567.331 369.669 567.89C369.142 568.449 368.73 569.106 368.457 569.824C368.184 570.542 368.055 571.306 368.077 572.074C368.1 572.842 368.273 573.598 368.588 574.298C368.903 574.999 369.352 575.631 369.912 576.158C377.495 583.308 388.992 587.497 398.388 586.67C398.875 587.667 399.395 588.674 399.962 589.702C405.881 599.534 417.786 610.151 431.986 615.11L425.903 639.926C420.146 640.941 416.591 646.021 419.977 648.391C423.363 650.761 433.691 650.423 434.823 646.499L444.045 615.831C446.21 615.909 448.377 615.869 450.537 615.71C456.406 615.276 462.115 613.59 467.279 610.767C468.883 619.017 472.762 636.288 476.274 642.821C477.631 647.315 491.536 641.939 492.228 637.365C493.159 634.233 489.265 628.984 482.577 633.132C480.947 623.893 478.449 611.839 476.4 606.027C485.966 601.371 497.056 580.124 499.219 566.476C499.261 566.127 499.275 565.783 499.3 565.422C504.117 561.605 512.491 553.806 516.074 542.741C516.315 542.012 516.41 541.243 516.353 540.476C516.296 539.71 516.089 538.963 515.743 538.277C515.397 537.591 514.92 536.98 514.338 536.479C513.756 535.977 513.081 535.596 512.351 535.356Z" fill="#FFB6CC"/>
<path d="M385.207 356.539C383.432 353.685 381.909 350.682 380.655 347.563C379.666 345.066 378.967 342.786 377.825 339.93C377.873 337.126 378.175 334.331 378.726 331.58C380.203 323.128 382.897 314.18 379.16 304.942C378.381 302.663 377.386 300.463 376.19 298.372C373.891 294.338 370.925 290.722 367.418 287.678C368.043 285.668 368.6 283.611 369.065 281.451C373.416 248.497 358.394 223.072 352.722 191.768C351.808 188.268 350.881 184.757 349.943 181.232C340.582 146.009 330.011 110.316 304.152 83.6861C301.569 81.6637 298.898 79.7309 296.163 77.854C277.019 64.7304 254.549 54.7017 234.62 40.2329C231.671 39.0634 228.641 38.1102 225.554 37.3807C222.527 36.6238 219.486 35.9584 216.475 35.3767C213.464 34.7951 209.992 34.2057 206.78 33.7485C203.568 33.2913 200.374 32.9346 197.224 32.6594C194.074 32.3842 190.923 32.1834 187.832 32.0758C186.513 35.6177 185.298 39.2453 184.194 42.9125C183.09 46.5796 182.117 50.3127 181.24 54.0882C173.623 90.7347 170.611 133.38 190.778 169.798C192.357 173.363 194.06 176.877 195.911 180.304C205.141 197.723 218.134 212.868 233.946 224.64C235.477 226.166 236.947 227.687 238.381 229.17C268.39 246.936 264.412 289.737 289.944 314.346C292.891 317.191 296.149 319.692 299.658 321.803C314.413 327.465 319.381 342.585 331.864 353.619C334.495 355.946 337.344 358.012 340.372 359.79C342.654 362.896 344.67 366.189 346.398 369.634C355.997 388.463 365.998 425.295 392.025 413.684C408.451 407.284 394.028 385.255 389.809 368.073C388.399 364.033 386.842 360.168 385.207 356.539Z" fill="#5EB88A"/>
<path d="M281.714 165.848C276.761 164.436 275.366 165.113 278.773 168.607C333.302 197.761 333.503 303.441 383.178 387.51C384.38 389.554 385.578 391.608 386.773 393.672C399.524 419.766 410.876 444.577 422.401 468.854C423.925 473.036 424.41 480.83 425.769 484.998C429.372 505.419 429.431 515.677 431.774 531.647L440.993 531.504C437.964 518.876 436.914 499.132 433.185 487.251C431.954 483.298 430.305 467.311 428.983 463.433C414.693 436.439 408.893 424.76 393.167 396.016C391.067 391.683 388.843 387.742 386.58 383.912C374.089 373.844 366.519 348.098 359.806 333.093C358.949 324.875 352.682 310.8 352.492 308.46C320.866 208.696 317.264 188.275 281.714 165.848Z" fill="#8DCCAA"/>
<path d="M544.751 70.2897C542.647 69.5265 540.463 69.0012 538.242 68.7229C537.134 68.5792 536.019 68.4935 534.902 68.4662C506.474 67.1456 490.258 94.5806 473.842 112.643L471.548 115.615C461.893 128.181 454.803 142.075 455.647 160.816L454.671 164.876C449.339 187.556 449.212 208.873 453.748 225.331C453.139 226.166 452.563 227.024 451.964 227.916C451.365 228.808 450.794 229.695 450.257 230.606C427.993 238.986 440.194 268.441 435.777 287.562C435.874 288.866 435.997 290.075 436.156 291.309C436.613 294.47 437.371 297.581 438.419 300.599C429.391 307.297 424.351 317.921 426.27 328.801C427.22 334.051 429.707 338.901 433.417 342.735C431.403 344.655 429.722 346.897 428.445 349.37C427.99 350.237 427.556 351.144 427.157 352.075C422.362 366.277 421.363 380.55 430.087 395.765C430.7 397.051 431.341 398.244 432.014 399.372C434.684 403.846 438.344 407.647 442.715 410.483C443.691 411.065 444.701 411.59 445.738 412.057C474.625 423.802 473.024 374.952 467.72 355.484C467.897 354.517 468.206 353.579 468.638 352.695C472.975 343.635 488.919 335.183 491.1 321.384C491.264 320.053 491.212 318.704 490.944 317.39C490.211 313.227 488.5 309.297 485.953 305.924C488.805 303.057 491.426 299.97 493.792 296.691C494.413 295.839 494.977 294.998 495.628 294.067C502.894 285.454 511.882 276.85 509.23 263.754C509.475 262.791 509.721 261.828 509.952 260.867C510.414 258.945 510.759 257.029 511.137 255.137C511.297 254.189 511.444 253.258 511.589 252.312C548.356 224.783 580.791 169.928 571.427 118.708C571.317 117.243 571.196 115.885 571.056 114.5C568.625 92.3135 559.578 75.6869 544.751 70.2897Z" fill="#5EB88A"/>
<path d="M538.275 167.057C540.651 164.798 541.501 166.25 541.483 168.42C504.439 211.787 465.566 300.633 447.513 389.232C447.063 391.389 446.643 393.556 446.224 395.722C442.815 422.322 440.213 447.355 437.333 471.992C437.209 476.08 437.153 480.14 437.163 484.145C437.128 499.521 438.348 514.874 440.811 530.052L431.277 525.977C430.353 514.179 429.791 502.58 429.589 491.18C429.523 487.383 429.51 483.606 429.55 479.85C433.977 451.957 432.583 424.127 437.701 394.258C438.257 389.842 439.016 385.731 439.833 381.699C447.392 368.865 443.789 348.443 451.934 334.808C453.118 331.008 454.327 327.263 455.582 323.525C475.615 263.898 505.356 211.937 538.275 167.057Z" fill="#8DCCAA"/>
<path d="M440.699 551.619C440.822 552.15 440.823 552.703 440.702 553.236C440.597 553.667 440.4 554.072 440.124 554.421C439.712 554.981 439.114 555.376 438.436 555.535C437.858 555.646 437.261 555.604 436.705 555.411C436.148 555.219 435.652 554.884 435.265 554.44C434.879 553.996 434.616 553.458 434.502 552.88C434.389 552.303 434.43 551.705 434.621 551.148C434.758 550.767 434.971 550.418 435.247 550.121C435.522 549.824 435.855 549.586 436.225 549.421C436.595 549.256 436.994 549.168 437.399 549.161C437.804 549.154 438.207 549.228 438.582 549.38C439.194 549.569 439.757 549.891 440.232 550.321C440.459 550.725 440.617 551.163 440.699 551.619Z" fill="#443826"/>
<path d="M456.669 548.86C456.797 549.703 456.614 550.564 456.153 551.282C455.693 551.999 454.986 552.525 454.166 552.759C453.588 552.871 452.991 552.828 452.435 552.636C451.878 552.444 451.382 552.109 450.995 551.665C450.609 551.22 450.346 550.683 450.232 550.105C450.119 549.527 450.16 548.93 450.35 548.373C450.981 546.228 453.931 545.708 456.144 547.573C456.39 547.969 456.568 548.405 456.669 548.86Z" fill="#443826"/>
<path d="M449.36 581.03C448.653 581.156 447.928 581.153 447.222 581.022C441.608 579.311 439.588 573.584 438.69 569.083C438.399 568.021 438.245 567.232 438.199 566.973C438.148 566.716 438.148 566.451 438.2 566.194C438.251 565.937 438.353 565.692 438.5 565.475C438.646 565.257 438.834 565.071 439.053 564.926C439.272 564.782 439.517 564.682 439.775 564.632C440.294 564.533 440.831 564.643 441.27 564.938C441.708 565.233 442.012 565.689 442.115 566.208C442.214 566.769 442.326 567.402 442.544 568.046C442.761 568.691 442.941 569.46 443.159 570.104C444.51 572.715 445.038 575.709 447.206 576.81C447.474 576.983 447.78 577.092 448.098 577.126C448.415 577.16 448.737 577.119 449.037 577.006C449.545 576.824 450.001 576.52 450.364 576.119C450.783 575.658 451.131 575.136 451.397 574.572C452.245 571.656 452.741 568.649 452.873 565.616C452.878 564.888 452.85 564.136 452.828 563.591C452.806 563.045 452.759 562.445 452.712 562.009C452.683 561.748 452.705 561.485 452.778 561.234C452.852 560.983 452.973 560.748 453.137 560.544C453.301 560.34 453.504 560.17 453.734 560.045C453.963 559.919 454.216 559.84 454.476 559.813C454.737 559.782 455.001 559.804 455.253 559.876C455.505 559.949 455.741 560.071 455.946 560.236C456.359 560.574 456.625 561.059 456.689 561.589C456.726 567.518 457.77 573.433 454 577.971C453.542 578.635 452.993 579.232 452.368 579.743C451.728 580.237 451.006 580.615 450.235 580.861C449.948 580.936 449.655 580.993 449.36 581.03Z" fill="#443826"/>
</g>
<path d="M390.247 645.197C387.921 644.454 373.469 626.693 366.588 617.207L380.265 605.813L395.144 622.038C399.222 620.117 407.127 618.631 406.12 628.056C404.861 639.837 395.124 646.757 390.247 645.197Z" fill="#F94949" stroke="#F94949"/>
<path d="M285.792 639.031C288.625 632.412 295.358 621.067 299.102 615.336L313.732 620.014C311.25 628.896 297.706 651.082 293.935 651.668C281.808 653.553 276.171 646.705 277.848 642.582C279.641 639.214 284.518 642.008 285.792 639.031Z" fill="#F94949" stroke="#F94949"/>
<path d="M417.566 522.779C416.453 523.57 407.609 538.229 400.887 544.68L395.527 530.065C402.702 516.593 409.138 513.275 409.423 510.142C409.631 507.862 401.454 500.217 407.079 495.058C413.163 489.479 421.072 500.608 422.998 508.032C424.924 515.456 418.957 521.79 417.566 522.779Z" fill="#F94949" stroke="#F94949"/>
<path d="M245.485 538.707C246.973 540.329 256.673 544.435 261.337 546.284L258.754 564.45C253.448 560.126 241.282 552.927 239.936 552.7C237.556 552.297 237.673 553.051 236.165 553.286C233.902 553.637 231.64 553.989 228.791 550.57C225.943 547.15 224.002 529.687 231.543 528.515C239.085 527.344 243.625 536.679 245.485 538.707Z" fill="#F94949" stroke="#F94949"/>
<path d="M271.042 519.64C287.389 493.62 316.027 491.023 331.176 494.075C365.531 496.46 378.031 512.283 387.498 518.535C398.687 525.924 409.195 553.782 395.666 586.007C382.137 618.232 354.467 624.076 340.021 625.549C325.575 627.021 294.405 620.28 275.286 601.624C256.167 582.969 250.608 552.165 271.042 519.64Z" fill="#F94949" stroke="#F94949"/>
<path d="M320.808 581.068C320.951 579.501 321.73 577.063 323.356 577.582C326.148 578.475 324.729 587.41 325.063 593.537C325.397 599.664 327.821 601.347 329.369 601.364C332.013 601.694 336.94 598.26 339.743 593.573C342.786 588.487 342.745 583.065 345.007 582.714C348.496 582.172 347.079 591.715 342.072 598.617C338.141 604.036 332.647 606.168 328.563 606.123C319.279 606.021 320.523 584.202 320.808 581.068Z" fill="#443826" stroke="#443826"/>
<path d="M343.404 557.474C344.326 553.469 347.226 552.246 349.606 552.649C351.985 553.051 352.777 556.018 350.895 560.945C349.012 565.872 345.007 564.662 344.459 564.262C342.716 562.988 342.785 560.162 343.404 557.474Z" fill="#443826" stroke="#443826"/>
<path d="M317.553 500.475C312.364 496.904 302.519 489.217 304.651 487.032C306.743 484.888 320.489 486.239 327.473 487.231L327.245 463.44C325.62 462.92 324.94 462.597 325.268 460.657C326.073 455.898 335.072 459.134 338.44 460.927C341.135 462.362 338.276 479.747 336.509 488.261C342.593 482.681 355.714 471.682 359.521 472.327C363.329 472.971 352.581 487.308 346.731 494.396C352.813 500.402 364.214 513.46 361.157 517.642C358.099 521.825 341.582 517.595 333.706 514.957C329.733 522.526 320.708 537.676 316.391 537.729C312.074 537.782 319.668 517.396 324.004 507.196C313.39 510.133 291.742 515.299 290.067 512.47C288.392 509.641 307.693 503.294 317.553 500.475Z" fill="#5EB88A"/>
<path d="M327.862 487.287C327.735 487.269 327.605 487.25 327.473 487.231M327.473 487.231C320.489 486.239 306.743 484.888 304.651 487.032C302.519 489.217 312.364 496.904 317.553 500.475C307.693 503.294 288.392 509.641 290.067 512.47C291.742 515.299 313.39 510.133 324.004 507.196C319.668 517.396 312.074 537.782 316.391 537.729C320.708 537.676 329.733 522.526 333.706 514.957C341.582 517.595 358.099 521.825 361.157 517.642C364.214 513.46 352.813 500.402 346.731 494.396C352.581 487.308 363.329 472.971 359.521 472.327C355.714 471.682 342.593 482.681 336.509 488.261C338.276 479.747 341.135 462.362 338.44 460.927C335.072 459.134 326.073 455.898 325.268 460.657C324.94 462.597 325.62 462.92 327.245 463.44L327.473 487.231Z" stroke="#5EB88A"/>
<path d="M322.353 566.153C321.269 565.807 319.518 563.813 321.181 558.611C322.844 553.41 326.008 553.227 327.382 553.786C329.683 554.722 330.522 558.087 328.672 562.082C326.821 566.077 323.978 566.673 322.353 566.153Z" fill="#443826" stroke="#443826"/>
<g clip-path="url(#clip2_687_397)">
<path d="M676.764 603.638C667.34 603.638 654.548 605.769 654.548 603.638C648.855 586.594 642.225 564.82 628.963 554.083C625.668 551.371 621.818 549.415 617.684 548.352C601.246 546.115 584.19 554.636 578.582 568.762C576.001 574.141 574.137 579.836 573.039 585.7C571.866 591.608 571.267 597.615 571.248 603.638H545.961C545.959 596.191 546.746 588.764 548.306 581.481C552.208 546.115 588.454 516.287 625.189 525.789C630.09 527.447 634.778 529.678 639.154 532.437C656.674 543.711 669.145 561.326 673.95 581.587C675.811 588.79 676.756 596.199 676.764 603.638Z" fill="#443826"/>
<path d="M133.106 612.693H107.819C107.827 605.108 106.75 597.561 104.621 590.28C100.207 571.681 83.1511 550.376 61.8303 556.767C38.3775 565.289 27.7175 588.725 27.5683 612.693H2.2811C2.25031 605.279 3.08059 597.886 4.75464 590.663C12.7926 558.897 42.6417 529.07 78.887 533.332C100.208 535.462 115.132 550.376 124.151 570.594C127.067 576.984 129.284 583.67 130.761 590.536C132.321 597.819 133.107 605.245 133.106 612.693Z" fill="#443826"/>
<path d="M0 599.378C0 607.9 0.305972 616.33 0.917167 624.667C1.83396 631.463 2.77174 638.238 3.77382 645.013C4.77589 651.788 5.90602 658.542 7.09998 665.424C13.2979 716.762 32.6161 765.642 63.195 807.359C66.9901 812.472 70.9768 817.443 75.1557 822.272C99.1261 842.478 124.631 860.791 151.441 877.048C156.757 880.314 162.123 883.532 167.539 886.699C217.472 916.824 272.906 931.738 330.941 936.511C339.209 937.061 347.501 937.153 355.78 936.787C380.544 935.854 405.135 932.246 429.123 926.028C436.23 924.053 443.337 921.853 450.444 919.424C498.759 902.609 542.639 875.083 578.795 838.911C584.381 833.329 589.774 827.577 595.041 821.654C639.622 776.21 665.207 714.425 674.375 649.466C675.548 641.264 676.508 632.997 677.062 624.667C677.616 616.337 678 607.878 678 599.378H640.433C533.019 597.247 426.416 601.508 320.814 599.378H269.366C245.188 599.378 219.604 597.247 196.151 595.117C164.17 594.051 132.721 596.715 101.551 598.845C95.3035 599.271 89.0784 599.676 82.874 600.017C57.5663 603.639 34.1127 601.508 8.54912 599.378H0Z" fill="#443826"/>
<path d="M268.812 682.468C260.114 681.551 251.585 681.551 243.057 676.502C232.396 669.791 215.34 656.369 230.264 646.313C228.132 663.08 247.321 676.502 268.642 678.271C289.962 678.271 307.019 666.532 311.283 648.081H317.679C313.415 661.504 302.755 673.242 286.807 679.804C280.986 681.63 274.913 682.529 268.812 682.468Z" fill="#F2F2F2"/>
<path d="M124.001 682.468C100.207 681.019 74.6219 666.105 78.8861 646.249C91.6786 662.803 102.339 682.659 132.188 677.695C151.377 674.393 159.905 661.141 164.169 647.868H170.565C168.433 661.099 159.905 672.689 141.889 679.826C136.099 681.627 130.065 682.518 124.001 682.468Z" fill="#F2F2F2"/>
<path d="M193.081 782.602C168.434 782.431 142.849 761.126 144.981 737.861H151.377C149.245 757.249 166.302 770.82 185.491 774.676C217.472 782.431 221.736 753.371 236.66 737.861C234.528 753.371 228.132 770.82 210.394 778.852C204.952 781.308 199.052 782.586 193.081 782.602Z" fill="#F2F2F2"/>
<path d="M345.397 778.617C332.604 778.617 321.943 776.615 313.031 767.305C308.912 763.587 305.572 759.09 303.203 754.074C300.831 748.998 299.601 743.463 299.6 737.861H305.996C305.996 742.678 307.059 747.435 309.109 751.795C311.16 756.132 314.06 760.014 317.637 763.214C328.088 770.972 341.136 774.392 354.053 772.759C371.109 768.881 386.034 753.371 383.902 737.861H390.298C394.562 755.31 379.637 768.881 363.263 774.953C357.552 777.157 351.514 778.396 345.397 778.617Z" fill="#F2F2F2"/>
<path d="M501.038 779.513C494.96 779.537 488.931 778.431 483.257 776.253C475.243 773.218 468.251 767.982 463.088 761.147C460.608 757.832 458.659 754.152 457.31 750.239C455.919 746.259 455.199 742.076 455.178 737.861H461.574C461.614 742.66 462.664 747.397 464.654 751.765C466.645 756.133 469.533 760.033 473.13 763.214C476.805 766.519 481.053 769.125 485.666 770.905C515.941 782.431 532.999 759.187 543.659 737.861C545.791 753.371 535.13 770.82 518.5 776.21C512.944 778.417 507.017 779.539 501.038 779.513Z" fill="#F2F2F2"/>
<path d="M258.344 865.692C234.528 864.541 217.472 850.778 215.34 831.71H221.736C219.604 847.263 238.793 861.09 257.981 861.09C283.566 861.09 289.963 840.36 304.887 828.258C303.901 832.935 302.473 837.508 300.623 841.915C298.414 846.961 294.859 851.302 290.347 854.464C286.011 857.982 281.088 860.708 275.805 862.517C270.19 864.493 264.296 865.564 258.344 865.692Z" fill="#F2F2F2"/>
<path d="M430.317 861.58C405.094 861.09 385.906 843.811 383.773 823.081H390.17C394.434 843.811 413.622 857.638 439.207 855.912C456.264 854.187 471.189 840.36 469.056 826.533C479.717 826.533 475.453 836.908 473.321 842.085C466.924 850.735 460.528 857.638 448.226 859.897C442.395 861.468 436.339 862.037 430.317 861.58Z" fill="#F2F2F2"/>
<path d="M556.472 681.892C530.887 683.149 513.83 664.699 511.698 646.249H518.094C522.359 664.699 539.415 681.487 565 676.438C582.057 673.093 599.113 661.354 596.981 646.249H603.377C605.51 661.354 590.585 673.093 574.168 679.016C568.455 680.892 562.485 681.863 556.472 681.892Z" fill="#F2F2F2"/>
<path d="M413.622 682.468C394.434 681.488 360.32 666.382 373.113 647.932C375.245 657.988 381.641 666.375 392.302 673.093C407.226 679.805 420.019 678.122 434.943 673.093C447.736 668.065 449.868 657.988 454.132 647.932H460.528C458.396 661.354 447.735 674.776 431.446 679.74C425.685 681.579 419.67 682.5 413.622 682.468Z" fill="#F2F2F2"/>
</g>
<defs>
<clipPath id="clip0_687_397">
<rect width="171.74" height="436.259" fill="white" transform="translate(108 319.668) rotate(-3.56147)"/>
</clipPath>
<clipPath id="clip1_687_397">
<rect width="390.517" height="653.926" fill="white" transform="translate(161 36.8546) rotate(-10.0063)"/>
</clipPath>
<clipPath id="clip2_687_397">
<rect width="678" height="413" fill="white" transform="translate(0 524)"/>
</clipPath>
</defs>
</svg>
