<svg width="948" height="864" viewBox="0 0 948 864" fill="none" xmlns="http://www.w3.org/2000/svg">
<path d="M859.182 650.688C863.387 623.493 845.106 599.184 821.768 588.55C818.739 587.391 815.621 586.477 812.445 585.815C808.114 584.926 803.705 584.468 799.283 584.449C790.142 583.993 781.002 587.03 774.908 583.992C747.488 562.722 729.207 532.337 695.693 520.183C637.804 498.913 561.635 526.26 537.261 583.992C532.955 581.601 528.588 579.404 524.16 577.398C455.12 541.301 388.091 592.956 351.53 656.765C339.343 674.996 296.689 668.92 275.361 690.037C271.302 692.93 267.406 696.043 263.692 699.365C238.069 722.519 224.876 754.636 247.879 789.549C249.921 793.053 252.201 796.412 254.704 799.605C260.138 806.496 266.355 812.737 273.229 818.201C276.864 821.118 280.724 823.924 284.806 826.618C375.905 872.5 479.494 875.539 576.991 839.076C582.773 837.778 588.813 838.244 594.327 840.413C597.833 841.566 601.271 842.916 604.625 844.455C659.254 854.269 720.189 848.192 771.984 823.884C777.619 822.49 783.456 822.1 789.228 822.729C792.519 822.881 795.931 823.155 799.344 823.367C841.998 817.807 884.653 805.653 924.261 781.344C945.588 763.113 954.729 735.767 942.541 708.42C940.564 704.474 938.206 700.729 935.503 697.238C915.12 678.034 896.84 662.842 868.474 653.393C865.58 652.36 862.412 651.387 859.182 650.688Z" fill="#443826"/>
<path d="M117.886 735.636C115.241 735.636 112.644 735.758 110.097 735.977C107.264 736.073 104.488 736.787 101.964 738.069C92.1663 713.743 65.2217 711.31 43.1761 713.743C34.018 714.823 25.3205 718.328 17.9945 723.891C10.6686 729.455 4.98352 736.872 1.53452 745.367C-3.36449 762.395 3.98403 776.99 16.2316 789.153C21.6801 794.509 28.5844 798.17 36.0973 799.686C39.8332 800.494 43.6399 800.934 47.4628 801C76.0512 796.816 105.046 796.105 133.808 798.883C150.954 798.883 173 786.72 173 767.26C170.55 747.799 148.505 740.501 132.534 736.804C127.691 736.024 122.792 735.634 117.886 735.636Z" fill="#443826"/>
<path d="M579 650V0H599.486L607 650H579Z" fill="#5EB88A"/>
<path d="M796 288.307C795.227 281.978 787.024 270.694 774.182 260.485C767.298 254.956 759.772 250.284 751.77 246.572C737.349 239.362 721.123 236.609 705.145 238.66C689.166 240.711 674.151 247.476 662 258.097C666.608 276.37 677.978 292.192 693.795 302.342C709.611 312.491 728.685 316.206 747.132 312.728C756.135 311.303 764.873 308.526 773.052 304.489C781.47 300.289 789.207 294.832 796 288.307Z" fill="#5EB88A"/>
<path d="M358 411.056C365.922 428.599 449.492 469.074 495 400.638C458.01 343.877 385.4 360.582 358 411.056Z" fill="#5EB88A"/>
<path d="M415 148.056C422.922 165.599 506.492 206.074 552 137.638C515.01 80.8766 442.4 97.5815 415 148.056Z" fill="#5EB88A"/>
<path d="M582 363L399 327V333L582 375V363Z" fill="#5EB88A"/>
<path d="M601 421.698V437L777.232 399.473L780 390L601 421.698Z" fill="#5EB88A"/>
<path d="M601 117.5L514 65V73.75L601 135V117.5Z" fill="#5EB88A"/>
<path d="M593 213.093V231L727.881 187.085L730 176L593 213.093Z" fill="#5EB88A"/>
<path d="M691.003 459.79C691.003 459.79 688.846 534.567 803 527.533C795.873 435.968 691.003 459.79 691.003 459.79Z" fill="#5EB88A"/>
<path d="M609.251 670.962C606.359 682.757 600.007 693.417 591.011 701.575C582.015 709.732 570.786 715.013 558.767 716.739C556.324 717.35 553.882 717.911 551.244 718.375C543.188 719.863 535.012 720.598 526.82 720.574C481.636 720.574 445 698.711 445 671.719C445 648.123 473.039 628.41 510.334 623.867C512.996 623.525 515.707 623.281 518.467 623.11C550.023 622.865 596.428 620.423 608.152 660.361C608.98 663.831 609.35 667.395 609.251 670.962Z" fill="#443826"/>
<path d="M687.092 684.104C686.775 691.51 684.463 698.693 680.4 704.892C678.292 708.004 675.788 710.829 672.951 713.295C663.557 721.283 651.6 725.619 639.27 725.508C626.94 725.619 614.984 721.283 605.59 713.295C602.788 710.82 600.324 707.986 598.262 704.867C584.316 686.376 594.086 654.621 618.51 647.293C645.376 639.965 677.127 647.293 685.749 673.43C686.734 676.9 687.187 680.498 687.092 684.104Z" fill="#443826"/>
<path d="M510.5 541C536.734 541 558 519.51 558 493C558 466.49 536.734 445 510.5 445C484.266 445 463 466.49 463 493C463 519.51 484.266 541 510.5 541Z" fill="#EB5050"/>
<path d="M701.5 148C727.734 148 749 126.51 749 100C749 73.4903 727.734 52 701.5 52C675.266 52 654 73.4903 654 100C654 126.51 675.266 148 701.5 148Z" fill="#EB5050"/>
</svg>
