<svg width="678" height="492" viewBox="0 0 678 492" fill="none" xmlns="http://www.w3.org/2000/svg">
<path d="M390.247 200.197C387.921 199.454 373.469 181.693 366.588 172.207L380.265 160.813L395.144 177.038C399.222 175.117 407.127 173.631 406.12 183.056C404.861 194.837 395.124 201.757 390.247 200.197Z" fill="#F94949" stroke="#F94949"/>
<path d="M285.792 194.031C288.625 187.412 295.358 176.067 299.102 170.336L313.732 175.014C311.25 183.896 297.706 206.082 293.935 206.668C281.808 208.553 276.171 201.705 277.848 197.582C279.641 194.214 284.518 197.008 285.792 194.031Z" fill="#F94949" stroke="#F94949"/>
<path d="M417.566 77.7789C416.453 78.5698 407.609 93.2289 400.887 99.68L395.527 85.0654C402.702 71.5926 409.138 68.2754 409.423 65.1416C409.631 62.8616 401.454 55.2169 407.079 50.0584C413.163 44.4787 421.072 55.6077 422.998 63.0321C424.924 70.4565 418.957 76.7904 417.566 77.7789Z" fill="#F94949" stroke="#F94949"/>
<path d="M245.485 93.7069C246.973 95.3294 256.673 99.4345 261.337 101.284L258.754 119.45C253.448 115.126 241.282 107.927 239.936 107.7C237.556 107.297 237.673 108.051 236.165 108.286C233.902 108.637 231.64 108.989 228.791 105.57C225.943 102.15 224.002 84.6874 231.543 83.5155C239.085 82.3435 243.625 91.6788 245.485 93.7069Z" fill="#F94949" stroke="#F94949"/>
<path d="M271.042 74.6399C287.389 48.6195 316.027 46.0229 331.176 49.0754C365.531 51.4604 378.031 67.2825 387.498 73.535C398.687 80.9242 409.195 108.782 395.666 141.007C382.137 173.232 354.467 179.076 340.021 180.549C325.575 182.021 294.405 175.28 275.286 156.624C256.167 137.969 250.608 107.165 271.042 74.6399Z" fill="#F94949" stroke="#F94949"/>
<path d="M320.808 136.068C320.951 134.501 321.73 132.063 323.356 132.582C326.148 133.475 324.729 142.41 325.063 148.537C325.397 154.664 327.821 156.347 329.369 156.364C332.013 156.694 336.94 153.26 339.743 148.573C342.786 143.487 342.745 138.065 345.007 137.714C348.496 137.172 347.079 146.715 342.072 153.617C338.141 159.036 332.647 161.168 328.563 161.123C319.279 161.021 320.523 139.202 320.808 136.068Z" fill="#443826" stroke="#443826"/>
<path d="M343.404 112.474C344.326 108.469 347.226 107.246 349.606 107.649C351.985 108.051 352.777 111.018 350.895 115.945C349.012 120.872 345.007 119.662 344.459 119.262C342.716 117.988 342.785 115.162 343.404 112.474Z" fill="#443826" stroke="#443826"/>
<path d="M317.553 55.4747C312.364 51.9043 302.519 44.2172 304.651 42.0322C306.743 39.8878 320.489 41.2393 327.473 42.2313L327.245 18.4396C325.62 17.9198 324.94 17.5969 325.268 15.6572C326.073 10.8979 335.072 14.1337 338.44 15.9274C341.135 17.3623 338.276 34.7474 336.509 43.2606C342.593 37.6809 355.714 26.6824 359.521 27.3266C363.329 27.9707 352.581 42.3078 346.731 49.3958C352.813 55.402 364.214 68.4599 361.157 72.6424C358.099 76.8249 341.582 72.5947 333.706 69.9568C329.733 77.5255 320.708 92.6762 316.391 92.7292C312.074 92.7822 319.668 72.3958 324.004 62.196C313.39 65.1327 291.742 70.2989 290.067 67.4698C288.392 64.6407 307.693 58.2943 317.553 55.4747Z" fill="#5EB88A"/>
<path d="M327.862 42.2872C327.735 42.2687 327.605 42.25 327.473 42.2313M327.473 42.2313C320.489 41.2393 306.743 39.8878 304.651 42.0322C302.519 44.2172 312.364 51.9043 317.553 55.4747C307.693 58.2943 288.392 64.6407 290.067 67.4698C291.742 70.2989 313.39 65.1327 324.004 62.196C319.668 72.3958 312.074 92.7822 316.391 92.7292C320.708 92.6762 329.733 77.5255 333.706 69.9568C341.582 72.5947 358.099 76.8249 361.157 72.6424C364.214 68.4599 352.813 55.402 346.731 49.3958C352.581 42.3078 363.329 27.9707 359.521 27.3266C355.714 26.6824 342.593 37.6809 336.509 43.2606C338.276 34.7474 341.135 17.3623 338.44 15.9274C335.072 14.1337 326.073 10.8979 325.268 15.6572C324.94 17.5969 325.62 17.9198 327.245 18.4396L327.473 42.2313Z" stroke="#5EB88A"/>
<path d="M322.353 121.153C321.269 120.807 319.518 118.813 321.181 113.611C322.844 108.41 326.008 108.227 327.382 108.786C329.683 109.722 330.522 113.087 328.672 117.082C326.821 121.077 323.978 121.673 322.353 121.153Z" fill="#443826" stroke="#443826"/>
<g clip-path="url(#clip0_687_395)">
<path d="M676.763 158.638C667.339 158.638 654.547 160.769 654.547 158.638C648.854 141.594 642.224 119.82 628.962 109.083C625.667 106.371 621.817 104.415 617.683 103.352C601.245 101.115 584.189 109.636 578.581 123.762C576 129.141 574.136 134.836 573.038 140.7C571.865 146.608 571.266 152.615 571.247 158.638H545.96C545.958 151.191 546.745 143.764 548.305 136.481C552.207 101.115 588.453 71.2873 625.188 80.7894C630.089 82.4466 634.777 84.6782 639.153 87.4368C656.673 98.7107 669.144 116.326 673.949 136.587C675.81 143.79 676.755 151.199 676.763 158.638Z" fill="#443826"/>
<path d="M133.106 167.693H107.819C107.827 160.108 106.75 152.561 104.621 145.28C100.207 126.681 83.1511 105.376 61.8303 111.767C38.3775 120.289 27.7175 143.725 27.5683 167.693H2.2811C2.25031 160.279 3.08059 152.886 4.75464 145.663C12.7926 113.897 42.6417 84.0705 78.887 88.3315C100.208 90.462 115.132 105.376 124.151 125.594C127.067 131.984 129.284 138.67 130.761 145.536C132.321 152.819 133.107 160.245 133.106 167.693Z" fill="#443826"/>
<path d="M0 154.378C0 162.9 0.305972 171.33 0.917167 179.667C1.83396 186.463 2.77174 193.238 3.77382 200.013C4.77589 206.788 5.90602 213.542 7.09998 220.424C13.2979 271.762 32.6161 320.642 63.195 362.359C66.9901 367.472 70.9768 372.443 75.1557 377.272C99.1261 397.478 124.631 415.791 151.441 432.048C156.757 435.314 162.123 438.532 167.539 441.699C217.472 471.824 272.906 486.738 330.941 491.511C339.209 492.061 347.501 492.153 355.78 491.787C380.544 490.854 405.135 487.246 429.123 481.028C436.23 479.053 443.337 476.853 450.444 474.424C498.759 457.609 542.639 430.083 578.795 393.911C584.381 388.329 589.774 382.577 595.041 376.654C639.622 331.21 665.207 269.425 674.375 204.466C675.548 196.264 676.508 187.997 677.062 179.667C677.616 171.337 678 162.878 678 154.378H640.433C533.019 152.247 426.416 156.508 320.814 154.378H269.366C245.188 154.378 219.604 152.247 196.151 150.117C164.17 149.051 132.721 151.715 101.551 153.845C95.3035 154.271 89.0784 154.676 82.874 155.017C57.5663 158.639 34.1127 156.508 8.54912 154.378H0Z" fill="#443826"/>
<path d="M268.812 237.468C260.114 236.551 251.585 236.551 243.057 231.502C232.396 224.791 215.34 211.369 230.264 201.313C228.132 218.08 247.321 231.502 268.642 233.271C289.962 233.271 307.019 221.532 311.283 203.081H317.679C313.415 216.504 302.755 228.242 286.807 234.804C280.986 236.63 274.913 237.529 268.812 237.468Z" fill="#F2F2F2"/>
<path d="M124.001 237.468C100.207 236.019 74.6219 221.105 78.8861 201.249C91.6786 217.803 102.339 237.659 132.188 232.695C151.377 229.393 159.905 216.141 164.169 202.868H170.565C168.433 216.099 159.905 227.689 141.889 234.826C136.099 236.627 130.065 237.518 124.001 237.468Z" fill="#F2F2F2"/>
<path d="M193.081 337.602C168.434 337.431 142.849 316.126 144.981 292.861H151.377C149.245 312.249 166.302 325.82 185.491 329.676C217.472 337.431 221.736 308.371 236.66 292.861C234.528 308.371 228.132 325.82 210.394 333.852C204.952 336.308 199.052 337.586 193.081 337.602Z" fill="#F2F2F2"/>
<path d="M345.397 333.617C332.604 333.617 321.943 331.615 313.031 322.305C308.912 318.587 305.572 314.09 303.203 309.074C300.831 303.998 299.601 298.463 299.6 292.861H305.996C305.996 297.678 307.059 302.435 309.109 306.795C311.16 311.132 314.06 315.014 317.637 318.214C328.088 325.972 341.136 329.392 354.053 327.759C371.109 323.881 386.034 308.371 383.902 292.861H390.298C394.562 310.31 379.637 323.881 363.263 329.953C357.552 332.157 351.514 333.396 345.397 333.617Z" fill="#F2F2F2"/>
<path d="M501.038 334.513C494.96 334.537 488.931 333.431 483.257 331.253C475.243 328.218 468.251 322.982 463.088 316.147C460.608 312.832 458.659 309.152 457.31 305.239C455.919 301.259 455.199 297.076 455.178 292.861H461.574C461.614 297.66 462.664 302.397 464.654 306.765C466.645 311.133 469.533 315.033 473.13 318.214C476.805 321.519 481.053 324.125 485.666 325.905C515.941 337.431 532.999 314.187 543.659 292.861C545.791 308.371 535.13 325.82 518.5 331.21C512.944 333.417 507.017 334.539 501.038 334.513Z" fill="#F2F2F2"/>
<path d="M258.344 420.692C234.528 419.541 217.472 405.778 215.34 386.71H221.736C219.604 402.263 238.793 416.09 257.981 416.09C283.566 416.09 289.963 395.36 304.887 383.258C303.901 387.935 302.473 392.508 300.623 396.915C298.414 401.961 294.859 406.302 290.347 409.464C286.011 412.982 281.088 415.708 275.805 417.517C270.19 419.493 264.296 420.564 258.344 420.692Z" fill="#F2F2F2"/>
<path d="M430.317 416.58C405.094 416.09 385.906 398.811 383.773 378.081H390.17C394.434 398.811 413.622 412.638 439.207 410.912C456.264 409.187 471.189 395.36 469.056 381.533C479.717 381.533 475.453 391.908 473.321 397.085C466.924 405.735 460.528 412.638 448.226 414.897C442.395 416.468 436.339 417.037 430.317 416.58Z" fill="#F2F2F2"/>
<path d="M556.472 236.892C530.887 238.149 513.83 219.699 511.698 201.249H518.094C522.359 219.699 539.415 236.487 565 231.438C582.057 228.093 599.113 216.354 596.981 201.249H603.377C605.51 216.354 590.585 228.093 574.168 234.016C568.455 235.892 562.485 236.863 556.472 236.892Z" fill="#F2F2F2"/>
<path d="M413.622 237.468C394.434 236.488 360.32 221.382 373.113 202.932C375.245 212.988 381.641 221.375 392.302 228.093C407.226 234.805 420.019 233.122 434.943 228.093C447.736 223.065 449.868 212.988 454.132 202.932H460.528C458.396 216.354 447.735 229.776 431.446 234.74C425.685 236.579 419.67 237.5 413.622 237.468Z" fill="#F2F2F2"/>
</g>
<defs>
<clipPath id="clip0_687_395">
<rect width="678" height="413" fill="white" transform="translate(0 79)"/>
</clipPath>
</defs>
</svg>
