<svg width="678" height="628" viewBox="0 0 678 628" fill="none" xmlns="http://www.w3.org/2000/svg">
<g clip-path="url(#clip0_687_394)">
<path d="M235.882 56.3631C241.255 55.9852 246.644 55.8804 252.027 56.049C254.437 56.0948 256.831 56.4512 259.15 57.1101C273.931 61.4692 276.729 78.662 276.75 96.8414C276.876 98.881 277.15 100.887 277.326 102.923C277.85 108.976 278.229 115.062 278.462 121.182C278.63 123.885 278.651 126.597 278.697 129.307C280.681 179.434 268.838 227.041 256.114 271.99C255.547 273.974 254.979 275.958 254.336 277.922C253.693 279.886 253.026 281.853 252.233 283.777C251.39 286.099 250.496 288.4 249.605 290.725C248.713 293.05 247.463 295.964 246.441 298.569C230.566 339.182 208.607 377.148 181.318 411.164C180.202 412.664 179.036 414.143 177.942 415.593C173.371 421.452 168.799 427.287 164.191 432.556C162.447 434.877 160.492 437.03 158.349 438.988C157.226 439.999 156.009 440.901 154.716 441.681C146.852 449.349 129.34 445.506 135.95 432.76C144.712 414.947 153.627 399.591 159.987 382.84C161.112 380.303 162.139 377.772 163.265 375.235C177 341.769 185.997 306.721 194.778 270.183C195.327 267.509 195.825 264.814 196.35 262.142C205.477 213.717 210.724 163.215 208.398 114.343C208.217 111.443 208.037 108.544 207.856 105.644C206.652 98.0035 205.998 90.2867 205.901 82.5526C205.77 80.8984 205.857 79.2342 206.16 77.6027C207.747 68.9933 215.169 63.7452 222.379 60.6568C224.555 59.7124 226.788 58.9065 229.065 58.243C231.293 57.4654 233.57 56.8372 235.882 56.3631Z" fill="#EB5050"/>
<path d="M256.123 42.9668C250.014 43.1496 247.556 43.3024 242.64 43.6084C244.639 36.0834 244.333 31.1687 244.684 22.5375C244.703 20.4642 244.624 18.3969 244.497 16.3573C243.11 11.5099 245.262 6.44225 242.651 4.13791C237.582 1.98656 227.749 2.59854 227.902 5.05588C220.986 12.8869 231.431 22.1043 229.659 33.2907C229.775 35.1583 229.89 37.0013 230.043 39.4587C227.585 39.6117 224.973 37.3076 221.811 34.0755C219.621 33.1944 217.357 32.5097 215.046 32.0297C213.09 31.587 211.089 31.3799 209.085 31.4136C207.308 31.0062 202.391 31.3123 202.544 33.7696C202.583 36.1464 203.298 38.4629 204.606 40.448C205.914 42.4332 207.76 44.0046 209.929 44.9782C211.948 46.1805 214.059 47.2202 216.243 48.088C216.926 48.3661 217.607 48.5954 218.288 48.8244C215.299 49.2873 212.362 50.0399 209.519 51.0721C199.005 56.1915 189.325 59.261 187.478 69.2434C187.631 71.7007 192.853 76.3093 197.954 74.6104C199.786 74.7524 201.626 74.7619 203.459 74.6381C207.846 74.2936 212.175 73.4195 216.351 72.035L218.766 71.1938C218.232 72.9974 217.795 74.8278 217.455 76.6778C213.229 84.9087 216.452 97.0424 223.674 94.1261C235.964 93.3611 237.505 78.464 242.975 68.8235C243.5 67.0793 243.925 65.3071 244.249 63.5148C246.237 63.9914 248.253 64.3433 250.286 64.5694C263.528 62.043 278.584 66.0399 282.735 53.4472C282.715 52.0071 282.25 50.6085 281.404 49.4425C280.558 48.2765 279.374 47.4 278.011 46.9326C275.475 45.8324 272.361 45.36 269.844 44.1845C267.763 43.6775 265.647 43.3313 263.513 43.1482C261.056 42.9378 258.587 42.8773 256.123 42.9668Z" fill="#5EB88A"/>
<path d="M223.095 114.982C223.154 115.452 223.1 115.929 222.936 116.374C222.813 116.742 222.606 117.076 222.33 117.349C221.929 117.801 221.375 118.09 220.775 118.161C220.265 118.199 219.755 118.104 219.293 117.883C218.831 117.663 218.435 117.325 218.144 116.904C217.853 116.483 217.678 115.993 217.635 115.483C217.592 114.974 217.685 114.461 217.902 113.998C218.058 113.681 218.276 113.399 218.543 113.168C218.81 112.937 219.12 112.762 219.457 112.654C219.793 112.545 220.148 112.506 220.5 112.537C220.852 112.568 221.194 112.67 221.506 112.836C222.006 113.072 222.455 113.405 222.826 113.815C222.978 114.187 223.068 114.581 223.095 114.982Z" fill="#443826"/>
<path d="M237.161 114.181C237.187 114.921 236.944 115.645 236.475 116.219C236.007 116.793 235.346 117.177 234.616 117.3C234.106 117.338 233.594 117.243 233.132 117.022C232.671 116.802 232.274 116.464 231.983 116.043C231.693 115.622 231.518 115.132 231.476 114.622C231.433 114.112 231.524 113.6 231.741 113.137C232.517 111.337 235.098 111.177 236.889 112.989C237.042 113.37 237.134 113.772 237.161 114.181Z" fill="#443826"/>
<path d="M227.715 141.213C227.095 141.261 226.47 141.192 225.876 141.008C221.184 138.981 220.008 133.972 219.654 129.874C219.595 128.916 219.552 128.228 219.537 127.983C219.519 127.757 219.548 127.53 219.618 127.314C219.688 127.099 219.8 126.9 219.948 126.728C220.095 126.556 220.276 126.415 220.478 126.313C220.679 126.211 220.9 126.149 221.125 126.132C221.353 126.111 221.582 126.136 221.8 126.205C222.018 126.273 222.22 126.385 222.395 126.532C222.569 126.68 222.712 126.861 222.816 127.064C222.92 127.268 222.983 127.49 223 127.718C223 128.26 223.034 128.801 223.101 129.339C223.138 129.929 223.3 130.56 223.438 131.193C224.329 133.605 224.481 136.062 226.291 137.38C226.508 137.547 226.762 137.663 227.03 137.718C227.298 137.774 227.575 137.769 227.841 137.703C228.319 137.61 228.765 137.395 229.135 137.08C229.543 136.721 229.892 136.299 230.168 135.831C231.185 133.416 231.906 130.886 232.315 128.297C232.4 127.675 232.437 127.081 232.478 126.56C232.52 126.04 232.416 125.553 232.54 125.175C232.543 124.714 232.728 124.273 233.054 123.948C233.381 123.623 233.822 123.439 234.283 123.438C234.738 123.456 235.17 123.64 235.5 123.954C235.817 124.284 235.995 124.724 235.995 125.181C235.451 130.322 235.774 135.507 232.072 139.067C231.621 139.589 231.091 140.038 230.502 140.399C229.9 140.763 229.24 141.021 228.551 141.161L227.715 141.213Z" fill="#443826"/>
</g>
<path d="M390.247 336.198C387.921 335.454 373.469 317.693 366.588 308.207L380.265 296.813L395.144 313.038C399.222 311.117 407.127 309.631 406.12 319.056C404.861 330.837 395.124 337.757 390.247 336.198Z" fill="#F94949" stroke="#F94949"/>
<path d="M285.792 330.031C288.625 323.412 295.358 312.067 299.102 306.336L313.732 311.014C311.25 319.896 297.706 342.082 293.935 342.668C281.808 344.553 276.171 337.705 277.848 333.583C279.641 330.214 284.518 333.008 285.792 330.031Z" fill="#F94949" stroke="#F94949"/>
<path d="M417.566 213.779C416.453 214.57 407.609 229.229 400.887 235.68L395.527 221.066C402.702 207.593 409.138 204.276 409.423 201.142C409.631 198.862 401.454 191.217 407.079 186.059C413.163 180.479 421.072 191.608 422.998 199.032C424.924 206.457 418.957 212.79 417.566 213.779Z" fill="#F94949" stroke="#F94949"/>
<path d="M245.485 229.707C246.973 231.33 256.673 235.435 261.337 237.284L258.754 255.45C253.448 251.126 241.282 243.927 239.936 243.7C237.556 243.297 237.673 244.051 236.165 244.286C233.902 244.637 231.64 244.989 228.791 241.57C225.943 238.15 224.002 220.688 231.543 219.516C239.085 218.344 243.625 227.679 245.485 229.707Z" fill="#F94949" stroke="#F94949"/>
<path d="M271.042 210.64C287.389 184.62 316.027 182.023 331.176 185.076C365.531 187.461 378.031 203.283 387.498 209.535C398.687 216.924 409.195 244.782 395.666 277.007C382.137 309.232 354.467 315.076 340.021 316.549C325.575 318.022 294.405 311.28 275.286 292.624C256.167 273.969 250.608 243.166 271.042 210.64Z" fill="#F94949" stroke="#F94949"/>
<path d="M320.808 272.068C320.951 270.501 321.73 268.063 323.356 268.582C326.148 269.475 324.729 278.41 325.063 284.537C325.397 290.664 327.821 292.347 329.369 292.364C332.013 292.694 336.94 289.26 339.743 284.573C342.786 279.487 342.745 274.066 345.007 273.714C348.496 273.172 347.079 282.715 342.072 289.618C338.141 295.036 332.647 297.168 328.563 297.123C319.279 297.021 320.523 275.202 320.808 272.068Z" fill="#443826" stroke="#443826"/>
<path d="M343.404 248.475C344.326 244.469 347.226 243.247 349.606 243.649C351.985 244.051 352.777 247.018 350.895 251.945C349.012 256.872 345.007 255.662 344.459 255.262C342.716 253.988 342.785 251.162 343.404 248.475Z" fill="#443826" stroke="#443826"/>
<path d="M317.553 191.475C312.364 187.904 302.519 180.217 304.651 178.032C306.743 175.888 320.489 177.239 327.473 178.231L327.245 154.44C325.62 153.92 324.94 153.597 325.268 151.657C326.073 146.898 335.072 150.134 338.44 151.928C341.135 153.362 338.276 170.748 336.509 179.261C342.593 173.681 355.714 162.683 359.521 163.327C363.329 163.971 352.581 178.308 346.731 185.396C352.813 191.402 364.214 204.46 361.157 208.642C358.099 212.825 341.582 208.595 333.706 205.957C329.733 213.526 320.708 228.676 316.391 228.729C312.074 228.782 319.668 208.396 324.004 198.196C313.39 201.133 291.742 206.299 290.067 203.47C288.392 200.641 307.693 194.294 317.553 191.475Z" fill="#5EB88A"/>
<path d="M327.862 178.287C327.735 178.269 327.605 178.25 327.473 178.231M327.473 178.231C320.489 177.239 306.743 175.888 304.651 178.032C302.519 180.217 312.364 187.904 317.553 191.475C307.693 194.294 288.392 200.641 290.067 203.47C291.742 206.299 313.39 201.133 324.004 198.196C319.668 208.396 312.074 228.782 316.391 228.729C320.708 228.676 329.733 213.526 333.706 205.957C341.582 208.595 358.099 212.825 361.157 208.642C364.214 204.46 352.813 191.402 346.731 185.396C352.581 178.308 363.329 163.971 359.521 163.327C355.714 162.683 342.593 173.681 336.509 179.261C338.276 170.748 341.135 153.362 338.44 151.928C335.072 150.134 326.073 146.898 325.268 151.657C324.94 153.597 325.62 153.92 327.245 154.44L327.473 178.231Z" stroke="#5EB88A"/>
<path d="M322.353 257.153C321.269 256.807 319.518 254.813 321.181 249.612C322.844 244.41 326.008 244.227 327.382 244.786C329.683 245.722 330.522 249.087 328.672 253.082C326.821 257.077 323.978 257.673 322.353 257.153Z" fill="#443826" stroke="#443826"/>
<g clip-path="url(#clip1_687_394)">
<path d="M676.763 294.638C667.339 294.638 654.547 296.769 654.547 294.638C648.854 277.594 642.224 255.82 628.962 245.083C625.667 242.371 621.817 240.415 617.683 239.352C601.245 237.115 584.189 245.636 578.581 259.762C576 265.141 574.136 270.836 573.038 276.7C571.865 282.608 571.266 288.615 571.247 294.638H545.96C545.958 287.191 546.745 279.764 548.305 272.481C552.207 237.115 588.453 207.287 625.188 216.789C630.089 218.447 634.777 220.678 639.153 223.437C656.673 234.711 669.144 252.326 673.949 272.587C675.81 279.79 676.755 287.199 676.763 294.638Z" fill="#443826"/>
<path d="M133.106 303.693H107.819C107.827 296.108 106.75 288.561 104.621 281.28C100.207 262.681 83.1511 241.376 61.8303 247.767C38.3775 256.289 27.7175 279.725 27.5683 303.693H2.2811C2.25031 296.279 3.08059 288.886 4.75464 281.663C12.7926 249.897 42.6417 220.07 78.887 224.332C100.208 226.462 115.132 241.376 124.151 261.594C127.067 267.984 129.284 274.67 130.761 281.536C132.321 288.819 133.107 296.245 133.106 303.693Z" fill="#443826"/>
<path d="M0 290.378C0 298.9 0.305972 307.33 0.917167 315.667C1.83396 322.463 2.77174 329.238 3.77382 336.013C4.77589 342.788 5.90602 349.542 7.09998 356.424C13.2979 407.762 32.6161 456.642 63.195 498.359C66.9901 503.472 70.9768 508.443 75.1557 513.272C99.1261 533.478 124.631 551.791 151.441 568.048C156.757 571.314 162.123 574.532 167.539 577.699C217.472 607.824 272.906 622.738 330.941 627.511C339.209 628.061 347.501 628.153 355.78 627.787C380.544 626.854 405.135 623.246 429.123 617.028C436.23 615.053 443.337 612.853 450.444 610.424C498.759 593.609 542.639 566.083 578.795 529.911C584.381 524.329 589.774 518.577 595.041 512.654C639.622 467.21 665.207 405.425 674.375 340.466C675.548 332.264 676.508 323.997 677.062 315.667C677.616 307.337 678 298.878 678 290.378H640.433C533.019 288.247 426.416 292.508 320.814 290.378H269.366C245.188 290.378 219.604 288.247 196.151 286.117C164.17 285.051 132.721 287.715 101.551 289.845C95.3035 290.271 89.0784 290.676 82.874 291.017C57.5663 294.639 34.1127 292.508 8.54912 290.378H0Z" fill="#443826"/>
<path d="M268.812 373.468C260.114 372.551 251.585 372.551 243.057 367.502C232.396 360.791 215.34 347.369 230.264 337.313C228.132 354.08 247.321 367.502 268.642 369.271C289.962 369.271 307.019 357.532 311.283 339.081H317.679C313.415 352.504 302.755 364.242 286.807 370.804C280.986 372.63 274.913 373.529 268.812 373.468Z" fill="#F2F2F2"/>
<path d="M124.001 373.468C100.207 372.019 74.6219 357.105 78.8861 337.249C91.6786 353.803 102.339 373.659 132.188 368.695C151.377 365.393 159.905 352.141 164.169 338.868H170.565C168.433 352.099 159.905 363.689 141.889 370.826C136.099 372.627 130.065 373.518 124.001 373.468Z" fill="#F2F2F2"/>
<path d="M193.081 473.602C168.434 473.431 142.849 452.126 144.981 428.861H151.377C149.245 448.249 166.302 461.82 185.491 465.676C217.472 473.431 221.736 444.371 236.66 428.861C234.528 444.371 228.132 461.82 210.394 469.852C204.952 472.308 199.052 473.586 193.081 473.602Z" fill="#F2F2F2"/>
<path d="M345.397 469.617C332.604 469.617 321.943 467.615 313.031 458.305C308.912 454.587 305.572 450.09 303.203 445.074C300.831 439.998 299.601 434.463 299.6 428.861H305.996C305.996 433.678 307.059 438.435 309.109 442.795C311.16 447.132 314.06 451.014 317.637 454.214C328.088 461.972 341.136 465.392 354.053 463.759C371.109 459.881 386.034 444.371 383.902 428.861H390.298C394.562 446.31 379.637 459.881 363.263 465.953C357.552 468.157 351.514 469.396 345.397 469.617Z" fill="#F2F2F2"/>
<path d="M501.038 470.513C494.96 470.537 488.931 469.431 483.257 467.253C475.243 464.218 468.251 458.982 463.088 452.147C460.608 448.832 458.659 445.152 457.31 441.239C455.919 437.259 455.199 433.076 455.178 428.861H461.574C461.614 433.66 462.664 438.397 464.654 442.765C466.645 447.133 469.533 451.033 473.13 454.214C476.805 457.519 481.053 460.125 485.666 461.905C515.941 473.431 532.999 450.187 543.659 428.861C545.791 444.371 535.13 461.82 518.5 467.21C512.944 469.417 507.017 470.539 501.038 470.513Z" fill="#F2F2F2"/>
<path d="M258.344 556.692C234.528 555.541 217.472 541.778 215.34 522.71H221.736C219.604 538.263 238.793 552.09 257.981 552.09C283.566 552.09 289.963 531.36 304.887 519.258C303.901 523.935 302.473 528.508 300.623 532.915C298.414 537.961 294.859 542.302 290.347 545.464C286.011 548.982 281.088 551.708 275.805 553.517C270.19 555.493 264.296 556.564 258.344 556.692Z" fill="#F2F2F2"/>
<path d="M430.317 552.58C405.094 552.09 385.906 534.811 383.773 514.081H390.17C394.434 534.811 413.622 548.638 439.207 546.912C456.264 545.187 471.189 531.36 469.056 517.533C479.717 517.533 475.453 527.908 473.321 533.085C466.924 541.735 460.528 548.638 448.226 550.897C442.395 552.468 436.339 553.037 430.317 552.58Z" fill="#F2F2F2"/>
<path d="M556.472 372.892C530.887 374.149 513.83 355.699 511.698 337.249H518.094C522.359 355.699 539.415 372.487 565 367.438C582.057 364.093 599.113 352.354 596.981 337.249H603.377C605.51 352.354 590.585 364.093 574.168 370.016C568.455 371.892 562.485 372.863 556.472 372.892Z" fill="#F2F2F2"/>
<path d="M413.622 373.468C394.434 372.488 360.32 357.382 373.113 338.932C375.245 348.988 381.641 357.375 392.302 364.093C407.226 370.805 420.019 369.122 434.943 364.093C447.736 359.065 449.868 348.988 454.132 338.932H460.528C458.396 352.354 447.735 365.776 431.446 370.74C425.685 372.579 419.67 373.5 413.622 373.468Z" fill="#F2F2F2"/>
</g>
<defs>
<clipPath id="clip0_687_394">
<rect width="171.74" height="436.259" fill="white" transform="translate(108 10.6683) rotate(-3.56147)"/>
</clipPath>
<clipPath id="clip1_687_394">
<rect width="678" height="413" fill="white" transform="translate(0 215)"/>
</clipPath>
</defs>
</svg>
