<svg width="948" height="651" viewBox="0 0 948 651" fill="none" xmlns="http://www.w3.org/2000/svg">
<path d="M859.182 437.688C863.387 410.493 845.106 386.184 821.768 375.55C818.739 374.391 815.621 373.477 812.445 372.815C808.114 371.926 803.705 371.468 799.283 371.449C790.142 370.993 781.002 374.03 774.908 370.992C747.488 349.722 729.207 319.337 695.693 307.183C637.804 285.913 561.635 313.26 537.261 370.992C532.955 368.601 528.588 366.404 524.16 364.398C455.12 328.301 388.091 379.956 351.53 443.765C339.343 461.996 296.689 455.92 275.361 477.037C271.302 479.93 267.406 483.043 263.692 486.365C238.069 509.519 224.876 541.636 247.879 576.549C249.921 580.053 252.201 583.412 254.704 586.605C260.138 593.496 266.355 599.737 273.229 605.201C276.864 608.118 280.724 610.924 284.806 613.618C375.905 659.5 479.494 662.539 576.991 626.076C582.773 624.778 588.813 625.244 594.327 627.413C597.833 628.566 601.271 629.916 604.625 631.455C659.254 641.269 720.189 635.192 771.984 610.884C777.619 609.49 783.456 609.1 789.228 609.729C792.519 609.881 795.931 610.155 799.344 610.367C841.998 604.807 884.653 592.653 924.261 568.344C945.588 550.113 954.729 522.767 942.541 495.42C940.564 491.474 938.206 487.729 935.503 484.238C915.12 465.034 896.84 449.842 868.474 440.393C865.58 439.36 862.412 438.387 859.182 437.688Z" fill="#443826"/>
<path d="M117.886 522.636C115.241 522.636 112.644 522.758 110.097 522.977C107.264 523.073 104.488 523.787 101.964 525.069C92.1663 500.743 65.2217 498.31 43.1761 500.743C34.018 501.823 25.3205 505.328 17.9945 510.891C10.6686 516.455 4.98352 523.872 1.53452 532.367C-3.36449 549.395 3.98403 563.99 16.2316 576.153C21.6801 581.509 28.5844 585.17 36.0973 586.686C39.8332 587.494 43.6399 587.934 47.4628 588C76.0512 583.816 105.046 583.105 133.808 585.883C150.954 585.883 173 573.72 173 554.26C170.55 534.799 148.505 527.501 132.534 523.804C127.691 523.024 122.792 522.634 117.886 522.636Z" fill="#443826"/>
<path d="M579 437V0H599.486L607 437H579Z" fill="#5EB88A"/>
<path d="M837 95.3072C836.227 88.9783 828.024 77.6943 815.182 67.4845C808.298 61.9559 800.772 57.2843 792.77 53.5725C778.349 46.3621 762.123 43.6091 746.145 45.6602C730.166 47.7113 715.151 54.4756 703 65.0968C707.608 83.3704 718.978 99.1918 734.795 109.342C750.611 119.491 769.685 123.206 788.132 119.728C797.135 118.303 805.873 115.526 814.052 111.489C822.47 107.289 830.207 101.832 837 95.3072Z" fill="#5EB88A"/>
<path d="M358 198.056C365.922 215.599 449.492 256.074 495 187.638C458.01 130.877 385.4 147.582 358 198.056Z" fill="#5EB88A"/>
<path d="M582 150L445 114V120L582 162V150Z" fill="#5EB88A"/>
<path d="M593 210.698V226L752.495 188.473L755 179L593 210.698Z" fill="#5EB88A"/>
<path d="M655.003 242.79C655.003 242.79 652.846 317.567 767 310.533C759.873 218.968 655.003 242.79 655.003 242.79Z" fill="#5EB88A"/>
<path d="M609.251 457.962C606.359 469.757 600.007 480.417 591.011 488.575C582.015 496.732 570.786 502.013 558.767 503.739C556.324 504.35 553.882 504.911 551.244 505.375C543.188 506.863 535.012 507.598 526.82 507.574C481.636 507.574 445 485.711 445 458.719C445 435.123 473.039 415.41 510.334 410.867C512.996 410.525 515.707 410.281 518.467 410.11C550.023 409.865 596.428 407.423 608.152 447.361C608.98 450.831 609.35 454.395 609.251 457.962Z" fill="#443826"/>
<path d="M687.092 471.104C686.775 478.51 684.463 485.693 680.4 491.892C678.292 495.004 675.788 497.829 672.951 500.295C663.557 508.283 651.6 512.619 639.27 512.508C626.94 512.619 614.984 508.283 605.59 500.295C602.788 497.82 600.324 494.986 598.262 491.867C584.316 473.376 594.086 441.621 618.51 434.293C645.376 426.965 677.127 434.293 685.749 460.43C686.734 463.9 687.187 467.498 687.092 471.104Z" fill="#443826"/>
</svg>
