<svg width="379" height="184" viewBox="0 0 379 184" fill="none" xmlns="http://www.w3.org/2000/svg">
<path d="M115 163.607C110.84 157.367 108.5 148.774 107 143.107L117 139.607C116.667 148.441 123.404 158.327 124.5 158.107C134.5 156.107 136.561 162.547 135.5 163.607C133.5 165.607 125.5 170.607 122 171.607C118.5 172.607 116 165.107 115 163.607Z" fill="#443826" stroke="#443826"/>
<path d="M93 168.607C90 161.107 88.1667 155.44 87 150.607C90.3333 148.774 97.1 145.407 97.5 146.607C98 148.107 107 169.107 106.5 175.607C106.379 177.183 103.5 179.94 102 181.107C99.8333 183.107 92.2 184.607 91.5 181.107C90 173.607 94.5974 172.601 93 168.607Z" fill="#443826" stroke="#443826"/>
<path d="M50.0001 44.6072C41.6001 34.2072 40.1667 13.6072 40.5001 4.60716C40.53 0.607156 51.4877 -0.0760731 53.5001 2.60716C55.0001 4.60712 53.5001 25.3571 55.0001 32.1072C56.0001 36.6072 58.0001 40.7738 59.0001 43.1072C59.6668 48.2738 58.4001 55.0071 50.0001 44.6072Z" fill="#443826" stroke="#443826"/>
<path d="M146.5 64.1074C143.926 65.2103 139 69.4407 137 72.1074C134.167 69.4407 129.5 63.3074 133.5 60.1074C138.5 56.1075 144.439 53.9606 145.5 53.6071C150 52.1073 155.154 51.6732 158.5 53.1072C162 54.6074 162.333 57.274 162.5 59.1074C162.667 60.9407 160.5 62.6072 158 62.1072C155.36 61.5791 150 62.6074 146.5 64.1074Z" fill="#443826" stroke="#443826"/>
<path d="M6.69628 127.379C11.1961 121.38 19.3634 115.88 24.1967 112.88C26.1967 110.88 32.2644 120.528 30.1967 121.38C21.6963 124.88 15.1968 130.38 12.6967 133.38C10.1967 136.379 9.86338 141.38 9.19671 145.38C8.19629 149.879 3.62841 151.243 2.19669 148.38C-1.30378 141.379 3.69625 131.379 6.69628 127.379Z" fill="#443826" stroke="#443826"/>
<path d="M15.5 52.1074C25.5 38.9074 48.6664 41.9411 57.4997 45.6078C64.4997 28.1078 85.9997 8.10742 110 17.6078C134 27.1081 141.5 88.1081 138.5 107.608C135.5 127.107 134.5 138.607 89.4997 154.108C44.4997 169.608 10.9997 109.608 7.99971 92.6078C4.99971 75.6078 3 68.6074 15.5 52.1074Z" fill="#EB5050"/>
<path d="M64.5 82.1048C64.5 79.6047 65.6667 78.9381 66.5 78.6048C68.202 77.9242 70 79.6717 70 82.1048C70 84.1047 69.5 85.6048 67.5 85.6048C66.382 85.6048 64.5 84.6543 64.5 82.1048Z" fill="#443826"/>
<path d="M79.6396 77.0367C79.7283 75.0877 80.5 73.6063 82 73.1067C83.5 72.607 85.0957 73.8936 85.5 75.1067C86.5 78.107 85 80.607 82.5 80.607C81.9846 80.607 79.5 80.107 79.6396 77.0367Z" fill="#443826"/>
<path d="M73.5 98.6051C73 97.1051 71.5 97.2718 71 97.6051C69.5 99.1051 71.3481 103.149 72 105.105C73 108.105 75.5 112.105 78 112.605C80 113.005 81.5 112.605 83 111.605C84.8605 110.365 85.5 108.605 86 107.105C86.3536 106.044 86.5 99.1051 86.5 94.1051C86.5 89.1051 85 89.6051 84.5 89.6051C83 89.6051 83 93.4384 83 95.6051V104.105C83 105.772 82.4 109.205 80 109.605C77 110.105 75.7236 106.276 75.5 105.605C75 104.105 74 100.105 73.5 98.6051Z" fill="#443826"/>
<path d="M64.5 82.1048C64.5 79.6047 65.6667 78.9381 66.5 78.6048C68.202 77.9242 70 79.6717 70 82.1048C70 84.1047 69.5 85.6048 67.5 85.6048C66.382 85.6048 64.5 84.6543 64.5 82.1048Z" stroke="#443826"/>
<path d="M79.6396 77.0367C79.7283 75.0877 80.5 73.6063 82 73.1067C83.5 72.607 85.0957 73.8936 85.5 75.1067C86.5 78.107 85 80.607 82.5 80.607C81.9846 80.607 79.5 80.107 79.6396 77.0367Z" stroke="#443826"/>
<path d="M73.5 98.6051C73 97.1051 71.5 97.2718 71 97.6051C69.5 99.1051 71.3481 103.149 72 105.105C73 108.105 75.5 112.105 78 112.605C80 113.005 81.5 112.605 83 111.605C84.8605 110.365 85.5 108.605 86 107.105C86.3536 106.044 86.5 99.1051 86.5 94.1051C86.5 89.1051 85 89.6051 84.5 89.6051C83 89.6051 83 93.4384 83 95.6051V104.105C83 105.772 82.4 109.205 80 109.605C77 110.105 75.7236 106.276 75.5 105.605C75 104.105 74 100.105 73.5 98.6051Z" stroke="#443826"/>
<path d="M343.253 129.284C341.822 128.568 334.253 115.617 330.753 108.784L340.753 102.784L348.753 114.784C351.586 113.95 356.853 113.784 355.253 119.784C353.253 127.284 346.253 130.784 343.253 129.284Z" fill="#F94949" stroke="#F94949"/>
<path d="M276.253 114.784C278.753 110.784 284.253 104.117 287.253 100.784L296.253 105.284C293.753 110.784 282.753 123.784 280.253 123.784C272.213 123.784 269.253 118.784 270.753 116.284C272.253 114.284 275.129 116.583 276.253 114.784Z" fill="#F94949" stroke="#F94949"/>
<path d="M373.253 52.7837C372.453 53.1837 365.253 61.7837 360.253 65.2837L358.253 55.2836C364.253 47.2837 368.753 45.7837 369.253 43.7837C369.617 42.3286 365.093 36.5572 369.253 33.7837C373.753 30.7837 377.753 38.7837 378.253 43.7837C378.753 48.7837 374.253 52.2837 373.253 52.7837Z" fill="#F94949" stroke="#F94949"/>
<path d="M260.253 45.7837C261.053 46.9837 266.919 50.617 269.753 52.2837L266.253 63.7837C263.253 60.4504 256.101 54.5665 255.253 54.2837C253.753 53.7837 253.753 54.2837 252.753 54.2837C251.253 54.2837 249.753 54.2837 248.253 51.7837C246.753 49.2837 247.253 37.7837 252.253 37.7837C257.253 37.7837 259.253 44.2837 260.253 45.7837Z" fill="#F94949" stroke="#F94949"/>
<path d="M278.715 36.0117C291.915 20.8117 310.715 22.0117 320.215 25.5117C342.215 30.5117 348.715 42.0117 354.215 47.0117C360.715 52.9208 364.715 72.0117 352.715 91.5117C340.715 111.012 322.215 112.012 312.715 111.512C303.215 111.012 283.715 103.512 273.215 89.5117C262.715 75.5117 262.215 55.0117 278.715 36.0117Z" fill="#F94949" stroke="#F94949"/>
<path d="M304.753 80.7839C305.003 79.7839 305.753 78.2839 306.753 78.7839C308.471 79.6428 306.653 85.2839 306.253 89.2839C305.853 93.2839 307.253 94.6173 308.253 94.7839C309.931 95.2636 313.466 93.5364 315.753 90.7839C318.233 87.7976 318.753 84.2839 320.253 84.2839C322.566 84.2839 320.688 90.3191 316.753 94.2839C313.663 97.3964 309.891 98.2236 307.253 97.7839C301.253 96.7839 304.253 82.7839 304.753 80.7839Z" fill="#443826" stroke="#443826"/>
<path d="M321.753 67.7836C322.752 65.2835 324.753 64.7837 326.253 65.2836C327.753 65.7834 327.967 67.7834 326.253 70.7836C324.538 73.7837 322.067 72.598 321.753 72.2836C320.753 71.2836 321.082 69.4613 321.753 67.7836Z" fill="#443826" stroke="#443826"/>
<path d="M310.753 28.2836C307.753 25.4503 302.153 19.4836 303.753 18.2836C305.323 17.1059 314.085 19.3636 318.506 20.7083L320.753 5.28369C319.753 4.78369 319.345 4.50628 319.753 3.28363C320.753 0.283633 326.253 3.28363 328.253 4.78363C329.853 5.98363 326.253 16.9503 324.253 22.2836C328.753 19.2836 338.353 13.4836 340.753 14.2836C343.153 15.0836 334.753 23.2836 330.253 27.2836C333.586 31.7836 339.653 41.3836 337.253 43.7836C334.853 46.1837 324.586 41.7836 319.753 39.2836C316.419 43.7836 309.053 52.6837 306.253 52.2836C303.453 51.8836 310.419 39.4503 314.253 33.2836C307.086 34.117 292.553 35.2836 291.753 33.2836C290.953 31.2836 304.086 29.117 310.753 28.2836Z" fill="#5EB88A"/>
<path d="M318.753 20.7836C318.672 20.7588 318.59 20.7337 318.506 20.7083M318.506 20.7083C314.085 19.3636 305.323 17.1059 303.753 18.2836C302.153 19.4836 307.753 25.4503 310.753 28.2836C304.086 29.117 290.953 31.2836 291.753 33.2836C292.553 35.2836 307.086 34.117 314.253 33.2836C310.419 39.4503 303.453 51.8836 306.253 52.2836C309.053 52.6836 316.419 43.7836 319.753 39.2836C324.586 41.7836 334.853 46.1836 337.253 43.7836C339.653 41.3836 333.586 31.7836 330.253 27.2836C334.753 23.2836 343.153 15.0836 340.753 14.2836C338.353 13.4836 328.753 19.2836 324.253 22.2836C326.253 16.9503 329.853 5.98363 328.253 4.78363C326.253 3.28363 320.753 0.283633 319.753 3.28363C319.345 4.50628 319.753 4.78369 320.753 5.28369L318.506 20.7083Z" stroke="#5EB88A"/>
<path d="M307.253 71.2834C306.586 70.9501 305.653 69.4834 307.253 66.2834C308.853 63.0834 310.919 63.2834 311.753 63.7834C313.148 64.6207 313.353 66.8834 311.753 69.2834C310.153 71.6835 308.253 71.7834 307.253 71.2834Z" fill="#443826" stroke="#443826"/>
</svg>
