<svg width="172" height="192" viewBox="0 0 172 192" fill="none" xmlns="http://www.w3.org/2000/svg">
<g filter="url(#filter0_d_159_189)">
<path d="M119 163.607C114.84 157.367 112.5 148.774 111 143.107L121 139.607C120.667 148.441 127.404 158.327 128.5 158.107C138.5 156.107 140.561 162.547 139.5 163.607C137.5 165.607 129.5 170.607 126 171.607C122.5 172.607 120 165.107 119 163.607Z" fill="#443826" stroke="#443826"/>
<path d="M97 168.607C94 161.107 92.1667 155.44 91 150.607C94.3333 148.774 101.1 145.407 101.5 146.607C102 148.107 111 169.107 110.5 175.607C110.379 177.183 107.5 179.94 106 181.107C103.833 183.107 96.2 184.607 95.5 181.107C94 173.607 98.5974 172.601 97 168.607Z" fill="#443826" stroke="#443826"/>
<path d="M54.0001 44.6072C45.6001 34.2072 44.1667 13.6072 44.5001 4.60716C44.53 0.607156 55.4877 -0.0760731 57.5001 2.60716C59.0001 4.60712 57.5001 25.3571 59.0001 32.1072C60.0001 36.6072 62.0001 40.7738 63.0001 43.1072C63.6668 48.2738 62.4001 55.0071 54.0001 44.6072Z" fill="#443826" stroke="#443826"/>
<path d="M150.5 64.1074C147.926 65.2103 143 69.4407 141 72.1074C138.167 69.4407 133.5 63.3074 137.5 60.1074C142.5 56.1075 148.439 53.9606 149.5 53.6071C154 52.1073 159.154 51.6732 162.5 53.1072C166 54.6074 166.333 57.274 166.5 59.1074C166.667 60.9407 164.5 62.6072 162 62.1072C159.36 61.5791 154 62.6074 150.5 64.1074Z" fill="#443826" stroke="#443826"/>
<path d="M10.6963 127.379C15.1961 121.38 23.3634 115.88 28.1967 112.88C30.1967 110.88 36.2644 120.528 34.1967 121.38C25.6963 124.88 19.1968 130.38 16.6967 133.38C14.1967 136.379 13.8634 141.38 13.1967 145.38C12.1963 149.879 7.62841 151.243 6.19669 148.38C2.69622 141.379 7.69625 131.379 10.6963 127.379Z" fill="#443826" stroke="#443826"/>
<path d="M19.5 52.1074C29.5 38.9074 52.6664 41.9411 61.4997 45.6078C68.4997 28.1078 89.9997 8.10742 114 17.6078C138 27.1081 145.5 88.1081 142.5 107.608C139.5 127.107 138.5 138.607 93.4997 154.108C48.4997 169.608 14.9997 109.608 11.9997 92.6078C8.99971 75.6078 7 68.6074 19.5 52.1074Z" fill="#EB5050"/>
<path d="M68.5 82.1048C68.5 79.6047 69.6667 78.9381 70.5 78.6048C72.202 77.9242 74 79.6717 74 82.1048C74 84.1047 73.5 85.6048 71.5 85.6048C70.382 85.6048 68.5 84.6543 68.5 82.1048Z" fill="#443826"/>
<path d="M83.6396 77.0367C83.7283 75.0877 84.5 73.6063 86 73.1067C87.5 72.607 89.0957 73.8936 89.5 75.1067C90.5 78.107 89 80.607 86.5 80.607C85.9846 80.607 83.5 80.107 83.6396 77.0367Z" fill="#443826"/>
<path d="M77.5 98.6051C77 97.1051 75.5 97.2718 75 97.6051C73.5 99.1051 75.3481 103.149 76 105.105C77 108.105 79.5 112.105 82 112.605C84 113.005 85.5 112.605 87 111.605C88.8605 110.365 89.5 108.605 90 107.105C90.3536 106.044 90.5 99.1051 90.5 94.1051C90.5 89.1051 89 89.6051 88.5 89.6051C87 89.6051 87 93.4384 87 95.6051V104.105C87 105.772 86.4 109.205 84 109.605C81 110.105 79.7236 106.276 79.5 105.605C79 104.105 78 100.105 77.5 98.6051Z" fill="#443826"/>
<path d="M68.5 82.1048C68.5 79.6047 69.6667 78.9381 70.5 78.6048C72.202 77.9242 74 79.6717 74 82.1048C74 84.1047 73.5 85.6048 71.5 85.6048C70.382 85.6048 68.5 84.6543 68.5 82.1048Z" stroke="#443826"/>
<path d="M83.6396 77.0367C83.7283 75.0877 84.5 73.6063 86 73.1067C87.5 72.607 89.0957 73.8936 89.5 75.1067C90.5 78.107 89 80.607 86.5 80.607C85.9846 80.607 83.5 80.107 83.6396 77.0367Z" stroke="#443826"/>
<path d="M77.5 98.6051C77 97.1051 75.5 97.2718 75 97.6051C73.5 99.1051 75.3481 103.149 76 105.105C77 108.105 79.5 112.105 82 112.605C84 113.005 85.5 112.605 87 111.605C88.8605 110.365 89.5 108.605 90 107.105C90.3536 106.044 90.5 99.1051 90.5 94.1051C90.5 89.1051 89 89.6051 88.5 89.6051C87 89.6051 87 93.4384 87 95.6051V104.105C87 105.772 86.4 109.205 84 109.605C81 110.105 79.7236 106.276 79.5 105.605C79 104.105 78 100.105 77.5 98.6051Z" stroke="#443826"/>
</g>
<defs>
<filter id="filter0_d_159_189" x="0.5" y="0.5" width="170.509" height="191.207" filterUnits="userSpaceOnUse" color-interpolation-filters="sRGB">
<feFlood flood-opacity="0" result="BackgroundImageFix"/>
<feColorMatrix in="SourceAlpha" type="matrix" values="0 0 0 0 0 0 0 0 0 0 0 0 0 0 0 0 0 0 127 0" result="hardAlpha"/>
<feOffset dy="4"/>
<feGaussianBlur stdDeviation="2"/>
<feComposite in2="hardAlpha" operator="out"/>
<feColorMatrix type="matrix" values="0 0 0 0 0 0 0 0 0 0 0 0 0 0 0 0 0 0 0.25 0"/>
<feBlend mode="normal" in2="BackgroundImageFix" result="effect1_dropShadow_159_189"/>
<feBlend mode="normal" in="SourceGraphic" in2="effect1_dropShadow_159_189" result="shape"/>
</filter>
</defs>
</svg>
