<svg width="678" height="413" viewBox="0 0 678 413" fill="none" xmlns="http://www.w3.org/2000/svg">
<g clip-path="url(#clip0_389_285)">
<path d="M676.763 79.6385C667.339 79.6385 654.547 81.769 654.547 79.6385C648.854 62.5944 642.224 40.8205 628.962 30.0828C625.667 27.3713 621.817 25.4151 617.683 24.3518C601.245 22.1148 584.189 30.6365 578.581 44.7618C576 50.1409 574.136 55.8359 573.038 61.6998C571.865 67.608 571.266 73.6153 571.247 79.6385H545.96C545.958 72.1908 546.745 64.764 548.305 57.4814C552.207 22.1149 588.453 -7.71262 625.188 1.78947C630.089 3.44677 634.777 5.67828 639.153 8.43692C656.673 19.7108 669.144 37.3257 673.949 57.5875C675.81 64.7905 676.755 72.1993 676.763 79.6385Z" fill="#443826"/>
<path d="M133.106 88.6931H107.818C107.827 81.108 106.75 73.5606 104.62 66.2801C100.207 47.6807 83.1506 26.3756 61.8299 32.7672C38.377 41.2892 27.717 64.7249 27.5678 88.6931H2.28061C2.24982 81.2791 3.0801 73.8864 4.75415 66.6634C12.7921 34.8975 42.6412 5.07049 78.8865 9.33152C100.207 11.462 115.132 26.3756 124.15 46.5942C127.067 52.9837 129.283 59.67 130.76 66.536C132.321 73.8186 133.107 81.2454 133.106 88.6931Z" fill="#443826"/>
<path d="M0 75.3776C0 83.8996 0.305972 92.3296 0.917167 100.667C1.83396 107.463 2.77174 114.238 3.77382 121.013C4.77589 127.788 5.90602 134.542 7.09998 141.423C13.2979 192.762 32.6161 241.642 63.195 283.359C66.9901 288.472 70.9768 293.443 75.1557 298.272C99.1261 318.477 124.631 336.791 151.441 353.048C156.757 356.314 162.123 359.531 167.539 362.699C217.472 392.824 272.906 407.738 330.941 412.51C339.209 413.061 347.501 413.153 355.78 412.787C380.544 411.854 405.135 408.246 429.123 402.027C436.23 400.053 443.337 397.853 450.444 395.424C498.759 378.608 542.639 351.083 578.795 314.911C584.381 309.329 589.774 303.577 595.041 297.654C639.622 252.21 665.207 190.425 674.375 125.466C675.548 117.263 676.508 108.997 677.062 100.667C677.616 92.3367 678 83.8783 678 75.3776H640.433C533.019 73.2471 426.416 77.5081 320.814 75.3776H269.366C245.188 75.3776 219.604 73.2471 196.151 71.1165C164.17 70.0513 132.721 72.7144 101.551 74.8449C95.3035 75.271 89.0784 75.6759 82.874 76.0168C57.5663 79.6387 34.1127 77.5081 8.54912 75.3776H0Z" fill="#443826"/>
<path d="M268.812 158.468C260.114 157.552 251.585 157.552 243.057 152.502C232.396 145.791 215.34 132.369 230.264 122.313C228.132 139.08 247.321 152.502 268.642 154.271C289.962 154.271 307.019 142.532 311.283 124.081H317.679C313.415 137.504 302.755 149.243 286.807 155.805C280.986 157.63 274.913 158.529 268.812 158.468Z" fill="#F2F2F2"/>
<path d="M124.002 158.468C100.208 157.019 74.6224 142.105 78.8866 122.249C91.679 138.803 102.339 158.66 132.188 153.695C151.377 150.393 159.905 137.141 164.17 123.868H170.566C168.434 137.099 159.905 148.689 141.889 155.826C136.099 157.627 130.065 158.518 124.002 158.468Z" fill="#F2F2F2"/>
<path d="M193.081 258.602C168.434 258.431 142.849 237.126 144.981 213.861H151.377C149.245 233.249 166.302 246.82 185.491 250.676C217.472 258.431 221.736 229.371 236.66 213.861C234.528 229.371 228.132 246.82 210.394 254.852C204.952 257.308 199.052 258.585 193.081 258.602Z" fill="#F2F2F2"/>
<path d="M345.396 254.617C332.604 254.617 321.943 252.615 313.031 243.305C308.912 239.587 305.571 235.09 303.202 230.074C300.83 224.998 299.601 219.463 299.599 213.861H305.995C305.996 218.678 307.058 223.435 309.108 227.794C311.16 232.132 314.059 236.014 317.636 239.214C328.088 246.972 341.136 250.392 354.052 248.758C371.109 244.881 386.034 229.371 383.901 213.861H390.298C394.562 231.31 379.637 244.881 363.263 250.953C357.552 253.157 351.514 254.395 345.396 254.617Z" fill="#F2F2F2"/>
<path d="M501.038 255.512C494.96 255.537 488.93 254.431 483.257 252.253C475.243 249.218 468.251 243.982 463.087 237.147C460.608 233.832 458.659 230.152 457.309 226.239C455.918 222.259 455.198 218.076 455.177 213.861H461.573C461.614 218.66 462.663 223.397 464.654 227.765C466.645 232.133 469.532 236.033 473.129 239.214C476.805 242.519 481.053 245.125 485.666 246.905C515.941 258.431 532.998 235.187 543.658 213.861C545.79 229.371 535.129 246.82 518.499 252.21C512.944 254.417 507.016 255.538 501.038 255.512Z" fill="#F2F2F2"/>
<path d="M258.344 341.692C234.528 340.541 217.472 326.778 215.34 307.71H221.736C219.604 323.263 238.793 337.09 257.981 337.09C283.566 337.09 289.963 316.36 304.887 304.258C303.901 308.935 302.473 313.508 300.623 317.915C298.414 322.961 294.859 327.302 290.347 330.464C286.011 333.982 281.088 336.708 275.805 338.517C270.19 340.492 264.296 341.564 258.344 341.692Z" fill="#F2F2F2"/>
<path d="M430.317 337.58C405.094 337.09 385.906 319.811 383.773 299.082H390.17C394.434 319.811 413.622 333.638 439.207 331.913C456.264 330.187 471.189 316.36 469.056 302.533C479.717 302.533 475.453 312.908 473.321 318.086C466.924 326.735 460.528 333.639 448.226 335.897C442.395 337.468 436.339 338.037 430.317 337.58Z" fill="#F2F2F2"/>
<path d="M556.472 157.892C530.887 159.149 513.83 140.699 511.698 122.249H518.094C522.359 140.699 539.415 157.488 565 152.438C582.057 149.093 599.113 137.354 596.981 122.249H603.377C605.51 137.354 590.585 149.093 574.168 155.016C568.455 156.892 562.485 157.863 556.472 157.892Z" fill="#F2F2F2"/>
<path d="M413.623 158.468C394.434 157.488 360.321 142.382 373.113 123.932C375.245 133.988 381.642 142.375 392.302 149.094C407.227 155.805 420.019 154.122 434.944 149.094C447.736 144.066 449.868 133.988 454.132 123.932H460.528C458.396 137.354 447.736 150.776 431.447 155.741C425.686 157.58 419.671 158.5 413.623 158.468Z" fill="#F2F2F2"/>
</g>
<defs>
<clipPath id="clip0_389_285">
<rect width="678" height="413" fill="white"/>
</clipPath>
</defs>
</svg>
