<svg width="234" height="171" viewBox="0 0 234 171" fill="none" xmlns="http://www.w3.org/2000/svg">
<g clip-path="url(#clip0_949_584)">
<path d="M78.0631 120.769V104.953H149.261L145.276 0.916748H0L3.98515 104.953H66.8241V120.799C54.6892 121.474 45.5843 124.235 45.5843 127.552C45.5843 131.363 57.6148 134.469 72.4513 134.469C87.2878 134.469 99.3182 131.363 99.3182 127.552C99.3033 124.205 90.1981 121.459 78.0631 120.769Z" fill="#6F95F6"/>
<path d="M139.276 96.7592H15.6135L10.6133 10.1152H134.276L139.276 96.7592Z" fill="#F2F2F2"/>
<path d="M54.9875 47.1049C54.9875 51.0814 52.7639 53.1973 48.5995 53.1973H40.8828V30.5984H48.7788C53.3909 30.5984 55.9131 32.9993 55.9131 37.291C55.9999 38.3765 55.8003 39.4661 55.3337 40.4489C54.8672 41.4318 54.1506 42.2731 53.2566 42.8881C53.8472 43.4106 54.3105 44.0628 54.6107 44.7939C54.9109 45.525 55.0395 46.3156 54.9875 47.1049ZM51.256 37.7112C51.3115 37.3529 51.2829 36.9866 51.1715 36.6418C51.0601 36.2969 50.8689 35.9834 50.6146 35.7263C50.3604 35.4691 50.0496 35.2757 49.7073 35.1617C49.3649 35.0477 49.0006 35.0163 48.6439 35.0701H45.5545V40.4273H48.6439C49.0072 40.4809 49.3779 40.4467 49.7255 40.3277C50.0731 40.2086 50.3878 40.008 50.6431 39.7426C50.8983 39.4772 51.0867 39.1547 51.1933 38.8014C51.3 38.4482 51.3215 38.0744 51.256 37.7112ZM50.3158 46.8048C50.3158 45.3042 49.6589 44.629 48.2409 44.629H45.5545V48.9505H48.2409C49.6589 48.9505 50.3158 48.2604 50.3158 46.8048Z" fill="#443826"/>
<path d="M64.5545 35.0701V40.0522H71.7639V44.2989H64.5545V48.9505H72.8083V53.1973H59.8828V30.5984H72.8083V35.1002L64.5545 35.0701Z" fill="#443826"/>
<path d="M86.9442 48.6505H81.3768L80.3171 53.1523H75.5703L80.75 32.144H87.5863L92.7353 53.1523H88.0636L86.9442 48.6505ZM85.9588 44.4037L84.1827 36.796L82.3767 44.4037H85.9588Z" fill="#443826"/>
<path d="M111.798 32.249V51.5464H106.857L100.887 40.6074V51.5464H96.2305V32.249H101.305L107.141 43.0832V32.249H111.798Z" fill="#443826"/>
<path d="M56.5688 56.8286L50.4344 70.5292V77.7768H45.7627V70.5292L39.5977 56.8286H44.5682L48.1058 65.5922L51.6136 56.8286H56.5688Z" fill="#5EB88A"/>
<path d="M67.0486 74.9408H61.4812L60.4069 79.4425H55.6602L60.8544 58.4343H67.6754L72.8252 79.4425H68.1083L67.0486 74.9408ZM66.0632 70.694L64.2725 63.0863L62.4665 70.694H66.0632Z" fill="#5EB88A"/>
<path d="M86.944 79.4425L80.9735 72.1646V79.4425H76.3164V58.4343H83.6599C88.3169 58.4343 90.8096 60.8053 90.8096 65.217C90.8096 68.7434 89.1081 71.0391 86.0781 71.7744L92.0486 79.3825L86.944 79.4425ZM83.5258 62.9361H80.9735V68.053H83.5258C85.2722 68.053 86.1532 67.2277 86.1532 65.502C86.1532 63.7764 85.3021 62.9361 83.5856 62.9361H83.5258Z" fill="#5EB88A"/>
<path d="M111.454 67.1978V70.7239C111.454 76.3962 108.468 79.4274 102.991 79.4274H95.6172V58.4192H102.991C108.528 58.4342 111.454 61.5105 111.454 67.1978ZM106.796 67.1978C106.796 64.4367 105.453 62.951 102.991 62.951H100.274V75.1806H102.991C105.453 75.1806 106.796 73.6803 106.796 70.9192V67.1978Z" fill="#5EB88A"/>
<path d="M203.607 65.0517C203.197 65.0475 202.787 65.0828 202.384 65.1569C201.997 65.2281 201.617 65.3334 201.249 65.472C194.04 65.9371 195.533 59.9347 192.727 53.7673C192.438 53.3153 192.119 52.8842 191.771 52.477C190.325 50.8234 188.398 49.6686 186.263 49.1758C185.772 49.0591 185.274 48.9787 184.771 48.9354C177.666 47.9301 173.188 52.4319 168.755 55.7632C168.263 56.0783 167.77 56.3786 167.263 56.6637C166.755 56.9488 166.248 57.234 165.77 57.4891C164.558 57.7778 163.382 58.2003 162.262 58.7493C161.198 59.2687 160.197 59.9081 159.277 60.6551C158.745 61.0876 158.247 61.559 157.784 62.0656C152.769 62.5908 147.008 61.1804 141.47 62.2158C140.532 62.3937 139.609 62.6446 138.709 62.9661C131.529 65.9673 125.559 73.4702 129.753 80.9731C130.085 81.7599 130.49 82.5135 130.962 83.224C134.321 88.251 141.067 91.6872 148.874 91.6872C151.199 91.6874 153.514 91.3695 155.755 90.742C156.292 90.5919 156.814 90.4117 157.337 90.2316C162.224 87.2276 167.677 85.2712 173.352 84.4846C173.845 84.3946 174.337 84.3043 174.845 84.1842C178.008 83.4163 180.875 81.7247 183.084 79.3223C185.1 80.595 187.436 81.2615 189.816 81.2431C195.667 81.2431 200.488 77.4466 201.13 72.5397C202.002 72.9368 202.949 73.1417 203.906 73.1401C206.891 73.1401 209.264 71.3245 209.264 69.0736C209.264 66.8227 206.563 65.0517 203.607 65.0517Z" fill="#443826"/>
<path d="M139.292 81.9784C138.889 82.1917 138.448 82.3218 137.994 82.3605C137.54 82.3991 137.083 82.3458 136.65 82.2037L135.456 82.3085C125.381 82.4435 126.874 88.446 129.859 92.9478C131.351 98.9501 124.336 108.629 121.978 124.94C121.709 126.756 121.485 128.602 121.291 130.447C120.903 133.449 120.903 134.949 122.232 140.276C122.529 141.667 122.903 143.039 123.351 144.388C126.051 151.106 130.513 156.961 136.262 161.33C137.423 162.231 138.628 163.072 139.874 163.851C149.576 169.853 161.263 170.228 172.577 170.528L177.384 170.678C192.548 169.478 207.474 170.978 222.356 164.181C223.881 163.389 225.334 162.465 226.699 161.419C237.819 152.716 232.67 141.132 228.087 138.626C223.893 136.465 221.908 133.929 222.221 132.443C222.908 129.292 223.893 124.46 221.848 119.673C221.848 119.673 221.595 116.822 221.415 115.396C222.401 101.891 220.908 95.8889 213.445 85.3847C211.952 83.8842 214.938 80.8831 214.669 78.4222C214.22 77 213.248 75.8035 211.952 75.0759C212.146 75.0759 211.251 63.6714 199.265 69.7638C194.041 73.3802 188.07 70.379 183.428 67.4678C176.129 64.3766 171.652 76.3812 164.801 72.2095L163.308 71.7743C161.705 71.2553 160.013 71.0767 158.338 71.2493C157.755 71.3789 157.189 71.5751 156.651 71.8344C154.487 73.1399 153.905 74.5956 152.501 75.7361C152.203 75.9835 151.883 76.2043 151.546 76.3962C147.815 79.3974 141.844 74.8958 140.128 80.6731C139.829 81.1082 139.561 81.5132 139.292 81.9784Z" fill="#FFD200"/>
</g>
<defs>
<clipPath id="clip0_949_584">
<rect width="233.354" height="169.791" fill="white" transform="translate(0 0.886719)"/>
</clipPath>
</defs>
</svg>
