<svg width="191" height="163" viewBox="0 0 191 163" fill="none" xmlns="http://www.w3.org/2000/svg">
<g clip-path="url(#clip0_903_1222)">
<path d="M136.015 22.942C131.423 19.3787 131.423 13.5563 126.935 9.79502C126.048 8.94976 125.1 8.17132 124.099 7.46607C116.333 2.00469 107.126 7.05857 98.2674 8.9916C97.1863 9.17792 96.1284 9.32916 95.0821 9.43396C93.6967 9.57239 92.2977 9.45391 90.9551 9.08456C81.2248 3.61154 73.6102 6.02222 63.6009 7.55932C62.7123 7.68566 61.8071 7.6189 60.9466 7.36373C60.0861 7.10855 59.2903 6.6709 58.6136 6.08042C56.4397 4.19397 55.1262 4.04243 52.3943 3.29717C47.7442 1.91144 45.4191 0.118144 40.7108 1.24768C39.9319 1.52716 39.1531 1.82994 38.3858 2.14435C37.6185 2.45876 36.8629 2.79658 36.0607 3.14592C29.0856 5.405 30.0505 13.0322 29.0856 13.5562C22.1104 14.7207 15.8212 16.7118 11.4036 25.655C10.9038 26.6564 10.4618 27.6697 10.0549 28.7061C1.18486 42.6797 3.51003 49.6665 5.23056 61.2297C5.43982 62.5106 5.67245 63.7799 5.93983 65.0376C8.64872 77.5022 15.5326 88.6637 25.4484 96.6685C35.3643 104.673 47.7152 109.04 60.4505 109.043C72.1307 109.063 83.5202 105.396 93.0012 98.5628C97.554 106.23 104.069 112.539 111.872 116.838C119.676 121.138 128.484 123.271 137.386 123.017C147.524 122.736 157.332 119.346 165.485 113.305C166.484 112.575 167.449 111.799 168.379 110.976C169.135 110.37 169.879 109.812 170.6 109.101C171.32 108.391 172.018 107.797 172.704 107.11C173.634 106.19 174.518 105.235 175.366 104.257C176.215 103.279 177.005 102.278 177.761 101.253C184.806 91.576 189.456 79.9313 186.201 68.0303C186.05 67.157 185.864 66.2836 185.654 65.4103C185.445 64.5369 185.213 63.6636 184.945 62.8019C184.678 61.9401 184.515 60.8689 184.259 59.9256C184.004 58.9824 183.725 58.039 183.422 57.1191C183.004 55.8731 182.551 54.6505 182.039 53.4628C180.074 50.5749 178.075 47.5007 175.936 44.4964C175.215 43.4949 174.494 42.5051 173.738 41.5269C169.469 35.4175 163.572 30.6322 156.719 27.7161C152.29 25.2009 140.665 26.3655 136.015 22.942Z" fill="#443826"/>
<path d="M188.329 162.609C169.382 161.444 150.382 161.444 131.435 162.609H87.1079C59.2887 162.609 32.5506 163.773 4.56864 160.944L4.39438 156.961C3.35973 134.393 2.26706 112.339 1.30216 89.0957L1.09271 85.0314C1.01133 83.669 0.941634 82.3068 0.860257 80.9327C0.77888 79.5587 0.720833 77.9517 0.651082 76.5776L0.0930928 64.432C0.0930928 63.1627 0 62.4641 0 62.4641C2.96436 62.5262 5.9297 62.4173 8.88156 62.138L11.9042 62.0217C14.2293 61.882 16.5543 61.7655 18.8794 61.6723C20.0419 61.6141 21.2045 61.579 22.4484 61.5324C45.3618 61.2995 69.7747 60.1352 92.9554 59.0639L95.7573 58.959L190.677 55.4656L190.503 63.7451C190.503 64.7698 190.503 65.8876 190.433 67.087C190.677 78.7317 190.677 91.5411 190.677 103.349C190.677 104.513 190.677 105.678 190.677 106.9C190.694 110.524 190.442 114.144 189.922 117.73C189.864 119.092 189.817 120.455 189.759 121.806C189.433 129.957 189.027 138.108 188.678 145.864C188.678 146.632 188.678 147.378 188.678 148.111C188.364 152.117 188.364 156.775 188.399 160.792C188.329 161.98 188.329 162.609 188.329 162.609Z" fill="#5EB88A"/>
<path d="M41.0371 115.436V109.043C41.0371 100.752 46.1869 95.5002 54.2549 95.5002C62.3228 95.5002 66.7406 99.7156 67.2521 108.228H57.8123C57.3472 105.352 56.6499 104.49 54.1737 104.49C51.6975 104.49 50.4767 106.074 50.4767 109.09V115.925C50.4767 118.929 51.7673 120.525 54.1737 120.525C56.9638 120.525 57.5216 119.36 57.8123 116.309H67.2521C66.9615 121.119 65.3572 124.542 62.602 126.615C62.2943 126.852 61.9719 127.07 61.637 127.267C60.6309 127.733 59.5789 128.092 58.4983 128.338L57.4518 128.536C53.4992 128.897 51.1743 128.897 47.6867 127.64C47.338 127.465 47.0007 127.279 46.6868 127.081C43.1062 124.787 41.0371 120.688 41.0371 115.436Z" fill="#F2F2F2"/>
<path d="M86.6658 122.865H80.2138L79.1909 128.362H69.623L76.3541 95.6982H90.5601L97.2912 128.362H87.7236L86.6658 122.865ZM85.1196 114.353L83.4456 105.037L81.7251 114.353H85.1196Z" fill="#F2F2F2"/>
<path d="M110.266 102.347V107.005H119.973V115.552H110.266V126.033H100.826V93.3691H101.721L102.884 93.4624C103.291 93.4624 103.686 93.5204 104.105 93.532C107.746 93.8543 111.403 93.9437 115.055 93.7998H116.218C117.381 93.73 118.543 93.6368 119.543 93.5087L120.612 93.4158H121.508V102.394H110.173L110.266 102.347Z" fill="#F2F2F2"/>
<path d="M134.213 105.549V110.324H143.909V118.824H134.213V123.296H145.548V131.808H139.875C135.151 132.286 130.392 132.286 125.669 131.808H124.773V96.5598H131.342C135.429 96.1868 139.542 96.1868 143.63 96.5598H145.548V105.549H134.213Z" fill="#F2F2F2"/>
</g>
<defs>
<clipPath id="clip0_903_1222">
<rect width="190.689" height="161.955" fill="white" transform="translate(0 0.886719)"/>
</clipPath>
</defs>
</svg>
