<svg width="114" height="114" viewBox="0 0 114 114" fill="none" xmlns="http://www.w3.org/2000/svg">
<circle cx="57" cy="57" r="57" fill="#F2F2F2"/>
<g clip-path="url(#clip0_627_306)">
<path d="M37.6906 49.5697C37.6906 53.3085 35.577 55.3111 31.593 55.3154H24.2152L24.1978 34.0258H31.7449C36.1499 34.0258 38.5629 36.2733 38.5672 40.3215C38.5672 42.7367 37.6558 44.619 36.0327 45.5945C37.083 46.4067 37.6862 47.7776 37.6906 49.5697ZM34.1145 40.7255C34.1145 39.0366 33.2986 38.233 31.619 38.2373H28.6679V43.2524H31.6321C33.3029 43.2438 34.1145 42.4144 34.1145 40.7255ZM33.2465 49.2903C33.2465 47.8894 32.6172 47.2404 31.2545 47.2447H28.6679V51.3187H31.2371C32.6085 51.3144 33.2378 50.6655 33.2335 49.2903H33.2465Z" fill="#423828"/>
<path d="M46.8217 38.2158V42.9129H53.7135V46.9095L46.8304 46.9181V51.3058H54.7203V55.3025H42.3733L42.3603 34.0258H54.7029V38.2287L46.8217 38.2158Z" fill="#423828"/>
<path d="M68.2521 50.9836H62.9531L61.9332 55.281H57.4023L62.3281 35.5471H68.838L73.8028 55.2553H69.2937L68.2521 50.9836ZM67.293 46.987L65.557 39.8231L63.821 46.9913L67.293 46.987Z" fill="#423828"/>
<path d="M91.9739 35.5041L92 53.6737H87.2825L81.5539 43.3598V53.6737H77.0968L77.0707 35.5041H81.9227L87.5169 45.6934V35.4955L91.9739 35.5041Z" fill="#423828"/>
<path d="M39.2225 58.719L33.3723 71.6114V78.4401H28.9239V71.6157L23.0087 58.7233H27.7522L31.146 66.9744L34.4877 58.7147L39.2225 58.719Z" fill="#5EB88A"/>
<path d="M49.2607 75.7112H43.94L42.9201 80.0086H38.3893L43.3151 60.2704H49.8249L54.7811 79.9871H50.2849L49.2607 75.7112ZM48.3103 71.7188L46.5743 64.555L44.8384 71.7231L48.3103 71.7188Z" fill="#5EB88A"/>
<path d="M68.2912 79.9613L62.5668 73.1326V79.9828H58.1141L58.0924 60.2402H65.123C69.5758 60.2402 71.9671 62.462 71.9714 66.6134C71.9714 69.9353 70.357 72.0926 67.4449 72.7974L73.1952 79.9527L68.2912 79.9613ZM64.9928 64.4431H62.5538V69.2692H64.9928C66.668 69.2692 67.5056 68.4871 67.5056 66.854C67.5056 65.221 66.6984 64.4431 64.9928 64.4431V64.4431Z" fill="#5EB88A"/>
<path d="M91.7049 68.4055V71.7274C91.7049 77.0734 88.9143 79.9313 83.6197 79.9399H76.5673L76.5457 60.2403H83.5936C88.8883 60.2059 91.6962 63.0551 91.7049 68.4055ZM87.2565 68.4055C87.2565 65.827 85.9545 64.4088 83.611 64.4131H81.0071V75.9346H83.611C85.9719 75.9346 87.2522 74.5251 87.2478 71.9036L87.2565 68.4055Z" fill="#5EB88A"/>
</g>
<defs>
<clipPath id="clip0_627_306">
<rect width="69" height="46" fill="white" transform="translate(23 34)"/>
</clipPath>
</defs>
</svg>
