<svg width="245" height="286" viewBox="0 0 245 286" fill="none" xmlns="http://www.w3.org/2000/svg">
<g clip-path="url(#clip0_458_457)">
<path d="M220.955 167.576L215.037 173.287L209.127 167.309L207.112 165.27C205.544 163.618 203.966 161.972 202.38 160.333L199.995 157.884L189.666 147.451L187.084 144.841C179.765 136.661 172.144 128.377 163.779 121.292L161.186 118.668L156.208 113.641L153.72 111.132C146.674 102.597 139.97 94.8558 131.278 88.4514C130.429 87.6257 129.595 86.7902 128.759 85.9469C119.597 76.7047 110.403 67.4548 101.177 58.1974L98.7991 55.7466C95.6216 52.4698 92.4539 49.1761 89.2964 45.8651L86.8432 43.3807L74.1378 30.5046L84.5621 20.4387L86.6909 22.7377L89.2344 25.4858C96.6955 33.887 104.265 42.2286 111.943 50.5112L114.242 52.9982L134.573 75.2019L136.839 77.6714C143.783 85.2253 152.324 90.9122 157.295 99.8852C158.052 100.718 158.813 101.546 159.578 102.367C162.618 105.656 165.671 108.944 168.737 112.229C169.573 113.118 170.41 114.016 171.283 114.899C179.479 120.226 185.442 128.152 191.471 136.337C192.317 137.241 193.167 138.128 194.017 139.008C197.422 142.566 200.844 146.107 204.284 149.628C205.061 150.458 205.835 151.288 206.607 152.119C208.156 153.785 209.702 155.456 211.243 157.133L213.181 159.216L220.955 167.576Z" fill="#FFD200"/>
<path d="M243.279 242.325L242.155 245.135L238.935 253.174L234.25 250.604C233.639 250.28 232.984 249.918 232.27 249.526C220.69 243.827 209.519 237.247 198.257 230.86L195.434 229.265C165.099 212.78 134.88 197.265 104.149 177.891C95.9253 172.631 85.781 168.828 76.8334 163.812C57.7265 152.582 38.1534 144.724 20.0514 133.358L18.4025 132.457L17.0417 131.709L21.9612 123.155C22.4437 122.572 22.8635 121.937 23.2921 121.309C25.9486 118.283 28.7767 112.483 29.5085 112.237C37.4237 116.017 45.0808 120.057 52.5737 124.27C53.6387 124.867 54.7038 125.463 55.7676 126.098L61.9523 130.019L65.0435 131.972L68.1434 133.931L71.242 135.883L74.3407 137.835L77.4319 139.788C90.2299 148.812 104.733 155.966 117.87 165.026L120.989 166.966C140.727 179.213 160.506 191.42 180.328 203.585L183.452 205.509C187.229 206.892 189.654 209.296 192.826 211.274L195.951 213.199L210.586 222.21L213.518 224.043C220.373 228.695 227.142 232.04 234.006 236.652L236.923 238.487L242.769 242.093L243.279 242.325Z" fill="#5EB88A"/>
<path d="M170.233 254.901L167.982 260.876L160.777 259.832L157.216 259.326C144.249 257.408 130.842 255.772 118.085 253.68L115.108 253.248L110.872 252.637L112.622 243.652L114.595 244.043L116.887 244.489C131.343 249.501 147.507 249.131 162.964 253.52L165.966 254.103L170.233 254.901Z" fill="#6F95F6"/>
</g>
<defs>
<clipPath id="clip0_458_457">
<rect width="205.02" height="254.938" fill="white" transform="translate(0.822754 34.3623) rotate(-9.45029)"/>
</clipPath>
</defs>
</svg>
