<svg width="151" height="118" viewBox="0 0 151 118" fill="none" xmlns="http://www.w3.org/2000/svg">
<g clip-path="url(#clip0_458_470)">
<path d="M128.211 49.3091C127.826 50.7229 127.076 52.0108 126.036 53.0424C124.809 54.2477 123.383 55.2315 121.821 55.9509C120.915 56.3771 119.986 56.7503 119.037 57.0686C96.5816 62.5674 74.6132 55.0241 52.8634 49.8655L49.4711 48.5062C38.2803 43.9354 27.8091 38.401 19.6023 29.7092C19.0301 28.9393 18.518 28.1265 18.0708 27.2779C16.8476 25.2076 16.4532 22.7512 16.9663 20.402C18.0407 16.2637 22.5392 13.3273 29.3595 11.6561C30.4984 11.3812 31.7017 11.1414 32.9501 10.941C46.4122 9.78552 59.9709 10.6051 73.1959 13.3737C74.5306 13.6558 75.8501 13.9614 77.1714 14.2952C95.6609 19.9602 117.629 27.5037 128.024 44.8893C128.499 46.3159 128.564 47.8475 128.211 49.3091Z" fill="#6F95F6"/>
<path d="M16.96 20.4274C15.7529 23.5874 14.7896 26.8354 14.0788 30.1427C13.7722 31.3239 13.5511 32.6009 13.3207 33.9491C11.2128 45.6135 10.9109 58.2622 15.2687 68.7709C15.7566 69.9474 16.3059 71.0973 16.9142 72.2163C17.6836 73.2933 18.4877 74.3428 19.3268 75.3643C20.1659 76.3858 21.0298 77.3831 21.9183 78.3561C40.9342 99.6823 73.9194 107.325 100.559 94.9616C101.388 94.4592 102.188 93.9306 102.973 93.3889C121.059 80.7927 126.688 57.4074 127.926 50.9741C128.13 49.9044 128.211 49.3088 128.211 49.3088C123.915 49.445 120.052 46.6017 115.45 45.6831L111.77 44.5803C109.311 43.8409 106.866 43.1236 104.416 42.4232C103.183 42.1031 101.974 41.7247 100.746 41.3874C99.5175 41.0501 98.2887 40.7495 97.0645 40.4316C95.8403 40.1138 94.616 39.796 93.3918 39.4782C88.4791 38.2673 83.5348 37.2138 78.5406 36.4235L75.5662 35.6513C59.9319 30.0833 42.2413 27.3313 26.3377 22.8713L16.9663 20.4384L16.96 20.4274Z" fill="#6F95F6"/>
<path d="M125.129 58.9085C129.236 57.2691 135.047 59.698 132.842 64.6471C128.656 73.683 120.83 79.0131 111.813 80.9604C110.58 81.349 109.531 81.7394 108.631 82.1223C98.7414 86.328 107.472 89.8095 107.472 89.8095C107.472 89.8095 108.29 89.7088 109.671 89.4599C111.952 88.7913 114.224 88.1569 116.457 87.4576C117.569 87.1112 118.674 86.754 119.774 86.3772C132.032 81.9487 144.458 69.5305 143.919 56.507C143.5 55.4644 142.844 54.5346 142.001 53.7917C140.193 52.3512 138.015 51.4506 135.718 51.1941C134.523 51.0184 133.318 50.9238 132.111 50.9109C127.373 50.3713 119.805 51.1673 121.094 57.8978C121.679 58.5188 122.906 58.9295 125.129 58.9085Z" fill="#6F95F6"/>
<path d="M116.048 50.0446C97.4372 62.8175 70.9676 51.3444 51.2995 46.5329C50.1324 46.1011 48.9613 45.6498 47.8118 45.1858C39.716 41.9154 32.2042 37.6004 27.7359 29.9986C25.0349 26.2238 28.1721 23.5686 32.3224 22.1153C33.3734 21.7491 34.4506 21.4628 35.5448 21.2588C47.8876 20.5307 60.2713 21.5613 72.324 24.3193C73.6664 24.631 75.0027 24.9779 76.3329 25.36C90.6075 28.8633 101.558 36.3075 113.495 43.5013C114.318 44.4827 115.062 45.5283 115.72 46.628C116.195 47.7017 116.31 48.9002 116.048 50.0446Z" fill="#443826"/>
</g>
<defs>
<clipPath id="clip0_458_470">
<rect width="133.243" height="86.9879" fill="white" transform="translate(21.8579) rotate(14.553)"/>
</clipPath>
</defs>
</svg>
