<svg width="132" height="116" viewBox="0 0 132 116" fill="none" xmlns="http://www.w3.org/2000/svg">
<g clip-path="url(#clip0_458_427)">
<path d="M3.07289 70.9935C2.72649 71.8504 2.42469 72.7298 2.13416 73.6312C0.793622 78.2003 0.0758743 82.9279 0 87.6873C0 88.6111 0.0892948 89.5351 0.178688 90.4588C1.49724 101.733 6.77136 114.709 19.1076 115.889C22.9825 116.276 26.8833 115.468 30.2817 113.574C31.4017 112.978 32.474 112.297 33.4888 111.537C38.0984 107.937 41.8655 103.379 44.5287 98.1824C44.9422 97.4034 45.3445 96.6244 45.7245 95.812C46.9075 93.3098 47.9045 90.7244 48.7079 88.077C49.2219 86.4187 49.6579 84.7384 50.0266 82.9688C50.3954 81.1993 50.6971 79.4963 50.8982 77.7824C51.0994 76.0685 51.2445 74.3768 51.3003 72.7074C51.3562 71.0381 51.3003 69.3688 51.3003 67.8107C50.7305 56.815 46.8308 43.6714 35.2433 40.2436C18.7838 35.3912 7.83303 51.8624 4.9948 66.0967C4.50314 67.4656 4.01141 68.8124 3.53093 70.1034L3.07289 70.9935Z" fill="#443826"/>
<path d="M19.1526 100.709C22.5719 93.5972 22.7061 86.018 24.8403 79.0622C25.1532 77.6154 25.4883 76.1576 25.8347 74.6997C27.9243 65.9298 30.3716 57.0262 28.539 48.0449C28.1591 48.223 27.5778 48.9686 27.1867 49.1578C27.1867 57.9611 25.5553 66.208 23.8345 74.6105C23.5328 76.0128 23.2313 77.4151 22.9408 78.8286C21.6222 85.6174 19.5884 92.1835 18.3481 99.5399C18.3051 99.8004 18.3649 100.068 18.5148 100.285C18.6647 100.503 18.8931 100.655 19.1526 100.709Z" fill="#F2F2F2"/>
<path d="M84.376 17.684C83.5253 18.2068 82.7113 18.7869 81.9399 19.4202C81.158 20.0498 80.4119 20.7224 79.7051 21.4347C68.2739 31.3842 61.0109 53.509 75.9507 64.1931C85.9404 70.1138 97.8855 67.0976 106.378 60.6092C107.784 59.9254 109.146 59.1562 110.456 58.3057C111.732 57.4662 112.96 56.5557 114.133 55.5788C114.904 54.9333 115.641 54.2546 116.367 53.5535C122.39 47.2202 127.132 39.7916 130.335 31.6732C130.794 30.3252 131.167 28.9503 131.453 27.5557C132.697 21.837 131.882 15.8643 129.151 10.6836C128.716 9.73741 128.196 8.83207 127.597 7.97904C126.976 7.08844 126.273 6.25758 125.497 5.49724C124.359 4.36148 123.087 3.36779 121.709 2.53724C120.453 1.77093 119.105 1.16506 117.697 0.734173C103.528 -3.14993 94.2317 9.24795 85.2365 17.0607L84.376 17.684Z" fill="#443826"/>
<path d="M82.4982 49.3135C90.0072 45.0621 94.8568 36.5371 100.645 30.9057C101.494 29.9374 102.355 28.9691 103.204 27.9897C104.053 27.0103 104.914 26.0425 105.752 25.052C109.177 21.1457 112.226 16.9274 114.859 12.4533C115.286 11.4122 115.659 10.3499 115.976 9.27051C115.552 9.27051 114.68 9.63784 114.266 9.61558C113.741 10.5838 113.205 11.5299 112.646 12.4424C110.047 16.6362 107.097 20.6049 103.83 24.3064C103.025 25.2412 102.221 26.165 101.405 27.0887L98.9689 29.8596C93.3818 35.4242 87.8619 42.5135 82.3307 47.9446C82.2491 48.0445 82.1887 48.16 82.1529 48.2837C82.117 48.4074 82.1067 48.5368 82.1223 48.6646C82.138 48.7924 82.1793 48.9156 82.244 49.0271C82.3086 49.1386 82.3949 49.2361 82.4982 49.3135Z" fill="#F2F2F2"/>
</g>
<defs>
<clipPath id="clip0_458_427">
<rect width="132" height="116" fill="white"/>
</clipPath>
</defs>
</svg>
