<svg width="193" height="244" viewBox="0 0 193 244" fill="none" xmlns="http://www.w3.org/2000/svg">
<g clip-path="url(#clip0_458_432)">
<path d="M168.92 58.6303C168.92 58.6303 173.81 7.89036 184.52 19.4204C195.23 30.9504 187.33 86.6704 187.33 86.6704L181.33 79.5302C181.33 79.5302 186.9 35.41 181.94 32.31C176.98 29.21 174.94 64.4599 174.94 64.4599L168.92 58.6303Z" fill="#5EB88A"/>
<path d="M192.39 66.3095C191.706 64.9643 190.797 63.7465 189.7 62.7094C180.7 53.8195 154.7 45.0897 121.63 39.9697L118.63 39.5097C116.204 38.8431 113.734 38.2495 111.22 37.7295C109.974 37.4695 108.714 37.2297 107.44 37.0097C96.0303 33.4497 84.0303 35.4498 71.9403 35.3198L68.6402 35.2095C30.3902 34.0195 1.79038 38.4194 0.800383 48.7094C0.400383 52.8294 4.47025 57.3898 11.9102 61.8598C12.9702 62.4998 14.1004 63.1297 15.3204 63.7597C45.0004 76.4497 78.0003 84.4497 111 85.4497C137 86.4497 174.87 90.0297 193 67.4497C193 67.4497 193 67.4995 192.39 66.3095Z" fill="#5EB88A"/>
<path d="M160.49 46.8202C160.49 43.7502 159.25 39.8202 159.04 36.6102C159.026 36.3384 158.965 36.0711 158.86 35.8202C158.56 35.1202 158.22 34.4299 157.86 33.7499C156.941 32.1054 155.873 30.5489 154.67 29.1C154.1 28.4007 153.492 27.7331 152.85 27.1C152.764 27.0181 152.674 26.9413 152.58 26.87C147.91 23.36 142.94 18.4799 136.01 20.4599C129.08 22.4398 123.35 28.0198 117.01 23.4599C105.21 14.9599 99.6198 13.5299 90.6198 16.5199C90.2808 16.6321 89.9209 16.6677 89.5666 16.6239C89.2122 16.5801 88.8722 16.4579 88.5707 16.2665C88.2693 16.0751 88.0141 15.8195 87.8236 15.5175C87.6332 15.2154 87.5123 14.8744 87.4696 14.5199C86.9196 10.2699 85.2396 2.63005 75.9296 0.660046C67.2196 -1.33995 64.3196 1.35989 61.4696 3.49989C60.6191 3.96578 59.7206 4.33831 58.7897 4.61024C49.1397 8.92024 41.7896 16.26 39.9596 27.16C39.8796 27.47 39.7997 27.79 39.7297 28.16C39.6085 28.7055 39.2999 29.191 38.8578 29.5326C38.4157 29.8742 37.8681 30.0505 37.3097 30.0302C26.2497 29.6502 15.3097 35.18 15.3097 48.16C15.2334 49.0044 15.2067 49.8526 15.2297 50.7001C15.3173 52.956 15.7978 55.1792 16.6496 57.2699C17.0483 58.2607 17.5337 59.2144 18.0998 60.12C18.1507 60.2039 18.2074 60.2844 18.2697 60.3602C21.3343 64.6493 25.8138 67.7194 30.9196 69.0302C31.4811 69.1767 31.9729 69.5167 32.3078 69.9906C32.6427 70.4646 32.7991 71.0418 32.7497 71.62C32.0497 81 38.7497 90.6201 47.7497 92.9701C49.0601 93.4262 50.3956 93.807 51.7497 94.1102C53.1686 94.4176 54.6045 94.6412 56.0497 94.7802C64.6397 95.6102 72.5598 93.3599 77.8698 89.2099C78.7433 88.5351 79.5593 87.7893 80.3097 86.9799C80.5455 86.7159 80.8362 86.5069 81.1615 86.3676C81.4869 86.2282 81.839 86.1623 82.1928 86.1737C82.5465 86.1852 82.8935 86.2739 83.2091 86.434C83.5248 86.5941 83.8015 86.8213 84.0197 87.1L84.4196 87.6C85.2294 88.5815 86.1121 89.5008 87.0597 90.35C89.9603 92.9464 93.4354 94.8176 97.1996 95.81C98.4385 96.1434 99.7028 96.3741 100.98 96.4999C101.106 96.5099 101.233 96.5099 101.36 96.4999C105.14 96.4099 110.99 94.4999 113.94 95.4999C127.94 101.5 144.94 97.4999 155.94 86.4999C158.94 82.4999 171.94 81.5002 174.08 72.3202C174.416 71.1742 174.644 69.9987 174.76 68.81C174.834 67.8547 174.834 66.8955 174.76 65.9403C174.711 65.0124 174.591 64.0894 174.4 63.1801C174.47 57.7301 168.69 52.0101 163.15 49.4901C162.94 49.3918 162.718 49.3242 162.49 49.2899C161.914 49.1889 161.395 48.8835 161.027 48.4296C160.66 47.9756 160.469 47.404 160.49 46.8202Z" fill="#443826"/>
<path d="M20.1201 62.4996C20.1801 60.2396 20.2501 57.9796 20.3701 55.7696C20.3701 54.8696 20.4199 53.9496 20.4399 53.0196C20.7499 36.2896 19.79 15.7396 13.77 9.24956C3.06002 -2.29044 0.77002 48.7095 0.77002 48.7095L1 49.4498C0.95 55.7798 0.15 195.11 0 211.81C0 212.88 0 213.45 0 213.45C23.75 233.04 54.2001 242.45 85.0601 243.51C86.6901 243.57 88.3099 243.61 89.9399 243.62C115 242.45 141 239.45 164.45 227.86C164.45 227.86 164.53 227.45 164.66 226.69C165.5 220.29 165.81 213.98 166.57 207.86C166.72 206.64 166.89 205.42 167.08 204.21C173 174.45 177 143.45 184.08 113.94C184.29 112.86 184.49 111.78 184.68 110.72C189 96.4498 191 81.4498 193 67.4498C140.82 97.4498 73.7001 89.0796 20.1201 62.4996ZM4.32007 52.0997C4.87007 44.4497 7.00996 19.4997 11.21 22.0997C14.51 24.1697 14.3 44.5698 13.79 57.9498C13.79 58.3298 13.79 58.6999 13.74 59.0699C12.8 58.4599 11.86 57.8495 10.96 57.2095C8.60996 55.6095 6.40007 53.8797 4.32007 52.0997Z" fill="#5EB88A"/>
<path d="M11.6802 114.9C13.9702 113.9 15.2601 115.23 16.9001 115.74L19.3003 116.69C27.9603 120.93 38.2403 123.24 48.5803 126.83C49.5803 127.13 50.5803 127.41 51.5803 127.7C61.4255 130.552 71.4469 132.757 81.5803 134.3C82.8503 134.49 84.1301 134.66 85.4001 134.83C106.01 137.45 127.01 137.45 147.34 132.89L151.26 132.13C152.57 131.87 153.86 131.62 155.16 131.38C156.16 131.09 157.09 130.79 158.04 130.47C160.907 129.53 163.734 128.47 166.52 127.29L168.84 126.23C169.252 125.991 169.713 125.849 170.187 125.814C170.662 125.779 171.138 125.853 171.58 126.03L172.17 127.19C172.025 127.651 171.774 128.072 171.437 128.419C171.1 128.766 170.687 129.03 170.23 129.19L167.85 130.31C166.28 131.11 164.62 131.67 162.99 132.31C162.1 132.65 161.2 132.97 160.3 133.31C159.4 133.65 158.49 133.93 157.58 134.22L153.64 135.09L149.64 135.97C129.598 140.473 108.932 141.508 88.5403 139.03L84.1401 138.38C73.8401 136.86 63.6702 134.98 53.7102 132.52C52.7635 132.293 51.8137 132.053 50.8604 131.8C40.4404 127.42 27.4304 126.17 17.8604 120.33L15.4502 119.33C13.9002 118.52 12.0102 118.49 11.1602 116.1L11.7002 114.91L11.6802 114.9Z" fill="#F2F2F2"/>
</g>
<defs>
<clipPath id="clip0_458_432">
<rect width="193" height="243.62" fill="white"/>
</clipPath>
</defs>
</svg>
